<?xml version="1.0" standalone="no"?>
<!DOCTYPE svg PUBLIC "-//W3C//DTD SVG 1.1//EN" "http://www.w3.org/Graphics/SVG/1.1/DTD/svg11.dtd" >
<svg>
<metadata>
Created by FontForge 20120731 at Wed Mar 19 07:43:29 2025
 By www
Copyright (c) 2002, 2005, 2010 Parachute, www.parachute.gr. All rights reserved.
</metadata>
<defs>
<font id="PFDinTextArabicW21-Medium" horiz-adv-x="494" >
  <font-face 
    font-family="PFDinTextArabicW21-Medium"
    font-weight="500"
    font-stretch="normal"
    units-per-em="1000"
    panose-1="2 0 5 6 2 0 0 2 0 4"
    ascent="800"
    descent="-200"
    x-height="495"
    cap-height="696"
    bbox="-204 -452 1126 974"
    underline-thickness="50"
    underline-position="-125"
    unicode-range="U+0020-FEFC"
  />
<missing-glyph horiz-adv-x="450" 
d="M0 0v700h450v-700h-450zM109 73h232l-116 210zM225 418l116 209h-233zM73 554v-407l111 204zM266 349l111 -202v407z" />
    <glyph glyph-name="uniFDF2" unicode="&#xfedf;&#xfee0;&#xfeea;" horiz-adv-x="1066" arabic-form="isolated" 
d="M821 113q31 0 49 13t26.5 36t8.5 54v510h103v-548q0 -43 -13.5 -77t-37.5 -56t-57 -33.5t-72 -11.5q-45 0 -82.5 15.5t-60.5 43.5q-23 -27 -60.5 -43t-83.5 -16q-62 0 -102 21t-58 56q-29 -22 -68 -34t-75 -12q-88 0 -134 43.5t-46 116.5q0 36 14 73t48 72t95.5 61.5
t149.5 37.5v43h105v-285q0 -24 10 -44t30 -28.5t41 -8.5q19 0 39.5 9.5t32.5 33.5t12 53v418h103v-412q0 -29 8.5 -51.5t26.5 -36t48 -13.5zM168 205q0 -30 20 -48t57 -18q63 0 92 31t29 92v71q-101 -12 -149.5 -47t-48.5 -81z" />
    <glyph glyph-name="uniFDFC" unicode="&#x631;&#xfef3;&#xfe8e;&#x644;" horiz-adv-x="1157" arabic-form="isolated" 
d="M807 452h103v-266q0 -89 -50.5 -137.5t-137.5 -48.5q-48 0 -90 19.5t-64 61.5t-22 95v550h103v-517q0 -44 19 -70t59 -26q19 0 38 9t30.5 32.5t11.5 54.5v243zM795 -167h-90v94h90v-94zM674 -167h-91v94h91v-94zM470 626v-633q0 -42 -13.5 -78.5t-40 -63.5t-66 -42
t-87.5 -15q-97 0 -151 51.5t-54 137.5v299h103v-267q0 -47 25 -77.5t78 -30.5q52 0 77.5 32t25.5 81v606h103zM871 -94q68 0 96.5 28t28.5 83v370h103v-376q0 -84 -26 -129.5t-75 -66.5t-127 -21v112z" />
    <glyph glyph-name="uniFEF5" unicode="&#xfedf;&#xfe82;" horiz-adv-x="508" arabic-form="isolated" 
d="M450 726v-504q0 -77 -25.5 -127t-72 -76t-115.5 -26q-55 0 -104.5 23t-82.5 60l74 87q23 -25 54 -39.5t56 -14.5q53 0 83 28.5t30 96.5v492h103zM115 696h103v-488h-103v488zM143 772l-14 -6l-70 -38v72l91 52h14q8 -19 19.5 -32t43.5 -13h76v-62h-76q-35 0 -53 5t-31 22
z" />
    <glyph glyph-name="uniFEF6" unicode="&#xfee0;&#xfe82;" horiz-adv-x="533" arabic-form="final" 
d="M115 696h103v-488h-103v488zM241 -6q-58 0 -108 22.5t-83 59.5l73 86q24 -27 54.5 -40t56.5 -13q57 0 85 29t28 96v492h103v-528q0 -86 83 -86v-112q-99 0 -130 60q-27 -33 -73 -49.5t-89 -16.5zM143 772l-14 -6l-70 -38v72l91 52h14q8 -19 19.5 -32t43.5 -13h76v-62h-76
q-35 0 -53 5t-31 22z" />
    <glyph glyph-name="uniFEF7" unicode="&#xfedf;&#xfe84;" horiz-adv-x="508" arabic-form="isolated" 
d="M450 726v-504q0 -77 -25.5 -127t-72 -76t-115.5 -26q-55 0 -104.5 23t-82.5 60l74 87q23 -25 54 -39.5t56 -14.5q53 0 83 28.5t30 96.5v492h103zM115 696h103v-488h-103v488zM212 935q19 0 44.5 -7t42.5 -19l-26 -51q-30 18 -63 18q-22 0 -34.5 -11t-12.5 -27t11 -25.5
t30 -9.5h94v-58h-229v58h37l2 2q-10 13 -10 35q0 24 13.5 46.5t38.5 35.5t62 13z" />
    <glyph glyph-name="uniFEF8" unicode="&#xfee0;&#xfe84;" horiz-adv-x="533" arabic-form="final" 
d="M115 696h103v-488h-103v488zM241 -6q-58 0 -108 22.5t-83 59.5l73 86q24 -27 54.5 -40t56.5 -13q57 0 85 29t28 96v492h103v-528q0 -86 83 -86v-112q-99 0 -130 60q-27 -33 -73 -49.5t-89 -16.5zM212 935q19 0 44.5 -7t42.5 -19l-26 -51q-30 18 -63 18q-22 0 -34.5 -11
t-12.5 -27t11 -25.5t30 -9.5h94v-58h-229v58h37l2 2q-10 13 -10 35q0 24 13.5 46.5t38.5 35.5t62 13z" />
    <glyph glyph-name="uniFEF9" unicode="&#xfedf;&#xfe88;" horiz-adv-x="508" arabic-form="isolated" 
d="M450 726v-504q0 -77 -25.5 -127t-72 -76t-115.5 -26q-55 0 -104.5 23t-82.5 60l74 87q23 -25 54 -39.5t56 -14.5q53 0 83 28.5t30 96.5v492h103zM115 696h103v-488h-103v488zM212 -82q19 0 44.5 -7t42.5 -19l-26 -51q-30 18 -63 18q-22 0 -34.5 -11t-12.5 -27t11 -25.5
t30 -9.5h94v-58h-229v58h37l2 2q-10 13 -10 35q0 24 13.5 46.5t38.5 35.5t62 13z" />
    <glyph glyph-name="uniFEFA" unicode="&#xfee0;&#xfe88;" horiz-adv-x="533" arabic-form="final" 
d="M115 696h103v-488h-103v488zM241 -6q-58 0 -108 22.5t-83 59.5l73 86q24 -27 54.5 -40t56.5 -13q57 0 85 29t28 96v492h103v-528q0 -86 83 -86v-112q-99 0 -130 60q-27 -33 -73 -49.5t-89 -16.5zM212 -82q19 0 44.5 -7t42.5 -19l-26 -51q-30 18 -63 18q-22 0 -34.5 -11
t-12.5 -27t11 -25.5t30 -9.5h94v-58h-229v58h37l2 2q-10 13 -10 35q0 24 13.5 46.5t38.5 35.5t62 13z" />
    <glyph glyph-name="uniFEFB" unicode="&#xfedf;&#xfe8e;" horiz-adv-x="508" arabic-form="isolated" 
d="M450 726v-504q0 -77 -25.5 -127t-72 -76t-115.5 -26q-55 0 -104.5 23t-82.5 60l74 87q23 -25 54 -39.5t56 -14.5q53 0 83 28.5t30 96.5v492h103zM115 696h103v-488h-103v488z" />
    <glyph glyph-name="uniFEFC" unicode="&#xfee0;&#xfe8e;" horiz-adv-x="533" arabic-form="final" 
d="M115 696h103v-488h-103v488zM241 -6q-58 0 -108 22.5t-83 59.5l73 86q24 -27 54.5 -40t56.5 -13q57 0 85 29t28 96v492h103v-528q0 -86 83 -86v-112q-99 0 -130 60q-27 -33 -73 -49.5t-89 -16.5z" />
    <glyph glyph-name="uniFEDF_uniFB51.rlig" unicode="&#xfedf;&#xfb51;" horiz-adv-x="508" 
d="M450 726v-504q0 -77 -25.5 -127t-72 -76t-115.5 -26q-55 0 -104.5 23t-82.5 60l74 87q23 -25 54 -39.5t56 -14.5q53 0 83 28.5t30 96.5v492h103zM115 696h103v-488h-103v488zM243 859q-23 0 -39.5 -17t-16.5 -40h91v24q0 15 -10 24t-25 9zM337 745h-218q-42 0 -59 34
l-37 -35h-4v68l46 46h8q17 -55 46 -55h8v113h60v-31h3q13 13 34 22t39 9q30 0 52 -18.5t22 -51.5v-101z" />
    <glyph glyph-name="uniFEE0_uniFB51.rlig" unicode="&#xfee0;&#xfb51;" horiz-adv-x="533" 
d="M115 696h103v-488h-103v488zM241 -6q-58 0 -108 22.5t-83 59.5l73 86q24 -27 54.5 -40t56.5 -13q57 0 85 29t28 96v492h103v-528q0 -86 83 -86v-112q-99 0 -130 60q-27 -33 -73 -49.5t-89 -16.5zM243 859q-23 0 -39.5 -17t-16.5 -40h91v24q0 15 -10 24t-25 9zM337 745
h-218q-42 0 -59 34l-37 -35h-4v68l46 46h8q17 -55 46 -55h8v113h60v-31h3q13 13 34 22t39 9q30 0 52 -18.5t22 -51.5v-101z" />
    <glyph glyph-name="uni0621" unicode="&#x621;" horiz-adv-x="527" arabic-form="isolated" 
d="M239 162q0 -15 7.5 -29.5t26 -22.5t42.5 -8h138v-102h-395v102h90l1 2q-15 27 -15 63q0 37 18 75t62 61t104 23q34 0 77 -14.5t74 -37.5l-47 -86q-19 15 -48.5 27t-55.5 12q-36 0 -57.5 -19.5t-21.5 -45.5z" />
    <glyph glyph-name="uni0622" unicode="&#x622;" horiz-adv-x="219" arabic-form="isolated" 
d="M58 676h103v-676h-103v676zM71 747l-14 -6l-70 -38v72l91 52h14q8 -19 19.5 -32t43.5 -13h76v-62h-76q-35 0 -53 5t-31 22z" />
    <glyph glyph-name="uni0623" unicode="&#x623;" horiz-adv-x="219" arabic-form="isolated" 
d="M58 676h103v-676h-103v676zM137 930q19 0 44.5 -7t42.5 -19l-26 -51q-30 18 -63 18q-22 0 -34.5 -11t-12.5 -27t11 -25.5t30 -9.5h94v-58h-229v58h37l2 2q-10 13 -10 35q0 24 13.5 46.5t38.5 35.5t62 13z" />
    <glyph glyph-name="uni0624" unicode="&#x624;" horiz-adv-x="541" arabic-form="isolated" 
d="M483 242v-225q0 -118 -61.5 -178.5t-174.5 -60.5h-146v113h140q67 0 99 30.5t32 83.5v23l-6 4q-18 -13 -46 -21.5t-52 -8.5q-101 0 -155.5 58.5t-54.5 173.5q0 113 58 178.5t163 65.5q95 0 149.5 -60.5t54.5 -175.5zM274 365q-52 0 -81 -35.5t-29 -94.5q0 -56 27 -90.5
t77 -34.5q35 0 59.5 14.5t37 43.5t12.5 74q0 59 -28.5 91t-74.5 32zM291 745q19 0 44.5 -7t42.5 -19l-26 -51q-30 18 -63 18q-22 0 -34.5 -11t-12.5 -27t11 -25.5t30 -9.5h94v-58h-229v58h37l2 2q-10 13 -10 35q0 24 13.5 46.5t38.5 35.5t62 13z" />
    <glyph glyph-name="uni0625" unicode="&#x625;" horiz-adv-x="219" arabic-form="isolated" 
d="M58 726h103v-726h-103v726zM137 -82q19 0 44.5 -7t42.5 -19l-26 -51q-30 18 -63 18q-22 0 -34.5 -11t-12.5 -27t11 -25.5t30 -9.5h94v-58h-229v58h37l2 2q-10 13 -10 35q0 24 13.5 46.5t38.5 35.5t62 13z" />
    <glyph glyph-name="uni0626" unicode="&#x626;" horiz-adv-x="864" arabic-form="isolated" 
d="M806 82h-104v282h-55q-36 0 -51.5 -21t-15.5 -62v-281h-257q-265 0 -265 252v103h103v-72q0 -44 7.5 -72t22.5 -48.5t50.5 -35.5t102.5 -15h132v187q0 87 48 133t128 46h154v-396zM202 621q19 0 44.5 -7t42.5 -19l-26 -51q-30 18 -63 18q-22 0 -34.5 -11t-12.5 -27
t11 -25.5t30 -9.5h94v-58h-229v58h37l2 2q-10 13 -10 35q0 24 13.5 46.5t38.5 35.5t62 13z" />
    <glyph glyph-name="uni0627" unicode="&#x627;" horiz-adv-x="219" arabic-form="isolated" 
d="M58 726h103v-726h-103v726z" />
    <glyph glyph-name="uni0628" unicode="&#x628;" horiz-adv-x="758" arabic-form="isolated" 
d="M597 389h103v-211q0 -88 -46 -133t-129 -45h-202q-265 0 -265 252v103h103v-72q0 -96 39.5 -133.5t116.5 -37.5h208q41 0 56.5 23.5t15.5 62.5v191zM438 -173h-91v91h91v-91z" />
    <glyph glyph-name="uni0629" unicode="&#x629;" horiz-adv-x="545" arabic-form="isolated" 
d="M279 477q39 0 76.5 -19.5t67 -55t47 -84.5t17.5 -106q0 -103 -55.5 -160.5t-158.5 -57.5q-112 0 -163.5 54.5t-51.5 161.5q0 68 30 132.5t83.5 99.5t107.5 35zM277 367q-34 0 -61 -26.5t-37.5 -61t-10.5 -61.5q0 -57 26.5 -84.5t81.5 -27.5q54 0 79.5 32.5t25.5 80.5
q0 39 -14 71.5t-38.5 54.5t-51.5 22zM378 555h-91v91h91v-91zM256 555h-90v91h90v-91z" />
    <glyph glyph-name="uni062A" unicode="&#x62a;" horiz-adv-x="758" arabic-form="isolated" 
d="M597 389h103v-211q0 -88 -46 -133t-129 -45h-202q-265 0 -265 252v103h103v-72q0 -96 39.5 -133.5t116.5 -37.5h208q41 0 56.5 23.5t15.5 62.5v191zM494 450h-91v91h91v-91zM372 450h-90v91h90v-91z" />
    <glyph glyph-name="uni062B" unicode="&#x62b;" horiz-adv-x="758" arabic-form="isolated" 
d="M597 389h103v-211q0 -88 -46 -133t-129 -45h-202q-265 0 -265 252v103h103v-72q0 -96 39.5 -133.5t116.5 -37.5h208q41 0 56.5 23.5t15.5 62.5v191zM494 450h-91v91h91v-91zM372 450h-90v91h90v-91zM433 577h-91v92h91v-92z" />
    <glyph glyph-name="uni062C" unicode="&#x62c;" horiz-adv-x="552" arabic-form="isolated" 
d="M150 331l-44 90q40 28 86 42.5t90 14.5q59 0 99 -21.5t64 -65t31 -113.5q7 -80 15 -110.5t19.5 -41t16.5 -12.5v-114h-262q-24 0 -48.5 -9t-38.5 -30.5t-14 -48.5q0 -44 34 -63t85 -19q35 0 70 7l15 -102q-41 -12 -104 -12q-45 0 -83.5 12t-65.5 35t-42 58t-15 80
q0 62 27 106.5t77.5 71t119.5 26.5h120l4 6q-22 20 -30 88.5t-13 89.5q-15 70 -87 70q-27 0 -63 -10t-63 -25zM443 -122h-91v91h91v-91z" />
    <glyph glyph-name="uni062D" unicode="&#x62d;" horiz-adv-x="552" arabic-form="isolated" 
d="M150 331l-44 90q40 28 86 42.5t90 14.5q59 0 99 -21.5t64 -65t31 -113.5q7 -80 15 -110.5t19.5 -41t16.5 -12.5v-114h-262q-24 0 -48.5 -9t-38.5 -30.5t-14 -48.5q0 -44 34 -63t85 -19q35 0 70 7l15 -102q-41 -12 -104 -12q-45 0 -83.5 12t-65.5 35t-42 58t-15 80
q0 62 27 106.5t77.5 71t119.5 26.5h120l4 6q-22 20 -30 88.5t-13 89.5q-15 70 -87 70q-27 0 -63 -10t-63 -25z" />
    <glyph glyph-name="uni062E" unicode="&#x62e;" horiz-adv-x="552" arabic-form="isolated" 
d="M150 331l-44 90q40 28 86 42.5t90 14.5q59 0 99 -21.5t64 -65t31 -113.5q7 -80 15 -110.5t19.5 -41t16.5 -12.5v-114h-262q-24 0 -48.5 -9t-38.5 -30.5t-14 -48.5q0 -44 34 -63t85 -19q35 0 70 7l15 -102q-41 -12 -104 -12q-45 0 -83.5 12t-65.5 35t-42 58t-15 80
q0 62 27 106.5t77.5 71t119.5 26.5h120l4 6q-22 20 -30 88.5t-13 89.5q-15 70 -87 70q-27 0 -63 -10t-63 -25zM340 555h-91v91h91v-91z" />
    <glyph glyph-name="uni062F" unicode="&#x62f;" horiz-adv-x="507" arabic-form="isolated" 
d="M345 112v156q0 29 -10 51.5t-30.5 35t-55.5 12.5q-74 0 -125 -39l-55 88q74 61 185 61q67 0 109.5 -22t64 -62t21.5 -100v-293h-391v112h287z" />
    <glyph glyph-name="uni0630" unicode="&#x630;" horiz-adv-x="507" arabic-form="isolated" 
d="M345 112v156q0 29 -10 51.5t-30.5 35t-55.5 12.5q-74 0 -125 -39l-55 88q74 61 185 61q67 0 109.5 -22t64 -62t21.5 -100v-293h-391v112h287zM286 555h-91v91h91v-91z" />
    <glyph glyph-name="uni0631" unicode="&#x631;" horiz-adv-x="228" arabic-form="isolated" 
d="M-54 -96q65 1 93 29t28 87v370h103v-379q0 -108 -52.5 -162t-171.5 -55v110z" />
    <glyph glyph-name="uni0632" unicode="&#x632;" horiz-adv-x="228" arabic-form="isolated" 
d="M-54 -96q65 1 93 29t28 87v370h103v-379q0 -108 -52.5 -162t-171.5 -55v110zM160 470h-91v91h91v-91z" />
    <glyph glyph-name="uni0633" unicode="&#x633;" horiz-adv-x="1005" arabic-form="isolated" 
d="M629 57h-4q-45 -57 -129 -57h-31v-10q0 -87 -58.5 -141.5t-145.5 -54.5q-96 0 -149.5 52t-53.5 137v302h103v-273q0 -45 25 -75.5t76 -30.5q49 0 74.5 30.5t25.5 75.5v378h103v-278h31q42 0 64.5 29t22.5 76v173h103v-188q0 -49 20.5 -76t56.5 -27q19 0 37.5 10t29 35
t10.5 59q0 27 -9 69.5t-31.5 90.5t-49.5 77l85 63q29 -34 57 -87.5t41.5 -109.5t13.5 -105q0 -65 -21.5 -112t-60.5 -73t-96 -26q-94 0 -140 67z" />
    <glyph glyph-name="uni0634" unicode="&#x634;" horiz-adv-x="1005" arabic-form="isolated" 
d="M629 57h-4q-45 -57 -129 -57h-31v-10q0 -87 -58.5 -141.5t-145.5 -54.5q-96 0 -149.5 52t-53.5 137v302h103v-273q0 -45 25 -75.5t76 -30.5q49 0 74.5 30.5t25.5 75.5v378h103v-278h31q42 0 64.5 29t22.5 76v173h103v-188q0 -49 20.5 -76t56.5 -27q19 0 37.5 10t29 35
t10.5 59q0 27 -9 69.5t-31.5 90.5t-49.5 77l85 63q29 -34 57 -87.5t41.5 -109.5t13.5 -105q0 -65 -21.5 -112t-60.5 -73t-96 -26q-94 0 -140 67zM733 530h-91v91h91v-91zM611 530h-90v91h90v-91zM672 657h-91v92h91v-92z" />
    <glyph glyph-name="uni0635" unicode="&#x635;" horiz-adv-x="963" arabic-form="isolated" 
d="M264 -95q55 0 80 32t25 80v440h102v-88h7q44 49 106 79t123 30q96 0 147 -50t51 -138v-290h-433v-10q0 -30 -10 -63.5t-34 -62.5t-65.5 -49.5t-99.5 -20.5q-100 0 -152.5 54t-52.5 141v296h103v-268q0 -35 11 -60t33.5 -38.5t58.5 -13.5zM471 143v-31h330v137
q0 38 -13.5 64t-38 38.5t-61.5 12.5q-36 0 -74 -13t-69.5 -42.5t-52.5 -73t-21 -92.5z" />
    <glyph glyph-name="uni0636" unicode="&#x636;" horiz-adv-x="963" arabic-form="isolated" 
d="M264 -95q55 0 80 32t25 80v440h102v-88h7q44 49 106 79t123 30q96 0 147 -50t51 -138v-290h-433v-10q0 -30 -10 -63.5t-34 -62.5t-65.5 -49.5t-99.5 -20.5q-100 0 -152.5 54t-52.5 141v296h103v-268q0 -35 11 -60t33.5 -38.5t58.5 -13.5zM471 143v-31h330v137
q0 38 -13.5 64t-38 38.5t-61.5 12.5q-36 0 -74 -13t-69.5 -42.5t-52.5 -73t-21 -92.5zM715 555h-91v91h91v-91z" />
    <glyph glyph-name="uni0637" unicode="&#x637;" horiz-adv-x="771" arabic-form="isolated" 
d="M50 0v112h126v614h103v-357h6q45 49 107 79t123 30q96 0 147 -50.5t51 -137.5v-290h-663zM279 143v-31h330v137q0 51 -26.5 83t-87.5 32q-36 0 -73.5 -13t-69 -42.5t-52.5 -73t-21 -92.5z" />
    <glyph glyph-name="uni0638" unicode="&#x638;" horiz-adv-x="771" arabic-form="isolated" 
d="M50 0v112h126v614h103v-357h6q45 49 107 79t123 30q96 0 147 -50.5t51 -137.5v-290h-663zM279 143v-31h330v137q0 51 -26.5 83t-87.5 32q-36 0 -73.5 -13t-69 -42.5t-52.5 -73t-21 -92.5zM555 555h-91v91h91v-91z" />
    <glyph glyph-name="uni0639" unicode="&#x639;" horiz-adv-x="541" arabic-form="isolated" 
d="M480 430l-53 -96q-22 15 -52.5 22.5t-52.5 7.5q-53 0 -88 -31.5t-35 -95.5q0 -34 14 -62.5t43 -45.5t74 -17h153v-112h-218q-34 0 -58 -15t-32.5 -35t-8.5 -36q0 -45 34 -64.5t86 -19.5q54 0 112 15l23 -103q-27 -8 -70 -14t-76 -6q-103 0 -160 46.5t-57 133.5
q0 30 10.5 65t37 64.5t59.5 44.5v5q-38 22 -57 65t-19 96q0 50 16 93.5t46 75.5t74 49.5t97 17.5q92 0 158 -48z" />
    <glyph glyph-name="uni063A" unicode="&#x63a;" horiz-adv-x="541" arabic-form="isolated" 
d="M480 430l-53 -96q-22 15 -52.5 22.5t-52.5 7.5q-53 0 -88 -31.5t-35 -95.5q0 -34 14 -62.5t43 -45.5t74 -17h153v-112h-218q-34 0 -58 -15t-32.5 -35t-8.5 -36q0 -45 34 -64.5t86 -19.5q54 0 112 15l23 -103q-27 -8 -70 -14t-76 -6q-103 0 -160 46.5t-57 133.5
q0 30 10.5 65t37 64.5t59.5 44.5v5q-38 22 -57 65t-19 96q0 50 16 93.5t46 75.5t74 49.5t97 17.5q92 0 158 -48zM344 555h-91v91h91v-91z" />
    <glyph glyph-name="uni0641" unicode="&#x641;" horiz-adv-x="854" arabic-form="isolated" 
d="M164 283q0 -94 39 -132.5t114 -38.5h71q46 0 70 -4l1 5q-40 18 -60.5 59.5t-20.5 96.5t24.5 105t74 77t108.5 27q104 0 157.5 -62.5t53.5 -174.5q0 -118 -61 -179.5t-165 -61.5h-241q-200 0 -252 144q-9 24 -14 61t-5 114v36h106v-72zM587 367q-50 0 -76.5 -33.5
t-26.5 -77.5q0 -28 14 -56t52.5 -49t88.5 -27q26 18 38.5 51t12.5 73q0 55 -26 87t-77 32zM630 555h-91v91h91v-91z" />
    <glyph glyph-name="uni0642" unicode="&#x642;" horiz-adv-x="727" arabic-form="isolated" 
d="M669 242v-183q0 -135 -76 -208t-223 -73q-152 0 -232 71.5t-80 219.5v216h103v-151q0 -71 9.5 -113.5t35 -73t69.5 -44t96 -13.5q88 0 137 34t51 104l-7 4q-18 -13 -46 -21.5t-52 -8.5q-101 0 -155.5 58.5t-54.5 173.5q0 113 58 178.5t163 65.5q95 0 149.5 -60.5
t54.5 -175.5zM460 365q-52 0 -81.5 -35.5t-29.5 -94.5q0 -56 27.5 -90.5t77.5 -34.5q35 0 59.5 14.5t37 43.5t12.5 74q0 59 -28.5 91t-74.5 32zM563 555h-91v91h91v-91zM441 555h-90v91h90v-91z" />
    <glyph glyph-name="uni0643" unicode="&#x643;" horiz-adv-x="768" arabic-form="isolated" 
d="M608 726h102v-548q0 -88 -46 -133t-129 -45h-204q-53 0 -104 12t-88.5 42t-59 78.5t-21.5 119.5v103h103v-72q0 -98 40.5 -134.5t123.5 -36.5h210q21 0 39 8.5t26 29t8 48.5v528zM414 496q19 0 44.5 -7t42.5 -19l-26 -51q-30 18 -63 18q-22 0 -34.5 -11t-12.5 -27
t11 -25.5t30 -9.5h94v-58h-229v58h37l2 2q-10 13 -10 35q0 24 13.5 46.5t38.5 35.5t62 13z" />
    <glyph glyph-name="uni0644" unicode="&#x644;" horiz-adv-x="530" arabic-form="isolated" 
d="M472 726v-729q0 -54 -24.5 -102.5t-74.5 -74.5t-110 -26q-50 0 -89 14.5t-65 41t-38.5 62.5t-12.5 78v295h103v-266q0 -34 11.5 -60t34 -40t57.5 -14q29 0 54.5 11.5t38 39.5t12.5 63v707h103z" />
    <glyph glyph-name="uni0645" unicode="&#x645;" horiz-adv-x="742" arabic-form="isolated" 
d="M161 -272h-103v190q0 99 50.5 146.5t156.5 47.5v129q0 115 56 176t152 61q105 0 158 -64.5t53 -181.5q0 -81 -25.5 -131t-78.5 -75.5t-145 -25.5h-177q-52 0 -74.5 -22t-22.5 -63v-187zM368 233v-124h103q108 0 108 124q0 68 -28 100t-77 32q-106 0 -106 -132z" />
    <glyph glyph-name="uni0646" unicode="&#x646;" horiz-adv-x="530" arabic-form="isolated" 
d="M472 390v-393q0 -54 -24.5 -102.5t-74.5 -74.5t-110 -26q-50 0 -89 14.5t-65 41t-38.5 62.5t-12.5 78v295h103v-266q0 -34 11.5 -60t34 -40t57.5 -14q29 0 54.5 11.5t38 39.5t12.5 63v371h103zM312 450h-91v91h91v-91z" />
    <glyph glyph-name="uni0648" unicode="&#x648;" horiz-adv-x="541" arabic-form="isolated" 
d="M483 242v-225q0 -118 -61.5 -178.5t-174.5 -60.5h-146v113h140q67 0 99 30.5t32 83.5v23l-6 4q-18 -13 -46 -21.5t-52 -8.5q-101 0 -155.5 58.5t-54.5 173.5q0 113 58 178.5t163 65.5q95 0 149.5 -60.5t54.5 -175.5zM274 365q-52 0 -81 -35.5t-29 -94.5q0 -56 27 -90.5
t77 -34.5q35 0 59.5 14.5t37 43.5t12.5 74q0 59 -28.5 91t-74.5 32z" />
    <glyph glyph-name="uni0649" unicode="&#x649;" horiz-adv-x="864" arabic-form="isolated" 
d="M806 82h-104v282h-55q-36 0 -51.5 -21t-15.5 -62v-281h-257q-265 0 -265 252v103h103v-72q0 -44 7.5 -72t22.5 -48.5t50.5 -35.5t102.5 -15h132v187q0 87 48 133t128 46h154v-396z" />
    <glyph glyph-name="uni064A" unicode="&#x64a;" horiz-adv-x="864" arabic-form="isolated" 
d="M806 82h-104v282h-55q-36 0 -51.5 -21t-15.5 -62v-281h-257q-265 0 -265 252v103h103v-72q0 -44 7.5 -72t22.5 -48.5t50.5 -35.5t102.5 -15h132v187q0 87 48 133t128 46h154v-396zM496 -173h-91v91h91v-91zM374 -173h-90v91h90v-91z" />
    <glyph glyph-name="uni066E.init" unicode="&#x66e;" horiz-adv-x="229" 
d="M68 455h103v-252q0 -107 -44 -155t-127 -48q-24 0 -40.5 16t-16.5 39q0 24 17 40t40 17q20 0 37 9t24 31t7 59v244z" />
    <glyph glyph-name="uni066E.medi" unicode="&#x66e;" horiz-adv-x="249" 
d="M-57 55q0 21 16 39t41 18q36 0 53.5 21.5t17.5 70.5v186h103v-192q0 -44 17 -64.5t58 -21.5v-112q-41 0 -73.5 14t-47.5 42q-22 -30 -53.5 -43t-74.5 -13q-23 0 -40 16t-17 39z" />
    <glyph glyph-name="uni066E.fina" unicode="&#x66e;" horiz-adv-x="778" 
d="M600 389h103v-191q0 -43 16.5 -64t58.5 -22v-112q-93 0 -122 56q-19 -25 -45.5 -40.5t-84.5 -15.5h-202q-264 0 -264 252v103h103v-72q0 -97 39 -134t116 -37h207q24 0 41.5 8.5t25.5 28.5t8 50v190z" />
    <glyph glyph-name="uni066F.init" unicode="&#x66f;" horiz-adv-x="535" 
d="M251 0h-251q-24 0 -40 15.5t-16 40.5q0 24 16 40t40 16h75q38 0 62 -4l1 5q-39 20 -59.5 59t-20.5 91q0 46 14.5 85.5t41.5 68.5t66 45t86 16q104 0 157.5 -62.5t53.5 -174.5q0 -118 -61 -179.5t-165 -61.5zM371 248q0 55 -25.5 87t-76.5 32t-77.5 -33t-26.5 -78
q0 -35 17.5 -61.5t52.5 -45t85 -24.5q51 35 51 123z" />
    <glyph glyph-name="uni066F.medi" unicode="&#x66f;" horiz-adv-x="539" 
d="M-56 56q0 24 16 40t40 16h67q43 0 58 -3l1 6q-30 21 -49 63.5t-19 87.5q0 21 4.5 48.5t17.5 54.5t37 52t63 41t87 16q50 0 90 -16t67.5 -45t42 -70.5t14.5 -90.5q0 -36 -12.5 -75.5t-32.5 -62.5l2 -6h101v-112h-539q-24 0 -40 15.5t-16 40.5zM269 368q-37 0 -62 -18
t-33.5 -42.5t-8.5 -44.5q0 -40 22 -73.5t56 -51t66 -23.5q17 11 33.5 31.5t24.5 48t8 53.5q0 25 -9.5 53.5t-35 47.5t-61.5 19z" />
    <glyph glyph-name="uni066F.fina" unicode="&#x66f;" horiz-adv-x="723" 
d="M563 112v120q0 70 -26.5 101.5t-73.5 31.5q-51 0 -82.5 -33.5t-31.5 -100.5q0 -63 30.5 -91t82.5 -28h101zM669 243v-131h54v-112h-59q-12 -102 -87.5 -162t-206.5 -60q-65 0 -117.5 14t-88 38.5t-58 57.5t-35.5 77.5t-13 103.5v216h103v-185q0 -110 52 -160t158 -50
q70 0 120.5 27.5t60.5 85.5h-81q-110 0 -168.5 56t-58.5 173q0 116 58.5 181t164.5 65q95 0 148.5 -60t53.5 -175z" />
    <glyph glyph-name="uni0671" unicode="&#x671;" horiz-adv-x="219" arabic-form="isolated" 
d="M58 676h103v-676h-103v676zM174 854q-23 0 -39.5 -17t-16.5 -40h91v24q0 15 -10 24t-25 9zM268 740h-218q-42 0 -59 34l-37 -35h-4v68l46 46h8q17 -55 46 -55h8v113h60v-31h3q13 13 34 22t39 9q30 0 52 -18.5t22 -51.5v-101z" />
    <glyph glyph-name="uni0672.fina" unicode="&#x672;" horiz-adv-x="231" 
d="M231 0h-34q-51 0 -80 15.5t-43 46t-14 79.5v535h103v-505q0 -32 12.5 -45.5t42.5 -13.5h13v-112zM262 740h-206q-14 0 -29 9t-25 25l-35 -35h-4v68l46 46h8q6 -25 17 -40t28 -15h12l2 2q-9 14 -9 35q0 24 13 46.5t37.5 35.5t61.5 13q21 0 45.5 -7.5t43.5 -20.5l-26 -50
q-7 4 -25.5 11.5t-40.5 7.5t-34.5 -11t-12.5 -27q0 -14 9 -24.5t42 -10.5h82v-58z" />
    <glyph glyph-name="uni0673.fina" unicode="&#x673;" horiz-adv-x="231" 
d="M231 0h-34q-51 0 -80 15.5t-43 46t-14 79.5v585h103v-555q0 -32 12.5 -45.5t42.5 -13.5h13v-112zM262 -272h-206q-14 0 -29 9t-25 25l-35 -35h-4v68l46 46h8q6 -25 17 -40t28 -15h12l2 2q-9 14 -9 35q0 24 13 46.5t37.5 35.5t61.5 13q21 0 45.5 -7.5t43.5 -20.5l-26 -50
q-7 4 -25.5 11.5t-40.5 7.5t-34.5 -11t-12.5 -27q0 -14 9 -24.5t42 -10.5h82v-58z" />
    <glyph glyph-name="uni0675.fina" unicode="&#x675;" horiz-adv-x="231" 
d="M231 0h-34q-51 0 -80 15.5t-43 46t-14 79.5v535h103v-505q0 -32 12.5 -45.5t42.5 -13.5h13v-112zM192 930q19 0 44.5 -7t42.5 -19l-26 -51q-30 18 -63 18q-22 0 -34.5 -11t-12.5 -27t11 -25.5t30 -9.5h94v-58h-229v58h37l2 2q-10 13 -10 35q0 24 13.5 46.5t38.5 35.5
t62 13z" />
    <glyph glyph-name="uni0676.fina" unicode="&#x676;" horiz-adv-x="541" 
d="M280 478q96 0 149.5 -60t53.5 -175v-131h58v-112h-58q-3 -105 -63.5 -163.5t-166.5 -58.5h-152v113h149q33 0 62.5 12.5t45 41t15.5 58.5h-89q-52 0 -94 13.5t-71.5 41.5t-45 72t-15.5 102q0 116 58 181t164 65zM377 112v120q0 65 -26 99t-75 34q-50 0 -81.5 -33.5
t-31.5 -100.5q0 -63 30.5 -91t81.5 -28h102zM389 745q19 0 44.5 -7t42.5 -19l-26 -51q-30 18 -63 18q-22 0 -34.5 -11t-12.5 -27t11 -25.5t30 -9.5h94v-58h-229v58h37l2 2q-10 13 -10 35q0 24 13.5 46.5t38.5 35.5t62 13z" />
    <glyph glyph-name="uni0677" unicode="&#x677;" horiz-adv-x="541" arabic-form="isolated" 
d="M483 242v-225q0 -118 -61.5 -178.5t-174.5 -60.5h-146v113h140q67 0 99 30.5t32 83.5v23l-6 4q-18 -13 -46 -21.5t-52 -8.5q-101 0 -155.5 58.5t-54.5 173.5q0 113 58 178.5t163 65.5q95 0 149.5 -60.5t54.5 -175.5zM274 365q-52 0 -81 -35.5t-29 -94.5q0 -56 27 -90.5
t77 -34.5q35 0 59.5 14.5t37 43.5t12.5 74q0 59 -28.5 91t-74.5 32zM409 745q19 0 44.5 -7t42.5 -19l-26 -51q-30 18 -63 18q-22 0 -34.5 -11t-12.5 -27t11 -25.5t30 -9.5h94v-58h-229v58h37l2 2q-10 13 -10 35q0 24 13.5 46.5t38.5 35.5t62 13zM127 638l1 3q-10 7 -16 20.5
t-6 26.5q0 26 19 47.5t50 21.5q17 0 35 -8t29.5 -27.5t11.5 -42.5q0 -28 -17.5 -51.5t-51.5 -33.5l-145 -40v57z" />
    <glyph glyph-name="uni0678.init" unicode="&#x678;" horiz-adv-x="229" 
d="M68 455h103v-252q0 -107 -44 -155t-127 -48q-24 0 -40.5 16t-16.5 39q0 24 17 40t40 17q20 0 37 9t24 31t7 59v244zM142 720q19 0 44.5 -7t42.5 -19l-26 -51q-30 18 -63 18q-22 0 -34.5 -11t-12.5 -27t11 -25.5t30 -9.5h94v-58h-229v58h37l2 2q-10 13 -10 35
q0 24 13.5 46.5t38.5 35.5t62 13z" />
    <glyph glyph-name="uni0678.medi" unicode="&#x678;" horiz-adv-x="249" 
d="M-57 55q0 21 16 39t41 18q36 0 53.5 21.5t17.5 70.5v186h103v-192q0 -44 17 -64.5t58 -21.5v-112q-41 0 -73.5 14t-47.5 42q-22 -30 -53.5 -43t-74.5 -13q-23 0 -40 16t-17 39zM152 660q19 0 44.5 -7t42.5 -19l-26 -51q-30 18 -63 18q-22 0 -34.5 -11t-12.5 -27t11 -25.5
t30 -9.5h94v-58h-229v58h37l2 2q-10 13 -10 35q0 24 13.5 46.5t38.5 35.5t62 13z" />
    <glyph glyph-name="uni0678.fina" unicode="&#x678;" horiz-adv-x="864" 
d="M580 0h-257q-265 0 -265 252v103h103v-72q0 -96 39.5 -133.5t116.5 -37.5h159v187q0 87 48 133t128 46h154v-366h58v-112h-162v364h-55q-36 0 -51.5 -21t-15.5 -62v-281zM708 745q19 0 44.5 -7t42.5 -19l-26 -51q-30 18 -63 18q-22 0 -34.5 -11t-12.5 -27t11 -25.5
t30 -9.5h94v-58h-229v58h37l2 2q-10 13 -10 35q0 24 13.5 46.5t38.5 35.5t62 13z" />
    <glyph glyph-name="uni0679" unicode="&#x679;" horiz-adv-x="758" arabic-form="isolated" 
d="M597 389h103v-211q0 -88 -46 -133t-129 -45h-202q-265 0 -265 252v103h103v-72q0 -96 39.5 -133.5t116.5 -37.5h208q41 0 56.5 23.5t15.5 62.5v191zM415 560q-21 0 -37.5 -14.5t-22.5 -38.5h95v15q0 17 -9 27.5t-26 10.5zM509 450h-252v58h37v137h61v-59l3 -1
q13 14 35.5 23t40.5 9q22 0 41 -10t26.5 -27t7.5 -33v-97z" />
    <glyph glyph-name="uni067A" unicode="&#x67a;" horiz-adv-x="758" arabic-form="isolated" 
d="M597 389h103v-211q0 -88 -46 -133t-129 -45h-202q-265 0 -265 252v103h103v-72q0 -96 39.5 -133.5t116.5 -37.5h208q41 0 56.5 23.5t15.5 62.5v191zM433 450h-91v91h91v-91zM433 577h-91v92h91v-92z" />
    <glyph glyph-name="uni067B" unicode="&#x67b;" horiz-adv-x="758" arabic-form="isolated" 
d="M597 389h103v-211q0 -88 -46 -133t-129 -45h-202q-265 0 -265 252v103h103v-72q0 -96 39.5 -133.5t116.5 -37.5h208q41 0 56.5 23.5t15.5 62.5v191zM434 -301h-91v91h91v-91zM434 -174h-91v92h91v-92z" />
    <glyph glyph-name="uni067C.init" unicode="&#x67c;" horiz-adv-x="229" 
d="M8 -20l2 20h-10q-24 0 -40.5 16t-16.5 39q0 24 17 40t40 17q20 0 37 9t24 31t7 59v244h103v-252q0 -98 -38 -147q20 -11 32.5 -32t12.5 -44q0 -35 -23.5 -60t-61.5 -25q-26 0 -47.5 15t-29.5 34.5t-8 35.5zM220 530h-91v91h91v-91zM98 530h-90v91h90v-91zM58 -20
q0 -13 9.5 -24.5t25.5 -11.5q17 0 26.5 10.5t9.5 25.5t-10.5 25.5t-25.5 10.5t-25 -10.5t-10 -25.5z" />
    <glyph glyph-name="uni067C.medi" unicode="&#x67c;" horiz-adv-x="249" 
d="M39 -2v4q-12 -2 -39 -2q-23 0 -40 16t-17 39q0 21 16 39t41 18q36 0 53.5 21.5t17.5 70.5v186h103v-192q0 -44 17 -64.5t58 -21.5v-112q-22 0 -40 3v-5q0 -35 -23.5 -60t-61.5 -25q-26 0 -47.5 15t-29.5 34.5t-8 35.5zM230 470h-91v91h91v-91zM108 470h-90v91h90v-91z
M89 -2q0 -13 9.5 -24.5t25.5 -11.5q17 0 26.5 10.5t9.5 25.5t-10.5 25.5t-25.5 10.5t-25 -10.5t-10 -25.5z" />
    <glyph glyph-name="uni067C.fina" unicode="&#x67c;" horiz-adv-x="778" 
d="M342 -20l2 20h-20q-264 0 -264 252v103h103v-72q0 -97 39 -134t116 -37h207q24 0 41.5 8.5t25.5 28.5t8 50v190h103v-191q0 -43 16.5 -64t58.5 -22v-112q-93 0 -122 56q-19 -25 -45.5 -40.5t-84.5 -15.5h-17q3 -9 3 -20q0 -35 -23.5 -60t-61.5 -25q-26 0 -47.5 15
t-29.5 34.5t-8 35.5zM514 450h-91v91h91v-91zM392 450h-90v91h90v-91zM392 -20q0 -13 9.5 -24.5t25.5 -11.5q17 0 26.5 10.5t9.5 25.5q0 5 -2 11t-4 9h-60q-5 -8 -5 -20z" />
    <glyph glyph-name="uni067D.init" unicode="&#x67d;" horiz-adv-x="229" 
d="M68 455h103v-252q0 -107 -44 -155t-127 -48q-24 0 -40.5 16t-16.5 39q0 24 17 40t40 17q20 0 37 9t24 31t7 59v244zM129 748h91v-91h-91v91zM8 748h90v-91h-90v91zM68 620h91v-90h-91v90z" />
    <glyph glyph-name="uni067D.medi" unicode="&#x67d;" horiz-adv-x="249" 
d="M-57 55q0 21 16 39t41 18q36 0 53.5 21.5t17.5 70.5v186h103v-192q0 -44 17 -64.5t58 -21.5v-112q-41 0 -73.5 14t-47.5 42q-22 -30 -53.5 -43t-74.5 -13q-23 0 -40 16t-17 39zM139 688h91v-91h-91v91zM18 688h90v-91h-90v91zM78 560h91v-90h-91v90z" />
    <glyph glyph-name="uni067D.fina" unicode="&#x67d;" horiz-adv-x="778" 
d="M600 389h103v-191q0 -43 16.5 -64t58.5 -22v-112q-93 0 -122 56q-19 -25 -45.5 -40.5t-84.5 -15.5h-202q-264 0 -264 252v103h103v-72q0 -97 39 -134t116 -37h207q24 0 41.5 8.5t25.5 28.5t8 50v190zM423 668h91v-91h-91v91zM302 668h90v-91h-90v91zM362 540h91v-90h-91
v90z" />
    <glyph glyph-name="uni067E" unicode="&#x67e;" horiz-adv-x="758" arabic-form="isolated" 
d="M597 389h103v-211q0 -88 -46 -133t-129 -45h-202q-265 0 -265 252v103h103v-72q0 -96 39.5 -133.5t116.5 -37.5h208q41 0 56.5 23.5t15.5 62.5v191zM403 -82h91v-91h-91v91zM282 -82h90v-91h-90v91zM342 -210h91v-90h-91v90z" />
    <glyph glyph-name="uni067F" unicode="&#x67f;" horiz-adv-x="758" arabic-form="isolated" 
d="M597 389h103v-211q0 -88 -46 -133t-129 -45h-202q-265 0 -265 252v103h103v-72q0 -96 39.5 -133.5t116.5 -37.5h208q41 0 56.5 23.5t15.5 62.5v191zM494 450h-91v91h91v-91zM372 450h-90v91h90v-91zM494 577h-91v92h91v-92zM372 577h-90v92h90v-92z" />
    <glyph glyph-name="uni0680" unicode="&#x680;" horiz-adv-x="758" arabic-form="isolated" 
d="M597 389h103v-211q0 -88 -46 -133t-129 -45h-202q-265 0 -265 252v103h103v-72q0 -96 39.5 -133.5t116.5 -37.5h208q41 0 56.5 23.5t15.5 62.5v191zM494 -301h-91v91h91v-91zM372 -301h-90v91h90v-91zM494 -174h-91v92h91v-92zM372 -174h-90v92h90v-92z" />
    <glyph glyph-name="uni0681.init" unicode="&#x681;" horiz-adv-x="505" 
d="M0 0q-24 0 -40 15.5t-16 40.5q0 24 16 40t40 16h355l3 6q-22 20 -29.5 88t-12.5 90q-15 70 -88 70q-27 0 -63 -10t-62 -25l-45 90q41 28 87 42.5t89 14.5q172 0 193 -185q1 -7 5.5 -51t10.5 -70.5t16 -39.5t21 -18v-114h-480zM274 745q19 0 44.5 -7t42.5 -19l-26 -51
q-30 18 -63 18q-22 0 -34.5 -11t-12.5 -27t11 -25.5t30 -9.5h94v-58h-229v58h37l2 2q-10 13 -10 35q0 24 13.5 46.5t38.5 35.5t62 13z" />
    <glyph glyph-name="uni0681.medi" unicode="&#x681;" horiz-adv-x="508" 
d="M234 478q174 0 194 -201q10 -98 20.5 -123t24 -33.5t28.5 -8.5h7v-112h-508q-24 0 -40 15.5t-16 40.5q0 24 16 40t40 16h354l4 6q-15 13 -21.5 39.5t-10.5 67.5t-6 54q-11 87 -92 87q-27 0 -63 -10t-63 -25l-44 90q40 28 86 42.5t90 14.5zM274 745q19 0 44.5 -7t42.5 -19
l-26 -51q-30 18 -63 18q-22 0 -34.5 -11t-12.5 -27t11 -25.5t30 -9.5h94v-58h-229v58h37l2 2q-10 13 -10 35q0 24 13.5 46.5t38.5 35.5t62 13z" />
    <glyph glyph-name="uni0681.fina" unicode="&#x681;" horiz-adv-x="558" 
d="M404 112l4 6q-15 13 -21.5 39.5t-10.5 67.5t-6 54q-11 87 -92 87q-27 0 -63 -10t-63 -25l-44 90q40 28 86 42.5t90 14.5q174 0 194 -201q10 -98 20.5 -123t24 -33.5t28.5 -8.5h7v-112h-293q-24 0 -48.5 -9t-38.5 -30.5t-14 -48.5q0 -44 34 -63t85 -19q35 0 70 7l15 -102
q-41 -12 -104 -12q-95 0 -150.5 47.5t-55.5 137.5q0 62 27 106.5t77.5 71t119.5 26.5h122zM274 745q19 0 44.5 -7t42.5 -19l-26 -51q-30 18 -63 18q-22 0 -34.5 -11t-12.5 -27t11 -25.5t30 -9.5h94v-58h-229v58h37l2 2q-10 13 -10 35q0 24 13.5 46.5t38.5 35.5t62 13z" />
    <glyph glyph-name="uni0682.init" unicode="&#x682;" horiz-adv-x="505" 
d="M0 0q-24 0 -40 15.5t-16 40.5q0 24 16 40t40 16h355l3 6q-22 20 -29.5 88t-12.5 90q-15 70 -88 70q-27 0 -63 -10t-62 -25l-45 90q41 28 87 42.5t89 14.5q172 0 193 -185q1 -7 5.5 -51t10.5 -70.5t16 -39.5t21 -18v-114h-480zM298 555h-91v91h91v-91zM298 682h-91v92h91
v-92z" />
    <glyph glyph-name="uni0682.medi" unicode="&#x682;" horiz-adv-x="508" 
d="M234 478q174 0 194 -201q10 -98 20.5 -123t24 -33.5t28.5 -8.5h7v-112h-508q-24 0 -40 15.5t-16 40.5q0 24 16 40t40 16h354l4 6q-15 13 -21.5 39.5t-10.5 67.5t-6 54q-11 87 -92 87q-27 0 -63 -10t-63 -25l-44 90q40 28 86 42.5t90 14.5zM300 555h-91v91h91v-91z
M300 682h-91v92h91v-92z" />
    <glyph glyph-name="uni0682.fina" unicode="&#x682;" horiz-adv-x="558" 
d="M404 112l4 6q-15 13 -21.5 39.5t-10.5 67.5t-6 54q-11 87 -92 87q-27 0 -63 -10t-63 -25l-44 90q40 28 86 42.5t90 14.5q174 0 194 -201q10 -98 20.5 -123t24 -33.5t28.5 -8.5h7v-112h-293q-24 0 -48.5 -9t-38.5 -30.5t-14 -48.5q0 -44 34 -63t85 -19q35 0 70 7l15 -102
q-41 -12 -104 -12q-95 0 -150.5 47.5t-55.5 137.5q0 62 27 106.5t77.5 71t119.5 26.5h122zM330 555h-91v91h91v-91zM330 682h-91v92h91v-92z" />
    <glyph glyph-name="uni0683" unicode="&#x683;" horiz-adv-x="552" arabic-form="isolated" 
d="M150 331l-44 90q40 28 86 42.5t90 14.5q59 0 99 -21.5t64 -65t31 -113.5q7 -80 15 -110.5t19.5 -41t16.5 -12.5v-114h-262q-24 0 -48.5 -9t-38.5 -30.5t-14 -48.5q0 -44 34 -63t85 -19q35 0 70 7l15 -102q-41 -12 -104 -12q-45 0 -83.5 12t-65.5 35t-42 58t-15 80
q0 62 27 106.5t77.5 71t119.5 26.5h120l4 6q-22 20 -30 88.5t-13 89.5q-15 70 -87 70q-27 0 -63 -10t-63 -25zM475 -115h-61v64h61v-64zM398 -115h-62v64h62v-64z" />
    <glyph glyph-name="uni0684" unicode="&#x684;" horiz-adv-x="552" arabic-form="isolated" 
d="M150 331l-44 90q40 28 86 42.5t90 14.5q59 0 99 -21.5t64 -65t31 -113.5q7 -80 15 -110.5t19.5 -41t16.5 -12.5v-114h-262q-24 0 -48.5 -9t-38.5 -30.5t-14 -48.5q0 -44 34 -63t85 -19q35 0 70 7l15 -102q-41 -12 -104 -12q-45 0 -83.5 12t-65.5 35t-42 58t-15 80
q0 62 27 106.5t77.5 71t119.5 26.5h120l4 6q-22 20 -30 88.5t-13 89.5q-15 70 -87 70q-27 0 -63 -10t-63 -25zM465 -201h-61v64h61v-64zM465 -120h-61v66h61v-66z" />
    <glyph glyph-name="uni0685.init" unicode="&#x685;" horiz-adv-x="505" 
d="M0 0q-24 0 -40 15.5t-16 40.5q0 24 16 40t40 16h355l3 6q-22 20 -29.5 88t-12.5 90q-15 70 -88 70q-27 0 -63 -10t-62 -25l-45 90q41 28 87 42.5t89 14.5q172 0 193 -185q1 -7 5.5 -51t10.5 -70.5t16 -39.5t21 -18v-114h-480zM356 555h-91v91h91v-91zM234 555h-90v91h90
v-91zM295 682h-91v92h91v-92z" />
    <glyph glyph-name="uni0685.medi" unicode="&#x685;" horiz-adv-x="508" 
d="M234 478q174 0 194 -201q10 -98 20.5 -123t24 -33.5t28.5 -8.5h7v-112h-508q-24 0 -40 15.5t-16 40.5q0 24 16 40t40 16h354l4 6q-15 13 -21.5 39.5t-10.5 67.5t-6 54q-11 87 -92 87q-27 0 -63 -10t-63 -25l-44 90q40 28 86 42.5t90 14.5zM356 555h-91v91h91v-91z
M234 555h-90v91h90v-91zM295 682h-91v92h91v-92z" />
    <glyph glyph-name="uni0685.fina" unicode="&#x685;" horiz-adv-x="558" 
d="M404 112l4 6q-15 13 -21.5 39.5t-10.5 67.5t-6 54q-11 87 -92 87q-27 0 -63 -10t-63 -25l-44 90q40 28 86 42.5t90 14.5q174 0 194 -201q10 -98 20.5 -123t24 -33.5t28.5 -8.5h7v-112h-293q-24 0 -48.5 -9t-38.5 -30.5t-14 -48.5q0 -44 34 -63t85 -19q35 0 70 7l15 -102
q-41 -12 -104 -12q-95 0 -150.5 47.5t-55.5 137.5q0 62 27 106.5t77.5 71t119.5 26.5h122zM391 555h-91v91h91v-91zM269 555h-90v91h90v-91zM330 682h-91v92h91v-92z" />
    <glyph glyph-name="uni0686" unicode="&#x686;" horiz-adv-x="552" arabic-form="isolated" 
d="M150 331l-44 90q40 28 86 42.5t90 14.5q59 0 99 -21.5t64 -65t31 -113.5q7 -80 15 -110.5t19.5 -41t16.5 -12.5v-114h-262q-24 0 -48.5 -9t-38.5 -30.5t-14 -48.5q0 -44 34 -63t85 -19q35 0 70 7l15 -102q-41 -12 -104 -12q-45 0 -83.5 12t-65.5 35t-42 58t-15 80
q0 62 27 106.5t77.5 71t119.5 26.5h120l4 6q-22 20 -30 88.5t-13 89.5q-15 70 -87 70q-27 0 -63 -10t-63 -25zM439 -66h61v-65h-61v65zM361 -66h62v-65h-62v65zM400 -148h61v-65h-61v65z" />
    <glyph glyph-name="uni0687" unicode="&#x687;" horiz-adv-x="552" arabic-form="isolated" 
d="M150 331l-44 90q40 28 86 42.5t90 14.5q59 0 99 -21.5t64 -65t31 -113.5q7 -80 15 -110.5t19.5 -41t16.5 -12.5v-114h-262q-24 0 -48.5 -9t-38.5 -30.5t-14 -48.5q0 -44 34 -63t85 -19q35 0 70 7l15 -102q-41 -12 -104 -12q-45 0 -83.5 12t-65.5 35t-42 58t-15 80
q0 62 27 106.5t77.5 71t119.5 26.5h120l4 6q-22 20 -30 88.5t-13 89.5q-15 70 -87 70q-27 0 -63 -10t-63 -25zM511 -180h-61v64h61v-64zM434 -180h-62v64h62v-64zM511 -99h-61v66h61v-66zM434 -99h-62v66h62v-66z" />
    <glyph glyph-name="uni0688" unicode="&#x688;" horiz-adv-x="507" arabic-form="isolated" 
d="M345 112v156q0 29 -10 51.5t-30.5 35t-55.5 12.5q-74 0 -125 -39l-55 88q74 61 185 61q67 0 109.5 -22t64 -62t21.5 -100v-293h-391v112h287zM280 665q-21 0 -37.5 -14.5t-22.5 -38.5h95v15q0 17 -9 27.5t-26 10.5zM374 555h-252v58h37v137h61v-59l3 -1q13 14 35.5 23
t40.5 9q22 0 41 -10t26.5 -27t7.5 -33v-97z" />
    <glyph glyph-name="uni0689.fina" unicode="&#x689;" horiz-adv-x="506" 
d="M159 -18q0 12 2 18h-103v112h287v156q0 99 -96 99q-74 0 -125 -39l-55 88q74 61 185 61q67 0 109.5 -22t64 -62t21.5 -100v-181h57v-112h-179l2 -18q0 -35 -23.5 -60t-61.5 -25q-26 0 -47.5 15t-29.5 34.5t-8 35.5zM209 -18q0 -13 9.5 -24.5t25.5 -11.5q17 0 26.5 10.5
t9.5 25.5q0 10 -5 18h-62q-4 -7 -4 -18z" />
    <glyph glyph-name="uni068A.fina" unicode="&#x68a;" horiz-adv-x="506" 
d="M345 112v156q0 99 -96 99q-74 0 -125 -39l-55 88q74 61 185 61q67 0 109.5 -22t64 -62t21.5 -100v-181h57v-112h-448v112h287zM290 -173h-91v91h91v-91z" />
    <glyph glyph-name="uni068B.fina" unicode="&#x68b;" horiz-adv-x="506" 
d="M345 112v156q0 99 -96 99q-74 0 -125 -39l-55 88q74 61 185 61q67 0 109.5 -22t64 -62t21.5 -100v-181h57v-112h-448v112h287zM290 -173h-91v91h91v-91zM280 665q-21 0 -37.5 -14.5t-22.5 -38.5h95v15q0 17 -9 27.5t-26 10.5zM374 555h-252v58h37v137h61v-59l3 -1
q13 14 35.5 23t40.5 9q22 0 41 -10t26.5 -27t7.5 -33v-97z" />
    <glyph glyph-name="uni068C" unicode="&#x68c;" horiz-adv-x="507" arabic-form="isolated" 
d="M345 112v156q0 29 -10 51.5t-30.5 35t-55.5 12.5q-74 0 -125 -39l-55 88q74 61 185 61q67 0 109.5 -22t64 -62t21.5 -100v-293h-391v112h287zM351 555h-91v91h91v-91zM229 555h-90v91h90v-91z" />
    <glyph glyph-name="uni068D" unicode="&#x68d;" horiz-adv-x="507" arabic-form="isolated" 
d="M345 112v156q0 29 -10 51.5t-30.5 35t-55.5 12.5q-74 0 -125 -39l-55 88q74 61 185 61q67 0 109.5 -22t64 -62t21.5 -100v-293h-391v112h287zM351 -173h-91v91h91v-91zM229 -173h-90v91h90v-91z" />
    <glyph glyph-name="uni068E" unicode="&#x68e;" horiz-adv-x="507" arabic-form="isolated" 
d="M345 112v156q0 29 -10 51.5t-30.5 35t-55.5 12.5q-74 0 -125 -39l-55 88q74 61 185 61q67 0 109.5 -22t64 -62t21.5 -100v-293h-391v112h287zM351 555h-91v91h91v-91zM229 555h-90v91h90v-91zM290 682h-91v92h91v-92z" />
    <glyph glyph-name="uni068F.fina" unicode="&#x68f;" horiz-adv-x="506" 
d="M345 112v156q0 99 -96 99q-74 0 -125 -39l-55 88q74 61 185 61q67 0 109.5 -22t64 -62t21.5 -100v-181h57v-112h-448v112h287zM260 773h91v-91h-91v91zM139 773h90v-91h-90v91zM199 645h91v-90h-91v90z" />
    <glyph glyph-name="uni0690.fina" unicode="&#x690;" horiz-adv-x="506" 
d="M345 112v156q0 99 -96 99q-74 0 -125 -39l-55 88q74 61 185 61q67 0 109.5 -22t64 -62t21.5 -100v-181h57v-112h-448v112h287zM351 555h-91v91h91v-91zM229 555h-90v91h90v-91zM351 682h-91v92h91v-92zM229 682h-90v92h90v-92z" />
    <glyph glyph-name="uni0691" unicode="&#x691;" horiz-adv-x="228" arabic-form="isolated" 
d="M-54 -96q65 1 93 29t28 87v370h103v-379q0 -108 -52.5 -162t-171.5 -55v110zM146 580q-21 0 -37.5 -14.5t-22.5 -38.5h95v15q0 17 -9 27.5t-26 10.5zM240 470h-252v58h37v137h61v-59l3 -1q13 14 35.5 23t40.5 9q22 0 41 -10t26.5 -27t7.5 -33v-97z" />
    <glyph glyph-name="uni0692.fina" unicode="&#x692;" horiz-adv-x="228" 
d="M-54 -96q65 1 93 29t28 85v372h103v-278h58v-112h-58q-2 -102 -55 -153.5t-169 -52.5v110zM86 470l-86 172l42 21l71 -121l74 121l42 -22l-85 -171h-58z" />
    <glyph glyph-name="uni0693.fina" unicode="&#x693;" horiz-adv-x="228" 
d="M-54 -96q65 1 93 29t28 85v372h103v-278h58v-112h-58q-1 -36 -8 -65.5t-20 -53.5q19 -11 30 -31t11 -43q0 -35 -23.5 -60t-61.5 -25q-34 0 -58 23t-27 55q-30 -5 -67 -6v110zM63 -193q0 -13 9.5 -24.5t25.5 -11.5q17 0 26.5 10.5t9.5 25.5q0 12 -7 21.5t-18 13.5
q-22 -19 -46 -28v-7z" />
    <glyph glyph-name="uni0694.fina" unicode="&#x694;" horiz-adv-x="228" 
d="M-54 -96q65 1 93 29t28 85v372h103v-278h58v-112h-58q-2 -102 -55 -153.5t-169 -52.5v110zM148 -350h-91v91h91v-91z" />
    <glyph glyph-name="uni0695.fina" unicode="&#x695;" horiz-adv-x="228" 
d="M-54 -96q65 1 93 29t28 85v372h103v-278h58v-112h-58q-2 -102 -55 -153.5t-169 -52.5v110zM86 -452l-86 172l42 21l71 -121l74 121l42 -22l-85 -171h-58z" />
    <glyph glyph-name="uni0696.fina" unicode="&#x696;" horiz-adv-x="228" 
d="M-54 -96q65 1 93 29t28 85v372h103v-278h58v-112h-58q-2 -102 -55 -153.5t-169 -52.5v110zM148 -310h-91v91h91v-91zM37 -20h-91v91h91v-91z" />
    <glyph glyph-name="uni0697.fina" unicode="&#x697;" horiz-adv-x="228" 
d="M-54 -96q65 1 93 29t28 85v372h103v-278h58v-112h-58q-2 -102 -55 -153.5t-169 -52.5v110zM220 470h-91v91h91v-91zM98 470h-90v91h90v-91z" />
    <glyph glyph-name="uni0698" unicode="&#x698;" horiz-adv-x="228" arabic-form="isolated" 
d="M-54 -96q65 1 93 29t28 87v370h103v-379q0 -108 -52.5 -162t-171.5 -55v110zM220 470h-91v91h91v-91zM98 470h-90v91h90v-91zM159 597h-91v92h91v-92z" />
    <glyph glyph-name="uni0699.fina" unicode="&#x699;" horiz-adv-x="228" 
d="M-54 -96q65 1 93 29t28 85v372h103v-278h58v-112h-58q-2 -102 -55 -153.5t-169 -52.5v110zM220 470h-91v91h91v-91zM98 470h-90v91h90v-91zM220 597h-91v92h91v-92zM98 597h-90v92h90v-92z" />
    <glyph glyph-name="uni069A.init" unicode="&#x69a;" horiz-adv-x="801" 
d="M0 0q-24 0 -40.5 15.5t-16.5 40.5q0 24 16.5 40t40.5 16h154v278h103v-278h37q43 0 65.5 28.5t22.5 76.5v173h102v-188q0 -48 21 -75.5t57 -27.5q18 0 36 10t28 35t10 59q0 57 -26.5 127.5t-62.5 109.5l84 63q29 -34 57 -87t41.5 -109.5t13.5 -105.5q0 -42 -9.5 -80
t-30.5 -67.5t-55.5 -47t-80.5 -17.5q-45 0 -82 17t-58 51h-4q-41 -57 -129 -57h-294zM475 -174h-91v91h91v-91zM475 530h-91v91h91v-91z" />
    <glyph glyph-name="uni069A.medi" unicode="&#x69a;" horiz-adv-x="819" 
d="M567 -10q-93 0 -139 66h-5q-24 -30 -55.5 -43t-73.5 -13h-294q-23 0 -39.5 16t-16.5 40q0 14 7.5 27.5t26.5 21t45 7.5h131v278h103v-278h37q43 0 65.5 28.5t22.5 76.5v173h102v-188q0 -48 21 -75.5t57 -27.5q19 0 37 10t28.5 35t10.5 59q0 57 -26.5 127.5t-62.5 109.5
l84 63q41 -49 67.5 -110.5t34.5 -105.5t8 -77v-5q0 -91 76 -93v-112q-86 2 -116 54h-4q-20 -30 -54 -47t-78 -17zM475 -174h-91v91h91v-91zM475 530h-91v91h91v-91z" />
    <glyph glyph-name="uni069A.fina" unicode="&#x69a;" horiz-adv-x="1022" 
d="M1022 112v-112q-86 2 -116 54h-4q-20 -30 -54 -47t-78 -17q-93 0 -139 67h-5q-18 -23 -47.5 -40t-81.5 -17h-30v-10q0 -43 -13.5 -75t-35.5 -57t-62 -44.5t-94 -19.5q-35 0 -71 9t-65 31.5t-47.5 59.5t-18.5 89v302h103v-250q0 -67 24 -98t76 -31q35 0 59.5 18t33 43
t8.5 45v378h103v-278h30q32 0 53 17t28 41.5t7 46.5v173h102v-188q0 -48 21 -75.5t57 -27.5q19 0 37 10t28.5 35t10.5 59q0 57 -26.5 127.5t-62.5 109.5l84 63q41 -49 67.5 -110.5t34.5 -105.5t8 -77v-5q0 -91 76 -93zM675 530h-91v91h91v-91zM675 -173h-91v91h91v-91z" />
    <glyph glyph-name="uni069B.init" unicode="&#x69b;" horiz-adv-x="801" 
d="M0 0q-24 0 -40.5 15.5t-16.5 40.5q0 24 16.5 40t40.5 16h154v278h103v-278h37q43 0 65.5 28.5t22.5 76.5v173h102v-188q0 -48 21 -75.5t57 -27.5q18 0 36 10t28 35t10 59q0 57 -26.5 127.5t-62.5 109.5l84 63q29 -34 57 -87t41.5 -109.5t13.5 -105.5q0 -42 -9.5 -80
t-30.5 -67.5t-55.5 -47t-80.5 -17.5q-45 0 -82 17t-58 51h-4q-41 -57 -129 -57h-294zM445 -82h91v-91h-91v91zM324 -82h90v-91h-90v91zM384 -210h91v-90h-91v90z" />
    <glyph glyph-name="uni069B.medi" unicode="&#x69b;" horiz-adv-x="819" 
d="M567 -10q-93 0 -139 66h-5q-24 -30 -55.5 -43t-73.5 -13h-294q-23 0 -39.5 16t-16.5 40q0 14 7.5 27.5t26.5 21t45 7.5h131v278h103v-278h37q43 0 65.5 28.5t22.5 76.5v173h102v-188q0 -48 21 -75.5t57 -27.5q19 0 37 10t28.5 35t10.5 59q0 57 -26.5 127.5t-62.5 109.5
l84 63q41 -49 67.5 -110.5t34.5 -105.5t8 -77v-5q0 -91 76 -93v-112q-86 2 -116 54h-4q-20 -30 -54 -47t-78 -17zM445 -82h91v-91h-91v91zM324 -82h90v-91h-90v91zM384 -210h91v-90h-91v90z" />
    <glyph glyph-name="uni069B.fina" unicode="&#x69b;" horiz-adv-x="1022" 
d="M1022 112v-112q-86 2 -116 54h-4q-20 -30 -54 -47t-78 -17q-93 0 -139 67h-5q-18 -23 -47.5 -40t-81.5 -17h-30v-10q0 -43 -13.5 -75t-35.5 -57t-62 -44.5t-94 -19.5q-35 0 -71 9t-65 31.5t-47.5 59.5t-18.5 89v302h103v-250q0 -67 24 -98t76 -31q35 0 59.5 18t33 43
t8.5 45v378h103v-278h30q32 0 53 17t28 41.5t7 46.5v173h102v-188q0 -48 21 -75.5t57 -27.5q19 0 37 10t28.5 35t10.5 59q0 57 -26.5 127.5t-62.5 109.5l84 63q41 -49 67.5 -110.5t34.5 -105.5t8 -77v-5q0 -91 76 -93zM645 -82h91v-91h-91v91zM524 -82h90v-91h-90v91z
M584 -210h91v-90h-91v90z" />
    <glyph glyph-name="uni069C.init" unicode="&#x69c;" horiz-adv-x="801" 
d="M0 0q-24 0 -40.5 15.5t-16.5 40.5q0 24 16.5 40t40.5 16h154v278h103v-278h37q43 0 65.5 28.5t22.5 76.5v173h102v-188q0 -48 21 -75.5t57 -27.5q18 0 36 10t28 35t10 59q0 57 -26.5 127.5t-62.5 109.5l84 63q29 -34 57 -87t41.5 -109.5t13.5 -105.5q0 -42 -9.5 -80
t-30.5 -67.5t-55.5 -47t-80.5 -17.5q-45 0 -82 17t-58 51h-4q-41 -57 -129 -57h-294zM445 -82h91v-91h-91v91zM324 -82h90v-91h-90v91zM384 -210h91v-90h-91v90zM538 530h-91v91h91v-91zM416 530h-90v91h90v-91zM477 657h-91v92h91v-92z" />
    <glyph glyph-name="uni069C.medi" unicode="&#x69c;" horiz-adv-x="819" 
d="M567 -10q-93 0 -139 66h-5q-24 -30 -55.5 -43t-73.5 -13h-294q-23 0 -39.5 16t-16.5 40q0 14 7.5 27.5t26.5 21t45 7.5h131v278h103v-278h37q43 0 65.5 28.5t22.5 76.5v173h102v-188q0 -48 21 -75.5t57 -27.5q19 0 37 10t28.5 35t10.5 59q0 57 -26.5 127.5t-62.5 109.5
l84 63q41 -49 67.5 -110.5t34.5 -105.5t8 -77v-5q0 -91 76 -93v-112q-86 2 -116 54h-4q-20 -30 -54 -47t-78 -17zM445 -82h91v-91h-91v91zM324 -82h90v-91h-90v91zM384 -210h91v-90h-91v90zM538 530h-91v91h91v-91zM416 530h-90v91h90v-91zM477 657h-91v92h91v-92z" />
    <glyph glyph-name="uni069C.fina" unicode="&#x69c;" horiz-adv-x="1022" 
d="M1022 112v-112q-86 2 -116 54h-4q-20 -30 -54 -47t-78 -17q-93 0 -139 67h-5q-18 -23 -47.5 -40t-81.5 -17h-30v-10q0 -43 -13.5 -75t-35.5 -57t-62 -44.5t-94 -19.5q-35 0 -71 9t-65 31.5t-47.5 59.5t-18.5 89v302h103v-250q0 -67 24 -98t76 -31q35 0 59.5 18t33 43
t8.5 45v378h103v-278h30q32 0 53 17t28 41.5t7 46.5v173h102v-188q0 -48 21 -75.5t57 -27.5q19 0 37 10t28.5 35t10.5 59q0 57 -26.5 127.5t-62.5 109.5l84 63q41 -49 67.5 -110.5t34.5 -105.5t8 -77v-5q0 -91 76 -93zM733 530h-91v91h91v-91zM611 530h-90v91h90v-91z
M672 657h-91v92h91v-92zM645 -82h91v-91h-91v91zM524 -82h90v-91h-90v91zM584 -210h91v-90h-91v90z" />
    <glyph glyph-name="uni069D.init" unicode="&#x69d;" horiz-adv-x="653" 
d="M0 0q-23 0 -40 15.5t-17 39.5t17 40.5t40 16.5h58v345h103v-88h6q45 49 107 79t123 30q96 0 147 -50.5t51 -137.5v-290h-595zM161 143v-31h330v137q0 51 -26.5 83t-87.5 32q-36 0 -73.5 -13t-69 -42.5t-52.5 -73t-21 -92.5zM432 -173h-91v91h91v-91zM310 -173h-90v91h90
v-91z" />
    <glyph glyph-name="uni069D.medi" unicode="&#x69d;" horiz-adv-x="652" 
d="M0 0q-23 0 -40 15.5t-17 39.5t17 40.5t40 16.5h58v345h103v-88h6q45 49 107 79t123 30q96 0 147 -50.5t51 -137.5v-178h57v-112h-652zM161 143v-31h330v137q0 51 -26.5 83t-87.5 32q-36 0 -73.5 -13t-69 -42.5t-52.5 -73t-21 -92.5zM432 -173h-91v91h91v-91zM310 -173
h-90v91h90v-91z" />
    <glyph glyph-name="uni069D.fina" unicode="&#x69d;" horiz-adv-x="962" 
d="M369 457h102v-88h7q44 49 106 79t123 30q96 0 147 -50t51 -138v-178h57v-112h-490v-9q0 -31 -10 -64.5t-34 -62.5t-65.5 -49.5t-99.5 -20.5q-100 0 -152.5 54t-52.5 141v296h103v-268q0 -52 26.5 -81.5t76.5 -29.5q23 0 36 9q36 8 52.5 36.5t16.5 65.5v440zM471 143v-31
h330v137q0 38 -13.5 64t-38 38.5t-61.5 12.5q-36 0 -74 -13t-69.5 -42.5t-52.5 -73t-21 -92.5zM786 -173h-91v91h91v-91zM664 -173h-90v91h90v-91z" />
    <glyph glyph-name="uni069E.init" unicode="&#x69e;" horiz-adv-x="653" 
d="M0 0q-23 0 -40 15.5t-17 39.5t17 40.5t40 16.5h58v345h103v-88h6q45 49 107 79t123 30q96 0 147 -50.5t51 -137.5v-290h-595zM161 143v-31h330v137q0 51 -26.5 83t-87.5 32q-36 0 -73.5 -13t-69 -42.5t-52.5 -73t-21 -92.5zM451 555h-91v91h91v-91zM329 555h-90v91h90
v-91zM390 682h-91v92h91v-92z" />
    <glyph glyph-name="uni069E.medi" unicode="&#x69e;" horiz-adv-x="652" 
d="M0 0q-23 0 -40 15.5t-17 39.5t17 40.5t40 16.5h58v345h103v-88h6q45 49 107 79t123 30q96 0 147 -50.5t51 -137.5v-178h57v-112h-652zM161 143v-31h330v137q0 51 -26.5 83t-87.5 32q-36 0 -73.5 -13t-69 -42.5t-52.5 -73t-21 -92.5zM451 555h-91v91h91v-91zM329 555h-90
v91h90v-91zM390 682h-91v92h91v-92z" />
    <glyph glyph-name="uni069E.fina" unicode="&#x69e;" horiz-adv-x="962" 
d="M369 457h102v-88h7q44 49 106 79t123 30q96 0 147 -50t51 -138v-178h57v-112h-490v-9q0 -31 -10 -64.5t-34 -62.5t-65.5 -49.5t-99.5 -20.5q-100 0 -152.5 54t-52.5 141v296h103v-268q0 -52 26.5 -81.5t76.5 -29.5q23 0 36 9q36 8 52.5 36.5t16.5 65.5v440zM471 143v-31
h330v137q0 38 -13.5 64t-38 38.5t-61.5 12.5q-36 0 -74 -13t-69.5 -42.5t-52.5 -73t-21 -92.5zM786 555h-91v91h91v-91zM664 555h-90v91h90v-91zM725 682h-91v92h91v-92z" />
    <glyph glyph-name="uni069F.medi" unicode="&#x69f;" horiz-adv-x="652" 
d="M0 0q-23 0 -40 15.5t-17 39.5t17 40.5t40 16.5h58v614h103v-357h6q45 49 107 79t123 30q96 0 147 -50.5t51 -137.5v-178h57v-112h-652zM161 143v-31h330v137q0 51 -26.5 83t-87.5 32q-36 0 -73.5 -13t-69 -42.5t-52.5 -73t-21 -92.5zM481 555h-91v91h91v-91zM359 555h-90
v91h90v-91zM420 682h-91v92h91v-92z" />
    <glyph glyph-name="uni069F.fina" unicode="&#x69f;" horiz-adv-x="770" 
d="M50 0v112h126v614h103v-357h6q45 49 107 79t123 30q96 0 147 -50.5t51 -137.5v-178h57v-112h-720zM279 143v-31h330v137q0 51 -26.5 83t-87.5 32q-36 0 -73.5 -13t-69 -42.5t-52.5 -73t-21 -92.5zM591 555h-91v91h91v-91zM469 555h-90v91h90v-91zM530 682h-91v92h91v-92z
" />
    <glyph glyph-name="uni06A0.init" unicode="&#x6a0;" horiz-adv-x="535" 
d="M174 232q0 -32 13.5 -59.5t41 -44t71.5 -16.5h159v-112h-459q-23 0 -40 15.5t-17 39.5t17 40.5t40 16.5h87l5 6q-34 34 -34 119q0 42 12 85t43.5 81.5t78 56.5t92.5 18q107 0 193 -71l-61 -94q-56 48 -126 48q-35 0 -61.5 -16t-40.5 -44t-14 -69zM373 555h-91v91h91v-91z
M251 555h-90v91h90v-91zM312 682h-91v92h91v-92z" />
    <glyph glyph-name="uni06A0.medi" unicode="&#x6a0;" horiz-adv-x="569" 
d="M-57 55q0 24 17 40.5t40 16.5h52q25 0 57.5 4t47.5 11q-26 20 -50 48.5t-36.5 62.5t-12.5 61q0 52 27 91t79.5 63.5t127.5 24.5q63 0 112.5 -21t78 -59.5t28.5 -93.5q0 -45 -27.5 -94t-70.5 -81q46 -17 119 -17h37v-112h-44q-70 0 -134.5 14.5t-103.5 41.5
q-22 -14 -60.5 -27.5t-89.5 -21t-96 -7.5h-41q-23 0 -40 15.5t-17 39.5zM290 370q-62 0 -92 -24.5t-30 -57.5q0 -28 30.5 -65.5t92.5 -67.5q63 33 88.5 69.5t25.5 67.5q0 21 -12 39t-37 28.5t-66 10.5zM390 555h-91v91h91v-91zM268 555h-90v91h90v-91zM329 682h-91v92h91
v-92z" />
    <glyph glyph-name="uni06A0.fina" unicode="&#x6a0;" horiz-adv-x="611" 
d="M58 -97q0 51 28 97.5t60.5 75.5t56.5 43q-55 45 -80 96t-25 91q0 54 26.5 92t76 59t119.5 21q42 0 83.5 -10t75 -30.5t54 -54t20.5 -76.5q0 -23 -12 -53.5t-44 -62.5t-76 -54q24 -11 69 -18t81 -7h40v-112h-40q-77 0 -160 19t-121 43q-35 -21 -65.5 -48t-45 -53.5
t-14.5 -49.5q0 -41 38 -61.5t96 -20.5q34 0 62 5l15 -101q-39 -11 -92 -11q-103 0 -164.5 47.5t-61.5 133.5zM209 303q0 -27 26.5 -61.5t82.5 -66.5q68 32 96.5 60t28.5 56q0 16 -11.5 35t-43 32t-73.5 13q-47 0 -76.5 -18t-29.5 -50zM411 555h-91v91h91v-91zM289 555h-90
v91h90v-91zM350 682h-91v92h91v-92z" />
    <glyph glyph-name="uni06A1.init" unicode="&#x6a1;" horiz-adv-x="535" 
d="M251 0h-251q-24 0 -40 15.5t-16 40.5q0 24 16 40t40 16h75q38 0 62 -4l1 5q-39 20 -59.5 59t-20.5 91q0 46 14.5 85.5t41.5 68.5t66 45t86 16q104 0 157.5 -62.5t53.5 -174.5q0 -118 -61 -179.5t-165 -61.5zM371 248q0 55 -25.5 87t-76.5 32t-77.5 -33t-26.5 -78
q0 -35 17.5 -61.5t52.5 -45t85 -24.5q51 35 51 123z" />
    <glyph glyph-name="uni06A1.medi" unicode="&#x6a1;" horiz-adv-x="539" 
d="M-56 56q0 24 16 40t40 16h67q43 0 58 -3l1 6q-30 21 -49 63.5t-19 87.5q0 21 4.5 48.5t17.5 54.5t37 52t63 41t87 16q50 0 90 -16t67.5 -45t42 -70.5t14.5 -90.5q0 -36 -12.5 -75.5t-32.5 -62.5l2 -6h101v-112h-539q-24 0 -40 15.5t-16 40.5zM269 368q-37 0 -62 -18
t-33.5 -42.5t-8.5 -44.5q0 -40 22 -73.5t56 -51t66 -23.5q17 11 33.5 31.5t24.5 48t8 53.5q0 25 -9.5 53.5t-35 47.5t-61.5 19z" />
    <glyph glyph-name="uni06A1.fina" unicode="&#x6a1;" horiz-adv-x="858" 
d="M164 283q0 -94 39 -132.5t114 -38.5h69q43 0 58 -3l1 6q-30 21 -49 63.5t-19 87.5q0 21 4.5 48.5t17.5 54.5t37 52t63 41t87 16q50 0 90 -16t67.5 -45t42 -70.5t14.5 -90.5q0 -36 -12.5 -75.5t-32.5 -62.5l2 -6h101v-112h-529q-189 0 -246 129q-12 27 -18.5 67t-6.5 132
v27h106v-72zM588 368q-37 0 -62 -18t-33.5 -42.5t-8.5 -44.5q0 -40 22 -73.5t56 -51t66 -23.5q17 11 33.5 31.5t24.5 48t8 53.5q0 25 -9.5 53.5t-35 47.5t-61.5 19z" />
    <glyph glyph-name="uni06A2.init" unicode="&#x6a2;" horiz-adv-x="535" 
d="M251 0h-251q-24 0 -40 15.5t-16 40.5q0 24 16 40t40 16h75q38 0 62 -4l1 5q-39 20 -59.5 59t-20.5 91q0 46 14.5 85.5t41.5 68.5t66 45t86 16q104 0 157.5 -62.5t53.5 -174.5q0 -118 -61 -179.5t-165 -61.5zM371 248q0 55 -25.5 87t-76.5 32t-77.5 -33t-26.5 -78
q0 -35 17.5 -61.5t52.5 -45t85 -24.5q51 35 51 123zM313 -173h-91v91h91v-91z" />
    <glyph glyph-name="uni06A2.medi" unicode="&#x6a2;" horiz-adv-x="539" 
d="M-56 56q0 24 16 40t40 16h67q43 0 58 -3l1 6q-30 21 -49 63.5t-19 87.5q0 21 4.5 48.5t17.5 54.5t37 52t63 41t87 16q50 0 90 -16t67.5 -45t42 -70.5t14.5 -90.5q0 -36 -12.5 -75.5t-32.5 -62.5l2 -6h101v-112h-539q-24 0 -40 15.5t-16 40.5zM269 368q-37 0 -62 -18
t-33.5 -42.5t-8.5 -44.5q0 -40 22 -73.5t56 -51t66 -23.5q17 11 33.5 31.5t24.5 48t8 53.5q0 25 -9.5 53.5t-35 47.5t-61.5 19zM315 -173h-91v91h91v-91z" />
    <glyph glyph-name="uni06A2.fina" unicode="&#x6a2;" horiz-adv-x="858" 
d="M164 283q0 -94 39 -132.5t114 -38.5h69q43 0 58 -3l1 6q-30 21 -49 63.5t-19 87.5q0 21 4.5 48.5t17.5 54.5t37 52t63 41t87 16q50 0 90 -16t67.5 -45t42 -70.5t14.5 -90.5q0 -36 -12.5 -75.5t-32.5 -62.5l2 -6h101v-112h-529q-189 0 -246 129q-12 27 -18.5 67t-6.5 132
v27h106v-72zM588 368q-37 0 -62 -18t-33.5 -42.5t-8.5 -44.5q0 -40 22 -73.5t56 -51t66 -23.5q17 11 33.5 31.5t24.5 48t8 53.5q0 25 -9.5 53.5t-35 47.5t-61.5 19zM630 -173h-91v91h91v-91z" />
    <glyph glyph-name="uni06A3.init" unicode="&#x6a3;" horiz-adv-x="535" 
d="M251 0h-251q-24 0 -40 15.5t-16 40.5q0 24 16 40t40 16h75q38 0 62 -4l1 5q-39 20 -59.5 59t-20.5 91q0 46 14.5 85.5t41.5 68.5t66 45t86 16q104 0 157.5 -62.5t53.5 -174.5q0 -118 -61 -179.5t-165 -61.5zM371 248q0 55 -25.5 87t-76.5 32t-77.5 -33t-26.5 -78
q0 -35 17.5 -61.5t52.5 -45t85 -24.5q51 35 51 123zM313 -174h-91v91h91v-91zM313 555h-91v91h91v-91z" />
    <glyph glyph-name="uni06A3.medi" unicode="&#x6a3;" horiz-adv-x="539" 
d="M-56 56q0 24 16 40t40 16h67q43 0 58 -3l1 6q-30 21 -49 63.5t-19 87.5q0 21 4.5 48.5t17.5 54.5t37 52t63 41t87 16q50 0 90 -16t67.5 -45t42 -70.5t14.5 -90.5q0 -36 -12.5 -75.5t-32.5 -62.5l2 -6h101v-112h-539q-24 0 -40 15.5t-16 40.5zM269 368q-37 0 -62 -18
t-33.5 -42.5t-8.5 -44.5q0 -40 22 -73.5t56 -51t66 -23.5q17 11 33.5 31.5t24.5 48t8 53.5q0 25 -9.5 53.5t-35 47.5t-61.5 19zM315 555h-91v91h91v-91zM315 -174h-91v91h91v-91z" />
    <glyph glyph-name="uni06A3.fina" unicode="&#x6a3;" horiz-adv-x="858" 
d="M164 283q0 -94 39 -132.5t114 -38.5h69q43 0 58 -3l1 6q-30 21 -49 63.5t-19 87.5q0 21 4.5 48.5t17.5 54.5t37 52t63 41t87 16q50 0 90 -16t67.5 -45t42 -70.5t14.5 -90.5q0 -36 -12.5 -75.5t-32.5 -62.5l2 -6h101v-112h-529q-189 0 -246 129q-12 27 -18.5 67t-6.5 132
v27h106v-72zM588 368q-37 0 -62 -18t-33.5 -42.5t-8.5 -44.5q0 -40 22 -73.5t56 -51t66 -23.5q17 11 33.5 31.5t24.5 48t8 53.5q0 25 -9.5 53.5t-35 47.5t-61.5 19zM630 -174h-91v91h91v-91zM630 555h-91v91h91v-91z" />
    <glyph glyph-name="uni06A4" unicode="&#x6a4;" horiz-adv-x="854" arabic-form="isolated" 
d="M164 283q0 -94 39 -132.5t114 -38.5h71q46 0 70 -4l1 5q-40 18 -60.5 59.5t-20.5 96.5t24.5 105t74 77t108.5 27q104 0 157.5 -62.5t53.5 -174.5q0 -118 -61 -179.5t-165 -61.5h-241q-200 0 -252 144q-9 24 -14 61t-5 114v36h106v-72zM587 367q-50 0 -76.5 -33.5
t-26.5 -77.5q0 -28 14 -56t52.5 -49t88.5 -27q26 18 38.5 51t12.5 73q0 55 -26 87t-77 32zM691 555h-91v91h91v-91zM569 555h-90v91h90v-91zM630 682h-91v92h91v-92z" />
    <glyph glyph-name="uni06A5.init" unicode="&#x6a5;" horiz-adv-x="535" 
d="M251 0h-251q-24 0 -40 15.5t-16 40.5q0 24 16 40t40 16h75q38 0 62 -4l1 5q-39 20 -59.5 59t-20.5 91q0 46 14.5 85.5t41.5 68.5t66 45t86 16q104 0 157.5 -62.5t53.5 -174.5q0 -118 -61 -179.5t-165 -61.5zM371 248q0 55 -25.5 87t-76.5 32t-77.5 -33t-26.5 -78
q0 -35 17.5 -61.5t52.5 -45t85 -24.5q51 35 51 123zM282 -82h91v-91h-91v91zM161 -82h90v-91h-90v91zM221 -210h91v-90h-91v90z" />
    <glyph glyph-name="uni06A5.medi" unicode="&#x6a5;" horiz-adv-x="539" 
d="M-56 56q0 24 16 40t40 16h67q43 0 58 -3l1 6q-30 21 -49 63.5t-19 87.5q0 21 4.5 48.5t17.5 54.5t37 52t63 41t87 16q50 0 90 -16t67.5 -45t42 -70.5t14.5 -90.5q0 -36 -12.5 -75.5t-32.5 -62.5l2 -6h101v-112h-539q-24 0 -40 15.5t-16 40.5zM269 368q-37 0 -62 -18
t-33.5 -42.5t-8.5 -44.5q0 -40 22 -73.5t56 -51t66 -23.5q17 11 33.5 31.5t24.5 48t8 53.5q0 25 -9.5 53.5t-35 47.5t-61.5 19zM284 -82h91v-91h-91v91zM163 -82h90v-91h-90v91zM223 -210h91v-90h-91v90z" />
    <glyph glyph-name="uni06A5.fina" unicode="&#x6a5;" horiz-adv-x="858" 
d="M164 283q0 -94 39 -132.5t114 -38.5h69q43 0 58 -3l1 6q-30 21 -49 63.5t-19 87.5q0 21 4.5 48.5t17.5 54.5t37 52t63 41t87 16q50 0 90 -16t67.5 -45t42 -70.5t14.5 -90.5q0 -36 -12.5 -75.5t-32.5 -62.5l2 -6h101v-112h-529q-189 0 -246 129q-12 27 -18.5 67t-6.5 132
v27h106v-72zM588 368q-37 0 -62 -18t-33.5 -42.5t-8.5 -44.5q0 -40 22 -73.5t56 -51t66 -23.5q17 11 33.5 31.5t24.5 48t8 53.5q0 25 -9.5 53.5t-35 47.5t-61.5 19zM600 -82h91v-91h-91v91zM479 -82h90v-91h-90v91zM539 -210h91v-90h-91v90z" />
    <glyph glyph-name="uni06A6" unicode="&#x6a6;" horiz-adv-x="854" arabic-form="isolated" 
d="M164 283q0 -94 39 -132.5t114 -38.5h71q46 0 70 -4l1 5q-40 18 -60.5 59.5t-20.5 96.5t24.5 105t74 77t108.5 27q104 0 157.5 -62.5t53.5 -174.5q0 -118 -61 -179.5t-165 -61.5h-241q-200 0 -252 144q-9 24 -14 61t-5 114v36h106v-72zM587 367q-50 0 -76.5 -33.5
t-26.5 -77.5q0 -28 14 -56t52.5 -49t88.5 -27q26 18 38.5 51t12.5 73q0 55 -26 87t-77 32zM691 555h-91v91h91v-91zM569 555h-90v91h90v-91zM691 682h-91v92h91v-92zM569 682h-90v92h90v-92z" />
    <glyph glyph-name="uni06A7.fina" unicode="&#x6a7;" horiz-adv-x="723" 
d="M563 112v120q0 70 -26.5 101.5t-73.5 31.5q-51 0 -82.5 -33.5t-31.5 -100.5q0 -63 30.5 -91t82.5 -28h101zM669 243v-131h54v-112h-59q-12 -102 -87.5 -162t-206.5 -60q-65 0 -117.5 14t-88 38.5t-58 57.5t-35.5 77.5t-13 103.5v216h103v-185q0 -110 52 -160t158 -50
q70 0 120.5 27.5t60.5 85.5h-81q-110 0 -168.5 56t-58.5 173q0 116 58.5 181t164.5 65q95 0 148.5 -60t53.5 -175zM502 555h-91v91h91v-91z" />
    <glyph glyph-name="uni06A8.fina" unicode="&#x6a8;" horiz-adv-x="723" 
d="M563 112v120q0 70 -26.5 101.5t-73.5 31.5q-51 0 -82.5 -33.5t-31.5 -100.5q0 -63 30.5 -91t82.5 -28h101zM669 243v-131h54v-112h-59q-12 -102 -87.5 -162t-206.5 -60q-65 0 -117.5 14t-88 38.5t-58 57.5t-35.5 77.5t-13 103.5v216h103v-185q0 -110 52 -160t158 -50
q70 0 120.5 27.5t60.5 85.5h-81q-110 0 -168.5 56t-58.5 173q0 116 58.5 181t164.5 65q95 0 148.5 -60t53.5 -175zM563 555h-91v91h91v-91zM441 555h-90v91h90v-91zM502 682h-91v92h91v-92z" />
    <glyph glyph-name="uni06A9" unicode="&#x6a9;" horiz-adv-x="816" arabic-form="isolated" 
d="M371 417v75l379 244l50 -77l-305 -196l163 -98q39 -23 58.5 -50.5t26 -58.5t6.5 -78v-178h-426q-265 0 -265 252v100h103v-69q0 -96 39.5 -133.5t116.5 -37.5h329v60q0 37 -10.5 64t-38.5 44z" />
    <glyph glyph-name="uni06AA.init" unicode="&#x6aa;" horiz-adv-x="1010" 
d="M234 345h501q114 0 165.5 -42.5t51.5 -143.5v-159h-952q-24 0 -40 15.5t-16 40.5q0 24 16 40t40 16h843v41q0 46 -23 62t-76 16h-686v91l188 189h150v-8z" />
    <glyph glyph-name="uni06AA.medi" unicode="&#x6aa;" horiz-adv-x="1009" 
d="M234 345h501q113 0 164.5 -42.5t51.5 -143.5v-47h58v-112h-1009q-24 0 -40 15.5t-16 40.5q0 24 16 40t40 16h842v41q0 46 -23 62t-76 16h-685v91l188 189h150v-8z" />
    <glyph glyph-name="uni06AA.fina" unicode="&#x6aa;" horiz-adv-x="1126" 
d="M350 345h501q114 0 165.5 -42.5t51.5 -143.5v-47h58v-112h-1076v112h909v41q0 46 -23 62t-76 16h-686v91l188 189h150v-8z" />
    <glyph glyph-name="uni06AB.init" unicode="&#x6ab;" horiz-adv-x="504" 
d="M-58 56q0 25 16 40.5t42 15.5h333v60q0 49 -13.5 72t-35.5 36l-226 137v75l379 244l51 -77l-79 -51q11 -11 17.5 -27t6.5 -32q0 -35 -23.5 -60t-61.5 -25q-27 0 -49 15t-31 39l-86 -55l163 -98q39 -23 58.5 -50.5t26 -58.5t6.5 -78v-178h-437q-25 0 -41 15.5t-16 40.5z
M384 549q0 9 -5 18.5t-13 13.5l-53 -34q1 -13 10 -23.5t25 -10.5q17 0 26.5 10.5t9.5 25.5z" />
    <glyph glyph-name="uni06AB.medi" unicode="&#x6ab;" horiz-adv-x="504" 
d="M-58 56q0 25 16 40.5t42 15.5h333v60q0 49 -13.5 72t-35.5 36l-226 137v75l379 244l51 -77l-79 -51q11 -11 17.5 -27t6.5 -32q0 -35 -23.5 -60t-61.5 -25q-27 0 -49 15t-31 39l-86 -55l163 -98q39 -23 58.5 -50.5t26 -58.5t6.5 -78v-66h68v-112h-505q-25 0 -41 15.5
t-16 40.5zM384 549q0 9 -5 18.5t-13 13.5l-53 -34q1 -13 10 -23.5t25 -10.5q17 0 26.5 10.5t9.5 25.5z" />
    <glyph glyph-name="uni06AC.init" unicode="&#x6ac;" horiz-adv-x="504" 
d="M-58 56q0 25 16 40.5t42 15.5h333v60q0 49 -13.5 72t-35.5 36l-226 137v75l379 244l51 -77l-306 -196l163 -98q39 -23 58.5 -50.5t26 -58.5t6.5 -78v-178h-437q-25 0 -41 15.5t-16 40.5zM229 654h-91v91h91v-91z" />
    <glyph glyph-name="uni06AC.medi" unicode="&#x6ac;" horiz-adv-x="504" 
d="M-58 56q0 25 16 40.5t42 15.5h333v60q0 49 -13.5 72t-35.5 36l-226 137v75l379 244l51 -77l-306 -196l163 -98q39 -23 58.5 -50.5t26 -58.5t6.5 -78v-66h68v-112h-505q-25 0 -41 15.5t-16 40.5zM229 654h-91v91h91v-91z" />
    <glyph glyph-name="uni06AC.fina" unicode="&#x6ac;" horiz-adv-x="778" 
d="M600 726h103v-528q0 -43 16.5 -64t58.5 -22v-112q-93 0 -122 56q-19 -25 -45.5 -40.5t-84.5 -15.5h-202q-264 0 -264 252v103h103v-72q0 -97 39 -134t116 -37h207q24 0 41.5 8.5t25.5 28.5t8 50v527zM416 496q19 0 44.5 -7t42.5 -19l-26 -51q-30 18 -63 18
q-22 0 -34.5 -11t-12.5 -27t11 -25.5t30 -9.5h94v-58h-229v58h37l2 2q-10 13 -10 35q0 24 13.5 46.5t38.5 35.5t62 13zM446 530h-91v91h91v-91z" />
    <glyph glyph-name="uni06AD" unicode="&#x6ad;" horiz-adv-x="768" arabic-form="isolated" 
d="M608 726h102v-548q0 -88 -46 -133t-129 -45h-204q-53 0 -104 12t-88.5 42t-59 78.5t-21.5 119.5v103h103v-72q0 -98 40.5 -134.5t123.5 -36.5h210q21 0 39 8.5t26 29t8 48.5v528zM414 496q19 0 44.5 -7t42.5 -19l-26 -51q-30 18 -63 18q-22 0 -34.5 -11t-12.5 -27
t11 -25.5t30 -9.5h94v-58h-229v58h37l2 2q-10 13 -10 35q0 24 13.5 46.5t38.5 35.5t62 13zM510 530h-91v91h91v-91zM388 530h-90v91h90v-91zM449 657h-91v92h91v-92z" />
    <glyph glyph-name="uni06AE.init" unicode="&#x6ae;" horiz-adv-x="504" 
d="M-58 56q0 25 16 40.5t42 15.5h333v60q0 49 -13.5 72t-35.5 36l-226 137v75l379 244l51 -77l-306 -196l163 -98q39 -23 58.5 -50.5t26 -58.5t6.5 -78v-178h-437q-25 0 -41 15.5t-16 40.5zM269 -82h91v-91h-91v91zM148 -82h90v-91h-90v91zM208 -210h91v-90h-91v90z" />
    <glyph glyph-name="uni06AE.medi" unicode="&#x6ae;" horiz-adv-x="504" 
d="M-58 56q0 25 16 40.5t42 15.5h333v60q0 49 -13.5 72t-35.5 36l-226 137v75l379 244l51 -77l-306 -196l163 -98q39 -23 58.5 -50.5t26 -58.5t6.5 -78v-66h68v-112h-505q-25 0 -41 15.5t-16 40.5zM269 -82h91v-91h-91v91zM148 -82h90v-91h-90v91zM208 -210h91v-90h-91v90z
" />
    <glyph glyph-name="uni06AE.fina" unicode="&#x6ae;" horiz-adv-x="778" 
d="M600 726h103v-528q0 -43 16.5 -64t58.5 -22v-112q-93 0 -122 56q-19 -25 -45.5 -40.5t-84.5 -15.5h-202q-264 0 -264 252v103h103v-72q0 -97 39 -134t116 -37h207q24 0 41.5 8.5t25.5 28.5t8 50v527zM416 496q19 0 44.5 -7t42.5 -19l-26 -51q-30 18 -63 18
q-22 0 -34.5 -11t-12.5 -27t11 -25.5t30 -9.5h94v-58h-229v58h37l2 2q-10 13 -10 35q0 24 13.5 46.5t38.5 35.5t62 13zM434 -82h91v-91h-91v91zM313 -82h90v-91h-90v91zM373 -210h91v-90h-91v90z" />
    <glyph glyph-name="uni06AF" unicode="&#x6af;" horiz-adv-x="816" arabic-form="isolated" 
d="M371 417v75l379 244l50 -77l-305 -196l163 -98q39 -23 58.5 -50.5t26 -58.5t6.5 -78v-178h-426q-265 0 -265 252v100h103v-69q0 -96 39.5 -133.5t116.5 -37.5h329v60q0 37 -10.5 64t-38.5 44zM660 835l31 -51l-376 -242l-32 51z" />
    <glyph glyph-name="uni06B0.init" unicode="&#x6b0;" horiz-adv-x="504" 
d="M-58 56q0 25 16 40.5t42 15.5h333v60q0 49 -13.5 72t-35.5 36l-226 137v75l379 244l51 -77l-79 -51q11 -11 17.5 -27t6.5 -32q0 -35 -23.5 -60t-61.5 -25q-27 0 -49 15t-31 39l-86 -55l163 -98q39 -23 58.5 -50.5t26 -58.5t6.5 -78v-178h-437q-25 0 -41 15.5t-16 40.5z
M370 840l31 -51l-376 -242l-32 51zM384 549q0 9 -5 18.5t-13 13.5l-53 -34q1 -13 10 -23.5t25 -10.5q17 0 26.5 10.5t9.5 25.5z" />
    <glyph glyph-name="uni06B0.medi" unicode="&#x6b0;" horiz-adv-x="504" 
d="M-58 56q0 25 16 40.5t42 15.5h333v60q0 49 -13.5 72t-35.5 36l-226 137v75l379 244l51 -77l-79 -51q11 -11 17.5 -27t6.5 -32q0 -35 -23.5 -60t-61.5 -25q-27 0 -49 15t-31 39l-86 -55l163 -98q39 -23 58.5 -50.5t26 -58.5t6.5 -78v-66h68v-112h-505q-25 0 -41 15.5
t-16 40.5zM370 840l31 -51l-376 -242l-32 51zM384 549q0 9 -5 18.5t-13 13.5l-53 -34q1 -13 10 -23.5t25 -10.5q17 0 26.5 10.5t9.5 25.5z" />
    <glyph glyph-name="uni06B0.fina" unicode="&#x6b0;" horiz-adv-x="806" 
d="M371 417v75l379 244l50 -77l-88 -56q19 -24 19 -54q0 -35 -23.5 -60t-61.5 -25q-25 0 -45.5 13t-30.5 34l-75 -48l163 -98q39 -23 58.5 -50.5t26 -58.5t6.5 -78v-66h57v-112h-483q-265 0 -265 252v100h103v-69q0 -96 39.5 -133.5t116.5 -37.5h329v60q0 79 -49 108z
M660 835l31 -51l-376 -242l-32 51zM682 549q0 17 -12 27l-58 -38q3 -10 12.5 -17.5t21.5 -7.5q17 0 26.5 10.5t9.5 25.5z" />
    <glyph glyph-name="uni06B1" unicode="&#x6b1;" horiz-adv-x="816" arabic-form="isolated" 
d="M371 417v75l379 244l50 -77l-305 -196l163 -98q39 -23 58.5 -50.5t26 -58.5t6.5 -78v-178h-426q-265 0 -265 252v100h103v-69q0 -96 39.5 -133.5t116.5 -37.5h329v60q0 37 -10.5 64t-38.5 44zM660 835l31 -51l-376 -242l-32 51zM464 779h-61v64h61v-64zM376 715h-61v64
h61v-64z" />
    <glyph glyph-name="uni06B2.init" unicode="&#x6b2;" horiz-adv-x="504" 
d="M-58 56q0 25 16 40.5t42 15.5h333v60q0 49 -13.5 72t-35.5 36l-226 137v75l379 244l51 -77l-306 -196l163 -98q39 -23 58.5 -50.5t26 -58.5t6.5 -78v-178h-437q-25 0 -41 15.5t-16 40.5zM328 -173h-91v91h91v-91zM206 -173h-90v91h90v-91zM370 840l31 -51l-376 -242
l-32 51z" />
    <glyph glyph-name="uni06B2.medi" unicode="&#x6b2;" horiz-adv-x="504" 
d="M-58 56q0 25 16 40.5t42 15.5h333v60q0 49 -13.5 72t-35.5 36l-226 137v75l379 244l51 -77l-306 -196l163 -98q39 -23 58.5 -50.5t26 -58.5t6.5 -78v-66h68v-112h-505q-25 0 -41 15.5t-16 40.5zM328 -173h-91v91h91v-91zM206 -173h-90v91h90v-91zM370 840l31 -51
l-376 -242l-32 51z" />
    <glyph glyph-name="uni06B2.fina" unicode="&#x6b2;" horiz-adv-x="806" 
d="M371 417v75l379 244l50 -77l-305 -196l163 -98q39 -23 58.5 -50.5t26 -58.5t6.5 -78v-66h57v-112h-483q-265 0 -265 252v100h103v-69q0 -96 39.5 -133.5t116.5 -37.5h329v60q0 79 -49 108zM544 -173h-91v91h91v-91zM422 -173h-90v91h90v-91zM660 835l31 -51l-376 -242
l-32 51z" />
    <glyph glyph-name="uni06B3" unicode="&#x6b3;" horiz-adv-x="816" arabic-form="isolated" 
d="M371 417v75l379 244l50 -77l-305 -196l163 -98q39 -23 58.5 -50.5t26 -58.5t6.5 -78v-178h-426q-265 0 -265 252v100h103v-69q0 -96 39.5 -133.5t116.5 -37.5h329v60q0 37 -10.5 64t-38.5 44zM493 -301h-91v91h91v-91zM493 -174h-91v92h91v-92zM660 835l31 -51l-376 -242
l-32 51z" />
    <glyph glyph-name="uni06B4.init" unicode="&#x6b4;" horiz-adv-x="504" 
d="M-58 56q0 25 16 40.5t42 15.5h333v60q0 49 -13.5 72t-35.5 36l-226 137v75l379 244l51 -77l-306 -196l163 -98q39 -23 58.5 -50.5t26 -58.5t6.5 -78v-178h-437q-25 0 -41 15.5t-16 40.5zM370 840l31 -51l-376 -242l-32 51zM197 779h-61v64h61v-64zM109 806h-61v64h61v-64
zM109 715h-61v64h61v-64z" />
    <glyph glyph-name="uni06B4.medi" unicode="&#x6b4;" horiz-adv-x="504" 
d="M-58 56q0 25 16 40.5t42 15.5h333v60q0 49 -13.5 72t-35.5 36l-226 137v75l379 244l51 -77l-306 -196l163 -98q39 -23 58.5 -50.5t26 -58.5t6.5 -78v-66h68v-112h-505q-25 0 -41 15.5t-16 40.5zM370 840l31 -51l-376 -242l-32 51zM197 779h-61v64h61v-64zM109 806h-61v64
h61v-64zM109 715h-61v64h61v-64z" />
    <glyph glyph-name="uni06B4.fina" unicode="&#x6b4;" horiz-adv-x="806" 
d="M371 417v75l379 244l50 -77l-305 -196l163 -98q39 -23 58.5 -50.5t26 -58.5t6.5 -78v-66h57v-112h-483q-265 0 -265 252v100h103v-69q0 -96 39.5 -133.5t116.5 -37.5h329v60q0 79 -49 108zM660 835l31 -51l-376 -242l-32 51zM464 779h-61v64h61v-64zM376 715h-61v64h61
v-64zM376 806h-61v64h61v-64z" />
    <glyph glyph-name="uni06B5.init" unicode="&#x6b5;" horiz-adv-x="229" 
d="M68 726h103v-523q0 -107 -44 -155t-127 -48q-24 0 -40.5 16t-16.5 39q0 24 17 40t40 17q20 0 37 9t24 31t7 59v515zM86 780l-86 172l42 21l71 -121l74 121l42 -22l-85 -171h-58z" />
    <glyph glyph-name="uni06B5.medi" unicode="&#x6b5;" horiz-adv-x="249" 
d="M-57 55q0 21 16 39t41 18q36 0 53.5 21.5t17.5 70.5v522h103v-528q0 -44 17 -64.5t58 -21.5v-112q-41 0 -73.5 14t-47.5 42q-22 -30 -53.5 -43t-74.5 -13q-23 0 -40 16t-17 39zM96 780l-86 172l42 21l71 -121l74 121l42 -22l-85 -171h-58z" />
    <glyph glyph-name="uni06B5.fina" unicode="&#x6b5;" horiz-adv-x="530" 
d="M472 726v-614h58v-112h-58q0 -9 -2.5 -24t-5.5 -23q-9 -52 -38.5 -87.5t-70 -53.5t-92.5 -18q-50 0 -89 14.5t-65 41t-38.5 62.5t-12.5 78v295h103v-266q0 -29 11 -55.5t33.5 -42t58.5 -15.5q55 0 80 32.5t25 80.5v707h103zM390 780l-86 172l42 21l71 -121l74 121l42 -22
l-85 -171h-58z" />
    <glyph glyph-name="uni06B6.init" unicode="&#x6b6;" horiz-adv-x="229" 
d="M68 726h103v-523q0 -107 -44 -155t-127 -48q-24 0 -40.5 16t-16.5 39q0 24 17 40t40 17q20 0 37 9t24 31t7 59v515zM160 780h-91v91h91v-91z" />
    <glyph glyph-name="uni06B6.medi" unicode="&#x6b6;" horiz-adv-x="249" 
d="M-57 55q0 21 16 39t41 18q36 0 53.5 21.5t17.5 70.5v522h103v-528q0 -44 17 -64.5t58 -21.5v-112q-41 0 -73.5 14t-47.5 42q-22 -30 -53.5 -43t-74.5 -13q-23 0 -40 16t-17 39zM170 780h-91v91h91v-91z" />
    <glyph glyph-name="uni06B6.fina" unicode="&#x6b6;" horiz-adv-x="530" 
d="M472 726v-614h58v-112h-58q0 -9 -2.5 -24t-5.5 -23q-9 -52 -38.5 -87.5t-70 -53.5t-92.5 -18q-50 0 -89 14.5t-65 41t-38.5 62.5t-12.5 78v295h103v-266q0 -29 11 -55.5t33.5 -42t58.5 -15.5q55 0 80 32.5t25 80.5v707h103zM466 780h-91v91h91v-91z" />
    <glyph glyph-name="uni06B7.init" unicode="&#x6b7;" horiz-adv-x="229" 
d="M68 726h103v-523q0 -107 -44 -155t-127 -48q-24 0 -40.5 16t-16.5 39q0 24 17 40t40 17q20 0 37 9t24 31t7 59v515zM184 780h-61v64h61v-64zM107 780h-62v64h62v-64zM145 861h-61v66h61v-66z" />
    <glyph glyph-name="uni06B7.medi" unicode="&#x6b7;" horiz-adv-x="249" 
d="M-57 55q0 21 16 39t41 18q36 0 53.5 21.5t17.5 70.5v522h103v-528q0 -44 17 -64.5t58 -21.5v-112q-41 0 -73.5 14t-47.5 42q-22 -30 -53.5 -43t-74.5 -13q-23 0 -40 16t-17 39zM194 780h-61v64h61v-64zM117 780h-62v64h62v-64zM155 861h-61v66h61v-66z" />
    <glyph glyph-name="uni06B7.fina" unicode="&#x6b7;" horiz-adv-x="530" 
d="M472 726v-614h58v-112h-58q0 -9 -2.5 -24t-5.5 -23q-9 -52 -38.5 -87.5t-70 -53.5t-92.5 -18q-50 0 -89 14.5t-65 41t-38.5 62.5t-12.5 78v295h103v-266q0 -29 11 -55.5t33.5 -42t58.5 -15.5q55 0 80 32.5t25 80.5v707h103zM489 780h-61v64h61v-64zM412 780h-62v64h62
v-64zM450 861h-61v66h61v-66z" />
    <glyph glyph-name="uni06B8.init" unicode="&#x6b8;" horiz-adv-x="229" 
d="M68 726h103v-523q0 -107 -44 -155t-127 -48q-24 0 -40.5 16t-16.5 39q0 24 17 40t40 17q20 0 37 9t24 31t7 59v515zM129 -82h91v-91h-91v91zM8 -82h90v-91h-90v91zM68 -210h91v-90h-91v90z" />
    <glyph glyph-name="uni06B8.medi" unicode="&#x6b8;" horiz-adv-x="249" 
d="M-57 55q0 21 16 39t41 18q36 0 53.5 21.5t17.5 70.5v522h103v-528q0 -44 17 -64.5t58 -21.5v-112q-41 0 -73.5 14t-47.5 42q-22 -30 -53.5 -43t-74.5 -13q-23 0 -40 16t-17 39zM139 -82h91v-91h-91v91zM18 -82h90v-91h-90v91zM78 -210h91v-90h-91v90z" />
    <glyph glyph-name="uni06B8.fina" unicode="&#x6b8;" horiz-adv-x="530" 
d="M472 726v-614h58v-112h-58q0 -9 -2.5 -24t-5.5 -23q-9 -52 -38.5 -87.5t-70 -53.5t-92.5 -18q-50 0 -89 14.5t-65 41t-38.5 62.5t-12.5 78v295h103v-266q0 -29 11 -55.5t33.5 -42t58.5 -15.5q55 0 80 32.5t25 80.5v707h103zM278 -260h61v-65h-61v65zM200 -260h62v-65h-62
v65zM239 -342h61v-65h-61v65z" />
    <glyph glyph-name="uni06B9.init" unicode="&#x6b9;" horiz-adv-x="229" 
d="M68 455h103v-252q0 -107 -44 -155t-127 -48q-24 0 -40.5 16t-16.5 39q0 24 17 40t40 17q20 0 37 9t24 31t7 59v244zM160 530h-91v91h91v-91zM140 -173h-91v91h91v-91z" />
    <glyph glyph-name="uni06B9.medi" unicode="&#x6b9;" horiz-adv-x="249" 
d="M-57 55q0 21 16 39t41 18q36 0 53.5 21.5t17.5 70.5v186h103v-192q0 -44 17 -64.5t58 -21.5v-112q-41 0 -73.5 14t-47.5 42q-22 -30 -53.5 -43t-74.5 -13q-23 0 -40 16t-17 39zM170 470h-91v91h91v-91zM170 -173h-91v91h91v-91z" />
    <glyph glyph-name="uni06B9.fina" unicode="&#x6b9;" horiz-adv-x="530" 
d="M472 389v-277h58v-112h-58q0 -31 -9.5 -65.5t-36.5 -69.5t-71 -53t-92 -18q-50 0 -89 14.5t-65 41t-38.5 62.5t-12.5 78v295h103v-266q0 -34 11.5 -59.5t34 -39.5t57.5 -14q50 0 77.5 28.5t27.5 84.5v370h103zM312 -350h-91v91h91v-91zM312 450h-91v91h91v-91z" />
    <glyph glyph-name="uni06BA" unicode="&#x6ba;" horiz-adv-x="530" arabic-form="isolated" 
d="M472 390v-393q0 -54 -24.5 -102.5t-74.5 -74.5t-110 -26q-50 0 -89 14.5t-65 41t-38.5 62.5t-12.5 78v295h103v-266q0 -34 11.5 -60t34 -40t57.5 -14q29 0 54.5 11.5t38 39.5t12.5 63v371h103z" />
    <glyph glyph-name="uni06BB" unicode="&#x6bb;" horiz-adv-x="530" arabic-form="isolated" 
d="M472 390v-393q0 -54 -24.5 -102.5t-74.5 -74.5t-110 -26q-50 0 -89 14.5t-65 41t-38.5 62.5t-12.5 78v295h103v-266q0 -34 11.5 -60t34 -40t57.5 -14q29 0 54.5 11.5t38 39.5t12.5 63v371h103zM299 560q-21 0 -37.5 -14.5t-22.5 -38.5h95v15q0 17 -9 27.5t-26 10.5z
M393 450h-252v58h37v137h61v-59l3 -1q13 14 35.5 23t40.5 9q22 0 41 -10t26.5 -27t7.5 -33v-97z" />
    <glyph glyph-name="uni06BC.init" unicode="&#x6bc;" horiz-adv-x="229" 
d="M15 -19q0 13 2 19h-17q-24 0 -40.5 16t-16.5 39q0 24 17 40t40 17q20 0 37 9t24 31t7 59v244h103v-252q0 -96 -35 -144q22 -10 35.5 -31.5t13.5 -46.5q0 -35 -23.5 -60t-61.5 -25q-26 0 -47.5 15t-29.5 34.5t-8 35.5zM151 530h-91v91h91v-91zM65 -19q0 -13 9.5 -24.5
t25.5 -11.5q17 0 26.5 10.5t9.5 25.5t-10.5 25.5t-25.5 10.5t-25 -10.5t-10 -25.5z" />
    <glyph glyph-name="uni06BC.medi" unicode="&#x6bc;" horiz-adv-x="249" 
d="M41 -2v5q-19 -3 -41 -3q-23 0 -40 16t-17 39q0 21 16 39t41 18q36 0 53.5 21.5t17.5 70.5v186h103v-192q0 -44 17 -64.5t58 -21.5v-112q-20 0 -38 3v-5q0 -35 -23.5 -60t-61.5 -25q-26 0 -47.5 15t-29.5 34.5t-8 35.5zM170 471h-91v91h91v-91zM91 -2q0 -13 9.5 -24.5
t25.5 -11.5q17 0 26.5 10.5t9.5 25.5t-10.5 25.5t-25.5 10.5t-25 -10.5t-10 -25.5z" />
    <glyph glyph-name="uni06BC.fina" unicode="&#x6bc;" horiz-adv-x="530" 
d="M181 -228q0 17 6 32q-63 19 -96 68.5t-33 117.5v295h103v-266q0 -34 11.5 -59.5t34 -39.5t57.5 -14q50 0 77.5 28.5t27.5 84.5v370h103v-277h58v-112h-58q0 -66 -34.5 -118.5t-94.5 -74.5q3 -6 5.5 -17t2.5 -18q0 -35 -23.5 -60t-61.5 -25q-26 0 -47.5 15t-29.5 34.5
t-8 35.5zM312 450h-91v91h91v-91zM231 -228q0 -13 9.5 -24.5t25.5 -11.5q17 0 26.5 10.5t9.5 25.5q0 5 -3 12.5t-6 11.5l-30 -2l-25 1q-7 -8 -7 -23z" />
    <glyph glyph-name="uni06BD.init" unicode="&#x6bd;" horiz-adv-x="229" 
d="M68 455h103v-252q0 -107 -44 -155t-127 -48q-24 0 -40.5 16t-16.5 39q0 24 17 40t40 17q20 0 37 9t24 31t7 59v244zM129 -82h91v-91h-91v91zM8 -82h90v-91h-90v91zM68 -210h91v-90h-91v90z" />
    <glyph glyph-name="uni06BD.medi" unicode="&#x6bd;" horiz-adv-x="249" 
d="M-57 55q0 21 16 39t41 18q36 0 53.5 21.5t17.5 70.5v186h103v-192q0 -44 17 -64.5t58 -21.5v-112q-41 0 -73.5 14t-47.5 42q-22 -30 -53.5 -43t-74.5 -13q-23 0 -40 16t-17 39zM139 -82h91v-91h-91v91zM18 -82h90v-91h-90v91zM78 -210h91v-90h-91v90z" />
    <glyph glyph-name="uni06BD.fina" unicode="&#x6bd;" horiz-adv-x="530" 
d="M472 389v-277h58v-112h-58q0 -31 -9.5 -65.5t-36.5 -69.5t-71 -53t-92 -18q-50 0 -89 14.5t-65 41t-38.5 62.5t-12.5 78v295h103v-266q0 -34 11.5 -59.5t34 -39.5t57.5 -14q50 0 77.5 28.5t27.5 84.5v370h103zM373 450h-91v91h91v-91zM251 450h-90v91h90v-91zM312 577
h-91v92h91v-92z" />
    <glyph glyph-name="uni06BE" unicode="&#x6be;" horiz-adv-x="809" arabic-form="isolated" 
d="M176 232q0 52 21.5 90.5t55.5 59.5t77 26l-20 42q40 25 98.5 42.5t110.5 17.5q47 0 88.5 -13t73.5 -43.5t51 -83t19 -125.5q0 -79 -28 -133t-78.5 -83t-121.5 -29h-473v112h109q46 0 66 -4l2 4q-23 16 -37 49.5t-14 70.5zM499 115v-5q77 0 110.5 34t33.5 105
q0 74 -31.5 112t-98.5 38q-34 0 -71 -15q20 -8 42 -26.5t36 -53t14 -77.5v-9q-1 -28 -10.5 -57t-24.5 -46zM354 313q-17 0 -35 -9t-29 -30.5t-11 -46.5q0 -27 14 -52t37.5 -38.5t46.5 -17.5q13 7 25.5 22.5t19 38t6.5 42.5q0 28 -10 50.5t-28 31.5t-36 9z" />
    <glyph glyph-name="uni06BF.init" unicode="&#x6bf;" horiz-adv-x="505" 
d="M0 0q-24 0 -40 15.5t-16 40.5q0 24 16 40t40 16h355l3 6q-22 20 -29.5 88t-12.5 90q-15 70 -88 70q-27 0 -63 -10t-62 -25l-45 90q41 28 87 42.5t89 14.5q172 0 193 -185q1 -7 5.5 -51t10.5 -70.5t16 -39.5t21 -18v-114h-480zM298 555h-91v91h91v-91zM235 -82h91v-91h-91
v91zM114 -82h90v-91h-90v91zM174 -210h91v-90h-91v90z" />
    <glyph glyph-name="uni06BF.medi" unicode="&#x6bf;" horiz-adv-x="508" 
d="M234 478q174 0 194 -201q10 -98 20.5 -123t24 -33.5t28.5 -8.5h7v-112h-508q-24 0 -40 15.5t-16 40.5q0 24 16 40t40 16h354l4 6q-15 13 -21.5 39.5t-10.5 67.5t-6 54q-11 87 -92 87q-27 0 -63 -10t-63 -25l-44 90q40 28 86 42.5t90 14.5zM300 555h-91v91h91v-91z
M235 -82h91v-91h-91v91zM114 -82h90v-91h-90v91zM174 -210h91v-90h-91v90z" />
    <glyph glyph-name="uni06BF.fina" unicode="&#x6bf;" horiz-adv-x="558" 
d="M404 112l4 6q-15 13 -21.5 39.5t-10.5 67.5t-6 54q-11 87 -92 87q-27 0 -63 -10t-63 -25l-44 90q40 28 86 42.5t90 14.5q174 0 194 -201q10 -98 20.5 -123t24 -33.5t28.5 -8.5h7v-112h-293q-24 0 -48.5 -9t-38.5 -30.5t-14 -48.5q0 -44 34 -63t85 -19q35 0 70 7l15 -102
q-41 -12 -104 -12q-95 0 -150.5 47.5t-55.5 137.5q0 62 27 106.5t77.5 71t119.5 26.5h122zM340 557h-91v91h91v-91zM451 -65h61v-65h-61v65zM373 -65h62v-65h-62v65zM412 -147h61v-65h-61v65z" />
    <glyph glyph-name="uni06C0" unicode="&#x6c0;" horiz-adv-x="545" arabic-form="isolated" 
d="M279 477q39 0 76.5 -19.5t67 -55t47 -84.5t17.5 -106q0 -103 -55.5 -160.5t-158.5 -57.5q-112 0 -163.5 54.5t-51.5 161.5q0 68 30 132.5t83.5 99.5t107.5 35zM277 367q-34 0 -61 -26.5t-37.5 -61t-10.5 -61.5q0 -57 26.5 -84.5t81.5 -27.5q54 0 79.5 32.5t25.5 80.5
q0 39 -14 71.5t-38.5 54.5t-51.5 22zM298 745q19 0 44.5 -7t42.5 -19l-26 -51q-30 18 -63 18q-22 0 -34.5 -11t-12.5 -27t11 -25.5t30 -9.5h94v-58h-229v58h37l2 2q-10 13 -10 35q0 24 13.5 46.5t38.5 35.5t62 13z" />
    <glyph glyph-name="uni06C1" unicode="&#x6c1;" horiz-adv-x="545" arabic-form="isolated" 
d="M279 477q39 0 76.5 -19.5t67 -55t47 -84.5t17.5 -106q0 -103 -55.5 -160.5t-158.5 -57.5q-112 0 -163.5 54.5t-51.5 161.5q0 68 30 132.5t83.5 99.5t107.5 35zM277 367q-34 0 -61 -26.5t-37.5 -61t-10.5 -61.5q0 -57 26.5 -84.5t81.5 -27.5q54 0 79.5 32.5t25.5 80.5
q0 39 -14 71.5t-38.5 54.5t-51.5 22z" />
    <glyph glyph-name="uni06C2.fina" unicode="&#x6c2;" horiz-adv-x="518" 
d="M441 237v-21q0 -53 16.5 -78.5t60.5 -25.5v-112q-94 0 -138 41.5t-44 134.5v46q0 46 -22.5 72.5t-64.5 26.5q-28 0 -49 -14.5t-29 -39t-8 -48.5q0 -53 21.5 -80t74.5 -27h28v-112h-51q-46 0 -76.5 13t-51.5 34.5t-35.5 61.5t-14.5 98q0 108 51 167t145 59q86 0 136.5 -50
t50.5 -146zM276 695q19 0 44.5 -7t42.5 -19l-26 -51q-30 18 -63 18q-22 0 -34.5 -11t-12.5 -27t11 -25.5t30 -9.5h94v-58h-229v58h37l2 2q-10 13 -10 35q0 24 13.5 46.5t38.5 35.5t62 13z" />
    <glyph glyph-name="uni06C3.fina" unicode="&#x6c3;" horiz-adv-x="518" 
d="M441 237v-21q0 -53 16.5 -78.5t60.5 -25.5v-112q-94 0 -138 41.5t-44 134.5v46q0 46 -22.5 72.5t-64.5 26.5q-28 0 -49 -14.5t-29 -39t-8 -48.5q0 -53 21.5 -80t74.5 -27h28v-112h-51q-46 0 -76.5 13t-51.5 34.5t-35.5 61.5t-14.5 98q0 108 51 167t145 59q86 0 136.5 -50
t50.5 -146zM355 505h-91v91h91v-91zM233 505h-90v91h90v-91z" />
    <glyph glyph-name="uni06C4.fina" unicode="&#x6c4;" horiz-adv-x="541" 
d="M280 478q96 0 149.5 -60t53.5 -175v-131h58v-112h-58q-3 -105 -63.5 -163.5t-166.5 -58.5h-152v113h39q0 16 8.5 36t30 34.5t46.5 14.5q32 0 56 -21.5t28 -52.5q16 7 31.5 21.5t24 36.5t8.5 43h-89q-52 0 -94 13.5t-71.5 41.5t-45 72t-15.5 102q0 116 58 181t164 65z
M377 112v120q0 65 -26 99t-75 34q-50 0 -81.5 -33.5t-31.5 -100.5q0 -63 30.5 -91t81.5 -28h102zM250 -109l11 1q-1 13 -11.5 23.5t-24.5 10.5q-15 0 -25 -10t-10 -25h60z" />
    <glyph glyph-name="uni06C5" unicode="&#x6c5;" horiz-adv-x="541" arabic-form="isolated" 
d="M483 242v-225q0 -118 -61.5 -178.5t-174.5 -60.5h-146v113h140q67 0 101 32h-171v44h196q5 20 5 38v23l-6 4q-18 -13 -46 -21.5t-52 -8.5q-101 0 -155.5 58.5t-54.5 173.5q0 113 58 178.5t163 65.5q95 0 149.5 -60.5t54.5 -175.5zM274 365q-52 0 -81 -35.5t-29 -94.5
q0 -56 27 -90.5t77 -34.5q35 0 59.5 14.5t37 43.5t12.5 74q0 59 -28.5 91t-74.5 32z" />
    <glyph glyph-name="uni06C6" unicode="&#x6c6;" horiz-adv-x="541" arabic-form="isolated" 
d="M483 242v-225q0 -118 -61.5 -178.5t-174.5 -60.5h-146v113h140q67 0 99 30.5t32 83.5v23l-6 4q-18 -13 -46 -21.5t-52 -8.5q-101 0 -155.5 58.5t-54.5 173.5q0 113 58 178.5t163 65.5q95 0 149.5 -60.5t54.5 -175.5zM274 365q-52 0 -81 -35.5t-29 -94.5q0 -56 27 -90.5
t77 -34.5q35 0 59.5 14.5t37 43.5t12.5 74q0 59 -28.5 91t-74.5 32zM238 555l-86 172l42 21l71 -121l74 121l42 -22l-85 -171h-58z" />
    <glyph glyph-name="uni06C7" unicode="&#x6c7;" horiz-adv-x="541" arabic-form="isolated" 
d="M483 242v-225q0 -118 -61.5 -178.5t-174.5 -60.5h-146v113h140q67 0 99 30.5t32 83.5v23l-6 4q-18 -13 -46 -21.5t-52 -8.5q-101 0 -155.5 58.5t-54.5 173.5q0 113 58 178.5t163 65.5q95 0 149.5 -60.5t54.5 -175.5zM274 365q-52 0 -81 -35.5t-29 -94.5q0 -56 27 -90.5
t77 -34.5q35 0 59.5 14.5t37 43.5t12.5 74q0 59 -28.5 91t-74.5 32zM251 632l1 3q-10 7 -16 20.5t-6 26.5q0 26 19 47.5t50 21.5q17 0 35 -8t29.5 -27.5t11.5 -42.5q0 -28 -17.5 -51.5t-51.5 -33.5l-145 -40v57z" />
    <glyph glyph-name="uni06C8" unicode="&#x6c8;" horiz-adv-x="541" arabic-form="isolated" 
d="M483 242v-225q0 -118 -61.5 -178.5t-174.5 -60.5h-146v113h140q67 0 99 30.5t32 83.5v23l-6 4q-18 -13 -46 -21.5t-52 -8.5q-101 0 -155.5 58.5t-54.5 173.5q0 113 58 178.5t163 65.5q95 0 149.5 -60.5t54.5 -175.5zM274 365q-52 0 -81 -35.5t-29 -94.5q0 -56 27 -90.5
t77 -34.5q35 0 59.5 14.5t37 43.5t12.5 74q0 59 -28.5 91t-74.5 32zM299 728v-173h-63v173h63z" />
    <glyph glyph-name="uni06C9" unicode="&#x6c9;" horiz-adv-x="541" arabic-form="isolated" 
d="M483 242v-225q0 -118 -61.5 -178.5t-174.5 -60.5h-146v113h140q67 0 99 30.5t32 83.5v23l-6 4q-18 -13 -46 -21.5t-52 -8.5q-101 0 -155.5 58.5t-54.5 173.5q0 113 58 178.5t163 65.5q95 0 149.5 -60.5t54.5 -175.5zM274 365q-52 0 -81 -35.5t-29 -94.5q0 -56 27 -90.5
t77 -34.5q35 0 59.5 14.5t37 43.5t12.5 74q0 59 -28.5 91t-74.5 32zM153 576l86 172h58l85 -171l-42 -22l-74 121l-71 -121z" />
    <glyph glyph-name="uni06CA.fina" unicode="&#x6ca;" horiz-adv-x="541" 
d="M280 478q96 0 149.5 -60t53.5 -175v-131h58v-112h-58q-3 -105 -63.5 -163.5t-166.5 -58.5h-152v113h149q33 0 62.5 12.5t45 41t15.5 58.5h-89q-52 0 -94 13.5t-71.5 41.5t-45 72t-15.5 102q0 116 58 181t164 65zM377 112v120q0 65 -26 99t-75 34q-50 0 -81.5 -33.5
t-31.5 -100.5q0 -63 30.5 -91t81.5 -28h102zM374 555h-91v91h91v-91zM252 555h-90v91h90v-91z" />
    <glyph glyph-name="uni06CB" unicode="&#x6cb;" horiz-adv-x="541" arabic-form="isolated" 
d="M483 242v-225q0 -118 -61.5 -178.5t-174.5 -60.5h-146v113h140q67 0 99 30.5t32 83.5v23l-6 4q-18 -13 -46 -21.5t-52 -8.5q-101 0 -155.5 58.5t-54.5 173.5q0 113 58 178.5t163 65.5q95 0 149.5 -60.5t54.5 -175.5zM274 365q-52 0 -81 -35.5t-29 -94.5q0 -56 27 -90.5
t77 -34.5q35 0 59.5 14.5t37 43.5t12.5 74q0 59 -28.5 91t-74.5 32zM374 555h-91v91h91v-91zM252 555h-90v91h90v-91zM313 682h-91v92h91v-92z" />
    <glyph glyph-name="uni06CC" unicode="&#x6cc;" horiz-adv-x="864" arabic-form="isolated" 
d="M806 82h-104v282h-55q-36 0 -51.5 -21t-15.5 -62v-281h-257q-265 0 -265 252v103h103v-72q0 -44 7.5 -72t22.5 -48.5t50.5 -35.5t102.5 -15h132v187q0 87 48 133t128 46h154v-396z" />
    <glyph glyph-name="uni06CD.fina" unicode="&#x6cd;" horiz-adv-x="988" 
d="M825 0v364h-52q-36 0 -51.5 -21t-15.5 -62v-281h-258q-83 0 -137.5 24.5t-86 73t-38.5 126.5l-77 -61l-59 77l134 115h102v-72q0 -96 39.5 -133.5t116.5 -37.5h159v187q0 87 48 133t128 46h154v-366h57v-112h-163z" />
    <glyph glyph-name="uni06CE.init" unicode="&#x6ce;" horiz-adv-x="229" 
d="M68 455h103v-252q0 -107 -44 -155t-127 -48q-24 0 -40.5 16t-16.5 39q0 24 17 40t40 17q20 0 37 9t24 31t7 59v244zM220 -173h-91v91h91v-91zM98 -173h-90v91h90v-91zM86 530l-86 172l42 21l71 -121l74 121l42 -22l-85 -171h-58z" />
    <glyph glyph-name="uni06CE.fina" unicode="&#x6ce;" horiz-adv-x="864" 
d="M580 0h-257q-265 0 -265 252v103h103v-72q0 -96 39.5 -133.5t116.5 -37.5h159v187q0 87 48 133t128 46h154v-366h58v-112h-162v364h-55q-36 0 -51.5 -21t-15.5 -62v-281zM131 429l-86 172l42 21l71 -121l74 121l42 -22l-85 -171h-58z" />
    <glyph glyph-name="uni06CF.fina" unicode="&#x6cf;" horiz-adv-x="541" 
d="M280 478q96 0 149.5 -60t53.5 -175v-131h58v-112h-58q-3 -105 -63.5 -163.5t-166.5 -58.5h-152v113h149q33 0 62.5 12.5t45 41t15.5 58.5h-89q-52 0 -94 13.5t-71.5 41.5t-45 72t-15.5 102q0 116 58 181t164 65zM377 112v120q0 65 -26 99t-75 34q-50 0 -81.5 -33.5
t-31.5 -100.5q0 -63 30.5 -91t81.5 -28h102zM313 555h-91v91h91v-91z" />
    <glyph glyph-name="uni06D0" unicode="&#x6d0;" horiz-adv-x="864" arabic-form="isolated" 
d="M806 82h-104v282h-55q-36 0 -51.5 -21t-15.5 -62v-281h-257q-265 0 -265 252v103h103v-72q0 -44 7.5 -72t22.5 -48.5t50.5 -35.5t102.5 -15h132v187q0 87 48 133t128 46h154v-396zM435 -301h-91v91h91v-91zM435 -174h-91v92h91v-92z" />
    <glyph glyph-name="uni06D1.init" unicode="&#x6d1;" horiz-adv-x="229" 
d="M68 455h103v-252q0 -107 -44 -155t-127 -48q-24 0 -40.5 16t-16.5 39q0 24 17 40t40 17q20 0 37 9t24 31t7 59v244zM129 -82h91v-91h-91v91zM8 -82h90v-91h-90v91zM68 -210h91v-90h-91v90z" />
    <glyph glyph-name="uni06D1.medi" unicode="&#x6d1;" horiz-adv-x="249" 
d="M-57 55q0 21 16 39t41 18q36 0 53.5 21.5t17.5 70.5v186h103v-192q0 -44 17 -64.5t58 -21.5v-112q-41 0 -73.5 14t-47.5 42q-22 -30 -53.5 -43t-74.5 -13q-23 0 -40 16t-17 39zM139 -82h91v-91h-91v91zM18 -82h90v-91h-90v91zM78 -210h91v-90h-91v90z" />
    <glyph glyph-name="uni06D1.fina" unicode="&#x6d1;" horiz-adv-x="864" 
d="M580 0h-257q-265 0 -265 252v103h103v-72q0 -96 39.5 -133.5t116.5 -37.5h159v187q0 87 48 133t128 46h154v-366h58v-112h-162v364h-55q-36 0 -51.5 -21t-15.5 -62v-281zM425 -67h91v-91h-91v91zM304 -67h90v-91h-90v91zM364 -195h91v-90h-91v90z" />
    <glyph glyph-name="uni06D2" unicode="&#x6d2;" horiz-adv-x="800" arabic-form="isolated" 
d="M742 -211h-684v150q0 87 47 130t129 43h76q28 0 45 17.5t17 73.5v67h103v-100q0 -82 -45.5 -126t-119.5 -44h-72q-74 0 -74 -74v-24h578v-113z" />
    <glyph glyph-name="uni06D3" unicode="&#x6d3;" horiz-adv-x="800" arabic-form="isolated" 
d="M742 -211h-684v150q0 87 47 130t129 43h76q28 0 45 17.5t17 73.5v67h103v-100q0 -82 -45.5 -126t-119.5 -44h-72q-74 0 -74 -74v-24h578v-113zM313 541q19 0 44.5 -7t42.5 -19l-26 -51q-30 18 -63 18q-22 0 -34.5 -11t-12.5 -27t11 -25.5t30 -9.5h94v-58h-229v58h37l2 2
q-10 13 -10 35q0 24 13.5 46.5t38.5 35.5t62 13z" />
    <glyph glyph-name="uni06D5.fina" unicode="&#x6d5;" horiz-adv-x="541" 
d="M364 478h105v-272q0 -57 19.5 -75t52.5 -19v-112h-11q-41 0 -73 15t-47.5 35.5t-20.5 37.5q-28 -25 -70.5 -41t-80.5 -16q-89 0 -134.5 43t-45.5 117q0 36 14 73t48 72t95 61.5t149 37.5v43zM245 139q120 0 120 127v66q-60 -7 -104.5 -23.5t-69.5 -43.5t-25 -60
q0 -29 21 -47.5t58 -18.5z" />
    <glyph glyph-name="uni06EE.fina" unicode="&#x6ee;" horiz-adv-x="506" 
d="M345 112v156q0 99 -96 99q-74 0 -125 -39l-55 88q74 61 185 61q67 0 109.5 -22t64 -62t21.5 -100v-181h57v-112h-448v112h287zM133 576l86 172h58l85 -171l-42 -22l-74 121l-71 -121z" />
    <glyph glyph-name="uni06EF.fina" unicode="&#x6ef;" horiz-adv-x="228" 
d="M-54 -96q65 1 93 29t28 85v372h103v-278h58v-112h-58q-2 -102 -55 -153.5t-169 -52.5v110zM0 491l86 172h58l85 -171l-42 -22l-74 121l-71 -121z" />
    <glyph glyph-name="uni06FA.init" unicode="&#x6fa;" horiz-adv-x="801" 
d="M0 0q-24 0 -40.5 15.5t-16.5 40.5q0 24 16.5 40t40.5 16h154v278h103v-278h37q43 0 65.5 28.5t22.5 76.5v173h102v-188q0 -48 21 -75.5t57 -27.5q18 0 36 10t28 35t10 59q0 57 -26.5 127.5t-62.5 109.5l84 63q29 -34 57 -87t41.5 -109.5t13.5 -105.5q0 -42 -9.5 -80
t-30.5 -67.5t-55.5 -47t-80.5 -17.5q-45 0 -82 17t-58 51h-4q-41 -57 -129 -57h-294zM475 -173h-91v91h91v-91zM538 530h-91v91h91v-91zM416 530h-90v91h90v-91zM477 657h-91v92h91v-92z" />
    <glyph glyph-name="uni06FA.medi" unicode="&#x6fa;" horiz-adv-x="819" 
d="M567 -10q-93 0 -139 66h-5q-24 -30 -55.5 -43t-73.5 -13h-294q-23 0 -39.5 16t-16.5 40q0 14 7.5 27.5t26.5 21t45 7.5h131v278h103v-278h37q43 0 65.5 28.5t22.5 76.5v173h102v-188q0 -48 21 -75.5t57 -27.5q19 0 37 10t28.5 35t10.5 59q0 57 -26.5 127.5t-62.5 109.5
l84 63q41 -49 67.5 -110.5t34.5 -105.5t8 -77v-5q0 -91 76 -93v-112q-86 2 -116 54h-4q-20 -30 -54 -47t-78 -17zM475 -173h-91v91h91v-91zM538 530h-91v91h91v-91zM416 530h-90v91h90v-91zM477 657h-91v92h91v-92z" />
    <glyph glyph-name="uni06FA.fina" unicode="&#x6fa;" horiz-adv-x="1022" 
d="M1022 112v-112q-86 2 -116 54h-4q-20 -30 -54 -47t-78 -17q-93 0 -139 67h-5q-18 -23 -47.5 -40t-81.5 -17h-30v-10q0 -43 -13.5 -75t-35.5 -57t-62 -44.5t-94 -19.5q-35 0 -71 9t-65 31.5t-47.5 59.5t-18.5 89v302h103v-250q0 -67 24 -98t76 -31q35 0 59.5 18t33 43
t8.5 45v378h103v-278h30q32 0 53 17t28 41.5t7 46.5v173h102v-188q0 -48 21 -75.5t57 -27.5q19 0 37 10t28.5 35t10.5 59q0 57 -26.5 127.5t-62.5 109.5l84 63q41 -49 67.5 -110.5t34.5 -105.5t8 -77v-5q0 -91 76 -93zM675 -173h-91v91h91v-91zM733 530h-91v91h91v-91z
M611 530h-90v91h90v-91zM672 657h-91v92h91v-92z" />
    <glyph glyph-name="uni06FB.init" unicode="&#x6fb;" horiz-adv-x="653" 
d="M0 0q-23 0 -40 15.5t-17 39.5t17 40.5t40 16.5h58v345h103v-88h6q45 49 107 79t123 30q96 0 147 -50.5t51 -137.5v-290h-595zM161 143v-31h330v137q0 51 -26.5 83t-87.5 32q-36 0 -73.5 -13t-69 -42.5t-52.5 -73t-21 -92.5zM400 -173h-91v91h91v-91zM400 555h-91v91h91
v-91z" />
    <glyph glyph-name="uni06FB.medi" unicode="&#x6fb;" horiz-adv-x="652" 
d="M0 0q-23 0 -40 15.5t-17 39.5t17 40.5t40 16.5h58v345h103v-88h6q45 49 107 79t123 30q96 0 147 -50.5t51 -137.5v-178h57v-112h-652zM161 143v-31h330v137q0 51 -26.5 83t-87.5 32q-36 0 -73.5 -13t-69 -42.5t-52.5 -73t-21 -92.5zM400 -173h-91v91h91v-91zM400 555h-91
v91h91v-91z" />
    <glyph glyph-name="uni06FB.fina" unicode="&#x6fb;" horiz-adv-x="962" 
d="M369 457h102v-88h7q44 49 106 79t123 30q96 0 147 -50t51 -138v-178h57v-112h-490v-9q0 -31 -10 -64.5t-34 -62.5t-65.5 -49.5t-99.5 -20.5q-100 0 -152.5 54t-52.5 141v296h103v-268q0 -52 26.5 -81.5t76.5 -29.5q23 0 36 9q36 8 52.5 36.5t16.5 65.5v440zM471 143v-31
h330v137q0 38 -13.5 64t-38 38.5t-61.5 12.5q-36 0 -74 -13t-69.5 -42.5t-52.5 -73t-21 -92.5zM722 -173h-91v91h91v-91zM722 555h-91v91h91v-91z" />
    <glyph glyph-name="uni06FC.init" unicode="&#x6fc;" horiz-adv-x="535" 
d="M174 232q0 -32 13.5 -59.5t41 -44t71.5 -16.5h159v-112h-459q-23 0 -40 15.5t-17 39.5t17 40.5t40 16.5h87l5 6q-34 34 -34 119q0 42 12 85t43.5 81.5t78 56.5t92.5 18q107 0 193 -71l-61 -94q-56 48 -126 48q-35 0 -61.5 -16t-40.5 -44t-14 -69zM313 -173h-91v91h91v-91
zM313 555h-91v91h91v-91z" />
    <glyph glyph-name="uni06FC.medi" unicode="&#x6fc;" horiz-adv-x="569" 
d="M-57 55q0 24 17 40.5t40 16.5h52q25 0 57.5 4t47.5 11q-26 20 -50 48.5t-36.5 62.5t-12.5 61q0 52 27 91t79.5 63.5t127.5 24.5q63 0 112.5 -21t78 -59.5t28.5 -93.5q0 -45 -27.5 -94t-70.5 -81q46 -17 119 -17h37v-112h-44q-70 0 -134.5 14.5t-103.5 41.5
q-22 -14 -60.5 -27.5t-89.5 -21t-96 -7.5h-41q-23 0 -40 15.5t-17 39.5zM290 370q-62 0 -92 -24.5t-30 -57.5q0 -28 30.5 -65.5t92.5 -67.5q63 33 88.5 69.5t25.5 67.5q0 21 -12 39t-37 28.5t-66 10.5zM330 -173h-91v91h91v-91zM330 555h-91v91h91v-91z" />
    <glyph glyph-name="uni06FC.fina" unicode="&#x6fc;" horiz-adv-x="611" 
d="M58 -97q0 51 28 97.5t60.5 75.5t56.5 43q-55 45 -80 96t-25 91q0 54 26.5 92t76 59t119.5 21q42 0 83.5 -10t75 -30.5t54 -54t20.5 -76.5q0 -23 -12 -53.5t-44 -62.5t-76 -54q24 -11 69 -18t81 -7h40v-112h-40q-77 0 -160 19t-121 43q-35 -21 -65.5 -48t-45 -53.5
t-14.5 -49.5q0 -41 38 -61.5t96 -20.5q34 0 62 5l15 -101q-39 -11 -92 -11q-103 0 -164.5 47.5t-61.5 133.5zM209 303q0 -27 26.5 -61.5t82.5 -66.5q68 32 96.5 60t28.5 56q0 16 -11.5 35t-43 32t-73.5 13q-47 0 -76.5 -18t-29.5 -50zM351 555h-91v91h91v-91zM496 -135h-91
v91h91v-91z" />
    <glyph glyph-name="uni06FF.init" unicode="&#x6ff;" horiz-adv-x="691" 
d="M-56 55q0 24 16.5 40.5t39.5 16.5h48q39 0 59 -4l2 4q-23 16 -37 49.5t-14 70.5q0 52 21.5 90.5t55.5 59.5t77 26l-20 42q40 25 98 42.5t110 17.5q119 0 176 -69t57 -195q0 -79 -27.5 -133t-77.5 -83.5t-118 -29.5h-410q-24 0 -40 15.5t-16 39.5zM381 115v-5
q76 0 110 34.5t34 104.5q0 74 -31.5 112t-98.5 38q-34 0 -71 -15q20 -8 42 -26.5t36 -53t14 -77.5v-9q-1 -28 -10.5 -57t-24.5 -46zM236 313q-17 0 -35 -9t-29 -30.5t-11 -46.5q0 -27 14 -52t37.5 -38.5t46.5 -17.5q13 7 25.5 22.5t19 38t6.5 42.5q0 28 -10 50.5t-28 31.5
t-36 9zM231 576l86 172h58l85 -171l-42 -22l-74 121l-71 -121z" />
    <glyph glyph-name="uni06FF.medi" unicode="&#x6ff;" horiz-adv-x="708" 
d="M58 232q0 52 21.5 90.5t55.5 59.5t77 26l-20 42q40 25 98 42.5t110 17.5q48 0 90 -13t74.5 -43.5t51 -83.5t18.5 -127v-12q0 -63 15.5 -90.5t58.5 -28.5v-112q-61 0 -93 17t-47 45q-24 -25 -60.5 -43.5t-97.5 -18.5h-410q-25 0 -40.5 15.5t-15.5 40.5q0 24 16 40t40 16
h50q37 0 57 -5l2 4q-23 17 -37 50.5t-14 70.5zM381 115v-5q76 0 110.5 34t34.5 105q0 150 -131 150q-34 0 -71 -15q20 -8 42 -26.5t36 -53t14 -77.5v-9q-1 -27 -10 -56t-25 -47zM236 313q-17 0 -35 -9t-29 -30.5t-11 -46.5q0 -27 14 -52t37.5 -38.5t46.5 -17.5
q13 7 25.5 22.5t19 38t6.5 42.5q0 28 -10 50.5t-28 31.5t-36 9zM228 574l86 174h58l85 -173l-42 -20l-74 116l-71 -116z" />
    <glyph glyph-name="uni06FF.fina" unicode="&#x6ff;" horiz-adv-x="818" 
d="M50 0v112h110q37 0 57 -5l2 4q-23 17 -37 50.5t-14 70.5q0 52 21.5 90.5t55.5 59.5t77 26l-20 42q40 25 98 42.5t110 17.5q48 0 90 -13t74.5 -43.5t51 -83.5t18.5 -127v-12q0 -63 15.5 -90.5t58.5 -28.5v-112q-61 0 -93 17t-47 45q-24 -25 -60.5 -43.5t-97.5 -18.5h-470z
M491 115v-5q76 0 110.5 34t34.5 105q0 150 -131 150q-34 0 -71 -15q20 -8 42 -26.5t36 -53t14 -77.5v-9q-1 -27 -10 -56t-25 -47zM346 313q-17 0 -35 -9t-29 -30.5t-11 -46.5q0 -27 14 -52t37.5 -38.5t46.5 -17.5q13 7 25.5 22.5t19 38t6.5 42.5q0 28 -10 50.5t-28 31.5
t-36 9zM369 576l86 172h58l85 -171l-42 -22l-74 121l-71 -121z" />
    <glyph glyph-name="uniFB51" unicode="&#x671;" horiz-adv-x="231" arabic-form="final" 
d="M231 0h-34q-51 0 -80 15.5t-43 46t-14 79.5v535h103v-505q0 -32 12.5 -45.5t42.5 -13.5h13v-112zM205 854q-23 0 -39.5 -17t-16.5 -40h91v24q0 15 -10 24t-25 9zM299 740h-218q-42 0 -59 34l-37 -35h-4v68l46 46h8q17 -55 46 -55h8v113h60v-31h3q13 13 34 22t39 9
q30 0 52 -18.5t22 -51.5v-101z" />
    <glyph glyph-name="uniFB53" unicode="&#x67b;" horiz-adv-x="778" arabic-form="final" 
d="M600 389h103v-191q0 -43 16.5 -64t58.5 -22v-112q-93 0 -122 56q-19 -25 -45.5 -40.5t-84.5 -15.5h-202q-264 0 -264 252v103h103v-72q0 -97 39 -134t116 -37h207q24 0 41.5 8.5t25.5 28.5t8 50v190zM453 -301h-91v91h91v-91zM453 -174h-91v92h91v-92z" />
    <glyph glyph-name="uniFB54" unicode="&#x67b;" horiz-adv-x="229" arabic-form="initial" 
d="M68 455h103v-252q0 -107 -44 -155t-127 -48q-24 0 -40.5 16t-16.5 39q0 24 17 40t40 17q20 0 37 9t24 31t7 59v244zM148 -301h-91v91h91v-91zM148 -174h-91v92h91v-92z" />
    <glyph glyph-name="uniFB55" unicode="&#x67b;" horiz-adv-x="249" arabic-form="medial" 
d="M-57 55q0 21 16 39t41 18q36 0 53.5 21.5t17.5 70.5v186h103v-192q0 -44 17 -64.5t58 -21.5v-112q-41 0 -73.5 14t-47.5 42q-22 -30 -53.5 -43t-74.5 -13q-23 0 -40 16t-17 39zM170 -301h-91v91h91v-91zM170 -174h-91v92h91v-92z" />
    <glyph glyph-name="uniFB57" unicode="&#x67e;" horiz-adv-x="778" arabic-form="final" 
d="M600 389h103v-191q0 -43 16.5 -64t58.5 -22v-112q-93 0 -122 56q-19 -25 -45.5 -40.5t-84.5 -15.5h-202q-264 0 -264 252v103h103v-72q0 -97 39 -134t116 -37h207q24 0 41.5 8.5t25.5 28.5t8 50v190zM423 -82h91v-91h-91v91zM302 -82h90v-91h-90v91zM362 -210h91v-90h-91
v90z" />
    <glyph glyph-name="uniFB58" unicode="&#x67e;" horiz-adv-x="229" arabic-form="initial" 
d="M68 455h103v-252q0 -107 -44 -155t-127 -48q-24 0 -40.5 16t-16.5 39q0 24 17 40t40 17q20 0 37 9t24 31t7 59v244zM129 -82h91v-91h-91v91zM8 -82h90v-91h-90v91zM68 -210h91v-90h-91v90z" />
    <glyph glyph-name="uniFB59" unicode="&#x67e;" horiz-adv-x="249" arabic-form="medial" 
d="M-57 55q0 21 16 39t41 18q36 0 53.5 21.5t17.5 70.5v186h103v-192q0 -44 17 -64.5t58 -21.5v-112q-41 0 -73.5 14t-47.5 42q-22 -30 -53.5 -43t-74.5 -13q-23 0 -40 16t-17 39zM139 -82h91v-91h-91v91zM18 -82h90v-91h-90v91zM78 -210h91v-90h-91v90z" />
    <glyph glyph-name="uniFB5B" unicode="&#x680;" horiz-adv-x="778" arabic-form="final" 
d="M600 389h103v-191q0 -43 16.5 -64t58.5 -22v-112q-93 0 -122 56q-19 -25 -45.5 -40.5t-84.5 -15.5h-202q-264 0 -264 252v103h103v-72q0 -97 39 -134t116 -37h207q24 0 41.5 8.5t25.5 28.5t8 50v190zM514 -301h-91v91h91v-91zM392 -301h-90v91h90v-91zM514 -174h-91v92
h91v-92zM392 -174h-90v92h90v-92z" />
    <glyph glyph-name="uniFB5C" unicode="&#x680;" horiz-adv-x="229" arabic-form="initial" 
d="M68 455h103v-252q0 -107 -44 -155t-127 -48q-24 0 -40.5 16t-16.5 39q0 24 17 40t40 17q20 0 37 9t24 31t7 59v244zM220 -301h-91v91h91v-91zM98 -301h-90v91h90v-91zM220 -174h-91v92h91v-92zM98 -174h-90v92h90v-92z" />
    <glyph glyph-name="uniFB5D" unicode="&#x680;" horiz-adv-x="249" arabic-form="medial" 
d="M-57 55q0 21 16 39t41 18q36 0 53.5 21.5t17.5 70.5v186h103v-192q0 -44 17 -64.5t58 -21.5v-112q-41 0 -73.5 14t-47.5 42q-22 -30 -53.5 -43t-74.5 -13q-23 0 -40 16t-17 39zM230 -301h-91v91h91v-91zM108 -301h-90v91h90v-91zM230 -174h-91v92h91v-92zM108 -174h-90
v92h90v-92z" />
    <glyph glyph-name="uniFB5F" unicode="&#x67a;" horiz-adv-x="778" arabic-form="final" 
d="M600 389h103v-191q0 -43 16.5 -64t58.5 -22v-112q-93 0 -122 56q-19 -25 -45.5 -40.5t-84.5 -15.5h-202q-264 0 -264 252v103h103v-72q0 -97 39 -134t116 -37h207q24 0 41.5 8.5t25.5 28.5t8 50v190zM453 450h-91v91h91v-91zM453 577h-91v92h91v-92z" />
    <glyph glyph-name="uniFB60" unicode="&#x67a;" horiz-adv-x="229" arabic-form="initial" 
d="M68 455h103v-252q0 -107 -44 -155t-127 -48q-24 0 -40.5 16t-16.5 39q0 24 17 40t40 17q20 0 37 9t24 31t7 59v244zM160 530h-91v91h91v-91zM160 657h-91v92h91v-92z" />
    <glyph glyph-name="uniFB61" unicode="&#x67a;" horiz-adv-x="249" arabic-form="medial" 
d="M-57 55q0 21 16 39t41 18q36 0 53.5 21.5t17.5 70.5v186h103v-192q0 -44 17 -64.5t58 -21.5v-112q-41 0 -73.5 14t-47.5 42q-22 -30 -53.5 -43t-74.5 -13q-23 0 -40 16t-17 39zM170 470h-91v91h91v-91zM170 597h-91v92h91v-92z" />
    <glyph glyph-name="uniFB63" unicode="&#x67f;" horiz-adv-x="778" arabic-form="final" 
d="M600 389h103v-191q0 -43 16.5 -64t58.5 -22v-112q-93 0 -122 56q-19 -25 -45.5 -40.5t-84.5 -15.5h-202q-264 0 -264 252v103h103v-72q0 -97 39 -134t116 -37h207q24 0 41.5 8.5t25.5 28.5t8 50v190zM514 450h-91v91h91v-91zM392 450h-90v91h90v-91zM514 577h-91v92h91
v-92zM392 577h-90v92h90v-92z" />
    <glyph glyph-name="uniFB64" unicode="&#x67f;" horiz-adv-x="229" arabic-form="initial" 
d="M68 455h103v-252q0 -107 -44 -155t-127 -48q-24 0 -40.5 16t-16.5 39q0 24 17 40t40 17q20 0 37 9t24 31t7 59v244zM220 530h-91v91h91v-91zM98 530h-90v91h90v-91zM220 657h-91v92h91v-92zM98 657h-90v92h90v-92z" />
    <glyph glyph-name="uniFB65" unicode="&#x67f;" horiz-adv-x="249" arabic-form="medial" 
d="M-57 55q0 21 16 39t41 18q36 0 53.5 21.5t17.5 70.5v186h103v-192q0 -44 17 -64.5t58 -21.5v-112q-41 0 -73.5 14t-47.5 42q-22 -30 -53.5 -43t-74.5 -13q-23 0 -40 16t-17 39zM230 470h-91v91h91v-91zM108 470h-90v91h90v-91zM230 597h-91v92h91v-92zM108 597h-90v92h90
v-92z" />
    <glyph glyph-name="uniFB67" unicode="&#x679;" horiz-adv-x="778" arabic-form="final" 
d="M600 389h103v-191q0 -43 16.5 -64t58.5 -22v-112q-93 0 -122 56q-19 -25 -45.5 -40.5t-84.5 -15.5h-202q-264 0 -264 252v103h103v-72q0 -97 39 -134t116 -37h207q24 0 41.5 8.5t25.5 28.5t8 50v190zM435 560q-21 0 -37.5 -14.5t-22.5 -38.5h95v15q0 17 -9 27.5t-26 10.5
zM529 450h-252v58h37v137h61v-59l3 -1q13 14 35.5 23t40.5 9q22 0 41 -10t26.5 -27t7.5 -33v-97z" />
    <glyph glyph-name="uniFB68" unicode="&#x679;" horiz-adv-x="229" arabic-form="initial" 
d="M68 455h103v-252q0 -107 -44 -155t-127 -48q-24 0 -40.5 16t-16.5 39q0 24 17 40t40 17q20 0 37 9t24 31t7 59v244zM146 640q-21 0 -37.5 -14.5t-22.5 -38.5h95v15q0 17 -9 27.5t-26 10.5zM240 530h-252v58h37v137h61v-59l3 -1q13 14 35.5 23t40.5 9q22 0 41 -10
t26.5 -27t7.5 -33v-97z" />
    <glyph glyph-name="uniFB69" unicode="&#x679;" horiz-adv-x="249" arabic-form="medial" 
d="M-57 55q0 21 16 39t41 18q36 0 53.5 21.5t17.5 70.5v186h103v-192q0 -44 17 -64.5t58 -21.5v-112q-41 0 -73.5 14t-47.5 42q-22 -30 -53.5 -43t-74.5 -13q-23 0 -40 16t-17 39zM156 580q-21 0 -37.5 -14.5t-22.5 -38.5h95v15q0 17 -9 27.5t-26 10.5zM250 470h-252v58h37
v137h61v-59l3 -1q13 14 35.5 23t40.5 9q22 0 41 -10t26.5 -27t7.5 -33v-97z" />
    <glyph glyph-name="uniFB6B" unicode="&#x6a4;" horiz-adv-x="858" arabic-form="final" 
d="M164 283q0 -94 39 -132.5t114 -38.5h69q43 0 58 -3l1 6q-30 21 -49 63.5t-19 87.5q0 21 4.5 48.5t17.5 54.5t37 52t63 41t87 16q50 0 90 -16t67.5 -45t42 -70.5t14.5 -90.5q0 -36 -12.5 -75.5t-32.5 -62.5l2 -6h101v-112h-529q-189 0 -246 129q-12 27 -18.5 67t-6.5 132
v27h106v-72zM588 368q-37 0 -62 -18t-33.5 -42.5t-8.5 -44.5q0 -40 22 -73.5t56 -51t66 -23.5q17 11 33.5 31.5t24.5 48t8 53.5q0 25 -9.5 53.5t-35 47.5t-61.5 19zM691 555h-91v91h91v-91zM569 555h-90v91h90v-91zM630 682h-91v92h91v-92z" />
    <glyph glyph-name="uniFB6C" unicode="&#x6a4;" horiz-adv-x="535" arabic-form="initial" 
d="M251 0h-251q-24 0 -40 15.5t-16 40.5q0 24 16 40t40 16h75q38 0 62 -4l1 5q-39 20 -59.5 59t-20.5 91q0 46 14.5 85.5t41.5 68.5t66 45t86 16q104 0 157.5 -62.5t53.5 -174.5q0 -118 -61 -179.5t-165 -61.5zM371 248q0 55 -25.5 87t-76.5 32t-77.5 -33t-26.5 -78
q0 -35 17.5 -61.5t52.5 -45t85 -24.5q51 35 51 123zM373 555h-91v91h91v-91zM251 555h-90v91h90v-91zM312 682h-91v92h91v-92z" />
    <glyph glyph-name="uniFB6D" unicode="&#x6a4;" horiz-adv-x="539" arabic-form="medial" 
d="M-56 56q0 24 16 40t40 16h67q43 0 58 -3l1 6q-30 21 -49 63.5t-19 87.5q0 21 4.5 48.5t17.5 54.5t37 52t63 41t87 16q50 0 90 -16t67.5 -45t42 -70.5t14.5 -90.5q0 -36 -12.5 -75.5t-32.5 -62.5l2 -6h101v-112h-539q-24 0 -40 15.5t-16 40.5zM269 368q-37 0 -62 -18
t-33.5 -42.5t-8.5 -44.5q0 -40 22 -73.5t56 -51t66 -23.5q17 11 33.5 31.5t24.5 48t8 53.5q0 25 -9.5 53.5t-35 47.5t-61.5 19zM375 555h-91v91h91v-91zM253 555h-90v91h90v-91zM314 682h-91v92h91v-92z" />
    <glyph glyph-name="uniFB6F" unicode="&#x6a6;" horiz-adv-x="858" arabic-form="final" 
d="M164 283q0 -94 39 -132.5t114 -38.5h69q43 0 58 -3l1 6q-30 21 -49 63.5t-19 87.5q0 21 4.5 48.5t17.5 54.5t37 52t63 41t87 16q50 0 90 -16t67.5 -45t42 -70.5t14.5 -90.5q0 -36 -12.5 -75.5t-32.5 -62.5l2 -6h101v-112h-529q-189 0 -246 129q-12 27 -18.5 67t-6.5 132
v27h106v-72zM588 368q-37 0 -62 -18t-33.5 -42.5t-8.5 -44.5q0 -40 22 -73.5t56 -51t66 -23.5q17 11 33.5 31.5t24.5 48t8 53.5q0 25 -9.5 53.5t-35 47.5t-61.5 19zM691 555h-91v91h91v-91zM569 555h-90v91h90v-91zM691 682h-91v92h91v-92zM569 682h-90v92h90v-92z" />
    <glyph glyph-name="uniFB70" unicode="&#x6a6;" horiz-adv-x="535" arabic-form="initial" 
d="M251 0h-251q-24 0 -40 15.5t-16 40.5q0 24 16 40t40 16h75q38 0 62 -4l1 5q-39 20 -59.5 59t-20.5 91q0 46 14.5 85.5t41.5 68.5t66 45t86 16q104 0 157.5 -62.5t53.5 -174.5q0 -118 -61 -179.5t-165 -61.5zM371 248q0 55 -25.5 87t-76.5 32t-77.5 -33t-26.5 -78
q0 -35 17.5 -61.5t52.5 -45t85 -24.5q51 35 51 123zM373 555h-91v91h91v-91zM251 555h-90v91h90v-91zM373 682h-91v92h91v-92zM251 682h-90v92h90v-92z" />
    <glyph glyph-name="uniFB71" unicode="&#x6a6;" horiz-adv-x="539" arabic-form="medial" 
d="M-56 56q0 24 16 40t40 16h67q43 0 58 -3l1 6q-30 21 -49 63.5t-19 87.5q0 21 4.5 48.5t17.5 54.5t37 52t63 41t87 16q50 0 90 -16t67.5 -45t42 -70.5t14.5 -90.5q0 -36 -12.5 -75.5t-32.5 -62.5l2 -6h101v-112h-539q-24 0 -40 15.5t-16 40.5zM269 368q-37 0 -62 -18
t-33.5 -42.5t-8.5 -44.5q0 -40 22 -73.5t56 -51t66 -23.5q17 11 33.5 31.5t24.5 48t8 53.5q0 25 -9.5 53.5t-35 47.5t-61.5 19zM375 555h-91v91h91v-91zM253 555h-90v91h90v-91zM375 682h-91v92h91v-92zM253 682h-90v92h90v-92z" />
    <glyph glyph-name="uniFB73" unicode="&#x684;" horiz-adv-x="558" arabic-form="final" 
d="M404 112l4 6q-15 13 -21.5 39.5t-10.5 67.5t-6 54q-11 87 -92 87q-27 0 -63 -10t-63 -25l-44 90q40 28 86 42.5t90 14.5q174 0 194 -201q10 -98 20.5 -123t24 -33.5t28.5 -8.5h7v-112h-293q-24 0 -48.5 -9t-38.5 -30.5t-14 -48.5q0 -44 34 -63t85 -19q35 0 70 7l15 -102
q-41 -12 -104 -12q-95 0 -150.5 47.5t-55.5 137.5q0 62 27 106.5t77.5 71t119.5 26.5h122zM465 -201h-61v64h61v-64zM465 -120h-61v66h61v-66z" />
    <glyph glyph-name="uniFB74" unicode="&#x684;" horiz-adv-x="505" arabic-form="initial" 
d="M0 0q-24 0 -40 15.5t-16 40.5q0 24 16 40t40 16h355l3 6q-22 20 -29.5 88t-12.5 90q-15 70 -88 70q-27 0 -63 -10t-62 -25l-45 90q41 28 87 42.5t89 14.5q172 0 193 -185q1 -7 5.5 -51t10.5 -70.5t16 -39.5t21 -18v-114h-480zM270 -301h-91v91h91v-91zM270 -174h-91v92
h91v-92z" />
    <glyph glyph-name="uniFB75" unicode="&#x684;" horiz-adv-x="508" arabic-form="medial" 
d="M234 478q174 0 194 -201q10 -98 20.5 -123t24 -33.5t28.5 -8.5h7v-112h-508q-24 0 -40 15.5t-16 40.5q0 24 16 40t40 16h354l4 6q-15 13 -21.5 39.5t-10.5 67.5t-6 54q-11 87 -92 87q-27 0 -63 -10t-63 -25l-44 90q40 28 86 42.5t90 14.5zM270 -301h-91v91h91v-91z
M270 -174h-91v92h91v-92z" />
    <glyph glyph-name="uniFB77" unicode="&#x683;" horiz-adv-x="558" arabic-form="final" 
d="M404 112l4 6q-15 13 -21.5 39.5t-10.5 67.5t-6 54q-11 87 -92 87q-27 0 -63 -10t-63 -25l-44 90q40 28 86 42.5t90 14.5q174 0 194 -201q10 -98 20.5 -123t24 -33.5t28.5 -8.5h7v-112h-293q-24 0 -48.5 -9t-38.5 -30.5t-14 -48.5q0 -44 34 -63t85 -19q35 0 70 7l15 -102
q-41 -12 -104 -12q-95 0 -150.5 47.5t-55.5 137.5q0 62 27 106.5t77.5 71t119.5 26.5h122zM475 -115h-61v64h61v-64zM398 -115h-62v64h62v-64z" />
    <glyph glyph-name="uniFB78" unicode="&#x683;" horiz-adv-x="505" arabic-form="initial" 
d="M0 0q-24 0 -40 15.5t-16 40.5q0 24 16 40t40 16h355l3 6q-22 20 -29.5 88t-12.5 90q-15 70 -88 70q-27 0 -63 -10t-62 -25l-45 90q41 28 87 42.5t89 14.5q172 0 193 -185q1 -7 5.5 -51t10.5 -70.5t16 -39.5t21 -18v-114h-480zM341 -173h-91v91h91v-91zM219 -173h-90v91
h90v-91z" />
    <glyph glyph-name="uniFB79" unicode="&#x683;" horiz-adv-x="508" arabic-form="medial" 
d="M234 478q174 0 194 -201q10 -98 20.5 -123t24 -33.5t28.5 -8.5h7v-112h-508q-24 0 -40 15.5t-16 40.5q0 24 16 40t40 16h354l4 6q-15 13 -21.5 39.5t-10.5 67.5t-6 54q-11 87 -92 87q-27 0 -63 -10t-63 -25l-44 90q40 28 86 42.5t90 14.5zM341 -173h-91v91h91v-91z
M219 -173h-90v91h90v-91z" />
    <glyph glyph-name="uniFB7B" unicode="&#x686;" horiz-adv-x="558" arabic-form="final" 
d="M404 112l4 6q-15 13 -21.5 39.5t-10.5 67.5t-6 54q-11 87 -92 87q-27 0 -63 -10t-63 -25l-44 90q40 28 86 42.5t90 14.5q174 0 194 -201q10 -98 20.5 -123t24 -33.5t28.5 -8.5h7v-112h-293q-24 0 -48.5 -9t-38.5 -30.5t-14 -48.5q0 -44 34 -63t85 -19q35 0 70 7l15 -102
q-41 -12 -104 -12q-95 0 -150.5 47.5t-55.5 137.5q0 62 27 106.5t77.5 71t119.5 26.5h122zM439 -66h61v-65h-61v65zM361 -66h62v-65h-62v65zM400 -148h61v-65h-61v65z" />
    <glyph glyph-name="uniFB7C" unicode="&#x686;" horiz-adv-x="505" arabic-form="initial" 
d="M0 0q-24 0 -40 15.5t-16 40.5q0 24 16 40t40 16h355l3 6q-22 20 -29.5 88t-12.5 90q-15 70 -88 70q-27 0 -63 -10t-62 -25l-45 90q41 28 87 42.5t89 14.5q172 0 193 -185q1 -7 5.5 -51t10.5 -70.5t16 -39.5t21 -18v-114h-480zM267 -82h91v-91h-91v91zM146 -82h90v-91h-90
v91zM206 -210h91v-90h-91v90z" />
    <glyph glyph-name="uniFB7D" unicode="&#x686;" horiz-adv-x="508" arabic-form="medial" 
d="M234 478q174 0 194 -201q10 -98 20.5 -123t24 -33.5t28.5 -8.5h7v-112h-508q-24 0 -40 15.5t-16 40.5q0 24 16 40t40 16h354l4 6q-15 13 -21.5 39.5t-10.5 67.5t-6 54q-11 87 -92 87q-27 0 -63 -10t-63 -25l-44 90q40 28 86 42.5t90 14.5zM269 -82h91v-91h-91v91z
M148 -82h90v-91h-90v91zM208 -210h91v-90h-91v90z" />
    <glyph glyph-name="uniFB7F" unicode="&#x687;" horiz-adv-x="558" arabic-form="final" 
d="M404 112l4 6q-15 13 -21.5 39.5t-10.5 67.5t-6 54q-11 87 -92 87q-27 0 -63 -10t-63 -25l-44 90q40 28 86 42.5t90 14.5q174 0 194 -201q10 -98 20.5 -123t24 -33.5t28.5 -8.5h7v-112h-293q-24 0 -48.5 -9t-38.5 -30.5t-14 -48.5q0 -44 34 -63t85 -19q35 0 70 7l15 -102
q-41 -12 -104 -12q-95 0 -150.5 47.5t-55.5 137.5q0 62 27 106.5t77.5 71t119.5 26.5h122zM511 -180h-61v64h61v-64zM434 -180h-62v64h62v-64zM511 -99h-61v66h61v-66zM434 -99h-62v66h62v-66z" />
    <glyph glyph-name="uniFB80" unicode="&#x687;" horiz-adv-x="505" arabic-form="initial" 
d="M0 0q-24 0 -40 15.5t-16 40.5q0 24 16 40t40 16h355l3 6q-22 20 -29.5 88t-12.5 90q-15 70 -88 70q-27 0 -63 -10t-62 -25l-45 90q41 28 87 42.5t89 14.5q172 0 193 -185q1 -7 5.5 -51t10.5 -70.5t16 -39.5t21 -18v-114h-480zM346 -301h-91v91h91v-91zM224 -301h-90v91
h90v-91zM346 -174h-91v92h91v-92zM224 -174h-90v92h90v-92z" />
    <glyph glyph-name="uniFB81" unicode="&#x687;" horiz-adv-x="508" arabic-form="medial" 
d="M234 478q174 0 194 -201q10 -98 20.5 -123t24 -33.5t28.5 -8.5h7v-112h-508q-24 0 -40 15.5t-16 40.5q0 24 16 40t40 16h354l4 6q-15 13 -21.5 39.5t-10.5 67.5t-6 54q-11 87 -92 87q-27 0 -63 -10t-63 -25l-44 90q40 28 86 42.5t90 14.5zM346 -301h-91v91h91v-91z
M224 -301h-90v91h90v-91zM346 -174h-91v92h91v-92zM224 -174h-90v92h90v-92z" />
    <glyph glyph-name="uniFB83" unicode="&#x68d;" horiz-adv-x="506" arabic-form="final" 
d="M345 112v156q0 99 -96 99q-74 0 -125 -39l-55 88q74 61 185 61q67 0 109.5 -22t64 -62t21.5 -100v-181h57v-112h-448v112h287zM351 -173h-91v91h91v-91zM229 -173h-90v91h90v-91z" />
    <glyph glyph-name="uniFB85" unicode="&#x68c;" horiz-adv-x="506" arabic-form="final" 
d="M345 112v156q0 99 -96 99q-74 0 -125 -39l-55 88q74 61 185 61q67 0 109.5 -22t64 -62t21.5 -100v-181h57v-112h-448v112h287zM351 555h-91v91h91v-91zM229 555h-90v91h90v-91z" />
    <glyph glyph-name="uniFB87" unicode="&#x68e;" horiz-adv-x="506" arabic-form="final" 
d="M345 112v156q0 99 -96 99q-74 0 -125 -39l-55 88q74 61 185 61q67 0 109.5 -22t64 -62t21.5 -100v-181h57v-112h-448v112h287zM351 555h-91v91h91v-91zM229 555h-90v91h90v-91zM290 682h-91v92h91v-92z" />
    <glyph glyph-name="uniFB89" unicode="&#x688;" horiz-adv-x="506" arabic-form="final" 
d="M345 112v156q0 99 -96 99q-74 0 -125 -39l-55 88q74 61 185 61q67 0 109.5 -22t64 -62t21.5 -100v-181h57v-112h-448v112h287zM280 665q-21 0 -37.5 -14.5t-22.5 -38.5h95v15q0 17 -9 27.5t-26 10.5zM374 555h-252v58h37v137h61v-59l3 -1q13 14 35.5 23t40.5 9
q22 0 41 -10t26.5 -27t7.5 -33v-97z" />
    <glyph glyph-name="uniFB8B" unicode="&#x698;" horiz-adv-x="228" arabic-form="final" 
d="M-54 -96q65 1 93 29t28 85v372h103v-278h58v-112h-58q-2 -102 -55 -153.5t-169 -52.5v110zM220 470h-91v91h91v-91zM98 470h-90v91h90v-91zM159 597h-91v92h91v-92z" />
    <glyph glyph-name="uniFB8F" unicode="&#x6a9;" horiz-adv-x="806" arabic-form="final" 
d="M371 417v75l379 244l50 -77l-305 -196l163 -98q39 -23 58.5 -50.5t26 -58.5t6.5 -78v-66h57v-112h-483q-265 0 -265 252v100h103v-69q0 -96 39.5 -133.5t116.5 -37.5h329v60q0 79 -49 108z" />
    <glyph glyph-name="uniFB90" unicode="&#x6a9;" horiz-adv-x="504" arabic-form="initial" 
d="M-58 56q0 25 16 40.5t42 15.5h333v60q0 49 -13.5 72t-35.5 36l-226 137v75l379 244l51 -77l-306 -196l163 -98q39 -23 58.5 -50.5t26 -58.5t6.5 -78v-178h-437q-25 0 -41 15.5t-16 40.5z" />
    <glyph glyph-name="uniFB91" unicode="&#x6a9;" horiz-adv-x="504" arabic-form="medial" 
d="M-58 56q0 25 16 40.5t42 15.5h333v60q0 49 -13.5 72t-35.5 36l-226 137v75l379 244l51 -77l-306 -196l163 -98q39 -23 58.5 -50.5t26 -58.5t6.5 -78v-66h68v-112h-505q-25 0 -41 15.5t-16 40.5z" />
    <glyph glyph-name="uniFB93" unicode="&#x6af;" horiz-adv-x="806" arabic-form="final" 
d="M371 417v75l379 244l50 -77l-305 -196l163 -98q39 -23 58.5 -50.5t26 -58.5t6.5 -78v-66h57v-112h-483q-265 0 -265 252v100h103v-69q0 -96 39.5 -133.5t116.5 -37.5h329v60q0 79 -49 108zM660 835l31 -51l-376 -242l-32 51z" />
    <glyph glyph-name="uniFB94" unicode="&#x6af;" horiz-adv-x="504" arabic-form="initial" 
d="M-58 56q0 25 16 40.5t42 15.5h333v60q0 49 -13.5 72t-35.5 36l-226 137v75l379 244l51 -77l-306 -196l163 -98q39 -23 58.5 -50.5t26 -58.5t6.5 -78v-178h-437q-25 0 -41 15.5t-16 40.5zM370 840l31 -51l-376 -242l-32 51z" />
    <glyph glyph-name="uniFB95" unicode="&#x6af;" horiz-adv-x="504" arabic-form="medial" 
d="M-58 56q0 25 16 40.5t42 15.5h333v60q0 49 -13.5 72t-35.5 36l-226 137v75l379 244l51 -77l-306 -196l163 -98q39 -23 58.5 -50.5t26 -58.5t6.5 -78v-66h68v-112h-505q-25 0 -41 15.5t-16 40.5zM370 840l31 -51l-376 -242l-32 51z" />
    <glyph glyph-name="uniFB97" unicode="&#x6b3;" horiz-adv-x="806" arabic-form="final" 
d="M371 417v75l379 244l50 -77l-305 -196l163 -98q39 -23 58.5 -50.5t26 -58.5t6.5 -78v-66h57v-112h-483q-265 0 -265 252v100h103v-69q0 -96 39.5 -133.5t116.5 -37.5h329v60q0 79 -49 108zM493 -301h-91v91h91v-91zM493 -174h-91v92h91v-92zM660 835l31 -51l-376 -242
l-32 51z" />
    <glyph glyph-name="uniFB98" unicode="&#x6b3;" horiz-adv-x="504" arabic-form="initial" 
d="M-58 56q0 25 16 40.5t42 15.5h333v60q0 49 -13.5 72t-35.5 36l-226 137v75l379 244l51 -77l-306 -196l163 -98q39 -23 58.5 -50.5t26 -58.5t6.5 -78v-178h-437q-25 0 -41 15.5t-16 40.5zM283 -301h-91v91h91v-91zM283 -174h-91v92h91v-92zM370 840l31 -51l-376 -242
l-32 51z" />
    <glyph glyph-name="uniFB99" unicode="&#x6b3;" horiz-adv-x="504" arabic-form="medial" 
d="M-58 56q0 25 16 40.5t42 15.5h333v60q0 49 -13.5 72t-35.5 36l-226 137v75l379 244l51 -77l-306 -196l163 -98q39 -23 58.5 -50.5t26 -58.5t6.5 -78v-66h68v-112h-505q-25 0 -41 15.5t-16 40.5zM283 -301h-91v91h91v-91zM283 -174h-91v92h91v-92zM370 840l31 -51
l-376 -242l-32 51z" />
    <glyph glyph-name="uniFB9B" unicode="&#x6b1;" horiz-adv-x="806" arabic-form="final" 
d="M371 417v75l379 244l50 -77l-305 -196l163 -98q39 -23 58.5 -50.5t26 -58.5t6.5 -78v-66h57v-112h-483q-265 0 -265 252v100h103v-69q0 -96 39.5 -133.5t116.5 -37.5h329v60q0 79 -49 108zM660 835l31 -51l-376 -242l-32 51zM464 779h-61v64h61v-64zM376 715h-61v64h61
v-64z" />
    <glyph glyph-name="uniFB9C" unicode="&#x6b1;" horiz-adv-x="504" arabic-form="initial" 
d="M-58 56q0 25 16 40.5t42 15.5h333v60q0 49 -13.5 72t-35.5 36l-226 137v75l379 244l51 -77l-306 -196l163 -98q39 -23 58.5 -50.5t26 -58.5t6.5 -78v-178h-437q-25 0 -41 15.5t-16 40.5zM370 840l31 -51l-376 -242l-32 51zM197 779h-61v64h61v-64zM109 715h-61v64h61v-64
z" />
    <glyph glyph-name="uniFB9D" unicode="&#x6b1;" horiz-adv-x="504" arabic-form="medial" 
d="M-58 56q0 25 16 40.5t42 15.5h333v60q0 49 -13.5 72t-35.5 36l-226 137v75l379 244l51 -77l-306 -196l163 -98q39 -23 58.5 -50.5t26 -58.5t6.5 -78v-66h68v-112h-505q-25 0 -41 15.5t-16 40.5zM370 840l31 -51l-376 -242l-32 51zM197 779h-61v64h61v-64zM109 715h-61v64
h61v-64z" />
    <glyph glyph-name="uniFBA5" unicode="&#x6c0;" horiz-adv-x="541" arabic-form="final" 
d="M364 478h105v-272q0 -57 19.5 -75t52.5 -19v-112h-11q-41 0 -73 15t-47.5 35.5t-20.5 37.5q-28 -25 -70.5 -41t-80.5 -16q-89 0 -134.5 43t-45.5 117q0 36 14 73t48 72t95 61.5t149 37.5v43zM245 139q120 0 120 127v66q-60 -7 -104.5 -23.5t-69.5 -43.5t-25 -60
q0 -29 21 -47.5t58 -18.5zM273 720q19 0 44.5 -7t42.5 -19l-26 -51q-30 18 -63 18q-22 0 -34.5 -11t-12.5 -27t11 -25.5t30 -9.5h94v-58h-229v58h37l2 2q-10 13 -10 35q0 24 13.5 46.5t38.5 35.5t62 13z" />
    <glyph glyph-name="uniFBA7" unicode="&#x6c1;" horiz-adv-x="518" arabic-form="final" 
d="M441 237v-21q0 -53 16.5 -78.5t60.5 -25.5v-112q-94 0 -138 41.5t-44 134.5v46q0 46 -22.5 72.5t-64.5 26.5q-28 0 -49 -14.5t-29 -39t-8 -48.5q0 -53 21.5 -80t74.5 -27h28v-112h-51q-46 0 -76.5 13t-51.5 34.5t-35.5 61.5t-14.5 98q0 108 51 167t145 59q86 0 136.5 -50
t50.5 -146z" />
    <glyph glyph-name="uniFBA8" unicode="&#x6c1;" horiz-adv-x="229" arabic-form="initial" 
d="M68 455h103v-252q0 -107 -44 -155t-127 -48q-24 0 -40.5 16t-16.5 39q0 24 17 40t40 17q20 0 37 9t24 31t7 59v244zM131 -119l48 -29q-46 -85 -108 -85q-28 0 -46 16t-18 44q0 15 5 33l39 122h66l-41 -130l-2 -12q0 -8 7 -8q8 0 19 10.5t31 38.5z" />
    <glyph glyph-name="uniFBA9" unicode="&#x6c1;" horiz-adv-x="417" arabic-form="medial" 
d="M-57 55q0 24 17 40.5t40 16.5q21 0 38.5 8t25 30.5t7.5 58.5v79h103v-204q0 -48 7.5 -74.5t21.5 -44.5h4q23 147 162 147h48v-112h-44q-32 0 -52 -17.5t-26.5 -45.5t-6.5 -54q8 -4 58 -21l-31 -92q-44 10 -86.5 28.5t-74 47.5t-51.5 70.5t-25 99.5l-5 5q-12 -9 -33 -15
t-40 -6q-23 0 -40 15.5t-17 39.5zM126 -256l48 -29q-46 -85 -108 -85q-28 0 -46 16t-18 44q0 15 5 33l39 122h66l-41 -130l-2 -12q0 -8 7 -8q8 0 19 10.5t31 38.5z" />
    <glyph glyph-name="uniFBAB" unicode="&#x6be;" horiz-adv-x="818" arabic-form="final" 
d="M50 0v112h110q37 0 57 -5l2 4q-23 17 -37 50.5t-14 70.5q0 52 21.5 90.5t55.5 59.5t77 26l-20 42q40 25 98 42.5t110 17.5q48 0 90 -13t74.5 -43.5t51 -83.5t18.5 -127v-12q0 -63 15.5 -90.5t58.5 -28.5v-112q-61 0 -93 17t-47 45q-24 -25 -60.5 -43.5t-97.5 -18.5h-470z
M491 115v-5q76 0 110.5 34t34.5 105q0 150 -131 150q-34 0 -71 -15q20 -8 42 -26.5t36 -53t14 -77.5v-9q-1 -27 -10 -56t-25 -47zM346 313q-17 0 -35 -9t-29 -30.5t-11 -46.5q0 -27 14 -52t37.5 -38.5t46.5 -17.5q13 7 25.5 22.5t19 38t6.5 42.5q0 28 -10 50.5t-28 31.5
t-36 9z" />
    <glyph glyph-name="uniFBAC" unicode="&#x6be;" horiz-adv-x="691" arabic-form="initial" 
d="M-56 55q0 24 16.5 40.5t39.5 16.5h48q39 0 59 -4l2 4q-23 16 -37 49.5t-14 70.5q0 52 21.5 90.5t55.5 59.5t77 26l-20 42q40 25 98 42.5t110 17.5q119 0 176 -69t57 -195q0 -79 -27.5 -133t-77.5 -83.5t-118 -29.5h-410q-24 0 -40 15.5t-16 39.5zM381 115v-5
q76 0 110 34.5t34 104.5q0 74 -31.5 112t-98.5 38q-34 0 -71 -15q20 -8 42 -26.5t36 -53t14 -77.5v-9q-1 -28 -10.5 -57t-24.5 -46zM236 313q-17 0 -35 -9t-29 -30.5t-11 -46.5q0 -27 14 -52t37.5 -38.5t46.5 -17.5q13 7 25.5 22.5t19 38t6.5 42.5q0 28 -10 50.5t-28 31.5
t-36 9z" />
    <glyph glyph-name="uniFBAD" unicode="&#x6be;" horiz-adv-x="708" arabic-form="medial" 
d="M58 232q0 52 21.5 90.5t55.5 59.5t77 26l-20 42q40 25 98 42.5t110 17.5q48 0 90 -13t74.5 -43.5t51 -83.5t18.5 -127v-12q0 -63 15.5 -90.5t58.5 -28.5v-112q-61 0 -93 17t-47 45q-24 -25 -60.5 -43.5t-97.5 -18.5h-410q-25 0 -40.5 15.5t-15.5 40.5q0 24 16 40t40 16
h50q37 0 57 -5l2 4q-23 17 -37 50.5t-14 70.5zM381 115v-5q76 0 110.5 34t34.5 105q0 150 -131 150q-34 0 -71 -15q20 -8 42 -26.5t36 -53t14 -77.5v-9q-1 -27 -10 -56t-25 -47zM236 313q-17 0 -35 -9t-29 -30.5t-11 -46.5q0 -27 14 -52t37.5 -38.5t46.5 -17.5
q13 7 25.5 22.5t19 38t6.5 42.5q0 28 -10 50.5t-28 31.5t-36 9z" />
    <glyph glyph-name="uniFBAF" unicode="&#x6d2;" horiz-adv-x="298" arabic-form="final" 
d="M727 -211h-669v150q0 87 47 130t129 43h64v-112h-59q-74 0 -74 -75v-23h562v-113z" />
    <glyph glyph-name="uniFBB1" unicode="&#x6d3;" horiz-adv-x="463" arabic-form="final" 
d="M839 -211h-781v381q0 53 21.5 95.5t62 62.5t85.5 20h179v-236h57v-112h-163v229h-57q-79 0 -79 -95v-232h675v-113zM278 626q19 0 44.5 -7t42.5 -19l-26 -51q-30 18 -63 18q-22 0 -34.5 -11t-12.5 -27t11 -25.5t30 -9.5h94v-58h-229v58h37l2 2q-10 13 -10 35
q0 24 13.5 46.5t38.5 35.5t62 13z" />
    <glyph glyph-name="uniFBD4" unicode="&#x6ad;" horiz-adv-x="778" arabic-form="final" 
d="M600 726h103v-528q0 -43 16.5 -64t58.5 -22v-112q-93 0 -122 56q-19 -25 -45.5 -40.5t-84.5 -15.5h-202q-264 0 -264 252v103h103v-72q0 -97 39 -134t116 -37h207q24 0 41.5 8.5t25.5 28.5t8 50v527zM416 496q19 0 44.5 -7t42.5 -19l-26 -51q-30 18 -63 18
q-22 0 -34.5 -11t-12.5 -27t11 -25.5t30 -9.5h94v-58h-229v58h37l2 2q-10 13 -10 35q0 24 13.5 46.5t38.5 35.5t62 13zM510 530h-91v91h91v-91zM388 530h-90v91h90v-91zM449 657h-91v92h91v-92z" />
    <glyph glyph-name="uniFBD5" unicode="&#x6ad;" horiz-adv-x="504" arabic-form="initial" 
d="M-58 56q0 25 16 40.5t42 15.5h333v60q0 49 -13.5 72t-35.5 36l-226 137v75l379 244l51 -77l-306 -196l163 -98q39 -23 58.5 -50.5t26 -58.5t6.5 -78v-178h-437q-25 0 -41 15.5t-16 40.5zM238 659h-61v64h61v-64zM161 659h-62v64h62v-64zM199 740h-61v66h61v-66z" />
    <glyph glyph-name="uniFBD6" unicode="&#x6ad;" horiz-adv-x="504" arabic-form="medial" 
d="M-58 56q0 25 16 40.5t42 15.5h333v60q0 49 -13.5 72t-35.5 36l-226 137v75l379 244l51 -77l-306 -196l163 -98q39 -23 58.5 -50.5t26 -58.5t6.5 -78v-66h68v-112h-505q-25 0 -41 15.5t-16 40.5zM238 659h-61v64h61v-64zM161 659h-62v64h62v-64zM199 740h-61v66h61v-66z
" />
    <glyph glyph-name="uniFBD8" unicode="&#x6c7;" horiz-adv-x="541" arabic-form="final" 
d="M280 478q96 0 149.5 -60t53.5 -175v-131h58v-112h-58q-3 -105 -63.5 -163.5t-166.5 -58.5h-152v113h149q33 0 62.5 12.5t45 41t15.5 58.5h-89q-52 0 -94 13.5t-71.5 41.5t-45 72t-15.5 102q0 116 58 181t164 65zM377 112v120q0 65 -26 99t-75 34q-50 0 -81.5 -33.5
t-31.5 -100.5q0 -63 30.5 -91t81.5 -28h102zM251 632l1 3q-10 7 -16 20.5t-6 26.5q0 26 19 47.5t50 21.5q17 0 35 -8t29.5 -27.5t11.5 -42.5q0 -28 -17.5 -51.5t-51.5 -33.5l-145 -40v57z" />
    <glyph glyph-name="uniFBDA" unicode="&#x6c6;" horiz-adv-x="541" arabic-form="final" 
d="M280 478q96 0 149.5 -60t53.5 -175v-131h58v-112h-58q-3 -105 -63.5 -163.5t-166.5 -58.5h-152v113h149q33 0 62.5 12.5t45 41t15.5 58.5h-89q-52 0 -94 13.5t-71.5 41.5t-45 72t-15.5 102q0 116 58 181t164 65zM377 112v120q0 65 -26 99t-75 34q-50 0 -81.5 -33.5
t-31.5 -100.5q0 -63 30.5 -91t81.5 -28h102zM238 555l-86 172l42 21l71 -121l74 121l42 -22l-85 -171h-58z" />
    <glyph glyph-name="uniFBDC" unicode="&#x6c8;" horiz-adv-x="541" arabic-form="final" 
d="M280 478q96 0 149.5 -60t53.5 -175v-131h58v-112h-58q-3 -105 -63.5 -163.5t-166.5 -58.5h-152v113h149q33 0 62.5 12.5t45 41t15.5 58.5h-89q-52 0 -94 13.5t-71.5 41.5t-45 72t-15.5 102q0 116 58 181t164 65zM377 112v120q0 65 -26 99t-75 34q-50 0 -81.5 -33.5
t-31.5 -100.5q0 -63 30.5 -91t81.5 -28h102zM299 728v-173h-63v173h63z" />
    <glyph glyph-name="uniFBDF" unicode="&#x6cb;" horiz-adv-x="541" arabic-form="final" 
d="M280 478q96 0 149.5 -60t53.5 -175v-131h58v-112h-58q-3 -105 -63.5 -163.5t-166.5 -58.5h-152v113h149q33 0 62.5 12.5t45 41t15.5 58.5h-89q-52 0 -94 13.5t-71.5 41.5t-45 72t-15.5 102q0 116 58 181t164 65zM377 112v120q0 65 -26 99t-75 34q-50 0 -81.5 -33.5
t-31.5 -100.5q0 -63 30.5 -91t81.5 -28h102zM374 555h-91v91h91v-91zM252 555h-90v91h90v-91zM313 682h-91v92h91v-92z" />
    <glyph glyph-name="uniFBE1" unicode="&#x6c5;" horiz-adv-x="541" arabic-form="final" 
d="M280 478q96 0 149.5 -60t53.5 -175v-131h58v-112h-58q-3 -105 -63.5 -163.5t-166.5 -58.5h-152v113h149q59 0 91 32h-170v44h196q6 20 6 36h-89q-52 0 -94 13.5t-71.5 41.5t-45 72t-15.5 102q0 116 58 181t164 65zM377 112v120q0 65 -26 99t-75 34q-50 0 -81.5 -33.5
t-31.5 -100.5q0 -63 30.5 -91t81.5 -28h102z" />
    <glyph glyph-name="uniFBE3" unicode="&#x6c9;" horiz-adv-x="541" arabic-form="final" 
d="M280 478q96 0 149.5 -60t53.5 -175v-131h58v-112h-58q-3 -105 -63.5 -163.5t-166.5 -58.5h-152v113h149q33 0 62.5 12.5t45 41t15.5 58.5h-89q-52 0 -94 13.5t-71.5 41.5t-45 72t-15.5 102q0 116 58 181t164 65zM377 112v120q0 65 -26 99t-75 34q-50 0 -81.5 -33.5
t-31.5 -100.5q0 -63 30.5 -91t81.5 -28h102zM153 576l86 172h58l85 -171l-42 -22l-74 121l-71 -121z" />
    <glyph glyph-name="uniFBE5" unicode="&#x6d0;" horiz-adv-x="864" arabic-form="final" 
d="M580 0h-257q-265 0 -265 252v103h103v-72q0 -96 39.5 -133.5t116.5 -37.5h159v187q0 87 48 133t128 46h154v-366h58v-112h-162v364h-55q-36 0 -51.5 -21t-15.5 -62v-281zM455 -301h-91v91h91v-91zM455 -174h-91v92h91v-92z" />
    <glyph glyph-name="uniFBE6" unicode="&#x6d0;" horiz-adv-x="229" arabic-form="initial" 
d="M68 455h103v-252q0 -107 -44 -155t-127 -48q-24 0 -40.5 16t-16.5 39q0 24 17 40t40 17q20 0 37 9t24 31t7 59v244zM148 -301h-91v91h91v-91zM148 -174h-91v92h91v-92z" />
    <glyph glyph-name="uniFBE7" unicode="&#x6d0;" horiz-adv-x="249" arabic-form="medial" 
d="M-57 55q0 21 16 39t41 18q36 0 53.5 21.5t17.5 70.5v186h103v-192q0 -44 17 -64.5t58 -21.5v-112q-41 0 -73.5 14t-47.5 42q-22 -30 -53.5 -43t-74.5 -13q-23 0 -40 16t-17 39zM170 -301h-91v91h91v-91zM170 -174h-91v92h91v-92z" />
    <glyph glyph-name="uniFBE8" unicode="&#x649;" horiz-adv-x="229" arabic-form="initial" 
d="M68 455h103v-252q0 -107 -44 -155t-127 -48q-24 0 -40.5 16t-16.5 39q0 24 17 40t40 17q20 0 37 9t24 31t7 59v244z" />
    <glyph glyph-name="uniFBE9" unicode="&#x649;" horiz-adv-x="249" arabic-form="medial" 
d="M-57 55q0 21 16 39t41 18q36 0 53.5 21.5t17.5 70.5v186h103v-192q0 -44 17 -64.5t58 -21.5v-112q-41 0 -73.5 14t-47.5 42q-22 -30 -53.5 -43t-74.5 -13q-23 0 -40 16t-17 39z" />
    <glyph glyph-name="uniFBFD" unicode="&#x6cc;" horiz-adv-x="864" arabic-form="final" 
d="M580 0h-257q-265 0 -265 252v103h103v-72q0 -96 39.5 -133.5t116.5 -37.5h159v187q0 87 48 133t128 46h154v-366h58v-112h-162v364h-55q-36 0 -51.5 -21t-15.5 -62v-281z" />
    <glyph glyph-name="uniFBFE" unicode="&#x6cc;" horiz-adv-x="229" arabic-form="initial" 
d="M68 455h103v-252q0 -107 -44 -155t-127 -48q-24 0 -40.5 16t-16.5 39q0 24 17 40t40 17q20 0 37 9t24 31t7 59v244zM220 -173h-91v91h91v-91zM98 -173h-90v91h90v-91z" />
    <glyph glyph-name="uniFBFF" unicode="&#x6cc;" horiz-adv-x="249" arabic-form="medial" 
d="M-57 55q0 21 16 39t41 18q36 0 53.5 21.5t17.5 70.5v186h103v-192q0 -44 17 -64.5t58 -21.5v-112q-41 0 -73.5 14t-47.5 42q-22 -30 -53.5 -43t-74.5 -13q-23 0 -40 16t-17 39zM230 -173h-91v91h91v-91zM108 -173h-90v91h90v-91z" />
    <glyph glyph-name="uniFC5E" unicode="&#xfc5e;" horiz-adv-x="0" arabic-form="isolated" 
d="M61 157l-123 -34l-17 5v56q0 28 -27 28l-19 -1v42q12 3 31 3q27 0 43.5 -14.5t16.5 -42.5v-15l43 11l1 3q-18 13 -18 47q0 23 18 42t47 19q31 0 50 -21t19 -53q0 -24 -16.5 -45.5t-48.5 -29.5zM77 235q0 12 -6 18.5t-13 6.5q-8 0 -15 -6t-7 -16q0 -9 7 -17.5t19 -9.5
q7 3 11 10t4 14zM11 23l-3 -1q-4 -21 -21 -33t-39 -12q-35 0 -48 20.5t-13 53.5v18l53 16v-36q0 -20 16 -20q7 0 12.5 6t5.5 14v45l50 15v-35q0 -20 18 -20q8 0 13 6.5t5 13.5v47l52 15v-55q0 -33 -15.5 -55t-47.5 -22q-10 0 -21.5 4.5t-16.5 14.5z" />
    <glyph glyph-name="uniFC5F" unicode="&#xfc5f;" horiz-adv-x="0" arabic-form="isolated" 
d="M105 158v-53l-210 -51v51zM105 76v-51l-210 -51v51zM11 201l-3 -1q-4 -21 -21 -33.5t-39 -12.5q-61 0 -61 75v18l53 15v-36q0 -20 16 -20q7 0 12.5 6t5.5 14v46l50 14v-35q0 -20 18 -20q8 0 13 6.5t5 13.5v47l52 15v-55q0 -33 -15.5 -55t-47.5 -22q-10 0 -21.5 4.5
t-16.5 15.5z" />
    <glyph glyph-name="uniFC60" unicode="&#xfc60;" horiz-adv-x="0" arabic-form="isolated" 
d="M105 215v-54l-210 -50v52zM11 22l-3 -1q-4 -21 -21 -33.5t-39 -12.5q-61 0 -61 74v18l53 16v-36q0 -20 16 -20q7 0 12.5 6t5.5 14v46l50 14v-35q0 -20 18 -20q8 0 13 6.5t5 13.5v47l52 15v-55q0 -33 -15.5 -55t-47.5 -22q-10 0 -21.5 4.5t-16.5 15.5z" />
    <glyph glyph-name="uniFC61" unicode="&#xfc61;" horiz-adv-x="0" arabic-form="isolated" 
d="M-12 182v2q-9 8 -14 20t-5 25q0 24 18 43.5t47 19.5q31 0 50.5 -21t19.5 -48q0 -26 -14 -44.5t-29 -25t-22 -8.5l-143 -39v51zM56 222q0 12 -6 18.5t-14 6.5t-15 -6t-7 -15q0 -10 7 -18t19 -10q7 3 11.5 10t4.5 14zM11 21l-3 -1q-4 -21 -21 -33.5t-39 -12.5q-61 0 -61 75
v18l53 15v-36q0 -20 16 -20q7 0 12.5 6t5.5 14v46l50 14v-35q0 -20 18 -20q8 0 13 6.5t5 13.5v47l52 15v-55q0 -33 -15.5 -55t-47.5 -22q-10 0 -21.5 4.5t-16.5 15.5z" />
    <glyph glyph-name="uniFC62" unicode="&#xfc62;" horiz-adv-x="0" arabic-form="isolated" 
d="M105 81v-55l-210 -51v53zM11 132l-3 -1q-4 -21 -21 -33.5t-39 -12.5q-61 0 -61 75v18l53 15v-36q0 -19 16 -19q7 0 12.5 6t5.5 13v46l50 15v-35q0 -20 18 -20q8 0 13 6.5t5 13.5v46l52 16v-55q0 -34 -13 -52.5t-28 -22t-22 -3.5q-9 0 -21 5t-17 15z" />
    <glyph glyph-name="uniFC63" unicode="&#xfc63;" horiz-adv-x="0" arabic-form="isolated" 
d="M11 21l-3 -1q-4 -21 -21 -33.5t-39 -12.5q-61 0 -61 75v18l53 15v-36q0 -20 16 -20q7 0 12.5 6t5.5 14v46l50 14v-35q0 -20 18 -20q8 0 13 6.5t5 13.5v47l52 15v-55q0 -33 -15.5 -55t-47.5 -22q-10 0 -21.5 4.5t-16.5 15.5zM33 139h-53v52q0 27 -2 47.5t-11 52.5h56
q10 -34 10 -95v-57z" />
    <glyph glyph-name="uniFC64" unicode="&#xfc64;" arabic-form="final" 
d="M-54 -96q33 0 61.5 9t43.5 32t15 55v390h104v-102h152v167h104v-284q0 -32 12 -45.5t42 -13.5h14v-112h-34q-24 0 -48.5 4.5t-44 18t-32.5 41.5t-13 77v33h-152v-163q0 -114 -51.5 -165t-172.5 -52v110zM386 745q19 0 44.5 -7t42.5 -19l-26 -51q-30 18 -63 18
q-22 0 -34.5 -11t-12.5 -27t11 -25.5t30 -9.5h94v-58h-229v58h37l2 2q-10 13 -10 35q0 24 13.5 46.5t38.5 35.5t62 13z" />
    <glyph glyph-name="uniFC65" unicode="&#xfc65;" arabic-form="final" 
d="M-54 -96q33 0 61.5 9t43.5 32t15 55v390h104v-102h152v167h104v-284q0 -32 12 -45.5t42 -13.5h14v-112h-34q-24 0 -48.5 4.5t-44 18t-32.5 41.5t-13 77v33h-152v-163q0 -114 -51.5 -165t-172.5 -52v110zM386 745q19 0 44.5 -7t42.5 -19l-26 -51q-30 18 -63 18
q-22 0 -34.5 -11t-12.5 -27t11 -25.5t30 -9.5h94v-58h-229v58h37l2 2q-10 13 -10 35q0 24 13.5 46.5t38.5 35.5t62 13zM160 470h-91v91h91v-91z" />
    <glyph glyph-name="uniFC67" unicode="&#xfc67;" horiz-adv-x="769" arabic-form="final" 
d="M474 390v-102h123v167h104v-284q0 -32 12 -45.5t42 -13.5h14v-112h-34q-24 0 -48.5 4.5t-44 18t-32.5 41.5t-13 77v33h-123v-177q0 -54 -24.5 -102.5t-74.5 -74.5t-110 -26q-50 0 -89 14.5t-65 41t-38.5 62.5t-12.5 78v295h103v-266q0 -34 11.5 -60t34 -40t57.5 -14
q29 0 54.5 11.5t38 39.5t12.5 63v371h103zM658 745q19 0 44.5 -7t42.5 -19l-26 -51q-30 18 -63 18q-22 0 -34.5 -11t-12.5 -27t11 -25.5t30 -9.5h94v-58h-229v58h37l2 2q-10 13 -10 35q0 24 13.5 46.5t38.5 35.5t62 13zM314 450h-91v91h91v-91z" />
    <glyph glyph-name="uniFC68" unicode="&#xfc68;" horiz-adv-x="864" arabic-form="final" 
d="M580 0h-257q-265 0 -265 252v103h103v-72q0 -96 39.5 -133.5t116.5 -37.5h159v187q0 87 48 133t128 46h154v-366h58v-112h-162v364h-55q-36 0 -51.5 -21t-15.5 -62v-281zM746 745q19 0 44.5 -7t42.5 -19l-26 -51q-30 18 -63 18q-22 0 -34.5 -11t-12.5 -27t11 -25.5
t30 -9.5h94v-58h-229v58h37l2 2q-10 13 -10 35q0 24 13.5 46.5t38.5 35.5t62 13z" />
    <glyph glyph-name="uniFC69" unicode="&#xfc69;" horiz-adv-x="864" arabic-form="final" 
d="M580 0h-257q-265 0 -265 252v103h103v-72q0 -96 39.5 -133.5t116.5 -37.5h159v187q0 87 48 133t128 46h154v-366h58v-112h-162v364h-55q-36 0 -51.5 -21t-15.5 -62v-281zM746 745q19 0 44.5 -7t42.5 -19l-26 -51q-30 18 -63 18q-22 0 -34.5 -11t-12.5 -27t11 -25.5
t30 -9.5h94v-58h-229v58h37l2 2q-10 13 -10 35q0 24 13.5 46.5t38.5 35.5t62 13zM516 -173h-91v91h91v-91zM394 -173h-90v91h90v-91z" />
    <glyph glyph-name="uniFC6A" unicode="&#xfc6a;" arabic-form="final" 
d="M-54 -96q33 0 61.5 9t43.5 32t15 55v390h104v-102h152v167h104v-284q0 -32 12 -45.5t42 -13.5h14v-112h-34q-24 0 -48.5 4.5t-44 18t-32.5 41.5t-13 77v33h-152v-163q0 -114 -51.5 -165t-172.5 -52v110zM396 -173h-91v91h91v-91z" />
    <glyph glyph-name="uniFC6B" unicode="&#xfc6b;" arabic-form="final" 
d="M-54 -96q33 0 61.5 9t43.5 32t15 55v390h104v-102h152v167h104v-284q0 -32 12 -45.5t42 -13.5h14v-112h-34q-24 0 -48.5 4.5t-44 18t-32.5 41.5t-13 77v33h-152v-163q0 -114 -51.5 -165t-172.5 -52v110zM396 -173h-91v91h91v-91zM160 470h-91v91h91v-91z" />
    <glyph glyph-name="uniFC6D" unicode="&#xfc6d;" horiz-adv-x="769" arabic-form="final" 
d="M474 390v-102h123v167h104v-284q0 -32 12 -45.5t42 -13.5h14v-112h-34q-24 0 -48.5 4.5t-44 18t-32.5 41.5t-13 77v33h-123v-177q0 -54 -24.5 -102.5t-74.5 -74.5t-110 -26q-50 0 -89 14.5t-65 41t-38.5 62.5t-12.5 78v295h103v-266q0 -34 11.5 -60t34 -40t57.5 -14
q29 0 54.5 11.5t38 39.5t12.5 63v371h103zM678 -173h-91v91h91v-91zM314 450h-91v91h91v-91z" />
    <glyph glyph-name="uniFC6E" unicode="&#xfc6e;" horiz-adv-x="864" arabic-form="final" 
d="M580 0h-257q-265 0 -265 252v103h103v-72q0 -96 39.5 -133.5t116.5 -37.5h159v187q0 87 48 133t128 46h154v-366h58v-112h-162v364h-55q-36 0 -51.5 -21t-15.5 -62v-281zM766 -173h-91v91h91v-91z" />
    <glyph glyph-name="uniFC6F" unicode="&#xfc6f;" horiz-adv-x="864" arabic-form="final" 
d="M580 0h-257q-265 0 -265 252v103h103v-72q0 -96 39.5 -133.5t116.5 -37.5h159v187q0 87 48 133t128 46h154v-366h58v-112h-162v364h-55q-36 0 -51.5 -21t-15.5 -62v-281zM766 -173h-91v91h91v-91zM516 -173h-91v91h91v-91zM394 -173h-90v91h90v-91z" />
    <glyph glyph-name="uniFC70" unicode="&#xfc70;" arabic-form="final" 
d="M-54 -96q33 0 61.5 9t43.5 32t15 55v390h104v-102h152v167h104v-284q0 -32 12 -45.5t42 -13.5h14v-112h-34q-24 0 -48.5 4.5t-44 18t-32.5 41.5t-13 77v33h-152v-163q0 -114 -51.5 -165t-172.5 -52v110zM466 555h-91v91h91v-91zM344 555h-90v91h90v-91z" />
    <glyph glyph-name="uniFC71" unicode="&#xfc71;" arabic-form="final" 
d="M-54 -96q33 0 61.5 9t43.5 32t15 55v390h104v-102h152v167h104v-284q0 -32 12 -45.5t42 -13.5h14v-112h-34q-24 0 -48.5 4.5t-44 18t-32.5 41.5t-13 77v33h-152v-163q0 -114 -51.5 -165t-172.5 -52v110zM466 555h-91v91h91v-91zM344 555h-90v91h90v-91zM160 470h-91v91
h91v-91z" />
    <glyph glyph-name="uniFC73" unicode="&#xfc73;" horiz-adv-x="769" arabic-form="final" 
d="M474 390v-102h123v167h104v-284q0 -32 12 -45.5t42 -13.5h14v-112h-34q-24 0 -48.5 4.5t-44 18t-32.5 41.5t-13 77v33h-123v-177q0 -54 -24.5 -102.5t-74.5 -74.5t-110 -26q-50 0 -89 14.5t-65 41t-38.5 62.5t-12.5 78v295h103v-266q0 -34 11.5 -60t34 -40t57.5 -14
q29 0 54.5 11.5t38 39.5t12.5 63v371h103zM738 555h-91v91h91v-91zM616 555h-90v91h90v-91zM314 450h-91v91h91v-91z" />
    <glyph glyph-name="uniFC74" unicode="&#xfc74;" horiz-adv-x="864" arabic-form="final" 
d="M580 0h-257q-265 0 -265 252v103h103v-72q0 -96 39.5 -133.5t116.5 -37.5h159v187q0 87 48 133t128 46h154v-366h58v-112h-162v364h-55q-36 0 -51.5 -21t-15.5 -62v-281zM826 555h-91v91h91v-91zM704 555h-90v91h90v-91z" />
    <glyph glyph-name="uniFC75" unicode="&#xfc75;" horiz-adv-x="864" arabic-form="final" 
d="M580 0h-257q-265 0 -265 252v103h103v-72q0 -96 39.5 -133.5t116.5 -37.5h159v187q0 87 48 133t128 46h154v-366h58v-112h-162v364h-55q-36 0 -51.5 -21t-15.5 -62v-281zM826 555h-91v91h91v-91zM704 555h-90v91h90v-91zM516 -173h-91v91h91v-91zM394 -173h-90v91h90v-91
z" />
    <glyph glyph-name="uniFC76" unicode="&#xfc76;" arabic-form="final" 
d="M-54 -96q33 0 61.5 9t43.5 32t15 55v390h104v-102h152v167h104v-284q0 -32 12 -45.5t42 -13.5h14v-112h-34q-24 0 -48.5 4.5t-44 18t-32.5 41.5t-13 77v33h-152v-163q0 -114 -51.5 -165t-172.5 -52v110zM466 555h-91v91h91v-91zM344 555h-90v91h90v-91zM405 682h-91v92
h91v-92z" />
    <glyph glyph-name="uniFC77" unicode="&#xfc77;" arabic-form="final" 
d="M-54 -96q33 0 61.5 9t43.5 32t15 55v390h104v-102h152v167h104v-284q0 -32 12 -45.5t42 -13.5h14v-112h-34q-24 0 -48.5 4.5t-44 18t-32.5 41.5t-13 77v33h-152v-163q0 -114 -51.5 -165t-172.5 -52v110zM466 555h-91v91h91v-91zM344 555h-90v91h90v-91zM405 682h-91v92
h91v-92zM160 470h-91v91h91v-91z" />
    <glyph glyph-name="uniFC79" unicode="&#xfc79;" horiz-adv-x="769" arabic-form="final" 
d="M474 390v-102h123v167h104v-284q0 -32 12 -45.5t42 -13.5h14v-112h-34q-24 0 -48.5 4.5t-44 18t-32.5 41.5t-13 77v33h-123v-177q0 -54 -24.5 -102.5t-74.5 -74.5t-110 -26q-50 0 -89 14.5t-65 41t-38.5 62.5t-12.5 78v295h103v-266q0 -34 11.5 -60t34 -40t57.5 -14
q29 0 54.5 11.5t38 39.5t12.5 63v371h103zM738 555h-91v91h91v-91zM616 555h-90v91h90v-91zM677 682h-91v92h91v-92zM314 450h-91v91h91v-91z" />
    <glyph glyph-name="uniFC7A" unicode="&#xfc7a;" horiz-adv-x="864" arabic-form="final" 
d="M580 0h-257q-265 0 -265 252v103h103v-72q0 -96 39.5 -133.5t116.5 -37.5h159v187q0 87 48 133t128 46h154v-366h58v-112h-162v364h-55q-36 0 -51.5 -21t-15.5 -62v-281zM826 555h-91v91h91v-91zM704 555h-90v91h90v-91zM765 682h-91v92h91v-92z" />
    <glyph glyph-name="uniFC7B" unicode="&#xfc7b;" horiz-adv-x="864" arabic-form="final" 
d="M580 0h-257q-265 0 -265 252v103h103v-72q0 -96 39.5 -133.5t116.5 -37.5h159v187q0 87 48 133t128 46h154v-366h58v-112h-162v364h-55q-36 0 -51.5 -21t-15.5 -62v-281zM826 555h-91v91h91v-91zM704 555h-90v91h90v-91zM765 682h-91v92h91v-92zM516 -173h-91v91h91v-91z
M394 -173h-90v91h90v-91z" />
    <glyph glyph-name="uniFC8A" unicode="&#xfc8a;" arabic-form="final" 
d="M-54 -96q33 0 61.5 9t43.5 32t15 55v390h104v-102h152v167h104v-284q0 -32 12 -45.5t42 -13.5h14v-112h-34q-24 0 -48.5 4.5t-44 18t-32.5 41.5t-13 77v33h-152v-163q0 -114 -51.5 -165t-172.5 -52v110zM406 555h-91v91h91v-91z" />
    <glyph glyph-name="uniFC8B" unicode="&#xfc8b;" arabic-form="final" 
d="M-54 -96q33 0 61.5 9t43.5 32t15 55v390h104v-102h152v167h104v-284q0 -32 12 -45.5t42 -13.5h14v-112h-34q-24 0 -48.5 4.5t-44 18t-32.5 41.5t-13 77v33h-152v-163q0 -114 -51.5 -165t-172.5 -52v110zM406 555h-91v91h91v-91zM160 470h-91v91h91v-91z" />
    <glyph glyph-name="uniFC8D" unicode="&#xfc8d;" horiz-adv-x="769" arabic-form="final" 
d="M474 390v-102h123v167h104v-284q0 -32 12 -45.5t42 -13.5h14v-112h-34q-24 0 -48.5 4.5t-44 18t-32.5 41.5t-13 77v33h-123v-177q0 -54 -24.5 -102.5t-74.5 -74.5t-110 -26q-50 0 -89 14.5t-65 41t-38.5 62.5t-12.5 78v295h103v-266q0 -34 11.5 -60t34 -40t57.5 -14
q29 0 54.5 11.5t38 39.5t12.5 63v371h103zM678 555h-91v91h91v-91zM314 450h-91v91h91v-91z" />
    <glyph glyph-name="uniFC8E" unicode="&#xfc8e;" horiz-adv-x="864" arabic-form="final" 
d="M580 0h-257q-265 0 -265 252v103h103v-72q0 -96 39.5 -133.5t116.5 -37.5h159v187q0 87 48 133t128 46h154v-366h58v-112h-162v364h-55q-36 0 -51.5 -21t-15.5 -62v-281zM766 555h-91v91h91v-91z" />
    <glyph glyph-name="uniFC8F" unicode="&#xfc8f;" horiz-adv-x="864" arabic-form="final" 
d="M580 0h-257q-265 0 -265 252v103h103v-72q0 -96 39.5 -133.5t116.5 -37.5h159v187q0 87 48 133t128 46h154v-366h58v-112h-162v364h-55q-36 0 -51.5 -21t-15.5 -62v-281zM766 555h-91v91h91v-91zM516 -173h-91v91h91v-91zM394 -173h-90v91h90v-91z" />
    <glyph glyph-name="uniFC91" unicode="&#xfc91;" arabic-form="final" 
d="M-54 -96q33 0 61.5 9t43.5 32t15 55v390h104v-102h152v167h104v-284q0 -32 12 -45.5t42 -13.5h14v-112h-34q-24 0 -48.5 4.5t-44 18t-32.5 41.5t-13 77v33h-152v-163q0 -114 -51.5 -165t-172.5 -52v110zM456 -173h-91v91h91v-91zM334 -173h-90v91h90v-91z" />
    <glyph glyph-name="uniFC92" unicode="&#xfc92;" arabic-form="final" 
d="M-54 -96q33 0 61.5 9t43.5 32t15 55v390h104v-102h152v167h104v-284q0 -32 12 -45.5t42 -13.5h14v-112h-34q-24 0 -48.5 4.5t-44 18t-32.5 41.5t-13 77v33h-152v-163q0 -114 -51.5 -165t-172.5 -52v110zM456 -173h-91v91h91v-91zM334 -173h-90v91h90v-91zM160 470h-91v91
h91v-91z" />
    <glyph glyph-name="uniFC94" unicode="&#xfc94;" horiz-adv-x="769" arabic-form="final" 
d="M474 390v-102h123v167h104v-284q0 -32 12 -45.5t42 -13.5h14v-112h-34q-24 0 -48.5 4.5t-44 18t-32.5 41.5t-13 77v33h-123v-177q0 -54 -24.5 -102.5t-74.5 -74.5t-110 -26q-50 0 -89 14.5t-65 41t-38.5 62.5t-12.5 78v295h103v-266q0 -34 11.5 -60t34 -40t57.5 -14
q29 0 54.5 11.5t38 39.5t12.5 63v371h103zM738 -173h-91v91h91v-91zM616 -173h-90v91h90v-91zM314 450h-91v91h91v-91z" />
    <glyph glyph-name="uniFC95" unicode="&#xfc95;" horiz-adv-x="864" arabic-form="final" 
d="M580 0h-257q-265 0 -265 252v103h103v-72q0 -96 39.5 -133.5t116.5 -37.5h159v187q0 87 48 133t128 46h154v-366h58v-112h-162v364h-55q-36 0 -51.5 -21t-15.5 -62v-281zM826 -173h-91v91h91v-91zM704 -173h-90v91h90v-91z" />
    <glyph glyph-name="uniFC96" unicode="&#xfc96;" horiz-adv-x="864" arabic-form="final" 
d="M580 0h-257q-265 0 -265 252v103h103v-72q0 -96 39.5 -133.5t116.5 -37.5h159v187q0 87 48 133t128 46h154v-366h58v-112h-162v364h-55q-36 0 -51.5 -21t-15.5 -62v-281zM826 -173h-91v91h91v-91zM704 -173h-90v91h90v-91zM516 -173h-91v91h91v-91zM394 -173h-90v91h90
v-91z" />
    <glyph glyph-name="uniFCF2" unicode="&#xfcf2;" horiz-adv-x="275" arabic-form="medial" 
d="M243 724v-54l-210 -51v52zM149 512l-3 -1q-4 -21 -21 -33.5t-39 -12.5q-61 0 -61 75v18l53 15v-36q0 -20 16 -20q7 0 12.5 6t5.5 14v46l50 15v-36q0 -19 18 -19q8 0 13 6t5 13v47l52 16v-55q0 -34 -13 -52.5t-28 -22t-22 -3.5q-9 0 -21 5t-17 15zM-47 43q0 18 14 31.5
t33 13.5h275v-88h-275q-20 0 -33.5 12t-13.5 31z" />
    <glyph glyph-name="uniFCF3" unicode="&#xfcf3;" horiz-adv-x="275" arabic-form="medial" 
d="M126 691v3q-8 8 -13.5 20t-5.5 24q0 25 18 44.5t47 19.5q31 0 50.5 -21t19.5 -48q0 -26 -16 -48t-49 -31l-143 -38v50zM194 732q0 12 -6 18t-14 6q-9 0 -15.5 -5.5t-6.5 -15.5t7 -18t19 -10q7 3 11.5 10.5t4.5 14.5zM149 512l-3 -1q-4 -21 -21 -33.5t-39 -12.5
q-61 0 -61 75v18l53 15v-36q0 -20 16 -20q7 0 12.5 6t5.5 14v46l50 15v-36q0 -19 18 -19q8 0 13 6t5 13v47l52 16v-55q0 -34 -13 -52.5t-28 -22t-22 -3.5q-9 0 -21 5t-17 15zM-47 43q0 18 14 31.5t33 13.5h275v-88h-275q-20 0 -33.5 12t-13.5 31z" />
    <glyph glyph-name="uniFCF4" unicode="&#xfcf4;" horiz-adv-x="275" arabic-form="medial" 
d="M243 564v-55l-210 -51v53zM149 605l-3 -1q-4 -21 -21 -33.5t-39 -12.5q-61 0 -61 75v18l53 15v-36q0 -20 16 -20q7 0 12.5 6t5.5 14v46l50 14v-35q0 -20 18 -20q8 0 13 6.5t5 13.5v47l52 15v-55q0 -33 -15.5 -55t-47.5 -22q-9 0 -21 5t-17 15zM-47 43q0 18 14 31.5
t33 13.5h275v-88h-275q-20 0 -33.5 12t-13.5 31z" />
    <glyph glyph-name="uniFE70" unicode="&#xfe70;" horiz-adv-x="211" arabic-form="isolated" 
d="M211 866v-54l-211 -58v53zM211 785v-54l-211 -57v53z" />
    <glyph glyph-name="uniFE71" unicode="&#xfe71;" horiz-adv-x="261" arabic-form="medial" 
d="M236 659v-54l-211 -58v53zM236 578v-54l-211 -57v53zM-47 43q0 18 14 31.5t33 13.5h261v-88h-261q-20 0 -33.5 12t-13.5 31z" />
    <glyph glyph-name="uniFE72" unicode="&#xfe72;" horiz-adv-x="251" arabic-form="isolated" 
d="M186 712l-123 -33l-17 4v56q0 15 -8 22t-19 7l-19 -2v42q16 4 31 4q27 0 43.5 -14.5t16.5 -43.5v-15l43 12l1 2q-9 7 -13.5 20.5t-4.5 26.5q0 24 18 42.5t47 18.5q31 0 50 -21t19 -53q0 -24 -16.5 -45.5t-48.5 -29.5zM202 790q0 12 -5.5 18.5t-13.5 6.5t-15 -6t-7 -15
q0 -10 6.5 -18t19.5 -10q7 3 11 10t4 14z" />
    <glyph glyph-name="uniFE74" unicode="&#xfe74;" horiz-adv-x="211" arabic-form="isolated" 
d="M211 -185v-53l-211 -51v51zM211 -266v-52l-211 -51v51z" />
    <glyph glyph-name="uniFE76" unicode="&#xfe76;" horiz-adv-x="211" arabic-form="isolated" 
d="M211 781v-54l-211 -50v52z" />
    <glyph glyph-name="uniFE77" unicode="&#xfe77;" horiz-adv-x="261" arabic-form="medial" 
d="M236 574v-54l-211 -50v52zM-47 43q0 18 14 31.5t33 13.5h261v-88h-261q-20 0 -33.5 12t-13.5 31z" />
    <glyph glyph-name="uniFE78" unicode="&#xfe78;" horiz-adv-x="209" arabic-form="isolated" 
d="M93 751v3q-19 16 -19 44q0 25 17.5 44.5t47.5 19.5q31 0 50.5 -21t19.5 -48t-16.5 -48.5t-49.5 -29.5l-143 -39v50zM160 792q0 12 -6 18t-14 6t-14.5 -5.5t-6.5 -14.5q0 -11 6.5 -19t19.5 -9q3 1 9 6.5t6 17.5z" />
    <glyph glyph-name="uniFE79" unicode="&#xfe79;" horiz-adv-x="259" arabic-form="medial" 
d="M118 544v2q-8 8 -13.5 20t-5.5 24q0 25 18 44.5t47 19.5q31 0 50.5 -21t19.5 -48q0 -26 -14 -44.5t-29 -25t-22 -8.5l-144 -39v50zM186 584q0 12 -6 18t-14 6t-15 -5.5t-7 -14.5q0 -11 6.5 -19t19.5 -9q7 3 11.5 10t4.5 14zM-47 43q0 18 14 31.5t33 13.5h259v-88h-259
q-20 0 -33.5 12t-13.5 31z" />
    <glyph glyph-name="uniFE7A" unicode="&#xfe7a;" horiz-adv-x="211" arabic-form="isolated" 
d="M211 -185v-54l-211 -52v53z" />
    <glyph glyph-name="uniFE7B" unicode="&#xfe7b;" horiz-adv-x="261" arabic-form="medial" 
d="M236 -91v-55l-211 -51v53zM-47 43q0 18 14 31.5t33 13.5h261v-88h-261q-20 0 -33.5 12t-13.5 31z" />
    <glyph glyph-name="uniFE7C" unicode="&#xfe7c;" horiz-adv-x="225" arabic-form="isolated" 
d="M123 719l-2 -1q-4 -21 -21.5 -33.5t-39.5 -12.5q-60 0 -60 75v18l52 15v-36q0 -20 16 -20q7 0 12.5 6t5.5 14v46l51 15v-36q0 -19 18 -19q8 0 13 6.5t5 12.5v47l52 16v-55q0 -34 -13 -52.5t-28 -22t-22 -3.5q-10 0 -22 5t-17 15z" />
    <glyph glyph-name="uniFE7D" unicode="&#xfe7d;" horiz-adv-x="275" arabic-form="medial" 
d="M149 512l-3 -1q-4 -21 -21 -33.5t-39 -12.5q-61 0 -61 75v18l53 15v-36q0 -20 16 -20q7 0 12.5 6t5.5 14v46l50 15v-36q0 -19 18 -19q8 0 13 6t5 13v47l52 16v-55q0 -34 -13 -52.5t-28 -22t-22 -3.5q-9 0 -21 5t-17 15zM-47 43q0 18 14 31.5t33 13.5h275v-88h-275
q-20 0 -33.5 12t-13.5 31z" />
    <glyph glyph-name="uniFE7E" unicode="&#xfe7e;" horiz-adv-x="160" arabic-form="isolated" 
d="M0 763q0 36 22.5 59t58.5 23t57.5 -22.5t21.5 -59.5q0 -36 -22 -60.5t-57 -24.5t-58 25t-23 60zM112 762q0 13 -8.5 23.5t-22.5 10.5q-15 0 -23.5 -10.5t-8.5 -23.5q0 -12 8.5 -23.5t23.5 -11.5q14 0 22.5 11.5t8.5 23.5z" />
    <glyph glyph-name="uniFE7F" unicode="&#xfe7f;" horiz-adv-x="211" arabic-form="medial" 
d="M25 556q0 36 22.5 59t58.5 23t58 -23t22 -59t-22.5 -60.5t-57.5 -24.5t-58 25t-23 60zM138 555q0 12 -9 23t-23 11t-23 -11t-9 -23t9 -23.5t23 -11.5t23 11.5t9 23.5zM-47 43q0 18 14 31.5t33 13.5h211v-88h-211q-20 0 -33.5 12t-13.5 31z" />
    <glyph glyph-name="uniFE82" unicode="&#x622;" horiz-adv-x="231" arabic-form="final" 
d="M231 0h-34q-51 0 -80 15.5t-43 46t-14 79.5v535h103v-505q0 -32 12.5 -45.5t42.5 -13.5h13v-112zM77 747l-14 -6l-70 -38v72l91 52h14q8 -19 19.5 -32t43.5 -13h76v-62h-76q-35 0 -53 5t-31 22z" />
    <glyph glyph-name="uniFE84" unicode="&#x623;" horiz-adv-x="231" arabic-form="final" 
d="M231 0h-34q-51 0 -80 15.5t-43 46t-14 79.5v535h103v-505q0 -32 12.5 -45.5t42.5 -13.5h13v-112zM143 930q19 0 44.5 -7t42.5 -19l-26 -51q-30 18 -63 18q-22 0 -34.5 -11t-12.5 -27t11 -25.5t30 -9.5h94v-58h-229v58h37l2 2q-10 13 -10 35q0 24 13.5 46.5t38.5 35.5
t62 13z" />
    <glyph glyph-name="uniFE86" unicode="&#x624;" horiz-adv-x="541" arabic-form="final" 
d="M280 478q96 0 149.5 -60t53.5 -175v-131h58v-112h-58q-3 -105 -63.5 -163.5t-166.5 -58.5h-152v113h149q33 0 62.5 12.5t45 41t15.5 58.5h-89q-52 0 -94 13.5t-71.5 41.5t-45 72t-15.5 102q0 116 58 181t164 65zM377 112v120q0 65 -26 99t-75 34q-50 0 -81.5 -33.5
t-31.5 -100.5q0 -63 30.5 -91t81.5 -28h102zM291 745q19 0 44.5 -7t42.5 -19l-26 -51q-30 18 -63 18q-22 0 -34.5 -11t-12.5 -27t11 -25.5t30 -9.5h94v-58h-229v58h37l2 2q-10 13 -10 35q0 24 13.5 46.5t38.5 35.5t62 13z" />
    <glyph glyph-name="uniFE88" unicode="&#x625;" horiz-adv-x="231" arabic-form="final" 
d="M231 0h-34q-51 0 -80 15.5t-43 46t-14 79.5v585h103v-555q0 -32 12.5 -45.5t42.5 -13.5h13v-112zM143 -82q19 0 44.5 -7t42.5 -19l-26 -51q-30 18 -63 18q-22 0 -34.5 -11t-12.5 -27t11 -25.5t30 -9.5h94v-58h-229v58h37l2 2q-10 13 -10 35q0 24 13.5 46.5t38.5 35.5
t62 13z" />
    <glyph glyph-name="uniFE8A" unicode="&#x626;" horiz-adv-x="864" arabic-form="final" 
d="M580 0h-257q-265 0 -265 252v103h103v-72q0 -96 39.5 -133.5t116.5 -37.5h159v187q0 87 48 133t128 46h154v-366h58v-112h-162v364h-55q-36 0 -51.5 -21t-15.5 -62v-281zM202 621q19 0 44.5 -7t42.5 -19l-26 -51q-30 18 -63 18q-22 0 -34.5 -11t-12.5 -27t11 -25.5
t30 -9.5h94v-58h-229v58h37l2 2q-10 13 -10 35q0 24 13.5 46.5t38.5 35.5t62 13z" />
    <glyph glyph-name="uniFE8B" unicode="&#x626;" horiz-adv-x="229" arabic-form="initial" 
d="M68 455h103v-252q0 -107 -44 -155t-127 -48q-24 0 -40.5 16t-16.5 39q0 24 17 40t40 17q20 0 37 9t24 31t7 59v244zM142 720q19 0 44.5 -7t42.5 -19l-26 -51q-30 18 -63 18q-22 0 -34.5 -11t-12.5 -27t11 -25.5t30 -9.5h94v-58h-229v58h37l2 2q-10 13 -10 35
q0 24 13.5 46.5t38.5 35.5t62 13z" />
    <glyph glyph-name="uniFE8C" unicode="&#x626;" horiz-adv-x="249" arabic-form="medial" 
d="M-57 55q0 21 16 39t41 18q36 0 53.5 21.5t17.5 70.5v186h103v-192q0 -44 17 -64.5t58 -21.5v-112q-41 0 -73.5 14t-47.5 42q-22 -30 -53.5 -43t-74.5 -13q-23 0 -40 16t-17 39zM152 660q19 0 44.5 -7t42.5 -19l-26 -51q-30 18 -63 18q-22 0 -34.5 -11t-12.5 -27t11 -25.5
t30 -9.5h94v-58h-229v58h37l2 2q-10 13 -10 35q0 24 13.5 46.5t38.5 35.5t62 13z" />
    <glyph glyph-name="uniFE8E" unicode="&#x627;" horiz-adv-x="231" arabic-form="final" 
d="M231 0h-34q-51 0 -80 15.5t-43 46t-14 79.5v585h103v-555q0 -32 12.5 -45.5t42.5 -13.5h13v-112z" />
    <glyph glyph-name="uniFE90" unicode="&#x628;" horiz-adv-x="778" arabic-form="final" 
d="M600 389h103v-191q0 -43 16.5 -64t58.5 -22v-112q-93 0 -122 56q-19 -25 -45.5 -40.5t-84.5 -15.5h-202q-264 0 -264 252v103h103v-72q0 -97 39 -134t116 -37h207q24 0 41.5 8.5t25.5 28.5t8 50v190zM458 -173h-91v91h91v-91z" />
    <glyph glyph-name="uniFE91" unicode="&#x628;" horiz-adv-x="229" arabic-form="initial" 
d="M68 455h103v-252q0 -107 -44 -155t-127 -48q-24 0 -40.5 16t-16.5 39q0 24 17 40t40 17q20 0 37 9t24 31t7 59v244zM148 -173h-91v91h91v-91z" />
    <glyph glyph-name="uniFE92" unicode="&#x628;" horiz-adv-x="249" arabic-form="medial" 
d="M-57 55q0 21 16 39t41 18q36 0 53.5 21.5t17.5 70.5v186h103v-192q0 -44 17 -64.5t58 -21.5v-112q-41 0 -73.5 14t-47.5 42q-22 -30 -53.5 -43t-74.5 -13q-23 0 -40 16t-17 39zM170 -173h-91v91h91v-91z" />
    <glyph glyph-name="uniFE94" unicode="&#x629;" horiz-adv-x="541" arabic-form="final" 
d="M364 478h105v-272q0 -57 19.5 -75t52.5 -19v-112h-11q-41 0 -73 15t-47.5 35.5t-20.5 37.5q-28 -25 -70.5 -41t-80.5 -16q-89 0 -134.5 43t-45.5 117q0 36 14 73t48 72t95 61.5t149 37.5v43zM245 139q120 0 120 127v66q-60 -7 -104.5 -23.5t-69.5 -43.5t-25 -60
q0 -29 21 -47.5t58 -18.5zM359 530h-91v91h91v-91zM237 530h-90v91h90v-91z" />
    <glyph glyph-name="uniFE96" unicode="&#x62a;" horiz-adv-x="778" arabic-form="final" 
d="M600 389h103v-191q0 -43 16.5 -64t58.5 -22v-112q-93 0 -122 56q-19 -25 -45.5 -40.5t-84.5 -15.5h-202q-264 0 -264 252v103h103v-72q0 -97 39 -134t116 -37h207q24 0 41.5 8.5t25.5 28.5t8 50v190zM514 450h-91v91h91v-91zM392 450h-90v91h90v-91z" />
    <glyph glyph-name="uniFE97" unicode="&#x62a;" horiz-adv-x="229" arabic-form="initial" 
d="M68 455h103v-252q0 -107 -44 -155t-127 -48q-24 0 -40.5 16t-16.5 39q0 24 17 40t40 17q20 0 37 9t24 31t7 59v244zM220 530h-91v91h91v-91zM98 530h-90v91h90v-91z" />
    <glyph glyph-name="uniFE98" unicode="&#x62a;" horiz-adv-x="249" arabic-form="medial" 
d="M-57 55q0 21 16 39t41 18q36 0 53.5 21.5t17.5 70.5v186h103v-192q0 -44 17 -64.5t58 -21.5v-112q-41 0 -73.5 14t-47.5 42q-22 -30 -53.5 -43t-74.5 -13q-23 0 -40 16t-17 39zM230 470h-91v91h91v-91zM108 470h-90v91h90v-91z" />
    <glyph glyph-name="uniFE9A" unicode="&#x62b;" horiz-adv-x="778" arabic-form="final" 
d="M600 389h103v-191q0 -43 16.5 -64t58.5 -22v-112q-93 0 -122 56q-19 -25 -45.5 -40.5t-84.5 -15.5h-202q-264 0 -264 252v103h103v-72q0 -97 39 -134t116 -37h207q24 0 41.5 8.5t25.5 28.5t8 50v190zM514 450h-91v91h91v-91zM392 450h-90v91h90v-91zM453 577h-91v92h91
v-92z" />
    <glyph glyph-name="uniFE9B" unicode="&#x62b;" horiz-adv-x="229" arabic-form="initial" 
d="M68 455h103v-252q0 -107 -44 -155t-127 -48q-24 0 -40.5 16t-16.5 39q0 24 17 40t40 17q20 0 37 9t24 31t7 59v244zM220 530h-91v91h91v-91zM98 530h-90v91h90v-91zM159 657h-91v92h91v-92z" />
    <glyph glyph-name="uniFE9C" unicode="&#x62b;" horiz-adv-x="249" arabic-form="medial" 
d="M-57 55q0 21 16 39t41 18q36 0 53.5 21.5t17.5 70.5v186h103v-192q0 -44 17 -64.5t58 -21.5v-112q-41 0 -73.5 14t-47.5 42q-22 -30 -53.5 -43t-74.5 -13q-23 0 -40 16t-17 39zM230 470h-91v91h91v-91zM108 470h-90v91h90v-91zM169 597h-91v92h91v-92z" />
    <glyph glyph-name="uniFE9E" unicode="&#x62c;" horiz-adv-x="558" arabic-form="final" 
d="M404 112l4 6q-15 13 -21.5 39.5t-10.5 67.5t-6 54q-11 87 -92 87q-27 0 -63 -10t-63 -25l-44 90q40 28 86 42.5t90 14.5q174 0 194 -201q10 -98 20.5 -123t24 -33.5t28.5 -8.5h7v-112h-293q-24 0 -48.5 -9t-38.5 -30.5t-14 -48.5q0 -44 34 -63t85 -19q35 0 70 7l15 -102
q-41 -12 -104 -12q-95 0 -150.5 47.5t-55.5 137.5q0 62 27 106.5t77.5 71t119.5 26.5h122zM430 -117h-91v91h91v-91z" />
    <glyph glyph-name="uniFE9F" unicode="&#x62c;" horiz-adv-x="505" arabic-form="initial" 
d="M0 0q-24 0 -40 15.5t-16 40.5q0 24 16 40t40 16h355l3 6q-22 20 -29.5 88t-12.5 90q-15 70 -88 70q-27 0 -63 -10t-62 -25l-45 90q41 28 87 42.5t89 14.5q172 0 193 -185q1 -7 5.5 -51t10.5 -70.5t16 -39.5t21 -18v-114h-480zM281 -173h-91v91h91v-91z" />
    <glyph glyph-name="uniFEA0" unicode="&#x62c;" horiz-adv-x="508" arabic-form="medial" 
d="M234 478q174 0 194 -201q10 -98 20.5 -123t24 -33.5t28.5 -8.5h7v-112h-508q-24 0 -40 15.5t-16 40.5q0 24 16 40t40 16h354l4 6q-15 13 -21.5 39.5t-10.5 67.5t-6 54q-11 87 -92 87q-27 0 -63 -10t-63 -25l-44 90q40 28 86 42.5t90 14.5zM291 -173h-91v91h91v-91z" />
    <glyph glyph-name="uniFEA2" unicode="&#x62d;" horiz-adv-x="558" arabic-form="final" 
d="M404 112l4 6q-15 13 -21.5 39.5t-10.5 67.5t-6 54q-11 87 -92 87q-27 0 -63 -10t-63 -25l-44 90q40 28 86 42.5t90 14.5q174 0 194 -201q10 -98 20.5 -123t24 -33.5t28.5 -8.5h7v-112h-293q-24 0 -48.5 -9t-38.5 -30.5t-14 -48.5q0 -44 34 -63t85 -19q35 0 70 7l15 -102
q-41 -12 -104 -12q-95 0 -150.5 47.5t-55.5 137.5q0 62 27 106.5t77.5 71t119.5 26.5h122z" />
    <glyph glyph-name="uniFEA3" unicode="&#x62d;" horiz-adv-x="505" arabic-form="initial" 
d="M0 0q-24 0 -40 15.5t-16 40.5q0 24 16 40t40 16h355l3 6q-22 20 -29.5 88t-12.5 90q-15 70 -88 70q-27 0 -63 -10t-62 -25l-45 90q41 28 87 42.5t89 14.5q172 0 193 -185q1 -7 5.5 -51t10.5 -70.5t16 -39.5t21 -18v-114h-480z" />
    <glyph glyph-name="uniFEA4" unicode="&#x62d;" horiz-adv-x="508" arabic-form="medial" 
d="M234 478q174 0 194 -201q10 -98 20.5 -123t24 -33.5t28.5 -8.5h7v-112h-508q-24 0 -40 15.5t-16 40.5q0 24 16 40t40 16h354l4 6q-15 13 -21.5 39.5t-10.5 67.5t-6 54q-11 87 -92 87q-27 0 -63 -10t-63 -25l-44 90q40 28 86 42.5t90 14.5z" />
    <glyph glyph-name="uniFEA6" unicode="&#x62e;" horiz-adv-x="558" arabic-form="final" 
d="M404 112l4 6q-15 13 -21.5 39.5t-10.5 67.5t-6 54q-11 87 -92 87q-27 0 -63 -10t-63 -25l-44 90q40 28 86 42.5t90 14.5q174 0 194 -201q10 -98 20.5 -123t24 -33.5t28.5 -8.5h7v-112h-293q-24 0 -48.5 -9t-38.5 -30.5t-14 -48.5q0 -44 34 -63t85 -19q35 0 70 7l15 -102
q-41 -12 -104 -12q-95 0 -150.5 47.5t-55.5 137.5q0 62 27 106.5t77.5 71t119.5 26.5h122zM340 555h-91v91h91v-91z" />
    <glyph glyph-name="uniFEA7" unicode="&#x62e;" horiz-adv-x="505" arabic-form="initial" 
d="M0 0q-24 0 -40 15.5t-16 40.5q0 24 16 40t40 16h355l3 6q-22 20 -29.5 88t-12.5 90q-15 70 -88 70q-27 0 -63 -10t-62 -25l-45 90q41 28 87 42.5t89 14.5q172 0 193 -185q1 -7 5.5 -51t10.5 -70.5t16 -39.5t21 -18v-114h-480zM298 555h-91v91h91v-91z" />
    <glyph glyph-name="uniFEA8" unicode="&#x62e;" horiz-adv-x="508" arabic-form="medial" 
d="M234 478q174 0 194 -201q10 -98 20.5 -123t24 -33.5t28.5 -8.5h7v-112h-508q-24 0 -40 15.5t-16 40.5q0 24 16 40t40 16h354l4 6q-15 13 -21.5 39.5t-10.5 67.5t-6 54q-11 87 -92 87q-27 0 -63 -10t-63 -25l-44 90q40 28 86 42.5t90 14.5zM300 555h-91v91h91v-91z" />
    <glyph glyph-name="uniFEAA" unicode="&#x62f;" horiz-adv-x="506" arabic-form="final" 
d="M345 112v156q0 99 -96 99q-74 0 -125 -39l-55 88q74 61 185 61q67 0 109.5 -22t64 -62t21.5 -100v-181h57v-112h-448v112h287z" />
    <glyph glyph-name="uniFEAC" unicode="&#x630;" horiz-adv-x="506" arabic-form="final" 
d="M345 112v156q0 99 -96 99q-74 0 -125 -39l-55 88q74 61 185 61q67 0 109.5 -22t64 -62t21.5 -100v-181h57v-112h-448v112h287zM286 555h-91v91h91v-91z" />
    <glyph glyph-name="uniFEAE" unicode="&#x631;" horiz-adv-x="228" arabic-form="final" 
d="M-54 -96q65 1 93 29t28 85v372h103v-278h58v-112h-58q-2 -102 -55 -153.5t-169 -52.5v110z" />
    <glyph glyph-name="uniFEB0" unicode="&#x632;" horiz-adv-x="228" arabic-form="final" 
d="M-54 -96q65 1 93 29t28 85v372h103v-278h58v-112h-58q-2 -102 -55 -153.5t-169 -52.5v110zM160 470h-91v91h91v-91z" />
    <glyph glyph-name="uniFEB2" unicode="&#x633;" horiz-adv-x="1022" arabic-form="final" 
d="M1022 112v-112q-86 2 -116 54h-4q-20 -30 -54 -47t-78 -17q-93 0 -139 67h-5q-18 -23 -47.5 -40t-81.5 -17h-30v-10q0 -43 -13.5 -75t-35.5 -57t-62 -44.5t-94 -19.5q-35 0 -71 9t-65 31.5t-47.5 59.5t-18.5 89v302h103v-250q0 -67 24 -98t76 -31q35 0 59.5 18t33 43
t8.5 45v378h103v-278h30q32 0 53 17t28 41.5t7 46.5v173h102v-188q0 -48 21 -75.5t57 -27.5q19 0 37 10t28.5 35t10.5 59q0 57 -26.5 127.5t-62.5 109.5l84 63q41 -49 67.5 -110.5t34.5 -105.5t8 -77v-5q0 -91 76 -93z" />
    <glyph glyph-name="uniFEB3" unicode="&#x633;" horiz-adv-x="801" arabic-form="initial" 
d="M0 0q-24 0 -40.5 15.5t-16.5 40.5q0 24 16.5 40t40.5 16h154v278h103v-278h37q43 0 65.5 28.5t22.5 76.5v173h102v-188q0 -48 21 -75.5t57 -27.5q18 0 36 10t28 35t10 59q0 57 -26.5 127.5t-62.5 109.5l84 63q29 -34 57 -87t41.5 -109.5t13.5 -105.5q0 -42 -9.5 -80
t-30.5 -67.5t-55.5 -47t-80.5 -17.5q-45 0 -82 17t-58 51h-4q-41 -57 -129 -57h-294z" />
    <glyph glyph-name="uniFEB4" unicode="&#x633;" horiz-adv-x="819" arabic-form="medial" 
d="M567 -10q-93 0 -139 66h-5q-24 -30 -55.5 -43t-73.5 -13h-294q-23 0 -39.5 16t-16.5 40q0 14 7.5 27.5t26.5 21t45 7.5h131v278h103v-278h37q43 0 65.5 28.5t22.5 76.5v173h102v-188q0 -48 21 -75.5t57 -27.5q19 0 37 10t28.5 35t10.5 59q0 57 -26.5 127.5t-62.5 109.5
l84 63q41 -49 67.5 -110.5t34.5 -105.5t8 -77v-5q0 -91 76 -93v-112q-86 2 -116 54h-4q-20 -30 -54 -47t-78 -17z" />
    <glyph glyph-name="uniFEB6" unicode="&#x634;" horiz-adv-x="1022" arabic-form="final" 
d="M1022 112v-112q-86 2 -116 54h-4q-20 -30 -54 -47t-78 -17q-93 0 -139 67h-5q-18 -23 -47.5 -40t-81.5 -17h-30v-10q0 -43 -13.5 -75t-35.5 -57t-62 -44.5t-94 -19.5q-35 0 -71 9t-65 31.5t-47.5 59.5t-18.5 89v302h103v-250q0 -67 24 -98t76 -31q35 0 59.5 18t33 43
t8.5 45v378h103v-278h30q32 0 53 17t28 41.5t7 46.5v173h102v-188q0 -48 21 -75.5t57 -27.5q19 0 37 10t28.5 35t10.5 59q0 57 -26.5 127.5t-62.5 109.5l84 63q41 -49 67.5 -110.5t34.5 -105.5t8 -77v-5q0 -91 76 -93zM733 530h-91v91h91v-91zM611 530h-90v91h90v-91z
M672 657h-91v92h91v-92z" />
    <glyph glyph-name="uniFEB7" unicode="&#x634;" horiz-adv-x="801" arabic-form="initial" 
d="M0 0q-24 0 -40.5 15.5t-16.5 40.5q0 24 16.5 40t40.5 16h154v278h103v-278h37q43 0 65.5 28.5t22.5 76.5v173h102v-188q0 -48 21 -75.5t57 -27.5q18 0 36 10t28 35t10 59q0 57 -26.5 127.5t-62.5 109.5l84 63q29 -34 57 -87t41.5 -109.5t13.5 -105.5q0 -42 -9.5 -80
t-30.5 -67.5t-55.5 -47t-80.5 -17.5q-45 0 -82 17t-58 51h-4q-41 -57 -129 -57h-294zM538 530h-91v91h91v-91zM416 530h-90v91h90v-91zM477 657h-91v92h91v-92z" />
    <glyph glyph-name="uniFEB8" unicode="&#x634;" horiz-adv-x="819" arabic-form="medial" 
d="M567 -10q-93 0 -139 66h-5q-24 -30 -55.5 -43t-73.5 -13h-294q-23 0 -39.5 16t-16.5 40q0 14 7.5 27.5t26.5 21t45 7.5h131v278h103v-278h37q43 0 65.5 28.5t22.5 76.5v173h102v-188q0 -48 21 -75.5t57 -27.5q19 0 37 10t28.5 35t10.5 59q0 57 -26.5 127.5t-62.5 109.5
l84 63q41 -49 67.5 -110.5t34.5 -105.5t8 -77v-5q0 -91 76 -93v-112q-86 2 -116 54h-4q-20 -30 -54 -47t-78 -17zM538 530h-91v91h91v-91zM416 530h-90v91h90v-91zM477 657h-91v92h91v-92z" />
    <glyph glyph-name="uniFEBA" unicode="&#x635;" horiz-adv-x="962" arabic-form="final" 
d="M369 457h102v-88h7q44 49 106 79t123 30q96 0 147 -50t51 -138v-178h57v-112h-490v-9q0 -31 -10 -64.5t-34 -62.5t-65.5 -49.5t-99.5 -20.5q-100 0 -152.5 54t-52.5 141v296h103v-268q0 -52 26.5 -81.5t76.5 -29.5q23 0 36 9q36 8 52.5 36.5t16.5 65.5v440zM471 143v-31
h330v137q0 38 -13.5 64t-38 38.5t-61.5 12.5q-36 0 -74 -13t-69.5 -42.5t-52.5 -73t-21 -92.5z" />
    <glyph glyph-name="uniFEBB" unicode="&#x635;" horiz-adv-x="653" arabic-form="initial" 
d="M0 0q-23 0 -40 15.5t-17 39.5t17 40.5t40 16.5h58v345h103v-88h6q45 49 107 79t123 30q96 0 147 -50.5t51 -137.5v-290h-595zM161 143v-31h330v137q0 51 -26.5 83t-87.5 32q-36 0 -73.5 -13t-69 -42.5t-52.5 -73t-21 -92.5z" />
    <glyph glyph-name="uniFEBC" unicode="&#x635;" horiz-adv-x="652" arabic-form="medial" 
d="M0 0q-23 0 -40 15.5t-17 39.5t17 40.5t40 16.5h58v345h103v-88h6q45 49 107 79t123 30q96 0 147 -50.5t51 -137.5v-178h57v-112h-652zM161 143v-31h330v137q0 51 -26.5 83t-87.5 32q-36 0 -73.5 -13t-69 -42.5t-52.5 -73t-21 -92.5z" />
    <glyph glyph-name="uniFEBE" unicode="&#x636;" horiz-adv-x="962" arabic-form="final" 
d="M369 457h102v-88h7q44 49 106 79t123 30q96 0 147 -50t51 -138v-178h57v-112h-490v-9q0 -31 -10 -64.5t-34 -62.5t-65.5 -49.5t-99.5 -20.5q-100 0 -152.5 54t-52.5 141v296h103v-268q0 -52 26.5 -81.5t76.5 -29.5q23 0 36 9q36 8 52.5 36.5t16.5 65.5v440zM471 143v-31
h330v137q0 38 -13.5 64t-38 38.5t-61.5 12.5q-36 0 -74 -13t-69.5 -42.5t-52.5 -73t-21 -92.5zM715 555h-91v91h91v-91z" />
    <glyph glyph-name="uniFEBF" unicode="&#x636;" horiz-adv-x="653" arabic-form="initial" 
d="M0 0q-23 0 -40 15.5t-17 39.5t17 40.5t40 16.5h58v345h103v-88h6q45 49 107 79t123 30q96 0 147 -50.5t51 -137.5v-290h-595zM161 143v-31h330v137q0 51 -26.5 83t-87.5 32q-36 0 -73.5 -13t-69 -42.5t-52.5 -73t-21 -92.5zM435 555h-91v91h91v-91z" />
    <glyph glyph-name="uniFEC0" unicode="&#x636;" horiz-adv-x="652" arabic-form="medial" 
d="M0 0q-23 0 -40 15.5t-17 39.5t17 40.5t40 16.5h58v345h103v-88h6q45 49 107 79t123 30q96 0 147 -50.5t51 -137.5v-178h57v-112h-652zM161 143v-31h330v137q0 51 -26.5 83t-87.5 32q-36 0 -73.5 -13t-69 -42.5t-52.5 -73t-21 -92.5zM435 555h-91v91h91v-91z" />
    <glyph glyph-name="uniFEC2" unicode="&#x637;" horiz-adv-x="770" arabic-form="final" 
d="M50 0v112h126v614h103v-357h6q45 49 107 79t123 30q96 0 147 -50.5t51 -137.5v-178h57v-112h-720zM279 143v-31h330v137q0 51 -26.5 83t-87.5 32q-36 0 -73.5 -13t-69 -42.5t-52.5 -73t-21 -92.5z" />
    <glyph glyph-name="uniFEC3" unicode="&#x637;" horiz-adv-x="653" arabic-form="initial" 
d="M0 0q-23 0 -40 15.5t-17 39.5t17 40.5t40 16.5h58v614h103v-357h6q45 49 107 79t123 30q96 0 147 -50.5t51 -137.5v-290h-595zM161 143v-31h330v137q0 51 -26.5 83t-87.5 32q-36 0 -73.5 -13t-69 -42.5t-52.5 -73t-21 -92.5z" />
    <glyph glyph-name="uniFEC4" unicode="&#x637;" horiz-adv-x="652" arabic-form="medial" 
d="M0 0q-23 0 -40 15.5t-17 39.5t17 40.5t40 16.5h58v614h103v-357h6q45 49 107 79t123 30q96 0 147 -50.5t51 -137.5v-178h57v-112h-652zM161 143v-31h330v137q0 51 -26.5 83t-87.5 32q-36 0 -73.5 -13t-69 -42.5t-52.5 -73t-21 -92.5z" />
    <glyph glyph-name="uniFEC6" unicode="&#x638;" horiz-adv-x="770" arabic-form="final" 
d="M50 0v112h126v614h103v-357h6q45 49 107 79t123 30q96 0 147 -50.5t51 -137.5v-178h57v-112h-720zM279 143v-31h330v137q0 51 -26.5 83t-87.5 32q-36 0 -73.5 -13t-69 -42.5t-52.5 -73t-21 -92.5zM555 555h-91v91h91v-91z" />
    <glyph glyph-name="uniFEC7" unicode="&#x638;" horiz-adv-x="653" arabic-form="initial" 
d="M0 0q-23 0 -40 15.5t-17 39.5t17 40.5t40 16.5h58v614h103v-357h6q45 49 107 79t123 30q96 0 147 -50.5t51 -137.5v-290h-595zM161 143v-31h330v137q0 51 -26.5 83t-87.5 32q-36 0 -73.5 -13t-69 -42.5t-52.5 -73t-21 -92.5zM435 555h-91v91h91v-91z" />
    <glyph glyph-name="uniFEC8" unicode="&#x638;" horiz-adv-x="652" arabic-form="medial" 
d="M0 0q-23 0 -40 15.5t-17 39.5t17 40.5t40 16.5h58v614h103v-357h6q45 49 107 79t123 30q96 0 147 -50.5t51 -137.5v-178h57v-112h-652zM161 143v-31h330v137q0 51 -26.5 83t-87.5 32q-36 0 -73.5 -13t-69 -42.5t-52.5 -73t-21 -92.5zM435 555h-91v91h91v-91z" />
    <glyph glyph-name="uniFECA" unicode="&#x639;" horiz-adv-x="611" arabic-form="final" 
d="M58 -97q0 51 28 97.5t60.5 75.5t56.5 43q-55 45 -80 96t-25 91q0 54 26.5 92t76 59t119.5 21q42 0 83.5 -10t75 -30.5t54 -54t20.5 -76.5q0 -23 -12 -53.5t-44 -62.5t-76 -54q24 -11 69 -18t81 -7h40v-112h-40q-77 0 -160 19t-121 43q-35 -21 -65.5 -48t-45 -53.5
t-14.5 -49.5q0 -41 38 -61.5t96 -20.5q34 0 62 5l15 -101q-39 -11 -92 -11q-103 0 -164.5 47.5t-61.5 133.5zM209 303q0 -27 26.5 -61.5t82.5 -66.5q68 32 96.5 60t28.5 56q0 16 -11.5 35t-43 32t-73.5 13q-47 0 -76.5 -18t-29.5 -50z" />
    <glyph glyph-name="uniFECB" unicode="&#x639;" horiz-adv-x="535" arabic-form="initial" 
d="M174 232q0 -32 13.5 -59.5t41 -44t71.5 -16.5h159v-112h-459q-23 0 -40 15.5t-17 39.5t17 40.5t40 16.5h87l5 6q-34 34 -34 119q0 42 12 85t43.5 81.5t78 56.5t92.5 18q107 0 193 -71l-61 -94q-56 48 -126 48q-35 0 -61.5 -16t-40.5 -44t-14 -69z" />
    <glyph glyph-name="uniFECC" unicode="&#x639;" horiz-adv-x="569" arabic-form="medial" 
d="M-57 55q0 24 17 40.5t40 16.5h52q25 0 57.5 4t47.5 11q-26 20 -50 48.5t-36.5 62.5t-12.5 61q0 52 27 91t79.5 63.5t127.5 24.5q63 0 112.5 -21t78 -59.5t28.5 -93.5q0 -45 -27.5 -94t-70.5 -81q46 -17 119 -17h37v-112h-44q-70 0 -134.5 14.5t-103.5 41.5
q-22 -14 -60.5 -27.5t-89.5 -21t-96 -7.5h-41q-23 0 -40 15.5t-17 39.5zM290 370q-62 0 -92 -24.5t-30 -57.5q0 -28 30.5 -65.5t92.5 -67.5q63 33 88.5 69.5t25.5 67.5q0 21 -12 39t-37 28.5t-66 10.5z" />
    <glyph glyph-name="uniFECE" unicode="&#x63a;" horiz-adv-x="611" arabic-form="final" 
d="M58 -97q0 51 28 97.5t60.5 75.5t56.5 43q-55 45 -80 96t-25 91q0 54 26.5 92t76 59t119.5 21q42 0 83.5 -10t75 -30.5t54 -54t20.5 -76.5q0 -23 -12 -53.5t-44 -62.5t-76 -54q24 -11 69 -18t81 -7h40v-112h-40q-77 0 -160 19t-121 43q-35 -21 -65.5 -48t-45 -53.5
t-14.5 -49.5q0 -41 38 -61.5t96 -20.5q34 0 62 5l15 -101q-39 -11 -92 -11q-103 0 -164.5 47.5t-61.5 133.5zM209 303q0 -27 26.5 -61.5t82.5 -66.5q68 32 96.5 60t28.5 56q0 16 -11.5 35t-43 32t-73.5 13q-47 0 -76.5 -18t-29.5 -50zM359 555h-91v91h91v-91z" />
    <glyph glyph-name="uniFECF" unicode="&#x63a;" horiz-adv-x="535" arabic-form="initial" 
d="M174 232q0 -32 13.5 -59.5t41 -44t71.5 -16.5h159v-112h-459q-23 0 -40 15.5t-17 39.5t17 40.5t40 16.5h87l5 6q-34 34 -34 119q0 42 12 85t43.5 81.5t78 56.5t92.5 18q107 0 193 -71l-61 -94q-56 48 -126 48q-35 0 -61.5 -16t-40.5 -44t-14 -69zM313 555h-91v91h91v-91z
" />
    <glyph glyph-name="uniFED0" unicode="&#x63a;" horiz-adv-x="569" arabic-form="medial" 
d="M-57 55q0 24 17 40.5t40 16.5h52q25 0 57.5 4t47.5 11q-26 20 -50 48.5t-36.5 62.5t-12.5 61q0 52 27 91t79.5 63.5t127.5 24.5q63 0 112.5 -21t78 -59.5t28.5 -93.5q0 -45 -27.5 -94t-70.5 -81q46 -17 119 -17h37v-112h-44q-70 0 -134.5 14.5t-103.5 41.5
q-22 -14 -60.5 -27.5t-89.5 -21t-96 -7.5h-41q-23 0 -40 15.5t-17 39.5zM290 370q-62 0 -92 -24.5t-30 -57.5q0 -28 30.5 -65.5t92.5 -67.5q63 33 88.5 69.5t25.5 67.5q0 21 -12 39t-37 28.5t-66 10.5zM330 555h-91v91h91v-91z" />
    <glyph glyph-name="uniFED2" unicode="&#x641;" horiz-adv-x="858" arabic-form="final" 
d="M164 283q0 -94 39 -132.5t114 -38.5h69q43 0 58 -3l1 6q-30 21 -49 63.5t-19 87.5q0 21 4.5 48.5t17.5 54.5t37 52t63 41t87 16q50 0 90 -16t67.5 -45t42 -70.5t14.5 -90.5q0 -36 -12.5 -75.5t-32.5 -62.5l2 -6h101v-112h-529q-189 0 -246 129q-12 27 -18.5 67t-6.5 132
v27h106v-72zM588 368q-37 0 -62 -18t-33.5 -42.5t-8.5 -44.5q0 -40 22 -73.5t56 -51t66 -23.5q17 11 33.5 31.5t24.5 48t8 53.5q0 25 -9.5 53.5t-35 47.5t-61.5 19zM630 555h-91v91h91v-91z" />
    <glyph glyph-name="uniFED3" unicode="&#x641;" horiz-adv-x="535" arabic-form="initial" 
d="M251 0h-251q-24 0 -40 15.5t-16 40.5q0 24 16 40t40 16h75q38 0 62 -4l1 5q-39 20 -59.5 59t-20.5 91q0 46 14.5 85.5t41.5 68.5t66 45t86 16q104 0 157.5 -62.5t53.5 -174.5q0 -118 -61 -179.5t-165 -61.5zM371 248q0 55 -25.5 87t-76.5 32t-77.5 -33t-26.5 -78
q0 -35 17.5 -61.5t52.5 -45t85 -24.5q51 35 51 123zM313 555h-91v91h91v-91z" />
    <glyph glyph-name="uniFED4" unicode="&#x641;" horiz-adv-x="539" arabic-form="medial" 
d="M-56 56q0 24 16 40t40 16h67q43 0 58 -3l1 6q-30 21 -49 63.5t-19 87.5q0 21 4.5 48.5t17.5 54.5t37 52t63 41t87 16q50 0 90 -16t67.5 -45t42 -70.5t14.5 -90.5q0 -36 -12.5 -75.5t-32.5 -62.5l2 -6h101v-112h-539q-24 0 -40 15.5t-16 40.5zM269 368q-37 0 -62 -18
t-33.5 -42.5t-8.5 -44.5q0 -40 22 -73.5t56 -51t66 -23.5q17 11 33.5 31.5t24.5 48t8 53.5q0 25 -9.5 53.5t-35 47.5t-61.5 19zM315 555h-91v91h91v-91z" />
    <glyph glyph-name="uniFED6" unicode="&#x642;" horiz-adv-x="723" arabic-form="final" 
d="M563 112v120q0 70 -26.5 101.5t-73.5 31.5q-51 0 -82.5 -33.5t-31.5 -100.5q0 -63 30.5 -91t82.5 -28h101zM669 243v-131h54v-112h-59q-12 -102 -87.5 -162t-206.5 -60q-65 0 -117.5 14t-88 38.5t-58 57.5t-35.5 77.5t-13 103.5v216h103v-185q0 -110 52 -160t158 -50
q70 0 120.5 27.5t60.5 85.5h-81q-110 0 -168.5 56t-58.5 173q0 116 58.5 181t164.5 65q95 0 148.5 -60t53.5 -175zM563 555h-91v91h91v-91zM441 555h-90v91h90v-91z" />
    <glyph glyph-name="uniFED7" unicode="&#x642;" horiz-adv-x="535" arabic-form="initial" 
d="M251 0h-251q-24 0 -40 15.5t-16 40.5q0 24 16 40t40 16h75q38 0 62 -4l1 5q-39 20 -59.5 59t-20.5 91q0 46 14.5 85.5t41.5 68.5t66 45t86 16q104 0 157.5 -62.5t53.5 -174.5q0 -118 -61 -179.5t-165 -61.5zM371 248q0 55 -25.5 87t-76.5 32t-77.5 -33t-26.5 -78
q0 -35 17.5 -61.5t52.5 -45t85 -24.5q51 35 51 123zM373 555h-91v91h91v-91zM251 555h-90v91h90v-91z" />
    <glyph glyph-name="uniFED8" unicode="&#x642;" horiz-adv-x="539" arabic-form="medial" 
d="M-56 56q0 24 16 40t40 16h67q43 0 58 -3l1 6q-30 21 -49 63.5t-19 87.5q0 21 4.5 48.5t17.5 54.5t37 52t63 41t87 16q50 0 90 -16t67.5 -45t42 -70.5t14.5 -90.5q0 -36 -12.5 -75.5t-32.5 -62.5l2 -6h101v-112h-539q-24 0 -40 15.5t-16 40.5zM269 368q-37 0 -62 -18
t-33.5 -42.5t-8.5 -44.5q0 -40 22 -73.5t56 -51t66 -23.5q17 11 33.5 31.5t24.5 48t8 53.5q0 25 -9.5 53.5t-35 47.5t-61.5 19zM375 555h-91v91h91v-91zM253 555h-90v91h90v-91z" />
    <glyph glyph-name="uniFEDA" unicode="&#x643;" horiz-adv-x="778" arabic-form="final" 
d="M600 726h103v-528q0 -43 16.5 -64t58.5 -22v-112q-93 0 -122 56q-19 -25 -45.5 -40.5t-84.5 -15.5h-202q-264 0 -264 252v103h103v-72q0 -97 39 -134t116 -37h207q24 0 41.5 8.5t25.5 28.5t8 50v527zM416 496q19 0 44.5 -7t42.5 -19l-26 -51q-30 18 -63 18
q-22 0 -34.5 -11t-12.5 -27t11 -25.5t30 -9.5h94v-58h-229v58h37l2 2q-10 13 -10 35q0 24 13.5 46.5t38.5 35.5t62 13z" />
    <glyph glyph-name="uniFEDB" unicode="&#x643;" horiz-adv-x="504" arabic-form="initial" 
d="M-58 56q0 25 16 40.5t42 15.5h333v60q0 49 -13.5 72t-35.5 36l-226 137v75l379 244l51 -77l-306 -196l163 -98q39 -23 58.5 -50.5t26 -58.5t6.5 -78v-178h-437q-25 0 -41 15.5t-16 40.5z" />
    <glyph glyph-name="uniFEDC" unicode="&#x643;" horiz-adv-x="504" arabic-form="medial" 
d="M-58 56q0 25 16 40.5t42 15.5h333v60q0 49 -13.5 72t-35.5 36l-226 137v75l379 244l51 -77l-306 -196l163 -98q39 -23 58.5 -50.5t26 -58.5t6.5 -78v-66h68v-112h-505q-25 0 -41 15.5t-16 40.5z" />
    <glyph glyph-name="uniFEDE" unicode="&#x644;" horiz-adv-x="530" arabic-form="final" 
d="M472 726v-614h58v-112h-58q0 -9 -2.5 -24t-5.5 -23q-9 -52 -38.5 -87.5t-70 -53.5t-92.5 -18q-50 0 -89 14.5t-65 41t-38.5 62.5t-12.5 78v295h103v-266q0 -29 11 -55.5t33.5 -42t58.5 -15.5q55 0 80 32.5t25 80.5v707h103z" />
    <glyph glyph-name="uniFEDF" unicode="&#x644;" horiz-adv-x="229" arabic-form="initial" 
d="M68 726h103v-523q0 -107 -44 -155t-127 -48q-24 0 -40.5 16t-16.5 39q0 24 17 40t40 17q20 0 37 9t24 31t7 59v515z" />
    <glyph glyph-name="uniFEE0" unicode="&#x644;" horiz-adv-x="249" arabic-form="medial" 
d="M-57 55q0 21 16 39t41 18q36 0 53.5 21.5t17.5 70.5v522h103v-528q0 -44 17 -64.5t58 -21.5v-112q-41 0 -73.5 14t-47.5 42q-22 -30 -53.5 -43t-74.5 -13q-23 0 -40 16t-17 39z" />
    <glyph glyph-name="uniFEE2" unicode="&#x645;" horiz-adv-x="757" arabic-form="final" 
d="M757 112v-112q-51 0 -83.5 12.5t-50.5 41.5q-30 -32 -70 -43t-117 -11h-177q-50 0 -73 -21.5t-23 -63.5v-187h-103v190q0 194 206 194v129q0 115 56 176t153 61q104 0 157 -64t53 -180l-1 -29q0 -48 15.5 -70t57.5 -23zM369 233v-124h103q109 0 109 124q0 69 -28 100.5
t-77 31.5q-53 0 -80 -31.5t-27 -100.5z" />
    <glyph glyph-name="uniFEE3" unicode="&#x645;" horiz-adv-x="558" arabic-form="initial" 
d="M285 105q53 0 81.5 33.5t28.5 102.5q0 59 -28.5 92t-76.5 33q-53 0 -82 -36.5t-29 -95.5t26.5 -94t79.5 -35zM282 -6q-50 0 -91 15.5t-63 46.5q-42 -56 -128 -56q-24 0 -40 15.5t-16 40.5q0 23 17 39.5t39 16.5q71 0 71 90v31q0 114 58.5 179.5t162.5 65.5q99 0 154 -64
t55 -178q0 -119 -58 -180.5t-161 -61.5z" />
    <glyph glyph-name="uniFEE4" unicode="&#x645;" horiz-adv-x="570" arabic-form="medial" 
d="M0 0q-24 0 -40 15.5t-16 40.5q0 23 17 39.5t39 16.5q71 0 71 90v31q0 114 58.5 179.5t162.5 65.5q99 0 153 -64t54 -181l-2 -33q0 -43 16 -65t57 -23v-112q-99 0 -132 52q-54 -58 -156 -58q-50 0 -91 15.5t-63 46.5q-42 -56 -128 -56zM288 366q-53 0 -81.5 -37t-28.5 -95
q0 -129 105 -129q55 0 82.5 33t27.5 102q0 59 -28.5 92.5t-76.5 33.5z" />
    <glyph glyph-name="uniFEE6" unicode="&#x646;" horiz-adv-x="530" arabic-form="final" 
d="M472 389v-277h58v-112h-58q0 -31 -9.5 -65.5t-36.5 -69.5t-71 -53t-92 -18q-50 0 -89 14.5t-65 41t-38.5 62.5t-12.5 78v295h103v-266q0 -34 11.5 -59.5t34 -39.5t57.5 -14q50 0 77.5 28.5t27.5 84.5v370h103zM312 450h-91v91h91v-91z" />
    <glyph glyph-name="uniFEE7" unicode="&#x646;" horiz-adv-x="229" arabic-form="initial" 
d="M68 455h103v-252q0 -107 -44 -155t-127 -48q-24 0 -40.5 16t-16.5 39q0 24 17 40t40 17q20 0 37 9t24 31t7 59v244zM160 530h-91v91h91v-91z" />
    <glyph glyph-name="uniFEE8" unicode="&#x646;" horiz-adv-x="249" arabic-form="medial" 
d="M-57 55q0 21 16 39t41 18q36 0 53.5 21.5t17.5 70.5v186h103v-192q0 -44 17 -64.5t58 -21.5v-112q-41 0 -73.5 14t-47.5 42q-22 -30 -53.5 -43t-74.5 -13q-23 0 -40 16t-17 39zM170 470h-91v91h91v-91z" />
    <glyph glyph-name="uniFEE9" unicode="&#x647;" horiz-adv-x="545" arabic-form="isolated" 
d="M279 477q39 0 76.5 -19.5t67 -55t47 -84.5t17.5 -106q0 -103 -55.5 -160.5t-158.5 -57.5q-112 0 -163.5 54.5t-51.5 161.5q0 68 30 132.5t83.5 99.5t107.5 35zM277 367q-34 0 -61 -26.5t-37.5 -61t-10.5 -61.5q0 -57 26.5 -84.5t81.5 -27.5q54 0 79.5 32.5t25.5 80.5
q0 39 -14 71.5t-38.5 54.5t-51.5 22z" />
    <glyph glyph-name="uniFEEA" unicode="&#x647;" horiz-adv-x="541" arabic-form="final" 
d="M364 478h105v-272q0 -57 19.5 -75t52.5 -19v-112h-11q-41 0 -73 15t-47.5 35.5t-20.5 37.5q-28 -25 -70.5 -41t-80.5 -16q-89 0 -134.5 43t-45.5 117q0 36 14 73t48 72t95 61.5t149 37.5v43zM245 139q120 0 120 127v66q-60 -7 -104.5 -23.5t-69.5 -43.5t-25 -60
q0 -29 21 -47.5t58 -18.5z" />
    <glyph glyph-name="uniFEEB" unicode="&#x647;" horiz-adv-x="691" arabic-form="initial" 
d="M-56 55q0 24 16.5 40.5t39.5 16.5h48q39 0 59 -4l2 4q-23 16 -37 49.5t-14 70.5q0 52 21.5 90.5t55.5 59.5t77 26l-20 42q40 25 98 42.5t110 17.5q119 0 176 -69t57 -195q0 -79 -27.5 -133t-77.5 -83.5t-118 -29.5h-410q-24 0 -40 15.5t-16 39.5zM381 115v-5
q76 0 110 34.5t34 104.5q0 74 -31.5 112t-98.5 38q-34 0 -71 -15q20 -8 42 -26.5t36 -53t14 -77.5v-9q-1 -28 -10.5 -57t-24.5 -46zM236 313q-17 0 -35 -9t-29 -30.5t-11 -46.5q0 -27 14 -52t37.5 -38.5t46.5 -17.5q13 7 25.5 22.5t19 38t6.5 42.5q0 28 -10 50.5t-28 31.5
t-36 9z" />
    <glyph glyph-name="uniFEEC" unicode="&#x647;" horiz-adv-x="708" arabic-form="medial" 
d="M58 232q0 52 21.5 90.5t55.5 59.5t77 26l-20 42q40 25 98 42.5t110 17.5q48 0 90 -13t74.5 -43.5t51 -83.5t18.5 -127v-12q0 -63 15.5 -90.5t58.5 -28.5v-112q-61 0 -93 17t-47 45q-24 -25 -60.5 -43.5t-97.5 -18.5h-410q-25 0 -40.5 15.5t-15.5 40.5q0 24 16 40t40 16
h50q37 0 57 -5l2 4q-23 17 -37 50.5t-14 70.5zM381 115v-5q76 0 110.5 34t34.5 105q0 150 -131 150q-34 0 -71 -15q20 -8 42 -26.5t36 -53t14 -77.5v-9q-1 -27 -10 -56t-25 -47zM236 313q-17 0 -35 -9t-29 -30.5t-11 -46.5q0 -27 14 -52t37.5 -38.5t46.5 -17.5
q13 7 25.5 22.5t19 38t6.5 42.5q0 28 -10 50.5t-28 31.5t-36 9z" />
    <glyph glyph-name="uniFEEE" unicode="&#x648;" horiz-adv-x="541" arabic-form="final" 
d="M280 478q96 0 149.5 -60t53.5 -175v-131h58v-112h-58q-3 -105 -63.5 -163.5t-166.5 -58.5h-152v113h149q33 0 62.5 12.5t45 41t15.5 58.5h-89q-52 0 -94 13.5t-71.5 41.5t-45 72t-15.5 102q0 116 58 181t164 65zM377 112v120q0 65 -26 99t-75 34q-50 0 -81.5 -33.5
t-31.5 -100.5q0 -63 30.5 -91t81.5 -28h102z" />
    <glyph glyph-name="uniFEF0" unicode="&#x649;" horiz-adv-x="864" arabic-form="final" 
d="M580 0h-257q-265 0 -265 252v103h103v-72q0 -96 39.5 -133.5t116.5 -37.5h159v187q0 87 48 133t128 46h154v-366h58v-112h-162v364h-55q-36 0 -51.5 -21t-15.5 -62v-281z" />
    <glyph glyph-name="uniFEF2" unicode="&#x64a;" horiz-adv-x="864" arabic-form="final" 
d="M580 0h-257q-265 0 -265 252v103h103v-72q0 -96 39.5 -133.5t116.5 -37.5h159v187q0 87 48 133t128 46h154v-366h58v-112h-162v364h-55q-36 0 -51.5 -21t-15.5 -62v-281zM516 -173h-91v91h91v-91zM394 -173h-90v91h90v-91z" />
    <glyph glyph-name="uniFEF3" unicode="&#x64a;" horiz-adv-x="229" arabic-form="initial" 
d="M68 455h103v-252q0 -107 -44 -155t-127 -48q-24 0 -40.5 16t-16.5 39q0 24 17 40t40 17q20 0 37 9t24 31t7 59v244zM220 -173h-91v91h91v-91zM98 -173h-90v91h90v-91z" />
    <glyph glyph-name="uniFEF4" unicode="&#x64a;" horiz-adv-x="249" arabic-form="medial" 
d="M-57 55q0 21 16 39t41 18q36 0 53.5 21.5t17.5 70.5v186h103v-192q0 -44 17 -64.5t58 -21.5v-112q-41 0 -73.5 14t-47.5 42q-22 -30 -53.5 -43t-74.5 -13q-23 0 -40 16t-17 39zM230 -173h-91v91h91v-91zM108 -173h-90v91h90v-91z" />
    <glyph glyph-name=".notdef" horiz-adv-x="450" 
d="M0 0v700h450v-700h-450zM109 73h232l-116 210zM225 418l116 209h-233zM73 554v-407l111 204zM266 349l111 -202v407z" />
    <glyph glyph-name="glyph1" horiz-adv-x="0" 
 />
    <glyph glyph-name="glyph2" horiz-adv-x="0" 
 />
    <glyph glyph-name="space" unicode=" " horiz-adv-x="252" 
 />
    <glyph glyph-name="space" unicode="&#xa0;" horiz-adv-x="252" 
 />
    <glyph glyph-name="exclam" unicode="!" horiz-adv-x="268" 
d="M190 696l-10 -512h-92l-10 512h112zM194 0h-119v113h119v-113z" />
    <glyph glyph-name="quotedbl" unicode="&#x22;" horiz-adv-x="359" 
d="M297 481h-94v215h94v-215zM151 481h-94v215h94v-215z" />
    <glyph glyph-name="numbersign" unicode="#" horiz-adv-x="546" 
d="M417 410l-18 -123h95v-78h-106l-29 -209h-91l29 209h-98l-29 -209h-92l30 209h-89v78h101l17 123h-89v79h101l29 206h90l-29 -206h99l29 206h90l-29 -206h95v-79h-106zM228 410l-18 -123h99l18 123h-99z" />
    <glyph glyph-name="dollar" unicode="$" horiz-adv-x="525" 
d="M240 -111v107q-123 8 -214 92l68 88q70 -61 146 -69v187q-100 33 -145.5 80.5t-45.5 117.5q0 30 9 63t31.5 62.5t60 51t90.5 26.5v74h52v-74q102 -6 184 -65l-58 -98q-69 45 -126 52v-179q117 -36 162 -85t45 -123q0 -88 -57.5 -142t-149.5 -59v-107h-52zM369 191
q0 26 -15.5 48.5t-61.5 39.5v-171q37 6 57 28t20 55zM170 497q0 -47 70 -74v160q-31 -5 -50.5 -27.5t-19.5 -58.5z" />
    <glyph glyph-name="percent" unicode="%" horiz-adv-x="860" 
d="M795 121q0 -28 -14 -57t-49.5 -48t-76.5 -19q-26 0 -58.5 11t-56.5 41t-24 72v174q0 28 14 57t49.5 48.5t75.5 19.5q41 0 76.5 -19.5t49.5 -48.5t14 -57v-174zM707 124v169q0 23 -14.5 36.5t-37.5 13.5t-37 -13.5t-14 -36.5v-169q0 -24 14 -37t37 -13t37.5 13t14.5 37z
M344 400q0 -28 -14 -57t-49.5 -48t-76.5 -19q-26 0 -58.5 11t-56.5 41t-24 72v174q0 28 14 57t49.5 48.5t75.5 19.5q41 0 76.5 -19.5t49.5 -48.5t14 -57v-174zM256 403v169q0 23 -14.5 36.5t-37.5 13.5t-37 -13.5t-14 -36.5v-169q0 -24 14 -37t37 -13t37.5 13t14.5 37z
M688 713l-426 -730h-89l425 730h90z" />
    <glyph glyph-name="ampersand" unicode="&#x26;" horiz-adv-x="649" 
d="M495 0l-51 66q-38 -34 -83 -53t-91 -19q-50 0 -88.5 14.5t-63.5 39.5t-37.5 57.5t-12.5 68.5q0 63 32 114.5t98 96.5q-49 63 -59.5 92.5t-10.5 56.5q0 56 24 93.5t65 56.5t98 19q46 0 92.5 -15.5t86.5 -49.5l-64 -83q-26 22 -52.5 34.5t-68.5 12.5q-34 0 -53.5 -19
t-19.5 -47q0 -10 3.5 -24t26.5 -46l180 -237q24 46 36 108l102 -22q-8 -42 -26 -89t-44 -84l113 -142h-132zM382 145l-125 162q-82 -54 -82 -128q0 -36 26 -59.5t72 -23.5q29 0 59 15.5t50 33.5z" />
    <glyph glyph-name="quotesingle" unicode="'" horiz-adv-x="251" 
d="M170 481h-94v215h94v-215z" />
    <glyph glyph-name="parenleft" unicode="(" horiz-adv-x="332" 
d="M316 -83l-62 -48q-39 42 -85.5 108t-79 153t-32.5 175q0 61 19 136t67 154.5t107 143.5l66 -42q-31 -41 -64 -102.5t-53.5 -138.5t-20.5 -146q0 -47 12.5 -113.5t46 -142t79.5 -137.5z" />
    <glyph glyph-name="parenright" unicode=")" horiz-adv-x="332" 
d="M296 305q0 -88 -32.5 -175t-79 -153t-85.5 -108l-63 48q65 85 102 188.5t37 204.5q0 69 -20.5 146t-53.5 138.5t-64 102.5l65 42q39 -42 75.5 -93.5t62.5 -105.5t41 -114t15 -121z" />
    <glyph glyph-name="asterisk" unicode="*" horiz-adv-x="413" 
d="M264 512l79 -89q-4 -4 -29.5 -22.5t-43.5 -31.5l-61 103l-63 -104l-73 54l80 90l-113 28l25 84l111 -47l-11 120h90l-12 -120l111 47l25 -84z" />
    <glyph glyph-name="plus" unicode="+" horiz-adv-x="525" 
d="M501 251h-191v-189h-95v189h-191v90h191v187h95v-187h191v-90z" />
    <glyph glyph-name="comma" unicode="," horiz-adv-x="276" 
d="M126 -132h-63l36 131h-33v139h137v-133z" />
    <glyph glyph-name="hyphen" unicode="-" horiz-adv-x="416" 
d="M367 211h-318v103h318v-103z" />
    <glyph glyph-name="period" unicode="." horiz-adv-x="270" 
d="M203 0h-136v138h136v-138z" />
    <glyph glyph-name="slash" unicode="/" horiz-adv-x="343" 
d="M336 725l-252 -767h-93l252 767h93z" />
    <glyph glyph-name="zero" unicode="0" horiz-adv-x="525" 
d="M475 197q0 -34 -11.5 -70t-38 -65t-67 -48t-91.5 -19q-61 0 -108.5 28t-73 72t-25.5 102v301q0 58 25.5 102.5t73 72.5t108.5 28q40 0 78 -13.5t67 -40t46 -64.5t17 -85v-301zM360 201v294q0 46 -25.5 72.5t-67.5 26.5t-67 -26t-25 -73v-294q0 -47 25 -73t67 -26
t67.5 26.5t25.5 72.5z" />
    <glyph glyph-name="one" unicode="1" horiz-adv-x="525" 
d="M350 0h-115v570l-97 -69v121l105 74h107v-696z" />
    <glyph glyph-name="two" unicode="2" horiz-adv-x="525" 
d="M169 494l-114 18q11 85 70.5 137t139.5 52q44 0 82 -12t66 -35.5t44 -59.5t16 -81q0 -35 -13.5 -72t-36.5 -65l-221 -266h267v-110h-418v103l274 330q29 37 29 74q0 35 -23.5 60t-65.5 25q-37 0 -63 -26t-33 -72z" />
    <glyph glyph-name="three" unicode="3" horiz-adv-x="525" 
d="M48 162l112 16q7 -37 34 -56.5t63 -19.5q44 0 73 30.5t29 78.5q0 47 -28.5 75.5t-76.5 28.5h-55v94h51q23 0 48 9t40.5 32t15.5 52q0 18 -9.5 39.5t-33 36.5t-52.5 15q-22 0 -43 -11t-33 -31t-16 -39l-112 18q16 77 74.5 124t132.5 47q39 0 78 -10.5t68.5 -34.5
t47.5 -61.5t18 -87.5q0 -28 -12.5 -59t-34 -52.5t-42.5 -32.5q47 -24 71.5 -66.5t24.5 -85.5q0 -95 -62 -155.5t-161 -60.5q-32 0 -66.5 9t-64 29t-50 52.5t-29.5 76.5z" />
    <glyph glyph-name="four" unicode="4" horiz-adv-x="525" 
d="M499 101h-57v-101h-115v101h-299v98l241 497h127l-238 -489h169v193h115v-193h57v-106z" />
    <glyph glyph-name="five" unicode="5" horiz-adv-x="525" 
d="M479 265q0 -59 -12 -108.5t-38 -85.5t-68 -56t-98 -20q-34 0 -68.5 7.5t-63.5 26.5t-49.5 52t-29.5 80l114 20q14 -81 95 -81q52 0 76.5 38t24.5 107q0 129 -97 129q-25 0 -48 -15.5t-38 -44.5h-108v382h389v-107h-280v-151q45 40 115 40q34 0 67.5 -10.5t61.5 -38.5
t41 -72.5t14 -91.5z" />
    <glyph glyph-name="six" unicode="6" horiz-adv-x="525" 
d="M479 217q0 -55 -18 -98t-49 -70.5t-70 -40.5t-80 -13q-42 0 -79.5 14t-66 41t-44.5 67.5t-16 90.5q0 30 9 67.5t24 66.5l186 354h128l-150 -288l2 -2q21 6 44 6q30 0 61 -10t57.5 -34t44 -62t17.5 -89zM360 210q0 24 -9.5 50t-33 41.5t-52.5 15.5q-27 0 -51 -16
t-33.5 -41.5t-9.5 -49.5q0 -51 25.5 -80t68.5 -29q29 0 52.5 16.5t33 42.5t9.5 50z" />
    <glyph glyph-name="seven" unicode="7" horiz-adv-x="525" 
d="M470 592l-245 -592h-124l239 586h-171v-99h-115v209h416v-104z" />
    <glyph glyph-name="eight" unicode="8" horiz-adv-x="525" 
d="M489 204q0 -45 -17.5 -84t-48 -67t-71.5 -43t-85 -15t-84.5 15t-71.5 43t-48.5 67t-17.5 84q0 34 14 68.5t37 55.5t44 30v3q-35 15 -58 51.5t-23 87.5q0 31 10.5 65t36 64t66.5 51t95 21q37 0 74 -10t67 -34.5t49 -64t19 -92.5q0 -43 -21.5 -80.5t-59.5 -58.5v-2
q22 -8 44.5 -29.5t36 -56.5t13.5 -69zM362 499q0 43 -27.5 70.5t-67.5 27.5q-18 0 -40 -8.5t-38 -33t-16 -56.5q0 -20 9.5 -42t33 -35.5t51.5 -13.5q39 0 67 24.5t28 66.5zM375 207q0 20 -11 44t-38 41t-59 17q-20 0 -45 -10t-44 -35.5t-19 -56.5q0 -32 18.5 -59t43.5 -37.5
t46 -10.5q33 0 60 18t37.5 43.5t10.5 45.5z" />
    <glyph glyph-name="nine" unicode="9" horiz-adv-x="525" 
d="M57 479q0 55 18 98t49 70.5t70 40.5t80 13q42 0 79.5 -14t66 -41t44.5 -67.5t16 -90.5q0 -30 -9 -67.5t-24 -66.5l-186 -354h-128l150 288l-2 2q-21 -6 -44 -6q-30 0 -61 10t-57.5 34t-44 62t-17.5 89zM176 486q0 -24 9.5 -50t33 -41.5t52.5 -15.5q27 0 51 16t33.5 41.5
t9.5 49.5q0 51 -25.5 80t-68.5 29q-29 0 -52.5 -16.5t-33 -42.5t-9.5 -50z" />
    <glyph glyph-name="colon" unicode=":" horiz-adv-x="271" 
d="M202 0h-136v138h136v-138zM202 276h-136v139h136v-139z" />
    <glyph glyph-name="semicolon" unicode=";" horiz-adv-x="271" 
d="M203 276h-136v139h136v-139zM126 -132h-62l35 131h-32v139h136v-133z" />
    <glyph glyph-name="less" unicode="&#x3c;" horiz-adv-x="525" 
d="M490 40l-460 213v87l460 213v-102l-340 -155l340 -155v-101z" />
    <glyph glyph-name="equal" unicode="=" horiz-adv-x="525" 
d="M501 357h-478v89h478v-89zM501 146h-478v90h478v-90z" />
    <glyph glyph-name="greater" unicode="&#x3e;" horiz-adv-x="525" 
d="M491 253l-460 -213v101l340 155l-340 155v102l460 -213v-87z" />
    <glyph glyph-name="question" unicode="?" horiz-adv-x="510" 
d="M470 510q0 -30 -15 -63t-60.5 -88t-57 -74t-15.5 -33.5t-4 -26.5v-36h-117v39q0 10 2.5 26t9.5 32.5t17.5 33t62 76.5t51.5 110q0 23 -13 44t-34.5 30.5t-43.5 9.5q-21 0 -44 -11.5t-38.5 -38.5t-17.5 -57l-113 16q6 36 21.5 72t43.5 64.5t68 46.5t90 18q34 0 70.5 -9.5
t66.5 -32.5t50 -60.5t20 -87.5zM318 0h-118v113h118v-113z" />
    <glyph glyph-name="at" unicode="@" horiz-adv-x="874" 
d="M585 409l-1 -149q0 -21 13 -37t35 -16q47 0 72 44t25 132q0 59 -22 108t-61 83.5t-89.5 52.5t-105.5 18q-66 0 -123.5 -24t-100 -67t-65.5 -100.5t-23 -120.5q0 -67 23.5 -125t66.5 -99t102 -63.5t128 -22.5q64 0 115 12t105 37l26 -73q-126 -50 -241 -50
q-109 0 -202.5 43t-150 131.5t-56.5 210.5q0 79 29.5 150t83 123.5t127 81.5t155.5 29q76 0 143.5 -24t116.5 -68.5t76 -106.5t27 -134q0 -58 -12.5 -105.5t-37 -80.5t-60.5 -51t-81 -18q-19 0 -45 9.5t-41.5 25t-20.5 29.5h-5q-12 -23 -44 -40t-69 -17q-43 0 -78 17
t-48.5 45t-13.5 57q0 36 20.5 66t51.5 41.5t63 11.5h105v28q0 25 -18.5 41t-60.5 16q-22 0 -42.5 -6.5t-45.5 -28.5l-51 57q61 59 149 59q157 0 157 -132zM497 278v28h-90q-32 0 -48 -11.5t-16 -31.5q0 -18 17.5 -33t52.5 -15q27 0 48 9t28.5 24t7.5 30z" />
    <glyph glyph-name="A" unicode="A" horiz-adv-x="629" 
d="M626 0h-128l-55 154h-258l-56 -154h-127l263 696h98zM407 257l-46 141l-46 143h-3l-45 -140l-47 -144h187z" />
    <glyph glyph-name="B" unicode="B" horiz-adv-x="618" 
d="M582 200q0 -44 -16 -81t-44.5 -63.5t-66 -41t-77.5 -14.5h-305v696h278q51 0 87.5 -12t63.5 -32t47 -57t20 -89q0 -31 -12 -61t-35.5 -50.5t-48.5 -31.5v-4q50 -15 79.5 -62t29.5 -97zM443 499q0 39 -28 64t-80 25h-141v-181h141q25 0 51 9t41.5 32t15.5 51zM459 207
q0 40 -28.5 69t-81.5 29h-155v-195h155q53 0 81.5 28t28.5 69z" />
    <glyph glyph-name="C" unicode="C" horiz-adv-x="572" 
d="M436 204l115 -48q-26 -76 -90 -119t-154 -43q-63 0 -112 20t-81.5 56t-49 84.5t-16.5 104.5v178q0 53 16.5 100.5t49 84.5t82 58t111.5 21q89 0 152.5 -44t90.5 -118l-114 -45q-13 41 -47 66.5t-82 25.5q-25 0 -49.5 -8t-46 -28.5t-31.5 -51t-10 -56.5v-185q0 -27 9 -55
t25.5 -49t43 -33t59.5 -12q48 0 82 26.5t47 69.5z" />
    <glyph glyph-name="D" unicode="D" horiz-adv-x="638" 
d="M194 586v-476h119q53 0 87 18.5t51.5 55.5t17.5 99v130q0 57 -16 94.5t-50 58t-92 20.5h-117zM73 696h253q37 0 84 -10t88 -40t65 -79q13 -26 20 -69t7 -138q0 -84 -4.5 -134.5t-20.5 -87.5q-60 -138 -256 -138h-236v696z" />
    <glyph glyph-name="E" unicode="E" horiz-adv-x="564" 
d="M539 0h-466v696h466v-110h-345v-182h294v-106h-294v-188h345v-110z" />
    <glyph glyph-name="F" unicode="F" horiz-adv-x="545" 
d="M539 586h-345v-188h294v-105h-294v-293h-121v696h466v-110z" />
    <glyph glyph-name="G" unicode="G" horiz-adv-x="618" 
d="M308 104q57 0 98.5 43t41.5 99v30h-145v104h265v-137q0 -52 -19.5 -98.5t-55 -80t-83.5 -52t-102 -18.5q-63 0 -112.5 20t-81.5 56t-48 84.5t-16 104.5v178q0 53 16 101t48 84.5t80.5 57.5t110.5 21q89 0 153 -44t91 -118l-114 -45q-13 41 -48 66.5t-83 25.5
q-41 0 -70.5 -18t-46 -51.5t-16.5 -74.5v-188q0 -27 11.5 -62.5t44 -61.5t81.5 -26z" />
    <glyph glyph-name="H" unicode="H" horiz-adv-x="655" 
d="M582 0h-120v298h-268v-298h-121v696h121v-292h268v292h120v-696z" />
    <glyph glyph-name="I" unicode="I" horiz-adv-x="268" 
d="M196 0h-122v696h122v-696z" />
    <glyph glyph-name="J" unicode="J" horiz-adv-x="489" 
d="M424 224q0 -77 -27.5 -127t-78 -76t-123.5 -26q-55 0 -104 22.5t-86 63.5l86 79q16 -17 36 -30.5t37 -18.5t28 -5q111 0 111 122v468h121v-472z" />
    <glyph glyph-name="K" unicode="K" horiz-adv-x="638" 
d="M645 0h-143l-195 324l-113 -131v-193h-121v696h122v-337l2 -1l117 143l164 195h144l-235 -278z" />
    <glyph glyph-name="L" unicode="L" horiz-adv-x="564" 
d="M539 0h-466v696h121v-586h345v-110z" />
    <glyph glyph-name="M" unicode="M" horiz-adv-x="765" 
d="M702 0h-121v413h-3l-37 -89l-51 -112l-54 -114h-97l-40 85l-66 146l-36 85l-3 -3v-411h-121v696h113l91 -199q29 -63 109 -250h4l56 133l51 117l89 199h116v-696z" />
    <glyph glyph-name="N" unicode="N" horiz-adv-x="692" 
d="M621 0h-112l-215 324l-97 159l-3 -1v-482h-121v696h112l195 -296l118 -188l2 2v482h121v-696z" />
    <glyph glyph-name="O" unicode="O" horiz-adv-x="610" 
d="M304 701q58 0 106.5 -19.5t83 -55.5t52.5 -84.5t18 -104.5v-178q0 -59 -18.5 -108.5t-52.5 -84.5t-82.5 -53.5t-106.5 -18.5q-62 0 -111.5 21t-82 57.5t-49 85t-16.5 101.5v178q0 53 16.5 100.5t49 84.5t82 58t111.5 21zM304 587q-25 0 -49.5 -8t-46 -28.5t-31.5 -51
t-10 -56.5v-187q0 -27 9 -55t25.5 -49t43 -33t59.5 -12q39 0 71.5 19t49 55t16.5 75v187q0 28 -12 62t-45 58t-80 24z" />
    <glyph glyph-name="P" unicode="P" horiz-adv-x="591" 
d="M581 478q0 -41 -16.5 -79.5t-47.5 -68t-73 -46.5t-91 -17h-159v-267h-121v696h271q49 0 92.5 -14t76 -41.5t50.5 -69t18 -93.5zM457 481q0 25 -10.5 50t-39 40t-66.5 15h-147v-209h151q24 0 50.5 10.5t44 36.5t17.5 57z" />
    <glyph glyph-name="Q" unicode="Q" horiz-adv-x="618" 
d="M307 701q58 0 107 -19.5t83.5 -55.5t52.5 -84.5t18 -104.5v-178q0 -75 -29 -133l86 -69l-66 -77l-85 66q-66 -52 -167 -52q-62 0 -111 21t-81.5 57.5t-49 85t-16.5 101.5v178q0 39 11 82.5t35.5 78.5t55 57t70.5 34t86 12zM307 586q-46 0 -76.5 -21t-45.5 -58t-15 -84
v-166q0 -27 11.5 -62.5t44 -61t81.5 -25.5q37 0 65 19l-83 66l67 80l81 -65q8 24 8 49v166q0 41 -13.5 80t-46.5 61t-78 22z" />
    <glyph glyph-name="R" unicode="R" horiz-adv-x="625" 
d="M580 0h-136l-121 287h-129v-287h-121v696h296q44 0 83 -14t68 -40t45.5 -63.5t16.5 -82.5q0 -66 -37 -116.5t-102 -74.5zM458 496q0 46 -29.5 69.5t-78.5 23.5h-156v-194h152q36 0 63.5 15t38 39.5t10.5 46.5z" />
    <glyph glyph-name="S" unicode="S" horiz-adv-x="569" 
d="M518 637l-60 -100q-40 26 -86 39t-86 13q-60 0 -89 -24.5t-29 -63.5q0 -21 11 -37.5t42.5 -29.5t116.5 -28q68 -12 111 -34t68.5 -62.5t25.5 -103.5q0 -49 -20.5 -89t-57 -67.5t-84 -41.5t-100.5 -14q-74 0 -146.5 23t-129.5 73l73 94q84 -77 209 -77q59 0 94 25t35 70
q0 40 -31 62.5t-96 32.5q-99 14 -148 39t-71 66t-22 95q0 37 13 74t43.5 66t76.5 47t103 18q143 0 234 -65z" />
    <glyph glyph-name="T" unicode="T" horiz-adv-x="521" 
d="M513 588h-194v-588h-121v588h-193v108h508v-108z" />
    <glyph glyph-name="U" unicode="U" horiz-adv-x="638" 
d="M579 247q0 -56 -19.5 -103t-54.5 -80t-83 -51t-103 -18q-57 0 -105.5 19.5t-82.5 54t-52.5 82t-18.5 101.5v444h120v-435q0 -29 9.5 -58t28 -50t45 -33t57.5 -12q63 0 100 39t37 109v440h122v-449z" />
    <glyph glyph-name="V" unicode="V" horiz-adv-x="575" 
d="M571 696l-235 -696h-99l-236 696h129l100 -318l56 -184h5l53 183l98 319h129z" />
    <glyph glyph-name="W" unicode="W" horiz-adv-x="839" 
d="M419 473l-3 -1l-67 -254l-61 -219h-101l-181 696h129q46 -196 78 -340l28 -127h4l32 126q69 250 95 341h92q60 -208 96 -344l33 -124h4l25 123q54 244 79 345h128l-181 -696h-100l-70 251z" />
    <glyph glyph-name="X" unicode="X" horiz-adv-x="576" 
d="M575 0h-136l-152 257l-151 -257h-136l225 356l-212 340h137l137 -240l138 240h136l-211 -340z" />
    <glyph glyph-name="Y" unicode="Y" horiz-adv-x="557" 
d="M553 696l-217 -410v-286h-115v286l-217 410h129l84 -172l61 -134h2l62 137l83 169h128z" />
    <glyph glyph-name="Z" unicode="Z" horiz-adv-x="527" 
d="M497 0h-467v104l323 485h-310v107h454v-99l-323 -486h323v-111z" />
    <glyph glyph-name="bracketleft" unicode="[" horiz-adv-x="288" 
d="M269 -100h-199v799h199v-82h-93v-636h93v-81z" />
    <glyph glyph-name="backslash" unicode="\" horiz-adv-x="343" 
d="M244 -42l-252 767h93l252 -767h-93z" />
    <glyph glyph-name="bracketright" unicode="]" horiz-adv-x="288" 
d="M221 -100h-199v81h93v636h-93v82h199v-799z" />
    <glyph glyph-name="asciicircum" unicode="^" horiz-adv-x="525" 
d="M505 282h-101l-140 298l-140 -299h-100l197 414h87z" />
    <glyph glyph-name="underscore" unicode="_" horiz-adv-x="500" 
d="M500 -145h-500v76h500v-76z" />
    <glyph glyph-name="grave" unicode="`" horiz-adv-x="504" 
d="M342 573l-67 -29l-123 179l108 36z" />
    <glyph glyph-name="a" unicode="a" horiz-adv-x="499" 
d="M245 500q205 0 205 -164v-336h-113v44l-2 1q-9 -12 -27 -24t-45.5 -19t-56.5 -7q-79 0 -125 39t-46 110q0 46 22.5 79.5t59.5 51.5t86 18h134v36q0 71 -98 71q-75 0 -118 -41l-60 76q65 65 184 65zM142 152q0 -25 21.5 -43t66.5 -18q30 0 55 8.5t37 25.5t14 35q1 8 1 47
h-115q-40 0 -60 -15.5t-20 -39.5z" />
    <glyph glyph-name="b" unicode="b" horiz-adv-x="515" 
d="M473 257q0 -262 -178 -262q-35 0 -68 13t-54 40l-2 -1v-47h-113v727h113v-279l2 -1q11 12 30 25t44 20.5t48 7.5q176 0 178 -243zM357 248q0 74 -21.5 109.5t-71.5 35.5q-49 0 -71 -37t-22 -108q0 -43 9 -79.5t31.5 -53.5t52.5 -17q44 0 68.5 32.5t24.5 117.5z" />
    <glyph glyph-name="c" unicode="c" horiz-adv-x="447" 
d="M430 67q-76 -73 -175 -73q-45 0 -86 15t-73 46t-50 79.5t-18 112.5q0 80 28.5 135.5t80.5 86.5t122 31q99 0 169 -70l-73 -79q-21 22 -45.5 34t-48.5 12q-117 0 -117 -150q0 -149 116 -149q25 0 51 14t45 33z" />
    <glyph glyph-name="d" unicode="d" horiz-adv-x="515" 
d="M463 0h-113v46l-2 2q-24 -27 -57.5 -40t-66.5 -13q-55 0 -95 24t-60.5 79t-20.5 153q0 119 48.5 184.5t139.5 65.5q33 0 63.5 -12.5t48.5 -35.5l2 1v272h113v-726zM350 248q0 81 -24 113t-67 32q-45 0 -70 -33t-25 -119q0 -79 25 -109.5t68 -30.5q49 0 71 38t22 109z" />
    <glyph glyph-name="e" unicode="e" horiz-adv-x="507" 
d="M466 215h-312q0 -50 27 -84.5t78 -34.5q25 0 58.5 12t58.5 35l66 -79q-19 -17 -48 -34.5t-66 -26.5t-73 -9q-107 0 -162.5 65t-55.5 187q0 84 28 140t76.5 85.5t111.5 29.5q99 0 156 -64.5t57 -172.5v-49zM252 398q-18 0 -39.5 -9t-37.5 -34t-19 -60h190q-3 48 -29 75.5
t-65 27.5z" />
    <glyph glyph-name="f" unicode="f" horiz-adv-x="302" 
d="M293 404h-101v-404h-113v404h-58v91h58v96q0 50 23 82.5t56.5 43.5t61.5 11h73v-98h-55q-46 0 -46 -52v-83h101v-91z" />
    <glyph glyph-name="g" unicode="g" horiz-adv-x="522" 
d="M345 495h111v-475q0 -223 -221 -223q-30 0 -64.5 7.5t-62.5 22.5t-45 30l59 83q23 -17 54.5 -28.5t67.5 -11.5q46 0 74 27t28 75v46h-2q-23 -26 -55 -39.5t-64 -13.5q-182 0 -182 241q0 96 22.5 154t64 84t98.5 26q34 0 64.5 -12.5t50.5 -37.5h2v45zM158 247
q0 -77 21.5 -111.5t72.5 -34.5q49 0 71 37t22 109q0 81 -24 114t-68 33q-45 0 -70 -31.5t-25 -115.5z" />
    <glyph glyph-name="h" unicode="h" horiz-adv-x="529" 
d="M485 0h-113v294q0 48 -22.5 74t-66.5 26q-30 0 -54 -15.5t-33.5 -39t-9.5 -45.5v-294h-113v726h113v-279h3q23 24 58 38.5t69 14.5q35 0 66 -11t54 -33.5t36 -55.5t13 -75v-325z" />
    <glyph glyph-name="i" unicode="i" horiz-adv-x="247" 
d="M180 592h-113v104h113v-104zM180 0h-113v495h113v-495z" />
    <glyph glyph-name="j" unicode="j" horiz-adv-x="265" 
d="M190 592h-114v104h114v-104zM190 496v-555q0 -65 -37.5 -103.5t-108.5 -38.5h-52v100h28q56 0 56 59v538h114z" />
    <glyph glyph-name="k" unicode="k" horiz-adv-x="520" 
d="M523 0h-132l-145 222l-70 -76v-146h-112v726h112v-435h3l96 110l86 94h138l-179 -193z" />
    <glyph glyph-name="l" unicode="l" horiz-adv-x="265" 
d="M245 0h-43q-138 0 -138 131v595h113v-578q0 -26 12 -37t36 -11h20v-100z" />
    <glyph glyph-name="m" unicode="m" horiz-adv-x="833" 
d="M772 0h-112v295q0 48 -23.5 74.5t-69.5 26.5q-18 0 -40 -9.5t-37.5 -34.5t-15.5 -57v-295h-113v295q0 47 -24 74t-69 27q-18 0 -40 -9.5t-38 -34.5t-16 -57v-295h-113v495h113v-53l3 -1q21 27 58 43t74 16q93 0 137 -71q32 33 72.5 52t84.5 19q76 0 122.5 -45.5
t46.5 -128.5v-326z" />
    <glyph glyph-name="n" unicode="n" horiz-adv-x="529" 
d="M470 0h-113v294q0 48 -22.5 74t-68.5 26q-41 0 -68 -27.5t-27 -72.5v-294h-113v496h113v-52h2q23 26 59 41t70 15q77 0 122.5 -45t45.5 -130v-325z" />
    <glyph glyph-name="o" unicode="o" horiz-adv-x="513" 
d="M264 501q55 0 100 -22t72 -61q18 -29 27.5 -71t8.5 -92q0 -109 -34 -168q-28 -45 -77.5 -69.5t-108.5 -24.5q-56 0 -100.5 20t-70.5 58q-41 61 -39 176q0 89 25 140q12 25 37 52.5t68 44.5t92 17zM260 399q-28 0 -51.5 -15t-35.5 -41q-15 -33 -17 -97q0 -65 15 -95
q11 -25 33.5 -40t50.5 -15q33 0 57.5 18t35.5 53q9 29 9 88q0 58 -13 87q-11 28 -33.5 42.5t-50.5 14.5z" />
    <glyph glyph-name="p" unicode="p" horiz-adv-x="516" 
d="M60 495h112v-44l3 -1q45 50 121 50q41 0 72.5 -13t54.5 -39.5t37.5 -75t14.5 -126.5q0 -122 -48 -187t-143 -65q-32 0 -62 12t-48 35h-2v-241h-112v695zM172 246q0 -71 21.5 -108.5t70.5 -37.5q43 0 68.5 31.5t25.5 114.5q0 85 -23.5 116.5t-68.5 31.5q-94 0 -94 -148z
" />
    <glyph glyph-name="q" unicode="q" horiz-adv-x="522" 
d="M53 238q0 130 48 196t144 66q68 0 109 -51h2v46h113v-697h-113v249h-2q-11 -12 -29.5 -25t-43 -20.5t-47.5 -7.5q-92 0 -136 60.5t-45 183.5zM169 246q0 -74 21.5 -109.5t72.5 -35.5q93 0 93 145q0 73 -21.5 112t-70.5 39q-30 0 -53.5 -16.5t-32.5 -53t-9 -81.5z" />
    <glyph glyph-name="r" unicode="r" horiz-adv-x="388" 
d="M270 395q-41 0 -67 -26t-26 -72v-298h-113v496h111v-59h4q45 64 120 64q57 0 94 -26l-42 -102q-38 23 -81 23z" />
    <glyph glyph-name="s" unicode="s" horiz-adv-x="463" 
d="M433 151q0 -45 -26.5 -82.5t-75 -56t-100.5 -18.5q-130 0 -215 75l61 81q64 -59 159 -59q27 0 48 8.5t29.5 22.5t8.5 26q0 25 -21.5 38.5t-66.5 17.5q-61 7 -100 19.5t-63.5 42t-24.5 79.5q0 45 22 79t64 55t99 21q116 0 190 -56l-54 -86q-65 43 -134 43q-38 0 -59 -15
t-21 -38q0 -24 27.5 -35.5t90.5 -18.5q82 -9 122 -44.5t40 -98.5z" />
    <glyph glyph-name="t" unicode="t" horiz-adv-x="316" 
d="M285 0h-68q-55 0 -91 33.5t-36 90.5v280h-57v92h58v129h110v-129h76v-92h-75v-249q0 -56 46 -56h37v-99z" />
    <glyph glyph-name="u" unicode="u" horiz-adv-x="533" 
d="M59 495h112v-295q0 -51 22 -76t70 -25q40 0 67.5 28t27.5 73v295h113v-495h-113v49h-3q-21 -26 -56.5 -40.5t-69.5 -14.5q-79 0 -124.5 44.5t-45.5 131.5v325z" />
    <glyph glyph-name="v" unicode="v" horiz-adv-x="480" 
d="M240 155h3l43 138l67 202h122l-189 -495h-91l-190 495h122l66 -202z" />
    <glyph glyph-name="w" unicode="w" horiz-adv-x="736" 
d="M514 168h6l22 85l67 242h121l-164 -495h-99l-70 231l-29 94h-2l-31 -106q-32 -110 -67 -219h-99l-164 495h121l40 -140q8 -25 24.5 -88.5t26.5 -95.5h4l42 139l58 185h95l74 -243z" />
    <glyph glyph-name="x" unicode="x" horiz-adv-x="501" 
d="M490 0h-136l-104 167l-103 -167h-136l180 253l-172 242h135l96 -160l97 160h135l-172 -243z" />
    <glyph glyph-name="y" unicode="y" horiz-adv-x="470" 
d="M470 495l-218 -595q-10 -26 -29 -50.5t-49.5 -37t-65.5 -12.5h-42v95h31q20 0 36 15t24 37l25 78l-182 470h122l64 -182l49 -156h4l49 154l63 184h119z" />
    <glyph glyph-name="z" unicode="z" horiz-adv-x="449" 
d="M417 0h-386v94l249 304h-235v97h372v-92l-248 -301h248v-102z" />
    <glyph glyph-name="braceleft" unicode="{" horiz-adv-x="288" 
d="M279 -98h-83q-19 0 -42 9t-40.5 33t-21.5 56l-2 35v101l-1 36q-3 40 -22.5 63t-53.5 25v77q37 4 57 33.5t20 76.5v133q0 24 10.5 51.5t37 46t58.5 18.5h83v-78h-41q-22 0 -32.5 -22t-10.5 -50v-121q0 -37 -19 -72.5t-57 -52.5v-2q21 -7 40 -26.5t27.5 -46t8.5 -50.5v-124
q0 -72 43 -72h41v-77z" />
    <glyph glyph-name="bar" unicode="|" horiz-adv-x="232" 
d="M163 -195h-95v918h95v-918z" />
    <glyph glyph-name="braceright" unicode="}" horiz-adv-x="288" 
d="M276 260q-42 1 -59.5 -35.5t-17.5 -88.5v-101q0 -24 -2 -35q-5 -44 -34 -71t-69 -27h-83v77h41q43 0 43 72v124q0 24 8.5 50.5t27.5 46t40 26.5v2q-20 8 -39 27.5t-28 46t-9 51.5v121q0 72 -43 72h-41v76h82q35 0 61 -18.5t35.5 -45.5t9.5 -50v-133q0 -32 11 -59
t29.5 -38.5t36.5 -12.5v-77z" />
    <glyph glyph-name="asciitilde" unicode="~" horiz-adv-x="525" 
d="M494 308q-29 -54 -63 -80.5t-76 -26.5q-30 0 -81.5 25.5t-67 29.5t-24.5 4q-18 0 -36 -8.5t-46 -44.5l-66 43q57 105 144 105q32 -1 82 -26.5t65 -29.5t23 -4q16 0 33.5 10.5t45.5 47.5z" />
    <glyph glyph-name="cent" unicode="&#xa2;" horiz-adv-x="525" 
d="M257 -117v113q-40 5 -75.5 22t-62.5 47.5t-42.5 76.5t-15.5 105q0 43 10.5 86t35 77.5t62 57.5t88.5 30v103h45v-101q92 -4 159 -70l-73 -79q-19 19 -42.5 31.5t-43.5 14.5v-299q21 2 44.5 15t42.5 32l74 -78q-71 -68 -161 -72v-112h-45zM177 247q0 -125 80 -145v290
q-80 -22 -80 -145z" />
    <glyph glyph-name="sterling" unicode="&#xa3;" horiz-adv-x="525" 
d="M489 592l-96 -66q-27 39 -55.5 54t-63.5 15q-30 0 -55.5 -23t-25.5 -64q0 -25 17.5 -71.5t22.5 -69.5h150v-87h-146q-5 -107 -50 -179h295v-101h-443v86q71 94 78 194h-80v87h67q-1 3 -20.5 58.5t-19.5 84.5q0 56 27 99.5t72 67t108 23.5q56 0 91.5 -9.5t65.5 -32.5
t61 -66z" />
    <glyph glyph-name="currency" unicode="&#xa4;" horiz-adv-x="556" 
d="M155 320q0 -22 12 -50.5t42.5 -49t65.5 -20.5q36 0 66.5 20.5t42.5 48.5t12 51t-12 51.5t-42.5 48.5t-66.5 20q-23 0 -51 -12t-48.5 -42t-20.5 -66zM101 433l-68 67l61 62l68 -68q56 35 114 35q59 0 114 -34q32 35 67 67l61 -62l-68 -67q16 -26 25.5 -56t9.5 -57
q0 -57 -34 -113q30 -27 67 -66l-61 -62l-67 67q-25 -16 -55 -25.5t-59 -9.5q-28 0 -58.5 9.5t-55.5 25.5l-68 -67l-61 61l68 67q-34 55 -34 113q0 26 9 56.5t25 56.5z" />
    <glyph glyph-name="yen" unicode="&#xa5;" horiz-adv-x="525" 
d="M264 386h4l58 146l72 164h123l-161 -333h110v-68h-145l-5 -17v-52h150v-68h-150v-158h-114v158h-148v68h148v52l-5 17h-143v68h108l-163 333h129l81 -186z" />
    <glyph glyph-name="brokenbar" unicode="&#xa6;" horiz-adv-x="232" 
d="M163 294h-95v429h95v-429zM68 232h95v-427h-95v427z" />
    <glyph glyph-name="section" unicode="&#xa7;" horiz-adv-x="488" 
d="M454 292q0 -31 -15.5 -62t-37.5 -47q18 -17 31 -42t13 -52q0 -38 -15.5 -69.5t-43.5 -54t-66 -34t-81 -11.5q-56 0 -109.5 21.5t-90.5 58.5l63 73q29 -29 66 -44.5t72 -15.5q32 0 56 9.5t33.5 27t9.5 34.5q0 26 -25.5 44.5t-84.5 36.5q-102 31 -139 69t-37 100
q0 30 17.5 59.5t42.5 46.5q-48 43 -48 99q0 71 54 116t135 45q115 0 189 -59l-57 -78q-62 43 -137 43q-33 0 -57 -17.5t-24 -43.5q0 -22 21 -38.5t68.5 -31.5t50.5 -16q77 -25 111.5 -64.5t34.5 -102.5zM185 391q-11 -6 -21 -18.5t-10 -32.5q0 -35 53 -57q18 -8 62.5 -22.5
t62.5 -22.5q23 17 23 50q0 22 -19 41t-97 43q-21 6 -54 19z" />
    <glyph glyph-name="dieresis" unicode="&#xa8;" horiz-adv-x="504" 
d="M410 583h-118v109h118v-109zM211 583h-119v109h119v-109z" />
    <glyph glyph-name="copyright" unicode="&#xa9;" horiz-adv-x="812" 
d="M408 -12q-74 0 -139 26t-112.5 73.5t-74 113.5t-26.5 141q0 35 9 80.5t33 91.5t66 88t107 68.5t137 26.5q73 0 137.5 -26.5t113 -74.5t75 -113.5t26.5 -140.5q0 -74 -26.5 -139.5t-75 -113.5t-113.5 -74.5t-137 -26.5zM408 627q-57 0 -108 -21.5t-88.5 -60.5t-58.5 -91.5
t-21 -111.5t21 -111.5t58.5 -91t88.5 -60t108 -21.5t108 21.5t88.5 60t58 91t20.5 111.5q0 60 -20.5 113t-58 91.5t-88.5 59.5t-108 21zM488 250l77 -32q-17 -49 -58 -77t-97 -28q-78 0 -120.5 46.5t-42.5 120.5v109q0 33 9 59.5t25 48.5t48 40.5t81 18.5q27 0 58.5 -9.5
t57.5 -35t38 -60.5l-76 -30q-9 26 -29.5 42t-48.5 16q-19 0 -39 -9t-31.5 -30.5t-11.5 -46.5v-115q0 -25 12 -47.5t31.5 -32t38.5 -9.5q29 0 49.5 17t28.5 44z" />
    <glyph glyph-name="guillemotleft" unicode="&#xab;" horiz-adv-x="525" 
d="M491 28h-109l-137 200l137 200h109l-133 -200zM291 28h-109l-137 200l137 200h109l-134 -200z" />
    <glyph glyph-name="logicalnot" unicode="&#xac;" horiz-adv-x="525" 
d="M500 341v-279h-94v189h-382v90h476z" />
    <glyph glyph-name="uni00AD" unicode="&#xad;" horiz-adv-x="416" 
d="M367 211h-318v103h318v-103z" />
    <glyph glyph-name="registered" unicode="&#xae;" horiz-adv-x="543" 
d="M320 367l-47 97h-35v-97h-47v243h99q31 0 53 -19.5t22 -51.5q0 -21 -11.5 -39t-32.5 -28l52 -105h-53zM287 567h-49v-59h47q14 0 24 8t10 23t-9 21.5t-23 6.5zM272 277q-44 0 -84 16t-69 44.5t-45.5 67.5t-16.5 83q0 55 28.5 106.5t80.5 79t106 27.5q33 0 69.5 -10.5
t72.5 -40t54.5 -74t18.5 -88.5q0 -33 -11 -68.5t-41.5 -71t-75 -53.5t-87.5 -18zM272 657q-26 0 -54 -8.5t-53 -29t-42.5 -54t-17.5 -77.5q0 -26 8.5 -54t29 -53.5t53.5 -43t76 -17.5q26 0 54 8.5t52.5 29t42 53.5t17.5 77q0 26 -8.5 54.5t-28.5 54t-53 43t-76 17.5z" />
    <glyph glyph-name="macron" unicode="&#xaf;" horiz-adv-x="504" 
d="M410 589h-301v97h301v-97z" />
    <glyph glyph-name="degree" unicode="&#xb0;" horiz-adv-x="409" 
d="M353 558q0 -37 -19.5 -71.5t-55.5 -53.5t-74 -19q-37 0 -73.5 19t-56 54t-19.5 71q0 43 23 76t56 50t70 17q62 0 105.5 -42t43.5 -101zM277 558q0 29 -21.5 49.5t-51.5 20.5q-29 0 -50.5 -20.5t-21.5 -49.5t21.5 -50t50.5 -21q30 0 51.5 21t21.5 50z" />
    <glyph glyph-name="plusminus" unicode="&#xb1;" horiz-adv-x="525" 
d="M501 306h-189v-174h-95v174h-189v90h189v178h95v-178h189v-90zM503 0h-477v89h477v-89z" />
    <glyph glyph-name="uni00B2" unicode="&#xb2;" horiz-adv-x="327" 
d="M111 653l-88 12q7 55 48.5 89.5t95.5 34.5q28 0 61 -10t55.5 -37.5t22.5 -68.5q0 -21 -10 -45t-25 -40l-128 -141h159v-78h-280v70l176 193q17 19 17 37q0 17 -13 29.5t-35 12.5q-21 0 -36.5 -15.5t-19.5 -42.5z" />
    <glyph glyph-name="uni00B3" unicode="&#xb3;" horiz-adv-x="331" 
d="M20 476l86 12q4 -22 19.5 -34t36.5 -12q25 0 41 16t16 40t-16 38.5t-44 14.5h-37v69h35q27 0 42.5 13.5t15.5 32.5t-15 32.5t-37 13.5q-17 0 -32.5 -12.5t-21.5 -35.5l-85 12q5 24 22 50.5t50 44.5t69 18q53 0 86 -20t44 -48.5t11 -51.5t-12 -46t-37 -37
q27 -14 40.5 -38.5t13.5 -49.5q0 -58 -41.5 -95t-107.5 -37q-36 0 -66 13.5t-49.5 37t-26.5 59.5z" />
    <glyph glyph-name="acute" unicode="&#xb4;" horiz-adv-x="504" 
d="M256 544l-68 25l79 190l107 -34z" />
    <glyph glyph-name="mu" unicode="&#xb5;" horiz-adv-x="537" 
d="M476 0h-113v45l-3 1q-22 -25 -53.5 -38t-65.5 -13t-63 16l-1 -1v-210h-113v695h113v-295q0 -44 24 -71.5t69 -27.5q40 0 66.5 27t26.5 72v295h113v-495z" />
    <glyph glyph-name="mu" unicode="&#x3bc;" horiz-adv-x="537" 
d="M476 0h-113v45l-3 1q-22 -25 -53.5 -38t-65.5 -13t-63 16l-1 -1v-210h-113v695h113v-295q0 -44 24 -71.5t69 -27.5q40 0 66.5 27t26.5 72v295h113v-495z" />
    <glyph glyph-name="paragraph" unicode="&#xb6;" horiz-adv-x="563" 
d="M224 -80v397h-32q-27 0 -55 10.5t-50.5 35t-37 61t-14.5 81.5q0 47 20.5 95t64 76t97.5 28l303 1v-76h-43v-709h-87v709h-77v-709h-89z" />
    <glyph glyph-name="periodcentered" unicode="&#xb7;" horiz-adv-x="271" 
d="M203 205h-136v138h136v-138z" />
    <glyph glyph-name="cedilla" unicode="&#xb8;" horiz-adv-x="447" 
d="M214 44l59 -1l-26 -80q25 -2 48.5 -12.5t36.5 -31.5t13 -43q0 -34 -30 -61.5t-84 -27.5q-56 0 -100 24l21 52q35 -16 72 -16q18 0 31 8t13 25q0 16 -12 24t-31 8l-17 -2l-30 20z" />
    <glyph glyph-name="uni00B9" unicode="&#xb9;" horiz-adv-x="278" 
d="M199 369h-89v323l-61 -40v88l72 46h78v-417z" />
    <glyph glyph-name="guillemotright" unicode="&#xbb;" horiz-adv-x="525" 
d="M155 28h-109l132 200l-132 200h109l136 -200zM355 28h-109l133 200l-133 200h109l136 -200z" />
    <glyph glyph-name="onequarter" unicode="&#xbc;" horiz-adv-x="860" 
d="M243 279h-89v323l-61 -40v88l72 46h78v-417zM661 713l-426 -730h-89l425 730h90zM767 59h-36v-59h-88v59h-190v65l155 293h98l-151 -282h88v95h88v-95h36v-76z" />
    <glyph glyph-name="onehalf" unicode="&#xbd;" horiz-adv-x="860" 
d="M779 0h-280v70l176 193v-1q17 20 17 38q0 17 -13.5 29.5t-36.5 12.5q-20 0 -35.5 -15.5t-19.5 -42.5l-87 12q3 26 19.5 55.5t50 48.5t72.5 19q59 0 99.5 -29.5t40.5 -85.5q0 -20 -9.5 -44.5t-24.5 -40.5l-129 -141h160v-78zM643 713l-426 -730h-89l425 730h90zM228 279
h-89v323l-61 -40v88l72 46h78v-417z" />
    <glyph glyph-name="threequarters" unicode="&#xbe;" horiz-adv-x="860" 
d="M45 386l86 12q4 -22 19.5 -34t36.5 -12q25 0 41 16t16 40t-16 38.5t-44 14.5h-37v69h35q27 0 42.5 13.5t15.5 32.5t-15 32.5t-37 13.5q-17 0 -32.5 -12.5t-21.5 -35.5l-85 12q5 24 22 50.5t50 44.5t69 18q53 0 86 -20t44 -48.5t11 -51.5t-12 -46t-37 -37
q27 -14 40.5 -38.5t13.5 -49.5q0 -58 -41.5 -95t-107.5 -37q-36 0 -66 13.5t-49.5 37t-26.5 59.5zM709 713l-426 -730h-89l425 730h90zM814 59h-36v-59h-88v59h-190v65l155 293h98l-151 -282h88v95h88v-95h36v-76z" />
    <glyph glyph-name="Adieresis" unicode="&#xc4;" horiz-adv-x="629" 
d="M626 0h-128l-55 154h-258l-56 -154h-127l263 696h98zM407 257l-46 141l-46 143h-3l-45 -140l-47 -144h187zM472 757h-120v111h120v-111zM275 757h-121v111h121v-111z" />
    </font>
</defs>
</svg>
