<svg width="21" height="21" viewBox="0 0 21 21" fill="none" xmlns="http://www.w3.org/2000/svg">
<path fill-rule="evenodd" clip-rule="evenodd" d="M6.14309 0.974419C-3.53435 5.5181 -1.0208 19.49 9.61276 20.2596C14.098 20.5839 17.3678 18.7826 19.3524 14.8938C21.5379 10.6122 19.9789 4.39263 16.073 1.8078C13.2963 -0.0299298 9.04252 -0.386865 6.14309 0.974419ZM7.32001 1.30027C1.57636 3.39686 -0.796774 9.65662 2.15839 14.9147C6.0627 21.8615 16.215 21.1053 19.0603 13.6558C21.9002 6.21858 14.6758 -1.38478 7.32001 1.30027ZM6.701 2.36464C2.07586 4.41997 0.13308 10.5136 2.82831 14.5122C6.54451 20.027 14.0198 20.2403 17.5329 14.9319C18.691 13.1815 18.8566 12.4247 18.6642 9.76595C18.4059 6.18856 17.304 4.36798 14.3992 2.71622C12.1831 1.45623 9.06557 1.31367 6.701 2.36464ZM7.82862 2.70014C5.59054 3.37006 3.28547 5.79572 2.65253 8.14742C0.735475 15.2658 8.9975 20.8942 15.0434 16.589C19.7002 13.2731 18.9279 5.76196 13.6682 3.21571C11.2902 2.06452 10.258 1.97341 7.82862 2.70014ZM9.64867 3.72003C9.64867 3.99765 9.88984 4.37334 10.1846 4.55556C10.4794 4.73778 10.7205 4.51054 10.7205 4.05124C10.7205 3.59194 10.4794 3.21571 10.1846 3.21571C9.88984 3.21571 9.64867 3.44242 9.64867 3.72003ZM4.82522 5.04273C4.82522 5.14456 5.18698 5.52829 5.62913 5.89541C6.09271 6.28021 6.43304 6.3322 6.43304 6.01814C6.43304 5.71908 6.07128 5.33535 5.62913 5.16546C5.18698 4.9961 4.82522 4.9409 4.82522 5.04273ZM14.4828 5.61457C14.06 6.12372 14.0192 6.43134 14.3751 6.43134C15.0225 6.43134 15.7777 5.41467 15.4063 5.04273C15.2712 4.90821 14.8558 5.16546 14.4828 5.61457ZM9.64867 7.45927C9.64867 8.31946 9.512 9.37901 9.34533 9.81419C9.14703 10.3303 9.61276 10.8898 10.6852 11.4247C12.5888 12.3744 12.5765 12.3894 11.5277 10.378C11.0877 9.53389 10.7259 8.17957 10.7238 7.36924C10.7222 6.5589 10.4794 5.89541 10.1846 5.89541C9.88984 5.89541 9.64867 6.59909 9.64867 7.45927ZM3.21741 10.1829C3.21741 10.4777 3.59363 10.7189 4.05293 10.7189C4.51223 10.7189 4.73947 10.4777 4.55725 10.1829C4.37503 9.88815 3.99934 9.64697 3.72172 9.64697C3.44411 9.64697 3.21741 9.88815 3.21741 10.1829ZM16.0799 10.1829C16.0799 10.4777 16.4562 10.7189 16.9155 10.7189C17.3748 10.7189 17.602 10.4777 17.4198 10.1829C17.2376 9.88815 16.8619 9.64697 16.5842 9.64697C16.3066 9.64697 16.0799 9.88815 16.0799 10.1829ZM5.37188 14.7255C4.94902 15.2347 4.90829 15.5423 5.26415 15.5423C5.91157 15.5423 6.66671 14.5256 6.2953 14.1537C6.16024 14.0192 5.74489 14.2764 5.37188 14.7255ZM13.9362 14.1537C13.9362 14.2555 14.2979 14.6392 14.7401 15.0064C15.2037 15.3912 15.544 15.4431 15.544 15.1291C15.544 14.83 15.1822 14.4463 14.7401 14.2764C14.2979 14.1071 13.9362 14.0519 13.9362 14.1537ZM9.64867 16.5826C9.64867 16.8602 9.88984 17.2359 10.1846 17.4181C10.4794 17.6003 10.7205 17.3731 10.7205 16.9138C10.7205 16.4545 10.4794 16.0782 10.1846 16.0782C9.88984 16.0782 9.64867 16.3049 9.64867 16.5826Z" fill="#CF9C5A"/>
</svg>
