<svg width="66" height="79" viewBox="0 0 66 79" fill="none" xmlns="http://www.w3.org/2000/svg">
<path fill-rule="evenodd" clip-rule="evenodd" d="M40.0252 73.551V76.5849C40.0252 77.3986 39.3618 78.0577 38.5427 78.0577H25.2012C24.4266 78.0577 23.7817 77.4649 23.7224 76.6954C23.7224 76.6954 22.1992 56.6075 20.1794 48.5693C20.1312 48.3742 20.0719 48.1753 20.0126 47.9802C19.9533 48.1753 19.894 48.3742 19.8458 48.5656C17.826 56.5995 16.3027 76.6917 16.3027 76.6917C16.2434 77.4612 15.5986 78.054 14.824 78.054H1.48245C0.663396 78.054 0 77.395 0 76.5813V26.5076C0 25.6939 0.663396 25.0348 1.48245 25.0348H5.98169L3.99896 22.1924C3.62464 21.6585 3.65058 20.9443 4.05825 20.4361L15.9178 5.70857C16.0327 5.56498 16.1698 5.44716 16.3292 5.35511L25.2276 0.200417C25.7427 -0.0978199 26.3876 -0.0609943 26.8657 0.296143C29.0968 1.96033 31.8653 2.9471 34.8672 2.9471C37.8692 2.9471 40.6376 1.96033 42.8688 0.296143C43.3469 -0.0610038 43.9917 -0.0978199 44.5069 0.200417L53.4053 5.35511C53.5646 5.44716 53.7018 5.56498 53.8167 5.70857L65.6762 20.4361C66.0839 20.9442 66.1098 21.6585 65.7355 22.1924L59.0646 31.7651C58.605 32.4241 57.697 32.5972 57.0225 32.1517L54.8804 30.7342V52.7997C53.8613 53.1458 52.8717 53.5544 51.9155 54.0221V22.0893C51.9155 21.2756 52.5789 20.6165 53.398 20.6165C54.217 20.6165 54.8804 21.2756 54.8804 22.0893V27.1924L57.4561 28.8971L62.6706 21.4155L51.6744 7.75964L43.836 3.21988C41.264 4.90622 38.1805 5.88922 34.8709 5.88922C31.5614 5.88922 28.4779 4.90613 25.9059 3.21988L18.0674 7.75964L7.07123 21.4155L9.59134 25.0348H14.8578V22.0893C14.8578 21.2756 15.5212 20.6165 16.3402 20.6165C17.1593 20.6165 17.8226 21.2756 17.8226 22.0893V25.0348H38.5475C39.3666 25.0348 40.0299 25.6938 40.0299 26.5075V53.1057C40.0299 56.8498 40.0299 59.689 40.0299 63.3269C40.0299 66.9683 40.0299 70.5169 40.0299 73.548L40.0252 73.551ZM8.92747 32.4025H2.96429V39.063C5.00262 39.0298 6.49626 38.5991 7.47463 37.546C8.50489 36.4378 8.91258 34.7367 8.92738 32.3988L8.92747 32.4025ZM26.4426 73.6396C26.4908 74.2066 26.5316 74.7 26.5687 75.1124H37.0611V73.6396H26.4426ZM37.0574 39.0626V32.4021H31.124C31.1388 34.7364 31.5464 36.4374 32.5767 37.5493C33.5477 38.595 35.0338 39.0294 37.0537 39.0663L37.0574 39.0626ZM23.7301 29.4569H37.0574V27.9842H23.7301V29.4569ZM20.7652 27.9842H19.2828V38.2939H20.7652V27.9842ZM16.3179 27.9842H2.96116V29.4569H16.3179V27.9842ZM2.96116 73.6401V75.1128H13.4536C13.4869 74.7005 13.5277 74.2071 13.5796 73.6401H2.96116ZM16.3179 32.4029H11.8816C11.8372 35.6798 11.0737 38.0104 9.65053 39.5458C8.20518 41.0995 6.02966 41.939 2.96097 42.0053V70.6951H13.8424C14.465 64.0161 15.6102 53.2576 16.9667 47.8567C17.3891 46.1741 17.8821 44.9517 18.3342 44.359L18.7271 43.9392L19.1051 43.6815L19.5202 43.5158L20.0094 43.4495L20.4986 43.5158L20.9137 43.6815L21.2917 43.9429L21.6845 44.3626C22.1367 44.9554 22.6259 46.1778 23.0521 47.8604C24.4122 53.2654 25.5574 64.0207 26.1764 70.6959H37.0578V42.0033C34.0039 41.9334 31.8396 41.0976 30.3979 39.5475C28.9711 38.0121 28.2076 35.6814 28.1668 32.4046H23.7305V38.2956C23.7305 39.9231 22.4038 41.2412 20.7656 41.2412H19.2832C17.6451 41.2412 16.3183 39.9231 16.3183 38.2956L16.3179 32.4029Z" fill="#CF9C5A"/>
</svg>
