<svg width="66" height="69" viewBox="0 0 66 69" fill="none" xmlns="http://www.w3.org/2000/svg">
<path d="M65.9901 16.2383C65.9901 7.13993 61.9122 0.0054317 56.7117 0.0054317C52.2049 0.0054317 48.5393 5.35934 47.6479 12.7112C43.183 10.2781 38.1721 8.98584 33.0302 8.98584C27.8883 8.98584 23.0616 10.2203 18.6769 12.5625L18.6797 1.1271C18.6797 0.507111 18.1728 0.00564328 17.5461 0.00564328C16.9194 0.00564328 16.4125 0.507146 16.4125 1.1271V18.6628H14.524L14.5212 1.1271C14.5212 0.507111 14.0143 0.00564328 13.3876 0.00564328C12.7609 0.00564328 12.254 0.507146 12.254 1.1271V18.6628H10.4796V1.12146C10.4796 0.501468 9.9727 0 9.34602 0C8.71931 0 8.2124 0.501503 8.2124 1.12146V18.6657H6.44364V1.12146C6.44364 0.501468 5.9367 0 5.31002 0C4.68334 0 4.17639 0.501503 4.17639 1.12146V18.6657H2.27116V1.12146C2.27116 0.501468 1.76421 0 1.13753 0C0.510815 0 0.00390625 0.501503 0.00390625 1.12146V19.7788C0.00390625 19.8146 0.0122626 19.8504 0.0122626 19.8835C0.0679699 23.0661 2.60824 25.6535 5.79477 25.8161C3.74194 29.9356 2.69181 34.3664 2.69181 39.0009C2.69181 43.6357 3.78365 48.2622 5.92284 52.453V61.1938C5.92284 62.8719 7.29883 64.2331 8.98958 64.2331C10.6803 64.2331 12.0563 62.8719 12.0563 61.1938V60.6564C17.6745 65.9883 25.1702 69 33.036 69C40.9018 69 48.0745 66.1067 53.6507 60.9922V61.1906C53.6507 62.8687 55.0267 64.2299 56.7174 64.2299C58.4081 64.2299 59.7841 62.8604 59.7841 61.1906V53.1419C62.1295 48.8185 63.3717 43.9356 63.3717 38.9978C63.3717 34.6744 62.4163 30.384 60.6058 26.4986C64.2769 25.3275 66.0039 22.0127 66.0039 16.2286L65.9901 16.2383ZM4.95905 39.0067C4.95905 36.5296 5.28773 34.124 5.92282 31.7982V46.2174C5.28776 43.889 4.95905 41.4835 4.95905 39.0089V39.0067ZM9.78612 61.1996C9.78612 61.6377 9.42959 61.9959 8.98671 61.9959C8.54383 61.9959 8.1873 61.6432 8.1873 61.1996V24.7088C8.1873 24.0888 7.68035 23.5874 7.05367 23.5874H6.10665C4.38803 23.5874 2.92575 22.4576 2.44108 20.9062H16.2453C16.0586 21.4904 15.7383 22.0277 15.2815 22.4714C14.5545 23.1906 13.5907 23.5846 12.5657 23.5846H10.9112C10.2845 23.5846 9.77757 24.0861 9.77757 24.7061V61.1968L9.78612 61.1996ZM33.0334 66.7712C24.9972 66.7712 17.3738 63.3709 12.0537 57.4386V25.8356H12.5745C14.2012 25.8356 15.7332 25.2074 16.8947 24.0584C18.0506 22.9148 18.6913 21.3993 18.6913 19.7846C18.6913 19.7432 18.6829 19.7074 18.6773 19.6716V15.1636C22.9919 12.6038 27.9386 11.2343 33.0306 11.2343C38.1225 11.2343 43.0997 12.6093 47.448 15.1995C47.434 15.5439 47.4257 15.8911 47.4257 16.2356C47.4257 22.4355 49.4089 25.8002 53.6371 26.7257V57.8271C48.3393 63.5117 40.8519 66.7661 33.0225 66.7661L33.0334 66.7712ZM59.7789 47.4162V30.6134C60.6424 33.3137 61.0992 36.152 61.0992 39.0063C61.0992 41.8638 60.6508 44.7047 59.7789 47.4162ZM58.5032 24.6724C57.9322 24.7441 57.5116 25.2235 57.5116 25.7856V61.1964C57.5116 61.6401 57.1551 61.9927 56.7122 61.9927C56.2693 61.9927 55.9128 61.64 55.9128 61.1964V25.7856C55.9128 25.2208 55.4838 24.7413 54.9212 24.6724C52.211 24.3335 49.7014 23.0853 49.7014 16.235C49.7014 8.6519 52.9101 2.24821 56.7094 2.24821C60.5087 2.24821 63.7175 8.65197 63.7175 16.235C63.7175 23.0852 61.2078 24.3331 58.4976 24.6724H58.5032Z" fill="#CF9C5A"/>
<path d="M33.0324 22.1133C23.6207 22.1133 15.9609 29.688 15.9609 39.0015C15.9609 48.3121 23.6178 55.8953 33.0324 55.8953C42.4441 55.8953 50.1038 48.3206 50.1038 39.0015C50.1038 29.6823 42.4469 22.1133 33.0324 22.1133ZM33.0324 53.6528C24.8685 53.6528 18.2221 47.0782 18.2221 39.0015C18.2221 30.9252 24.868 24.3501 33.0324 24.3501C41.1967 24.3501 47.8427 30.9247 47.8427 39.0015C47.8427 47.0777 41.1967 53.6528 33.0324 53.6528Z" fill="#CF9C5A"/>
</svg>
