<svg width="66" height="66" viewBox="0 0 66 66" fill="none" xmlns="http://www.w3.org/2000/svg">
<path d="M33.0039 5.25109C40.6662 5.25109 47.6047 8.35763 52.6255 13.3784C57.6463 18.3992 60.7528 25.3377 60.7528 33C60.7528 40.6623 57.6463 47.6008 52.6255 52.6216C47.6047 57.6424 40.6662 60.7489 33.0039 60.7489C25.3416 60.7489 18.4031 57.6424 13.3823 52.6216C8.36153 47.6008 5.25499 40.6623 5.25499 33C5.25499 25.3377 8.36153 18.3992 13.3823 13.3784C18.4031 8.35763 25.3416 5.25109 33.0039 5.25109ZM33.0039 0C42.1162 0 50.3676 3.69472 56.3379 9.66597C62.3092 15.6363 66.0039 23.8877 66.0039 33C66.0039 42.1123 62.3092 50.3637 56.3379 56.334C50.3676 62.3053 42.1162 66 33.0039 66C23.8916 66 15.6402 62.3053 9.66988 56.334C3.69862 50.3637 0.00390625 42.1123 0.00390625 33C0.00390625 23.8877 3.69862 15.6363 9.66988 9.66597C15.6402 3.69472 23.8916 0 33.0039 0ZM54.747 11.2569C49.1841 5.69311 41.4953 2.24996 33.0039 2.24996C24.5125 2.24996 16.8237 5.69311 11.2608 11.2569C5.69701 16.8198 2.25387 24.5086 2.25387 33C2.25387 41.4914 5.69701 49.1802 11.2608 54.7431C16.8237 60.3069 24.5125 63.75 33.0039 63.75C41.4953 63.75 49.1841 60.3069 54.747 54.7431C60.3108 49.1802 63.7539 41.4914 63.7539 33C63.7539 24.5086 60.3108 16.8198 54.747 11.2569ZM14.1955 50.2175L14.7677 49.6453C15.2062 49.2068 15.9202 49.2068 16.3586 49.6453C16.7971 50.0838 16.7971 50.7977 16.3586 51.2362L15.7864 51.8084C20.064 55.7264 25.6853 58.2057 31.8789 58.4742V55.3402C31.8789 54.7192 32.3829 54.2152 33.0039 54.2152C33.6249 54.2152 34.1289 54.7192 34.1289 55.3402V58.4742C40.3225 58.2057 45.9438 55.7264 50.2214 51.8084L49.6474 51.2344C49.2089 50.7959 49.2089 50.082 49.6474 49.6435C50.0859 49.205 50.7999 49.205 51.2383 49.6435L51.8123 50.2175C55.7303 45.9399 58.2097 40.3186 58.4781 34.125H55.3441C54.7231 34.125 54.2191 33.621 54.2191 33C54.2191 32.379 54.7231 31.875 55.3441 31.875H58.4781C58.2097 25.6814 55.7303 20.0601 51.8123 15.7825L51.2383 16.3565C50.7999 16.795 50.0859 16.795 49.6474 16.3565C49.2089 15.918 49.2089 15.2041 49.6474 14.7656L50.2214 14.1916C45.9438 10.2736 40.3225 7.79425 34.1289 7.52585V10.6598C34.1289 11.2808 33.6249 11.7848 33.0039 11.7848C32.3829 11.7848 31.8789 11.2808 31.8789 10.6598V7.52585C25.6853 7.79425 20.064 10.2736 15.7864 14.1916L16.3604 14.7656C16.7989 15.2041 16.7989 15.918 16.3604 16.3565C15.9219 16.795 15.208 16.795 14.7695 16.3565L14.1955 15.7825C10.2775 20.0601 7.79816 25.6814 7.52976 31.875H10.6638C11.2847 31.875 11.7887 32.379 11.7887 33C11.7887 33.621 11.2847 34.125 10.6638 34.125H7.52976C7.79816 40.3186 10.2775 45.9399 14.1955 50.2175ZM28.3755 34.125H19.141C18.52 34.125 18.016 33.621 18.016 33C18.016 32.379 18.52 31.875 19.141 31.875H28.3755C28.5846 31.0114 29.0284 30.2398 29.6361 29.6321C30.4971 28.7711 31.6894 28.2379 33.0039 28.2379C34.3184 28.2379 35.5107 28.7711 36.3718 29.6321C37.2328 30.4932 37.766 31.6855 37.766 33C37.766 34.3145 37.2328 35.5068 36.3718 36.3679C35.7641 36.9755 34.9925 37.4193 34.1289 37.6284V43.5722C34.1289 44.1931 33.6249 44.6971 33.0039 44.6971C32.3829 44.6971 31.8789 44.1931 31.8789 43.5722V37.6284C31.0153 37.4193 30.2437 36.9755 29.6361 36.3679C29.0284 35.7602 28.5846 34.9886 28.3755 34.125ZM34.7808 31.2231C34.3273 30.7695 33.6975 30.4878 33.0039 30.4878C32.3103 30.4878 31.6805 30.7695 31.227 31.2231C30.7734 31.6766 30.4917 32.3064 30.4917 33C30.4917 33.6936 30.7734 34.3234 31.227 34.7769C31.6805 35.2305 32.3103 35.5122 33.0039 35.5122C33.6975 35.5122 34.3273 35.2305 34.7808 34.7769C35.2344 34.3234 35.5161 33.6936 35.5161 33C35.5161 32.3064 35.2344 31.6766 34.7808 31.2231Z" fill="#CF9C5A"/>
</svg>
