<svg width="66" height="47" viewBox="0 0 66 47" fill="none" xmlns="http://www.w3.org/2000/svg">
<path d="M15.7933 18.9067C21.0067 18.9067 25.2467 14.6667 25.2467 9.45333C25.2467 4.24 21 0 15.7933 0C10.58 0 6.33333 4.24 6.33333 9.45333C6.33333 14.6667 10.58 18.9067 15.7933 18.9067ZM15.7933 2.06667C19.8667 2.06667 23.18 5.38 23.18 9.45333C23.18 13.5267 19.8667 16.84 15.7933 16.84C11.72 16.84 8.40667 13.5267 8.40667 9.45333C8.40667 5.38 11.7133 2.06667 15.7933 2.06667ZM54.8667 24.0667H49.38C46.2 24.0667 43.14 25.4667 41.0333 27.8533C39.8667 27.3533 38.5867 27.0733 37.2467 27.0733H32.58C31.6533 27.0733 30.7667 27.2067 29.92 27.4533C27.68 23.54 23.4667 21.0533 18.94 21.0533H12.64C5.67333 21.0533 0 26.7267 0 33.6933V42.2867C0 44.5133 1.81333 46.3267 4.04 46.3267H62.3467C64.36 46.3267 66 44.6867 66 42.6733V35.2C66 29.06 61.0067 24.0667 54.8667 24.0667ZM37.2467 29.14C38.52 29.14 39.72 29.46 40.7733 30.0133C40.8133 30.04 40.8533 30.06 40.8933 30.08C43.2267 31.3667 44.8133 33.8533 44.8133 36.7V43.0667C44.8133 43.7267 44.2733 44.26 43.6133 44.26H40.1533V38.4733C40.1533 37.9 39.6933 37.44 39.12 37.44C38.5467 37.44 38.0867 37.9 38.0867 38.4733V44.26H31.7333V38.4733C31.7333 37.9 31.2733 37.44 30.7 37.44C30.1267 37.44 29.6667 37.9 29.6667 38.4733V44.26H26.2067C25.5467 44.26 25.0067 43.72 25.0067 43.0667V36.7C25.0067 33.5267 26.9733 30.8067 29.7533 29.6867H29.76C30.6267 29.34 31.58 29.14 32.5667 29.14H37.2467ZM2.06667 42.2867V33.6933C2.06667 27.86 6.81333 23.12 12.64 23.12H18.94C22.6333 23.12 26.08 25.1 27.9867 28.2467C24.9933 29.88 22.9533 33.06 22.9533 36.7067V43.0733C22.9533 43.4933 23.0333 43.9 23.18 44.2667H11.14V36.0933C11.14 35.52 10.68 35.06 10.1067 35.06C9.53333 35.06 9.07333 35.52 9.07333 36.0933V44.2667H4.04667C2.95333 44.2667 2.06667 43.38 2.06667 42.2867ZM63.9333 42.68C63.9333 43.5533 63.22 44.2667 62.3467 44.2667H58.1V37.2867C58.1 36.7133 57.64 36.2533 57.0667 36.2533C56.4933 36.2533 56.0333 36.7133 56.0333 37.2867V44.2667H46.6467C46.7933 43.8933 46.8733 43.4933 46.8733 43.0733V36.7C46.8733 33.4933 45.2933 30.6467 42.8733 28.9C44.58 27.1267 46.8933 26.1333 49.38 26.1333H54.8667C59.8667 26.1333 63.9333 30.2 63.9333 35.2V42.68ZM52.1267 22.4667C56.74 22.4667 60.4867 18.7133 60.4867 14.1067C60.4867 9.5 56.7333 5.74 52.1267 5.74C47.52 5.74 43.7667 9.49333 43.7667 14.1C43.7667 18.7067 47.5133 22.4667 52.1267 22.4667ZM52.1267 7.80667C55.6 7.80667 58.4267 10.6333 58.4267 14.1067C58.4267 17.58 55.6 20.4067 52.1267 20.4067C48.6533 20.4067 45.8333 17.58 45.8333 14.1067C45.8333 10.6333 48.6533 7.80667 52.1267 7.80667ZM34.9133 26.02C38.92 26.02 42.18 22.76 42.18 18.7533C42.18 14.7467 38.92 11.4867 34.9133 11.4867C30.9067 11.4867 27.6467 14.7467 27.6467 18.7533C27.6467 22.76 30.9067 26.02 34.9133 26.02ZM34.9133 13.5467C37.7867 13.5467 40.12 15.88 40.12 18.7533C40.12 21.6267 37.7867 23.96 34.9133 23.96C32.0467 23.96 29.7067 21.6267 29.7067 18.7533C29.7067 15.88 32.0467 13.5467 34.9133 13.5467Z" fill="#CF9C5A"/>
</svg>
