<svg width="26" height="21" viewBox="0 0 26 21" fill="none" xmlns="http://www.w3.org/2000/svg">
<path fill-rule="evenodd" clip-rule="evenodd" d="M0.669923 0.354783C0.18865 0.549329 0 2.35973 0 6.79033V12.9558L1.60782 13.5625C2.86352 14.0362 3.21563 14.4961 3.21563 15.6596C3.21563 17.3258 4.28054 17.6458 5.38725 16.3124C6.01805 15.5524 6.12631 15.5524 6.55185 16.3124C6.91789 16.9673 7.99245 17.15 11.4739 17.15C15.7544 17.15 16.0187 17.2229 18.2803 19.0204C19.5746 20.0494 20.8142 20.8936 21.0356 20.8962C21.2569 20.8994 21.4375 20.0736 21.4375 19.0612C21.4375 17.4523 21.6224 17.1999 22.9114 17.0514L24.3852 16.8821V10.4508V4.01953L21.5715 3.85768C19.8571 3.75906 18.7578 3.91609 18.7578 4.25963C18.7578 4.57048 19.8394 4.82344 21.1696 4.82344H23.5813V10.4154V16.0069L22.1075 16.1768C20.9455 16.3102 20.5972 16.6612 20.4627 17.8355L20.2917 19.3249L18.2417 17.7015C16.3493 16.2025 15.8654 16.0781 11.937 16.0781C7.42543 16.0781 6.61187 15.8123 7.57335 14.6536C7.96565 14.1809 9.42073 13.9344 11.8212 13.9344C13.8294 13.9344 16.091 13.6991 16.8472 13.4119C18.2123 12.8925 18.2219 12.8454 18.2219 6.76997C18.2219 1.68445 18.0788 0.59542 17.3741 0.325307C16.3665 -0.0611049 1.63676 -0.0353798 0.669923 0.354783ZM1.18764 6.83321L1.33985 12.5945L2.81368 12.7639C3.9713 12.8974 4.28751 13.2136 4.28751 14.2377C4.28751 15.8911 4.84917 15.8868 6.4125 14.2222C7.516 13.0479 8.16234 12.885 12.2676 12.7484L16.8821 12.5945L17.0343 6.83321L17.1865 1.07187H9.11095H1.03543L1.18764 6.83321ZM3.4836 3.75156C3.2703 4.09671 5.26452 4.2875 9.07933 4.2875C12.6733 4.2875 15.0063 4.07634 15.0063 3.75156C15.0063 3.42839 12.7837 3.21562 9.41054 3.21562C6.25815 3.21562 3.67011 3.44983 3.4836 3.75156ZM3.4836 6.43125C3.2703 6.7764 5.26452 6.96719 9.07933 6.96719C12.6733 6.96719 15.0063 6.75603 15.0063 6.43125C15.0063 6.10808 12.7837 5.89532 9.41054 5.89532C6.25815 5.89532 3.67011 6.12952 3.4836 6.43125ZM3.4836 9.64688C3.67011 9.94862 6.25815 10.1828 9.41054 10.1828C12.7837 10.1828 15.0063 9.97005 15.0063 9.64688C15.0063 9.32211 12.6733 9.11095 9.07933 9.11095C5.26452 9.11095 3.2703 9.30174 3.4836 9.64688Z" fill="#CF9C5A"/>
</svg>
