<svg width="24" height="24" viewBox="0 0 24 24" fill="none" xmlns="http://www.w3.org/2000/svg">
<g clip-path="url(#clip0_1222_9185)">
<path d="M8.07953 5.78125C7.17733 5.78125 6.52207 6.32191 6.52207 7.06551C6.52207 7.81171 7.19293 8.37617 8.07953 8.37617C8.98173 8.37617 9.63699 7.82507 9.63699 7.05027C9.59539 6.30407 8.95313 5.78125 8.07953 5.78125ZM6.77953 8.89871C6.63653 8.89871 6.51953 9.01571 6.51953 9.15871V16.6987C6.51953 16.8417 6.63653 16.9587 6.77953 16.9587H9.37953C9.52253 16.9587 9.63953 16.8417 9.63953 16.6987V9.15871C9.63953 9.01571 9.52253 8.89871 9.37953 8.89871H6.77953ZM10.6795 8.89871C10.5365 8.89871 10.4195 9.01571 10.4195 9.15871V16.6987C10.4195 16.8417 10.5365 16.9587 10.6795 16.9587H13.0195C13.1631 16.9587 13.2795 16.8422 13.2795 16.6987V12.7987V12.7337V12.6687C13.2795 12.0525 13.7529 11.5506 14.3561 11.5038C14.3873 11.4986 14.4183 11.4987 14.4495 11.4987C14.4807 11.4987 14.5118 11.4986 14.543 11.5038C15.1462 11.5506 15.6195 12.0525 15.6195 12.6687V16.6987C15.6195 16.8422 15.736 16.9587 15.8795 16.9587H18.2195C18.3625 16.9587 18.4795 16.8417 18.4795 16.6987V12.2787C18.4795 10.5965 17.5771 8.89871 15.5647 8.89871C14.6495 8.89871 13.9581 9.25237 13.5395 9.54617V9.15871C13.5395 9.01571 13.4225 8.89871 13.2795 8.89871H10.6795Z" fill="white"/>
</g>
<path d="M15 22.0004H9C4 22.0004 2 20.0004 2 15.0004V9.00037C2 4.00037 4 2.00037 9 2.00037H15C20 2.00037 22 4.00037 22 9.00037V15.0004C22 20.0004 20 22.0004 15 22.0004Z" stroke="white" stroke-width="1.5" stroke-linecap="round" stroke-linejoin="round"/>
<defs>
<clipPath id="clip0_1222_9185">
<rect width="13" height="13" fill="white" transform="translate(6 5)"/>
</clipPath>
</defs>
</svg>
