<svg width="66" height="66" viewBox="0 0 66 66" fill="none" xmlns="http://www.w3.org/2000/svg">
<path d="M62.5348 58.7064H61.8817V41.2495C61.8817 40.6795 61.4205 40.2183 60.8505 40.2183C60.2805 40.2183 59.8193 40.6795 59.8193 41.2495V58.7064H58.7881V2.57809C58.7881 2.2945 59.0201 2.06248 59.3037 2.06248C59.5873 2.06248 59.8193 2.29451 59.8193 2.57809V37.4545C59.8193 38.0246 60.2805 38.4857 60.8505 38.4857C61.4206 38.4857 61.8818 38.0246 61.8818 37.4545V2.57809C61.8818 1.15727 60.7245 0 59.3037 0C57.8828 0 56.7256 1.15727 56.7256 2.57809V6.0213H53.6863V5.13331C53.6863 3.2312 52.1365 1.68153 50.2345 1.68153H33.7316C31.8295 1.68153 30.2799 3.23127 30.2799 5.13331V8.00078C30.2799 8.57082 30.741 9.03199 31.3111 9.03199C31.8811 9.03199 32.3423 8.57079 32.3423 8.00078V5.13331C32.3423 4.36559 32.9667 3.74402 33.7316 3.74402H50.2344C51.0021 3.74402 51.6237 4.36849 51.6237 5.13331V21.6362C51.6237 22.4039 50.9992 23.0255 50.2344 23.0255H33.7316C32.9638 23.0255 32.3423 22.401 32.3423 21.6362V13.3862C32.3423 12.8162 31.8811 12.355 31.3111 12.355C30.741 12.355 30.2799 12.8162 30.2799 13.3862V21.6362C30.2799 23.5383 31.8296 25.088 33.7316 25.088H50.2345C52.1366 25.088 53.6863 23.5382 53.6863 21.6362V20.7482H56.7256V58.7068H56.0753C54.1589 58.7068 52.6006 60.2651 52.6006 62.1787V63.9375H47.3383C47.6534 63.5136 47.8482 62.995 47.8482 62.4279V56.5183C48.6102 55.3066 49.057 53.88 49.057 52.3474V47.2056C49.057 45.7847 48.7104 44.3983 48.0687 43.1522H51.5721C52.7093 43.1522 53.6317 42.2298 53.6317 41.0926V38.483C53.6317 37.3457 52.7093 36.4233 51.5721 36.4233H49.2518C47.8567 36.4233 46.6278 37.1223 45.8801 38.185L44.233 33.4442C44.2129 33.3898 44.19 33.3353 44.1614 33.2838C42.3739 30.0496 38.9708 28.0416 35.2785 28.0416H18.3606C16.9713 28.0416 15.6221 28.3195 14.3473 28.8695C13.8231 29.0958 13.5825 29.7002 13.8088 30.2245C14.0322 30.7458 14.6395 30.9836 15.1638 30.763C16.1807 30.3247 17.2549 30.1041 18.3635 30.1041H35.2814C38.1947 30.1041 40.8845 31.6739 42.3197 34.2062L44.7116 41.0898L19.804 41.0927C19.234 41.0927 18.7728 41.5539 18.7728 42.1239C18.7728 42.6939 19.234 43.1551 19.804 43.1551H45.6598C46.522 44.3239 46.9947 45.7475 46.9947 47.2084V52.3503C46.9947 55.5529 44.3908 58.1568 41.1882 58.1568L12.4504 58.1539C9.24784 58.1539 6.64393 55.55 6.64393 52.3474V47.2056C6.64393 45.7446 7.11658 44.3209 7.97881 43.1522H15.6274C16.1975 43.1522 16.6586 42.691 16.6586 42.121C16.6586 41.551 16.1975 41.0898 15.6274 41.0898H8.93008L11.322 34.2062C11.6514 33.6247 12.0496 33.0862 12.5108 32.6049C12.9032 32.1924 12.8889 31.5393 12.4793 31.1469C12.0668 30.7516 11.4137 30.7687 11.0212 31.1784C10.4168 31.8086 9.89832 32.519 9.47431 33.2838C9.44567 33.3354 9.42275 33.3898 9.4027 33.4443L7.75556 38.1851C7.00793 37.1223 5.77902 36.4234 4.38393 36.4234H2.0636C0.929215 36.4234 0.00397234 37.3458 0.00397234 38.483V41.0927C0.00397234 42.2299 0.929215 43.1523 2.0636 43.1523H5.56694C4.92814 44.3984 4.57863 45.7877 4.57863 47.2056V52.3475C4.57863 53.88 5.02551 55.3067 5.78745 56.5183V62.428C5.78745 62.9951 5.98225 63.5137 6.29735 63.9376H1.03512C0.465068 63.9376 0.00390625 64.3988 0.00390625 64.9688C0.00390625 65.5388 0.465105 66 1.03512 66H64.9727C65.5427 66 66.0039 65.5388 66.0039 64.9688V62.1787C66.0039 60.2651 64.4456 58.7068 62.532 58.7068L62.5348 58.7064ZM53.6865 11.1779H56.7258V15.5921H53.6865V11.1779ZM56.7258 8.08408V9.11529H53.6865V8.08408H56.7258ZM53.6865 18.6858V17.6546H56.7258V18.6858H53.6865ZM47.1896 40.5508C47.1896 39.4136 48.1149 38.4883 49.2521 38.4883L51.5696 38.4855L51.5724 41.0922H47.1896L47.1896 40.5508ZM45.786 58.7205V62.4273C45.786 62.6908 45.5711 62.9057 45.3076 62.9057H41.0394C40.7758 62.9057 40.561 62.6908 40.561 62.4273V60.2159H41.1883C42.9042 60.2159 44.4912 59.6573 45.786 58.7205ZM12.451 60.2159H13.0783V62.4273C13.0783 62.6908 12.8635 62.9057 12.5999 62.9057H8.33173C8.06819 62.9057 7.85335 62.6908 7.85335 62.4273V58.7205C9.14812 59.6572 10.7351 60.2159 12.451 60.2159ZM2.06701 38.488H4.38734C5.52459 38.488 6.45269 39.4133 6.45269 40.5505V41.0891L2.06987 41.0919L2.06701 38.4851L2.06701 38.488ZM15.1411 62.4274V60.216H38.4991V62.4274C38.4991 62.9946 38.6911 63.5131 39.009 63.9371H14.6346C14.9497 63.5131 15.1445 62.9946 15.1445 62.4274H15.1411ZM63.945 63.9371H54.6639V62.1783C54.6639 61.4019 55.297 60.7689 56.0762 60.7689H62.5358C63.3121 60.7689 63.9452 61.4019 63.9452 62.1783L63.945 63.9371Z" fill="#CF9C5A"/>
<path d="M40.4904 18.7456V16.2792H43.0742C46.0362 16.2792 48.4452 13.8701 48.4452 10.9082C48.4452 7.94625 46.0361 5.53711 43.0742 5.53711H38.001C36.6289 5.53711 35.5117 6.65426 35.5117 8.0264V18.7455C35.5117 20.1176 36.6289 21.2348 38.001 21.2348C39.3731 21.2348 40.4904 20.1178 40.4904 18.7456ZM37.5742 18.7456V8.02655C37.5742 7.79165 37.7661 7.59973 38.001 7.59973H43.0742C44.8989 7.59973 46.3828 9.08355 46.3828 10.9083C46.3828 12.733 44.8989 14.2169 43.0742 14.2169H39.4591C38.8891 14.2169 38.4279 14.6781 38.4279 15.2481V18.7457C38.4279 18.9806 38.236 19.1725 38.0011 19.1725C37.7662 19.1725 37.5742 18.9805 37.5742 18.7456Z" fill="#CF9C5A"/>
<path d="M39.4609 13.3631H43.076C44.431 13.3631 45.531 12.2602 45.531 10.9081C45.531 9.55312 44.4281 8.45312 43.076 8.45312H39.4609C38.8908 8.45312 38.4297 8.91432 38.4297 9.48433V12.3346C38.4297 12.9046 38.8909 13.3658 39.4609 13.3658V13.3631ZM40.4921 10.5157H43.0759C43.2936 10.5157 43.4684 10.6933 43.4684 10.9081C43.4684 11.1258 43.2908 11.3006 43.0759 11.3006H40.4921V10.5128V10.5157Z" fill="#CF9C5A"/>
<path d="M9.28046 45.6819C8.82213 45.6131 8.35236 45.7449 7.99713 46.0486C7.64192 46.3522 7.44141 46.7962 7.44141 47.2602V50.5488C7.44141 51.4311 8.15755 52.1472 9.03985 52.1472H16.7281C17.6103 52.1472 18.3265 51.4311 18.3265 50.5488C18.3265 48.535 16.8799 46.8477 14.889 46.5413L9.28023 45.679L9.28046 45.6819ZM16.2098 50.0847H9.5039V47.8017L14.5742 48.5808C15.3935 48.7069 16.0265 49.3084 16.2098 50.0847Z" fill="#CF9C5A"/>
<path d="M44.5955 52.1453C45.4778 52.1453 46.1939 51.4291 46.1939 50.5468V47.2583C46.1939 46.7914 45.9905 46.3502 45.6382 46.0466C45.2859 45.743 44.8161 45.6112 44.3549 45.6799L38.7461 46.5422C36.7552 46.8487 35.3086 48.533 35.3086 50.5497C35.3086 51.432 36.0247 52.1481 36.907 52.1481H44.5953L44.5955 52.1453ZM39.0611 48.5789L44.1343 47.7997V50.0828H37.4284C37.6117 49.3065 38.2419 48.7049 39.0641 48.5789H39.0611Z" fill="#CF9C5A"/>
<path d="M32.573 48.7129H21.0664C20.4963 48.7129 20.0352 49.1741 20.0352 49.7441C20.0352 50.3141 20.4964 50.7753 21.0664 50.7753H32.573C33.1431 50.7753 33.6043 50.3141 33.6043 49.7441C33.6043 49.1741 33.1431 48.7129 32.573 48.7129Z" fill="#CF9C5A"/>
<path d="M32.5757 52.7793H25.5976C25.0276 52.7793 24.5664 53.2405 24.5664 53.8105C24.5664 54.3805 25.0276 54.8417 25.5976 54.8417H32.5757C33.1457 54.8417 33.6069 54.3805 33.6069 53.8105C33.6069 53.2405 33.1457 52.7793 32.5757 52.7793Z" fill="#CF9C5A"/>
<path d="M21.0664 54.8417H22.1405C22.7106 54.8417 23.1718 54.3805 23.1718 53.8105C23.1718 53.2405 22.7106 52.7793 22.1405 52.7793H21.0664C20.4963 52.7793 20.0352 53.2405 20.0352 53.8105C20.0352 54.3805 20.4964 54.8417 21.0664 54.8417Z" fill="#CF9C5A"/>
</svg>
