<svg width="34" height="34" viewBox="0 0 34 34" fill="none" xmlns="http://www.w3.org/2000/svg">
<g clip-path="url(#clip0_164_11217)">
<path d="M1.13481 34H32.8681C33.1687 34 33.457 33.8806 33.6695 33.668C33.8821 33.4555 34.0015 33.1672 34.0015 32.8666V31.7333C34 31.383 33.8904 31.0416 33.6875 30.756C33.4846 30.4703 33.1985 30.2543 32.8681 30.1376V28.9C32.8676 28.6135 32.7946 28.3319 32.6559 28.0813C32.5172 27.8307 32.3173 27.6194 32.0748 27.4669C32.2217 27.2135 32.2998 26.9262 32.3015 26.6333C32.304 26.4136 32.2623 26.1957 32.1791 25.9923C32.0959 25.789 31.9728 25.6044 31.817 25.4495C31.7898 25.4201 31.7603 25.3929 31.7348 25.3685V15.4331C31.9878 15.2099 32.1675 14.9154 32.2503 14.5883C32.3331 14.2612 32.3152 13.9167 32.1989 13.6H32.8681C33.1687 13.6 33.457 13.4806 33.6695 13.268C33.8821 13.0555 34.0015 12.7672 34.0015 12.4666V11.3333C34.0005 11.0908 33.921 10.8552 33.7748 10.6618C33.856 10.5326 33.9166 10.3915 33.9544 10.2436C34.0368 9.93237 34.0113 9.60243 33.8821 9.30752C33.753 9.01262 33.5278 8.77012 33.2433 8.61954L17.6939 0.175637C17.4814 0.0601764 17.2434 -0.000305176 17.0015 -0.000305176C16.7596 -0.000305176 16.5216 0.0601764 16.309 0.175637L0.758546 8.61954C0.473996 8.77012 0.248815 9.01262 0.119679 9.30752C-0.00945777 9.60243 -0.0349411 9.93237 0.0473794 10.2436C0.0851813 10.3915 0.145785 10.5326 0.227013 10.6618C0.0812231 10.8554 0.00209215 11.091 0.00147938 11.3333V12.4666C0.00147938 12.7672 0.120884 13.0555 0.333425 13.268C0.545966 13.4806 0.834234 13.6 1.13481 13.6H1.80575C1.73863 13.7814 1.70336 13.9732 1.70148 14.1666C1.6992 14.3863 1.74089 14.6042 1.8241 14.8075C1.90731 15.0108 2.03035 15.1954 2.18598 15.3504C2.21194 15.3788 2.23937 15.4059 2.26815 15.4314V25.3668C1.97781 25.624 1.78533 25.9736 1.72337 26.3565C1.6614 26.7393 1.73375 27.1318 1.92815 27.4674C1.68599 27.6201 1.48631 27.8315 1.34763 28.0819C1.20894 28.3323 1.13574 28.6137 1.13481 28.9V30.1376C0.804498 30.2543 0.518331 30.4703 0.315462 30.756C0.112594 31.0416 0.00293173 31.383 0.00147938 31.7333V32.8666C0.00147938 33.1672 0.120884 33.4555 0.333425 33.668C0.545966 33.8806 0.834234 34 1.13481 34ZM2.26815 28.9C2.26815 28.7497 2.32785 28.6055 2.43412 28.4993C2.54039 28.393 2.68452 28.3333 2.83481 28.3333H31.1681C31.3184 28.3333 31.4626 28.393 31.5688 28.4993C31.6751 28.6055 31.7348 28.7497 31.7348 28.9V30.0333H2.26815V28.9ZM8.01698 25.4495C7.98978 25.4201 7.96031 25.3929 7.93481 25.3685V15.4331C8.1878 15.2099 8.36747 14.9154 8.45028 14.5883C8.53309 14.2612 8.51519 13.9167 8.39891 13.6H13.7057C13.6386 13.7814 13.6034 13.9732 13.6015 14.1666C13.5992 14.3863 13.6409 14.6042 13.7241 14.8075C13.8073 15.0108 13.9304 15.1954 14.086 15.3504C14.1119 15.3788 14.1394 15.4059 14.1681 15.4314V25.3668C13.9152 25.5901 13.7355 25.8845 13.6527 26.2116C13.5699 26.5387 13.5878 26.8832 13.704 27.2H8.39721C8.46433 27.0185 8.4996 26.8268 8.50148 26.6333C8.50395 26.4136 8.46235 26.1957 8.37913 25.9923C8.29591 25.789 8.17277 25.6044 8.01698 25.4495ZM25.986 15.3504C26.0119 15.3788 26.0394 15.4059 26.0681 15.4314V25.3668C25.8152 25.5901 25.6355 25.8845 25.5527 26.2116C25.4699 26.5387 25.4878 26.8832 25.604 27.2H20.2972C20.3643 27.0185 20.3996 26.8268 20.4015 26.6333C20.404 26.4136 20.3623 26.1957 20.2791 25.9923C20.1959 25.789 20.0728 25.6044 19.917 25.4495C19.8898 25.4201 19.8603 25.3929 19.8348 25.3685V15.4331C20.0878 15.2099 20.2675 14.9154 20.3503 14.5883C20.4331 14.2612 20.4152 13.9167 20.2989 13.6H25.6057C25.5386 13.7814 25.5034 13.9732 25.5015 14.1666C25.4992 14.3863 25.5409 14.6042 25.6241 14.8075C25.7073 15.0108 25.8304 15.1954 25.986 15.3504ZM19.1055 13.7734C19.1575 13.8247 19.1987 13.886 19.2267 13.9535C19.2546 14.0211 19.2687 14.0935 19.2681 14.1666C19.2681 14.2661 19.242 14.3638 19.1922 14.45C19.1425 14.5361 19.071 14.6076 18.9848 14.6574C18.8988 14.707 18.8274 14.7784 18.7777 14.8643C18.728 14.9502 18.7017 15.0477 18.7015 15.147V25.653C18.7015 25.7505 18.7267 25.8465 18.7746 25.9314C18.8226 26.0164 18.8917 26.0876 18.9752 26.138C19.0235 26.1655 19.0674 26.2001 19.1055 26.2406C19.1576 26.2918 19.1989 26.3529 19.2268 26.4204C19.2548 26.4879 19.2688 26.5603 19.2681 26.6333C19.2681 26.7836 19.2084 26.9277 19.1022 27.034C18.9959 27.1403 18.8518 27.2 18.7015 27.2H15.3015C15.2258 27.2001 15.1509 27.1848 15.0814 27.1548C15.012 27.1249 14.9493 27.0811 14.8974 27.026C14.8453 26.9748 14.8041 26.9137 14.7761 26.8462C14.7482 26.7787 14.7341 26.7063 14.7348 26.6333C14.7347 26.5337 14.7609 26.4359 14.8106 26.3497C14.8603 26.2634 14.9319 26.1918 15.0181 26.142C15.104 26.0924 15.1754 26.0211 15.2251 25.9353C15.2749 25.8495 15.3012 25.7521 15.3015 25.653V15.147C15.3014 15.049 15.276 14.9527 15.2276 14.8675C15.1793 14.7823 15.1096 14.711 15.0255 14.6608C14.9388 14.6102 14.8664 14.5383 14.8155 14.4517C14.7646 14.3652 14.7368 14.267 14.7348 14.1666C14.7348 14.0163 14.7945 13.8722 14.9008 13.7659C15.0071 13.6597 15.1512 13.6 15.3015 13.6H18.7015C18.7771 13.5997 18.852 13.615 18.9215 13.6448C18.991 13.6746 19.0536 13.7184 19.1055 13.7734ZM31.0055 13.7734C31.0575 13.8247 31.0987 13.886 31.1267 13.9535C31.1546 14.0211 31.1687 14.0935 31.1681 14.1666C31.1681 14.2661 31.142 14.3638 31.0922 14.45C31.0425 14.5361 30.971 14.6076 30.8848 14.6574C30.7988 14.707 30.7274 14.7784 30.6777 14.8643C30.628 14.9502 30.6017 15.0477 30.6015 15.147V25.653C30.6015 25.7505 30.6267 25.8465 30.6746 25.9314C30.7226 26.0164 30.7917 26.0876 30.8752 26.138C30.9235 26.1655 30.9674 26.2001 31.0055 26.2406C31.0576 26.2918 31.0989 26.3529 31.1268 26.4204C31.1548 26.4879 31.1688 26.5603 31.1681 26.6333C31.1681 26.7836 31.1084 26.9277 31.0022 27.034C30.8959 27.1403 30.7518 27.2 30.6015 27.2H27.2015C27.1258 27.2001 27.0509 27.1848 26.9814 27.1548C26.912 27.1249 26.8493 27.0811 26.7974 27.026C26.7453 26.9748 26.7041 26.9137 26.6761 26.8462C26.6482 26.7787 26.6341 26.7063 26.6348 26.6333C26.635 26.5335 26.6616 26.4354 26.7118 26.3492C26.7621 26.2629 26.8342 26.1914 26.921 26.142C27.0063 26.0921 27.0772 26.0206 27.1264 25.9348C27.1756 25.8491 27.2015 25.7519 27.2015 25.653V15.147C27.2014 15.049 27.176 14.9527 27.1276 14.8675C27.0793 14.7823 27.0096 14.711 26.9255 14.6608C26.8388 14.6102 26.7664 14.5383 26.7155 14.4517C26.6646 14.3652 26.6368 14.267 26.6348 14.1666C26.6348 14.0163 26.6945 13.8722 26.8008 13.7659C26.9071 13.6597 27.0512 13.6 27.2015 13.6H30.6015C30.6771 13.5997 30.752 13.615 30.8215 13.6448C30.891 13.6746 30.9536 13.7184 31.0055 13.7734ZM1.29971 9.61574L16.8496 1.1724C16.8962 1.14701 16.9484 1.1337 17.0015 1.1337C17.0545 1.1337 17.1068 1.14701 17.1533 1.1724L32.7032 9.61574C32.7663 9.6459 32.8164 9.69763 32.8445 9.76156C32.8727 9.82548 32.8771 9.89738 32.8568 9.96424C32.8423 10.0335 32.8036 10.0953 32.7476 10.1385C32.6916 10.1817 32.622 10.2035 32.5514 10.2H1.45158C1.38094 10.2035 1.31135 10.1817 1.25536 10.1385C1.19936 10.0953 1.16064 10.0335 1.14615 9.96424C1.12589 9.89738 1.13025 9.82548 1.15841 9.76156C1.18658 9.69763 1.23671 9.6459 1.29971 9.61574ZM1.13481 11.3333H32.8681V12.4666H1.13481V11.3333ZM6.80148 13.6C6.8771 13.5997 6.95197 13.615 7.02147 13.6448C7.09096 13.6746 7.1536 13.7184 7.20551 13.7734C7.25753 13.8247 7.29872 13.886 7.32666 13.9535C7.35459 14.0211 7.3687 14.0935 7.36815 14.1666C7.36814 14.2661 7.34196 14.3638 7.29222 14.45C7.24249 14.5361 7.17096 14.6076 7.08481 14.6574C6.99884 14.707 6.92741 14.7784 6.87769 14.8643C6.82796 14.9502 6.80168 15.0477 6.80148 15.147V25.653C6.80148 25.7505 6.82667 25.8465 6.87462 25.9314C6.92257 26.0164 6.99166 26.0876 7.07518 26.138C7.1235 26.1655 7.16743 26.2001 7.20551 26.2406C7.25762 26.2918 7.29887 26.3529 7.32682 26.4204C7.35476 26.4879 7.36882 26.5603 7.36815 26.6333C7.36815 26.7836 7.30844 26.9277 7.20217 27.034C7.0959 27.1403 6.95177 27.2 6.80148 27.2H3.40148C3.32582 27.2001 3.25093 27.1848 3.18144 27.1548C3.11195 27.1249 3.04933 27.0811 2.99745 27.026C2.94534 26.9748 2.90409 26.9137 2.87614 26.8462C2.8482 26.7787 2.83414 26.7063 2.83481 26.6333C2.83472 26.5337 2.86085 26.4359 2.91059 26.3497C2.96033 26.2634 3.03192 26.1918 3.11815 26.142C3.20404 26.0924 3.27541 26.0211 3.32513 25.9353C3.37485 25.8495 3.40118 25.7521 3.40148 25.653V15.147C3.40144 15.049 3.376 14.9527 3.32763 14.8675C3.27926 14.7823 3.20962 14.711 3.12551 14.6608C3.03875 14.6102 2.96644 14.5383 2.91553 14.4517C2.86462 14.3652 2.83682 14.267 2.83481 14.1666C2.83481 14.0163 2.89452 13.8722 3.00079 13.7659C3.10706 13.6597 3.25119 13.6 3.40148 13.6H6.80148ZM1.13481 31.7333C1.13481 31.583 1.19451 31.4389 1.30079 31.3326C1.40706 31.2263 1.55119 31.1666 1.70148 31.1666H32.3015C32.4518 31.1666 32.5959 31.2263 32.7022 31.3326C32.8084 31.4389 32.8681 31.583 32.8681 31.7333V32.8666H1.13481V31.7333Z" fill="#CF9C5A"/>
<path d="M17.0052 9.06663C17.5656 9.06663 18.1134 8.90046 18.5793 8.58913C19.0453 8.2778 19.4084 7.83529 19.6229 7.31757C19.8373 6.79984 19.8934 6.23015 19.7841 5.68054C19.6748 5.13093 19.4049 4.62608 19.0087 4.22983C18.6124 3.83358 18.1076 3.56373 17.558 3.45441C17.0084 3.34508 16.4387 3.40119 15.9209 3.61564C15.4032 3.83009 14.9607 4.19324 14.6494 4.65918C14.338 5.12512 14.1719 5.67292 14.1719 6.2333C14.1728 6.98447 14.4716 7.70462 15.0027 8.23577C15.5339 8.76693 16.254 9.06573 17.0052 9.06663ZM17.0052 4.5333C17.3414 4.5333 17.6701 4.633 17.9497 4.8198C18.2292 5.0066 18.4471 5.2721 18.5758 5.58274C18.7045 5.89337 18.7381 6.23518 18.6725 6.56495C18.6069 6.89472 18.445 7.19763 18.2073 7.43538C17.9695 7.67313 17.6666 7.83504 17.3369 7.90063C17.0071 7.96623 16.6653 7.93256 16.3546 7.80389C16.044 7.67522 15.7785 7.45733 15.5917 7.17777C15.4049 6.8982 15.3052 6.56953 15.3052 6.2333C15.3052 5.78243 15.4843 5.35003 15.8031 5.03122C16.1219 4.7124 16.5543 4.5333 17.0052 4.5333Z" fill="#CF9C5A"/>
</g>
<defs>
<clipPath id="clip0_164_11217">
<rect width="34" height="34" fill="white"/>
</clipPath>
</defs>
</svg>
