<svg width="34" height="34" viewBox="0 0 34 34" fill="none" xmlns="http://www.w3.org/2000/svg">
<g clip-path="url(#clip0_164_11239)">
<path d="M23.3678 34C23.0762 34 22.7905 33.8878 22.5673 33.6719C22.2107 33.3269 22.1147 32.8125 22.3228 32.3613C22.6231 31.7104 22.8419 31.0825 22.973 30.4949C23.0331 30.226 23.2998 30.0563 23.5687 30.1166C23.6326 30.1309 23.6932 30.1576 23.7468 30.1953C23.8004 30.233 23.8461 30.2808 23.8812 30.3361C23.9164 30.3915 23.9403 30.4532 23.9515 30.5177C23.9628 30.5823 23.9613 30.6484 23.947 30.7124C23.8004 31.3689 23.5589 32.0643 23.229 32.7794C23.191 32.8617 23.2255 32.92 23.2611 32.9545C23.2983 32.9905 23.3605 33.0245 23.4452 32.9819C25.3378 32.031 26.5631 30.6226 27.0872 28.796C27.4833 27.4156 27.3127 26.2951 27.311 26.2839C27.2986 26.206 27.3048 26.1262 27.3291 26.0511C27.3534 25.976 27.3951 25.9076 27.4507 25.8517L29.6844 23.6164C29.7527 23.5481 29.8393 23.5011 29.9337 23.481C30.0281 23.461 30.1264 23.4688 30.2165 23.5034C31.1694 23.8686 32.6922 24.1419 32.9526 23.6809C33.2207 23.2063 32.2913 22.0621 31.5173 21.4187C31.4384 21.3532 31.3817 21.2649 31.3547 21.166C31.3277 21.067 31.3318 20.9622 31.3665 20.8656C32.0517 18.9636 32.2988 17.1102 32.101 15.3568C31.9435 13.9602 31.5047 12.62 30.7966 11.3735C29.589 9.24734 28.0159 8.13178 28.0002 8.12076C27.9086 8.05662 27.8412 7.96359 27.8088 7.85657C27.7763 7.74954 27.7808 7.63473 27.8214 7.53054C27.8521 7.45198 28.5997 5.59552 30.9917 4.71086C32.6699 4.09023 32.928 3.60852 32.9672 3.4757C32.9779 3.43951 33.0001 3.36414 32.8964 3.22582C32.7199 2.99027 31.4073 2.03236 29.2211 1.63472C28.9499 1.58538 28.7701 1.3256 28.8194 1.05447C28.8686 0.783329 29.1282 0.603501 29.3995 0.652841C31.6234 1.05732 33.2773 2.07015 33.695 2.62723C34.0289 3.07275 34.004 3.48799 33.9245 3.75793C33.7169 4.46217 32.8708 5.08001 31.3379 5.64692C29.9204 6.1712 29.2108 7.08555 28.9185 7.57184C29.4964 8.04977 30.6864 9.15875 31.6643 10.8805C32.8533 12.9737 33.9297 16.3915 32.4169 20.884C32.6315 21.0838 32.9452 21.3962 33.2341 21.7602C33.9897 22.7127 34.1873 23.5241 33.8215 24.1717C33.4514 24.8271 32.6362 25.0553 31.3988 24.8503C30.9104 24.7693 30.4561 24.637 30.1689 24.5434L28.326 26.3875C28.3643 26.8446 28.3899 27.8455 28.0595 29.0249C27.6498 30.4878 26.5944 32.5166 23.8932 33.8737C23.7304 33.9563 23.5504 33.9996 23.3678 34ZM27.324 0.464247L27.2845 0.464181C25.304 0.464181 23.2817 0.943302 21.2735 1.88806C21.1766 1.83959 21.0776 1.79091 20.9756 1.7423C19.3098 0.947485 16.6155 8.92388e-07 13.2407 8.92388e-07H2.36716C1.97697 -0.000338192 1.59278 0.0959602 1.24888 0.280296C0.90498 0.464633 0.612087 0.731268 0.396355 1.05639C-0.0421924 1.71527 -0.122013 2.54363 0.182858 3.27237C1.00005 5.22584 2.19344 7.00247 3.72995 8.55286C3.81944 8.64314 3.94002 8.69587 4.06706 8.70029C4.19411 8.7047 4.31805 8.66048 4.4136 8.57663C6.02555 7.16138 8.06521 6.96177 9.61361 7.0821C7.77947 7.7439 6.48368 8.87407 5.7726 9.62486C5.72399 9.67624 5.68685 9.73737 5.66365 9.80419C5.64044 9.87101 5.6317 9.942 5.63801 10.0125C5.64431 10.0829 5.66551 10.1512 5.70021 10.2129C5.73491 10.2745 5.78231 10.3281 5.83928 10.37C7.12437 11.3154 8.55848 12.1154 10.1335 12.7676C10.5556 13.628 11.1788 14.7958 11.8838 15.7849C12.844 17.1321 13.7041 17.7907 14.5064 17.7907C14.5661 17.7907 14.6256 17.787 14.6847 17.7797C14.9494 17.7471 15.1791 17.6112 15.3491 17.3869C15.8167 16.7695 15.7721 15.4773 15.6357 14.3445C16.2827 14.4597 16.933 14.5557 17.5857 14.6322C18.1225 15.277 18.7538 15.8547 19.4754 16.3593C19.559 16.418 19.6587 16.4495 19.7609 16.4494C19.8671 16.4495 19.9705 16.4157 20.0562 16.353C20.1418 16.2902 20.2052 16.2018 20.2372 16.1005C20.2691 15.9992 20.2679 15.8904 20.2338 15.7899C20.1996 15.6893 20.1343 15.6023 20.0473 15.5415C17.3202 13.6341 16.7911 11.13 16.6172 10.3072L16.6171 10.3066C16.5601 10.037 16.2956 9.86511 16.0257 9.92183C15.7561 9.9788 15.5838 10.2439 15.6407 10.5135C15.7341 10.9554 15.9284 11.8749 16.4835 12.9622C16.5808 13.1522 16.6849 13.3388 16.7954 13.5215C12.8991 12.9519 9.57934 11.7382 6.90722 9.90469C7.91852 8.96252 9.69071 7.72604 12.1395 7.56268C12.2537 7.55507 12.3619 7.50841 12.4458 7.43053C12.5296 7.35265 12.5842 7.24829 12.6003 7.13495C12.6164 7.02162 12.5931 6.90618 12.5342 6.80801C12.4753 6.70985 12.3844 6.63492 12.2768 6.5958C12.2254 6.57708 10.9971 6.1364 9.34287 6.05964C7.30719 5.96541 5.51402 6.47036 4.12487 7.52456C2.5195 5.81061 1.59964 4.07323 1.10351 2.88715C0.925214 2.46095 0.970304 1.99524 1.2271 1.60936C1.48568 1.22081 1.90125 0.99802 2.36709 0.99802H13.2407C19.3173 0.99802 23.1527 4.23181 23.1908 4.26441C23.2913 4.34886 23.421 4.39031 23.5518 4.3798C23.6826 4.36928 23.8041 4.30765 23.8898 4.20824C23.9755 4.10883 24.0186 3.97966 24.0097 3.8487C24.0009 3.71774 23.9408 3.59554 23.8425 3.50858C23.8129 3.48301 23.3044 3.04831 22.3752 2.49176C24.0244 1.80831 25.6726 1.46213 27.2846 1.46213C27.2973 1.46213 27.3101 1.46207 27.3225 1.4622C27.4534 1.46027 27.5784 1.40696 27.6703 1.31375C27.7623 1.22055 27.814 1.09493 27.8142 0.963975C27.8144 0.833024 27.7631 0.707242 27.6714 0.613757C27.5797 0.520271 27.455 0.466574 27.324 0.464247ZM14.5495 16.7906C14.3345 16.8095 13.7471 16.6796 12.6964 15.2056C12.2657 14.6013 11.8651 13.9215 11.526 13.2931C12.5034 13.6278 13.5296 13.9104 14.6023 14.1408C14.8549 16.0113 14.6609 16.6769 14.5495 16.7906Z" fill="#BCAD36"/>
<path d="M25.3888 14.8129C24.998 14.381 24.5939 13.9344 24.3334 13.5475C23.4603 12.2507 23.7839 10.8341 23.7868 10.822C23.8031 10.7582 23.8066 10.6918 23.7971 10.6267C23.7876 10.5615 23.7653 10.4989 23.7315 10.4424C23.6977 10.3858 23.6531 10.3366 23.6001 10.2974C23.5472 10.2582 23.4871 10.2299 23.4231 10.2141C23.3592 10.1983 23.2928 10.1953 23.2277 10.2053C23.1626 10.2153 23.1001 10.238 23.0439 10.2723C22.9876 10.3065 22.9387 10.3516 22.9 10.4048C22.8612 10.458 22.8334 10.5184 22.818 10.5824C22.7995 10.6571 22.3786 12.4311 23.5056 14.105C23.8059 14.5511 24.2344 15.0246 24.6487 15.4826C25.0551 15.9317 25.4754 16.3962 25.7387 16.7978C26.0403 17.2577 26.003 17.4291 25.9844 17.4707C25.9656 17.5127 25.8951 17.5443 25.8547 17.5593C25.6151 17.6487 24.6079 17.8355 21.7038 16.4826C21.5838 16.4268 21.4466 16.4208 21.3223 16.4661C21.1979 16.5114 21.0967 16.6043 21.0408 16.7243C20.9849 16.8442 20.979 16.9815 21.0243 17.1058C21.0696 17.2302 21.1624 17.3314 21.2824 17.3873C22.5678 17.9861 24.2094 18.6182 25.4109 18.6182C25.7055 18.6182 25.9737 18.5802 26.2037 18.4943C26.2109 18.4917 26.2174 18.4887 26.2245 18.486C26.5008 19.4076 26.4397 20.4659 26.0397 21.6423C25.8294 22.2612 25.5649 22.7829 25.3706 23.1256C23.8712 22.1163 21.4105 21.3518 17.6905 22.5919C17.1842 22.7607 16.8686 23.2329 16.9052 23.7667C16.9417 24.2995 17.318 24.7233 17.8416 24.8211C19.3573 25.1046 21.4097 25.7897 22.5804 27.444C22.8324 27.8001 22.9971 28.2179 23.0696 28.6857C23.0899 28.8165 23.1613 28.9338 23.268 29.0119C23.3748 29.09 23.5083 29.1226 23.639 29.1023C23.7038 29.0923 23.7659 29.0696 23.8219 29.0356C23.8779 29.0015 23.9266 28.9568 23.9653 28.9039C24.004 28.851 24.0319 28.791 24.0474 28.7273C24.063 28.6636 24.0658 28.5975 24.0557 28.5328C23.9594 27.9109 23.7371 27.3507 23.395 26.8674C22.0312 24.9403 19.722 24.1575 18.0249 23.8401C17.9481 23.8257 17.9062 23.7781 17.9008 23.6984C17.897 23.6428 17.9121 23.57 18.006 23.5388C20.0458 22.8586 22.9495 22.428 25.1984 24.2374C25.2516 24.2802 25.3131 24.3116 25.3789 24.3297C25.4447 24.3478 25.5136 24.3522 25.5812 24.3426C25.6488 24.333 25.7137 24.3097 25.7719 24.274C25.8302 24.2383 25.8804 24.1911 25.9197 24.1352C25.9452 24.0989 26.5492 23.231 26.9753 21.9906C27.526 20.3877 27.5233 18.8887 26.9724 17.639C27.1554 16.7664 26.2955 15.8151 25.3888 14.8129ZM8.17194 3.40153V4.03571C8.17086 4.10192 8.18297 4.16769 8.20756 4.22917C8.23215 4.29066 8.26873 4.34663 8.31517 4.39384C8.36162 4.44104 8.41699 4.47853 8.47806 4.50413C8.53914 4.52972 8.6047 4.5429 8.67092 4.5429C8.73714 4.5429 8.8027 4.52972 8.86377 4.50413C8.92485 4.47853 8.98022 4.44104 9.02666 4.39384C9.0731 4.34663 9.10968 4.29066 9.13428 4.22917C9.15887 4.16769 9.17098 4.10192 9.1699 4.03571V3.40153C9.17098 3.33532 9.15887 3.26956 9.13428 3.20807C9.10968 3.14659 9.0731 3.09061 9.02666 3.0434C8.98022 2.9962 8.92485 2.95871 8.86377 2.93312C8.8027 2.90753 8.73714 2.89435 8.67092 2.89435C8.6047 2.89435 8.53914 2.90753 8.47806 2.93312C8.41699 2.95871 8.36162 2.9962 8.31517 3.0434C8.26873 3.09061 8.23215 3.14659 8.20756 3.20807C8.18297 3.26956 8.17086 3.33532 8.17194 3.40153ZM15.3511 6.84682C15.2519 6.93283 15.1906 7.05445 15.1804 7.18534C15.1703 7.31623 15.2121 7.44585 15.2969 7.54609C15.3817 7.64634 15.5025 7.70915 15.6333 7.7209C15.764 7.73266 15.8942 7.69242 15.9955 7.6089C17.6368 6.22088 16.9445 4.25937 16.9142 4.17656C16.8199 3.91864 16.5355 3.78662 16.2773 3.87959C16.019 3.97243 15.8846 4.25777 15.9759 4.51663C15.9959 4.57334 16.4531 5.91488 15.3511 6.84682ZM17.4883 8.25012C17.6062 8.25023 17.7203 8.2084 17.8102 8.13211C19.4516 6.74416 18.7593 4.78258 18.729 4.69971C18.6818 4.5778 18.5887 4.47928 18.4696 4.42532C18.3506 4.37136 18.2151 4.36627 18.0923 4.41114C17.9695 4.45602 17.8692 4.54728 17.813 4.66531C17.7568 4.78333 17.7492 4.91869 17.7917 5.0423C17.7967 5.05604 18.281 6.427 17.1659 7.3699C17.1158 7.41222 17.0746 7.46397 17.0446 7.52222C17.0146 7.58046 16.9963 7.64405 16.9908 7.70935C16.9854 7.77465 16.9928 7.84039 17.0128 7.90281C17.0327 7.96523 17.0648 8.02311 17.1071 8.07314C17.1539 8.1287 17.2122 8.17333 17.2781 8.2039C17.3439 8.23448 17.4157 8.25025 17.4883 8.25012ZM19.3032 8.77333C19.4211 8.77344 19.5352 8.73164 19.6251 8.6554C21.2665 7.26737 20.5742 5.30586 20.5439 5.22306C20.5217 5.1611 20.4875 5.10414 20.4432 5.05546C20.3989 5.00678 20.3454 4.96734 20.2859 4.93942C20.2263 4.91149 20.1617 4.89563 20.096 4.89274C20.0303 4.88985 19.9646 4.9 19.9028 4.9226C19.841 4.94519 19.7842 4.97979 19.7359 5.0244C19.6875 5.06901 19.6484 5.12275 19.6209 5.18253C19.5934 5.2423 19.5779 5.30693 19.5755 5.3727C19.573 5.43846 19.5836 5.50406 19.6066 5.56571C19.6116 5.57946 20.0959 6.95035 18.9808 7.89332C18.9307 7.93563 18.8895 7.98739 18.8595 8.04563C18.8294 8.10387 18.8112 8.16746 18.8057 8.23277C18.8003 8.29807 18.8077 8.36381 18.8277 8.42623C18.8476 8.48865 18.8797 8.54653 18.922 8.59656C18.9688 8.65205 19.0271 8.69663 19.093 8.72717C19.1588 8.75771 19.2306 8.77347 19.3032 8.77333Z" fill="#BCAD36"/>
</g>
<defs>
<clipPath id="clip0_164_11239">
<rect width="34" height="34" fill="white"/>
</clipPath>
</defs>
</svg>
