<svg width="34" height="34" viewBox="0 0 34 34" fill="none" xmlns="http://www.w3.org/2000/svg">
<g clip-path="url(#clip0_164_11261)">
<path d="M24.9298 10.767V9.63361C24.927 7.131 22.8989 5.10295 20.3963 5.1001H13.596C11.0934 5.10289 9.06536 7.131 9.0625 9.63361V10.767C9.06529 13.2696 11.0934 15.2977 13.596 15.3005H20.3963C22.8989 15.2977 24.927 13.2696 24.9298 10.767ZM20.3963 14.1671H13.5961C11.719 14.1653 10.1978 12.644 10.196 10.767V9.63361C10.1978 7.75657 11.719 6.23535 13.5961 6.23349H20.3963C22.2734 6.23535 23.7946 7.75657 23.7964 9.63361V10.767C23.7946 12.6441 22.2734 14.1653 20.3963 14.1671Z" fill="#15357E"/>
<path d="M13.6027 8.50031C12.3508 8.50031 11.3359 9.51516 11.3359 10.767C11.3359 10.9173 11.3956 11.0615 11.5019 11.1677C11.6082 11.274 11.7523 11.3337 11.9026 11.3337C12.0529 11.3337 12.197 11.274 12.3033 11.1677C12.4096 11.0615 12.4693 10.9173 12.4693 10.767C12.4693 10.1411 12.9767 9.63363 13.6027 9.63363C14.2286 9.63363 14.7361 10.1411 14.7361 10.767C14.7361 10.9173 14.7958 11.0615 14.902 11.1677C15.0083 11.274 15.1524 11.3337 15.3027 11.3337C15.453 11.3337 15.5971 11.274 15.7034 11.1677C15.8097 11.0615 15.8694 10.9173 15.8694 10.767C15.8694 9.51516 14.8545 8.50031 13.6027 8.50031ZM20.4029 8.50031C19.151 8.50031 18.1362 9.51516 18.1362 10.767C18.1362 10.9173 18.1959 11.0615 18.3021 11.1677C18.4084 11.274 18.5526 11.3337 18.7028 11.3337C18.8531 11.3337 18.9973 11.274 19.1035 11.1677C19.2098 11.0615 19.2695 10.9173 19.2695 10.767C19.2695 10.1411 19.7769 9.63363 20.4029 9.63363C21.0289 9.63363 21.5363 10.1411 21.5363 10.767C21.5363 10.9173 21.596 11.0615 21.7023 11.1677C21.8085 11.274 21.9527 11.3337 22.103 11.3337C22.2532 11.3337 22.3974 11.274 22.5037 11.1677C22.6099 11.0615 22.6696 10.9173 22.6696 10.767C22.6696 9.51516 21.6548 8.50031 20.4029 8.50031ZM18.275 19.8341H15.7305C15.4311 19.8337 15.1379 19.9197 14.8861 20.0817C14.6343 20.2437 14.4346 20.4749 14.3108 20.7475C14.187 21.0202 14.1444 21.3227 14.1882 21.6189C14.2319 21.9151 14.3602 22.1924 14.5575 22.4176L15.7815 23.8139C15.9339 23.9879 16.1217 24.1272 16.3323 24.2227C16.5429 24.3182 16.7715 24.3676 17.0027 24.3676C17.234 24.3676 17.4625 24.3182 17.6731 24.2227C17.8837 24.1272 18.0715 23.9879 18.2239 23.8139L19.4479 22.4176C19.6453 22.1924 19.7735 21.9151 19.8172 21.6189C19.861 21.3227 19.8184 21.0202 19.6947 20.7476C19.5709 20.4749 19.3711 20.2438 19.1193 20.0817C18.8675 19.9197 18.5744 19.8337 18.275 19.8341ZM18.5963 21.6701L17.3717 23.067C17.3248 23.1179 17.2678 23.1586 17.2044 23.1863C17.141 23.2141 17.0725 23.2285 17.0033 23.2285C16.9341 23.2285 16.8656 23.2141 16.8022 23.1863C16.7388 23.1586 16.6819 23.1179 16.6349 23.067L15.4092 21.6701C15.3555 21.6087 15.3208 21.5331 15.309 21.4523C15.2973 21.3716 15.3091 21.2892 15.343 21.2151C15.3769 21.1409 15.4315 21.0781 15.5002 21.0341C15.569 20.9902 15.6489 20.967 15.7305 20.9674H18.2749C18.3565 20.967 18.4364 20.9902 18.5052 21.0341C18.5739 21.078 18.6285 21.1408 18.6624 21.215C18.6964 21.2892 18.7082 21.3716 18.6965 21.4523C18.6848 21.5331 18.65 21.6087 18.5963 21.6701Z" fill="#15357E"/>
<path d="M3.39848 30.0344C3.39157 31.3687 4.31644 32.527 5.61918 32.8155C6.92192 33.1041 8.24936 32.4446 8.80653 31.2322C9.36369 30.0198 8.99944 28.583 7.93199 27.7824V24.3676H8.81489C9.14509 25.5533 9.72847 26.6533 10.5248 27.5918C11.3212 28.5303 12.3115 29.285 13.4277 29.8038L13.7343 31.3225C14.0448 32.8792 15.4113 34 16.9987 34C18.5861 34 19.9525 32.8792 20.2631 31.3225L20.5702 29.8009C21.6859 29.2822 22.676 28.5278 23.4723 27.5899C24.2686 26.6519 24.8522 25.5526 25.183 24.3675H26.0659V27.7824C25.0902 28.5141 24.6923 29.7881 25.078 30.9451C25.4637 32.1022 26.5464 32.8825 27.766 32.8825C28.9856 32.8825 30.0684 32.1021 30.454 30.9451C30.8397 29.7881 30.4417 28.5141 29.466 27.7824V23.5843C29.8292 23.1753 30.0306 22.6478 30.0327 22.1008V21.5341C30.0308 19.9701 28.7634 18.7026 27.1992 18.7007H24.7829C24.6069 18.4498 24.4025 18.22 24.1737 18.0161C25.9475 17.5818 27.1961 15.9934 27.1992 14.1672V13.5495C28.8403 13.2748 30.0405 11.8513 30.0341 10.1873C30.0277 8.52341 28.8164 7.1093 27.1732 6.84732C26.8986 2.9939 23.6955 0.00624241 19.8323 0H14.1655C10.3024 0.00624241 7.09936 2.9939 6.82463 6.84726C5.18141 7.10924 3.97019 8.52334 3.96368 10.1873C3.95724 11.8512 5.15744 13.2747 6.79853 13.5495V14.1671C6.80165 15.9933 8.05026 17.5817 9.82404 18.0161C9.59527 18.22 9.39086 18.4497 9.21487 18.7006H6.7986C5.23454 18.7024 3.96707 19.9699 3.96514 21.534V22.1007C3.9672 22.6477 4.16867 23.1752 4.5318 23.5843V27.7823C4.18116 28.0441 3.89623 28.3838 3.69953 28.7747C3.50283 29.1656 3.39976 29.5968 3.39848 30.0344ZM6.23187 31.7345C5.29298 31.7345 4.5318 30.9733 4.5318 30.0344C4.5318 29.0955 5.29298 28.3344 6.23187 28.3344C7.17075 28.3344 7.93192 29.0955 7.93192 30.0344C7.93192 30.9733 7.17082 31.7345 6.23187 31.7345ZM24.3659 20.9674V22.1008C24.3662 23.8574 23.7355 25.5558 22.5887 26.8864C20.7818 26.3138 18.8941 26.0372 16.9989 26.0676C15.1036 26.0372 13.216 26.3137 11.4091 26.8864C10.2623 25.5558 9.6316 23.8574 9.63192 22.1008V20.9674C9.63378 19.4033 10.9013 18.1359 12.4654 18.1339H21.5323C23.0965 18.1359 24.364 19.4033 24.3659 20.9674ZM16.999 29.4677C15.2928 29.4693 13.6395 28.8759 12.3238 27.7897C13.8478 27.3798 15.4209 27.1817 16.999 27.201C18.577 27.1817 20.1501 27.3798 21.6741 27.7897C20.3584 28.876 18.7051 29.4693 16.999 29.4677ZM19.1523 31.1037C18.9467 32.1303 18.0448 32.8689 16.9978 32.8683C15.9508 32.8676 15.0499 32.1277 14.8455 31.1009L14.6755 30.2707C16.1916 30.7112 17.8017 30.7112 19.3178 30.2707L19.1523 31.1037ZM27.766 31.7345C26.8271 31.7345 26.0659 30.9733 26.0659 30.0344C26.0659 29.0955 26.8271 28.3344 27.766 28.3344C28.7049 28.3344 29.466 29.0955 29.466 30.0344C29.466 30.9733 28.7049 31.7345 27.766 31.7345ZM27.766 27.201C27.5757 27.2008 27.3858 27.2197 27.1993 27.2576V24.3675H27.766C27.9575 24.3651 28.148 24.3381 28.3326 24.287V27.2576C28.1461 27.2197 27.9563 27.2008 27.766 27.201ZM27.1993 19.8341C28.1382 19.8341 28.8994 20.5952 28.8994 21.5341V22.1008C28.8994 22.7267 28.3919 23.2342 27.766 23.2342H25.4148C25.4682 22.8587 25.4964 22.48 25.4992 22.1008V20.9674C25.498 20.5833 25.4408 20.2015 25.3292 19.834H27.1993V19.8341ZM28.8994 10.2004C28.8978 11.2336 28.1993 12.1356 27.1993 12.3957V8.00502C28.1993 8.26508 28.8978 9.16711 28.8994 10.2004ZM5.09854 10.2004C5.10006 9.16711 5.79862 8.26508 6.7986 8.00502V12.3957C5.79862 12.1356 5.10006 11.2336 5.09854 10.2004ZM10.7654 17.0006C9.20132 16.9987 7.93385 15.7313 7.93192 14.1671V7.3669C7.93598 3.92588 10.7245 1.13738 14.1655 1.13333H19.8323C23.2734 1.13738 26.0619 3.92588 26.0659 7.3669V14.1671C26.0641 15.7312 24.7966 16.9987 23.2325 17.0006H10.7654ZM5.09854 21.5341C5.09854 20.5952 5.85971 19.8341 6.7986 19.8341H8.66866C8.55707 20.2015 8.4998 20.5834 8.49866 20.9674V22.1008C8.50144 22.48 8.52967 22.8587 8.58306 23.2342H6.23187C5.6059 23.2342 5.09847 22.7267 5.09847 22.1008L5.09854 21.5341ZM5.6652 24.2871C5.84986 24.3381 6.04031 24.3651 6.23187 24.3676H6.79853V27.2577C6.42458 27.1814 6.03908 27.1814 5.66513 27.2577L5.6652 24.2871Z" fill="#15357E"/>
</g>
<defs>
<clipPath id="clip0_164_11261">
<rect width="34" height="34" fill="white"/>
</clipPath>
</defs>
</svg>
